<svg xmlns="http://www.w3.org/2000/svg" width="176.71" height="150.139" viewBox="0 0 176.71 150.139">
  <g id="Group_13027" data-name="Group 13027" transform="translate(-575.29 -3211.412)">
    <g id="Group_4781" data-name="Group 4781" transform="translate(575.291 3211.412)">
      <ellipse id="Ellipse_181" data-name="Ellipse 181" cx="88.355" cy="1.914" rx="88.355" ry="1.914" transform="translate(0 146.312)" fill="#790fa5"/>
      <g id="Group_4766" data-name="Group 4766" transform="translate(12.073 0)">
        <rect id="Rectangle_362" data-name="Rectangle 362" width="55.118" height="147.862" transform="translate(47.686)" fill="#77310e"/>
        <rect id="Rectangle_363" data-name="Rectangle 363" width="47.831" height="144.035" transform="translate(51.035 3.828)" fill="#1e202d"/>
        <g id="Group_4761" data-name="Group 4761">
          <rect id="Rectangle_364" data-name="Rectangle 364" width="51.035" height="147.862" fill="#823a11"/>
          <rect id="Rectangle_365" data-name="Rectangle 365" width="51.035" height="8.472" transform="translate(0 139.39)" fill="#ff9312"/>
          <rect id="Rectangle_366" data-name="Rectangle 366" width="43.03" height="131.815" transform="translate(3.938 3.828)" fill="#3d2e60"/>
          <path id="Path_8850" data-name="Path 8850" d="M969.182-9.15H934.6l1.752,115.425H967.43Z" transform="translate(-926.44 21.173)" fill="#48377c"/>
          <path id="Path_8851" data-name="Path 8851" d="M937.3-6.389l.718,37.559c17.24-.988,28.269-12.114,30.382-37.8Z" transform="translate(-927.41 20.264)" fill="#554599"/>
          <path id="Path_8852" data-name="Path 8852" d="M971.342,110.17H926.876V-23.08h44.466Zm-43.03-1.436h41.594V-21.645H928.312Z" transform="translate(-923.656 26.19)" fill="#aa6213"/>
          <g id="Group_4758" data-name="Group 4758" transform="translate(3.621 3.509)">
            <path id="Path_8853" data-name="Path 8853" d="M963.448,109.963h-9.57a.478.478,0,0,1-.479-.478V-21.978a.478.478,0,0,1,.479-.479h9.57a.478.478,0,0,1,.478.479V109.485A.478.478,0,0,1,963.448,109.963Zm-9.091-.957h8.612V-21.5h-8.612Z" transform="translate(-936.831 22.457)" fill="#ffa131"/>
            <path id="Path_8854" data-name="Path 8854" d="M970.691,90.082H927.98a.477.477,0,0,1-.477-.477V80.037a.477.477,0,0,1,.477-.477h42.712a.477.477,0,0,1,.477.477v9.569A.477.477,0,0,1,970.691,90.082Zm-42.235-.953h41.758V80.513H928.456Z" transform="translate(-927.503 -14.289)" fill="#ffa131"/>
            <path id="Path_8855" data-name="Path 8855" d="M954.69,93.167a12.32,12.32,0,1,1,12.321-12.32A12.334,12.334,0,0,1,954.69,93.167Zm0-23.683a11.363,11.363,0,1,0,11.364,11.363A11.376,11.376,0,0,0,954.69,69.484Z" transform="translate(-932.858 -10.315)" fill="#ffa131"/>
            <ellipse id="Ellipse_182" data-name="Ellipse 182" cx="8.373" cy="8.373" rx="8.373" ry="8.373" transform="translate(13.459 62.159)" fill="#ffa131"/>
            <path id="Path_8856" data-name="Path 8856" d="M949.835,83.536a7.488,7.488,0,0,0,.083,1.058,7.5,7.5,0,0,0,9.42-8.336,7.52,7.52,0,0,0-9.5,7.278Z" transform="translate(-935.547 -13.004)" fill="#ffd56e"/>
          </g>
          <g id="Group_4760" data-name="Group 4760" transform="translate(47.064 55.557)">
            <g id="Group_4759" data-name="Group 4759">
              <path id="Path_8857" data-name="Path 8857" d="M998.672,60.528a1.635,1.635,0,1,1-1.635-1.635A1.634,1.634,0,0,1,998.672,60.528Z" transform="translate(-995.403 -58.893)" fill="#ffa131"/>
              <circle id="Ellipse_183" data-name="Ellipse 183" cx="1.635" cy="1.635" r="1.635" transform="translate(0 29.361)" fill="#ffa131"/>
            </g>
            <path id="Path_8858" data-name="Path 8858" d="M997.56,91.118a.708.708,0,0,1-.708-.708V61.049a.708.708,0,1,1,1.415,0V90.411A.708.708,0,0,1,997.56,91.118Z" transform="translate(-995.925 -59.415)" fill="#ffd56e"/>
          </g>
        </g>
        <g id="Group_4765" data-name="Group 4765" transform="translate(100.536)">
          <rect id="Rectangle_367" data-name="Rectangle 367" width="51.035" height="147.862" transform="translate(0.992)" fill="#823a11"/>
          <rect id="Rectangle_368" data-name="Rectangle 368" width="51.035" height="8.472" transform="translate(0.992 139.39)" fill="#ff9312"/>
          <rect id="Rectangle_369" data-name="Rectangle 369" width="43.03" height="131.815" transform="translate(4.93 3.828)" fill="#3d2e60"/>
          <path id="Path_8859" data-name="Path 8859" d="M1127.868-9.15H1093.29l1.752,115.425h31.073Z" transform="translate(-1084.134 21.173)" fill="#48377c"/>
          <path id="Path_8860" data-name="Path 8860" d="M1095.984-6.389l.718,37.559c17.24-.988,28.269-12.114,30.382-37.8Z" transform="translate(-1085.104 20.264)" fill="#554599"/>
          <path id="Path_8861" data-name="Path 8861" d="M1130.029,110.17h-44.466V-23.08h44.466ZM1087,108.734h41.594V-21.645H1087Z" transform="translate(-1081.351 26.19)" fill="#aa6213"/>
          <g id="Group_4763" data-name="Group 4763" transform="translate(48.056 55.557)">
            <g id="Group_4762" data-name="Group 4762">
              <path id="Path_8862" data-name="Path 8862" d="M1157.358,60.528a1.635,1.635,0,1,1-1.635-1.635A1.635,1.635,0,0,1,1157.358,60.528Z" transform="translate(-1154.089 -58.893)" fill="#ffa131"/>
              <ellipse id="Ellipse_184" data-name="Ellipse 184" cx="1.635" cy="1.635" rx="1.635" ry="1.635" transform="translate(0 29.361)" fill="#ffa131"/>
            </g>
            <path id="Path_8863" data-name="Path 8863" d="M1156.247,91.118a.708.708,0,0,1-.708-.708V61.049a.707.707,0,1,1,1.415,0V90.411A.708.708,0,0,1,1156.247,91.118Z" transform="translate(-1154.611 -59.415)" fill="#ffd56e"/>
          </g>
          <g id="Group_4764" data-name="Group 4764" transform="translate(0 18.63)">
            <rect id="Rectangle_370" data-name="Rectangle 370" width="1.914" height="11.004" transform="translate(0 0)" fill="#ff9312"/>
            <rect id="Rectangle_371" data-name="Rectangle 371" width="1.914" height="11.004" transform="translate(0 99.599)" fill="#ff9312"/>
          </g>
        </g>
      </g>
      <g id="Group_4780" data-name="Group 4780" transform="translate(79.47 22.974)">
        <g id="Group_4768" data-name="Group 4768" transform="translate(0 22.296)">
          <path id="Path_8864" data-name="Path 8864" d="M1038.372,52.155l2.535,3.325-2.9,2.221-1.739-4.453Z" transform="translate(-1030.455 -46.179)" fill="#f4be84"/>
          <g id="Group_4767" data-name="Group 4767">
            <path id="Path_8865" data-name="Path 8865" d="M1033.874,50.717l1.226-1.926a7.662,7.662,0,0,0-.66-2.125c-.319-.672-2.163-2.849-2.451-2.7-.663.348,1.141,1.841.894,2.042-.585-.581-4.044-3.5-4.442-3.17-.5.417,2.661,2.6,2.535,2.741-.25.28-3.113-2.9-3.516-2.43s3,2.944,2.847,3.2-2.8-2.829-3.093-2.378c-.374.57,2.868,3.072,2.54,3.284-.139.091-2.006-2.317-2.221-1.951-.2.348.611,1.575,1.969,2.71A31.443,31.443,0,0,0,1033.874,50.717Z" transform="translate(-1027.183 -42.814)" fill="#f4be84"/>
          </g>
        </g>
        <path id="Path_8866" data-name="Path 8866" d="M1091.087,199.3s-.017,1.223-1.814,1.927-2.891.545-2.812,1.015,6.8.234,6.8-.312-.63-1.576-.842-2.811S1091.087,199.3,1091.087,199.3Z" transform="translate(-1048.533 -76.637)" fill="#2d313d"/>
        <path id="Path_8867" data-name="Path 8867" d="M1099.265,199.205a14.078,14.078,0,0,1-.625,2.891c-.052.469,4.374.52,4.479,0,.146-.727-2.312-1.279-2.471-2.891C1100.5,197.694,1099.265,199.205,1099.265,199.205Z" transform="translate(-1052.921 -76.607)" fill="#2d313d"/>
        <path id="Path_8868" data-name="Path 8868" d="M1065.209,51.182c-4.765,2.085-12.884,9.349-15.858,9.679-2.681.3-11.615-10.348-11.615-10.348l-4.392,3.834s9.007,16.268,15.112,17.012c9.915,1.209,21.219-12.731,21.219-12.731S1069.973,49.1,1065.209,51.182Z" transform="translate(-1029.402 -23.291)" fill="#363c4f"/>
        <path id="Path_8869" data-name="Path 8869" d="M1087.048,165.934h-3.3L1072.267,117.3h-1.724l12.488,48.778H1080.3s-20.087-41.663-21.846-59.692l25.663-.171S1084.19,127.477,1087.048,165.934Z" transform="translate(-1038.447 -43.355)" fill="#323749"/>
        <path id="Path_8870" data-name="Path 8870" d="M1086.849,152.606h8.514l.224,4.1a11.96,11.96,0,0,0-7.733,0Z" transform="translate(-1048.674 -60.064)" fill="#2c303f"/>
        <path id="Path_8871" data-name="Path 8871" d="M1097.337,116.374c0,19.13,3.026,52.949,3.051,53.219h.665c-1.937-26.065-2.594-44.219-2.816-53.219Z" transform="translate(-1052.452 -47.014)" fill="#9e1b25"/>
        <rect id="Rectangle_372" data-name="Rectangle 372" width="6.81" height="5.044" transform="translate(24.222 60.346)" fill="#e5d3bd"/>
        <path id="Path_8872" data-name="Path 8872" d="M1079.36,49.788a9.655,9.655,0,0,0-6.175,1.093c-6.486,3.131-13.994,12-15.892,24.787-2.869,13.243,6.373,39.848,6.958,39.822h21.776s.6-28.311,1.9-38.863c.822-6.655,3.648-19.878,3.648-19.878S1088.93,51.983,1079.36,49.788Z" transform="translate(-1037.83 -22.975)" fill="#3d4359"/>
        <path id="Path_8873" data-name="Path 8873" d="M1100.393,78.609c.822-6.655,3.647-19.878,3.647-19.878a11.882,11.882,0,0,0-3.83-3.593c-8.829,17.068-9.419,43.136-8.581,62.333h6.864S1099.089,89.16,1100.393,78.609Z" transform="translate(-1050.296 -24.957)" fill="#2f2842" opacity="0.2" style="mix-blend-mode: multiply;isolation: isolate"/>
        <path id="Path_8874" data-name="Path 8874" d="M1065.734,91.4s-2.233,5.137-.3,17.906a64.291,64.291,0,0,0,6.067,19.691h-.782a74.125,74.125,0,0,1-6.1-19.58c-1.591-10.1-.6-17.868,2.159-22.6Z" transform="translate(-1040.393 -36.368)" fill="#323749"/>
        <g id="Group_4770" data-name="Group 4770" transform="translate(25.192 23.903)">
          <path id="Path_8875" data-name="Path 8875" d="M1079.112,50.81a26.372,26.372,0,0,0-4.835,16.263s13.3-5.9,18.486-14.755C1088.982,50.142,1080.251,50.983,1079.112,50.81Z" transform="translate(-1069.324 -47.294)" fill="#e5d3bd"/>
          <path id="Path_8876" data-name="Path 8876" d="M1078.682,66.763a35.375,35.375,0,0,1,4.17-10.012l-1.1-.468a37.2,37.2,0,0,0-7.326,8.555,22.953,22.953,0,0,0-.148,4.214S1076.112,68.238,1078.682,66.763Z" transform="translate(-1069.325 -49.273)" fill="#333a4f"/>
          <path id="Path_8877" data-name="Path 8877" d="M1086.667,52.152l1.548.317.008,1.518-1.229,1.277-1.254-.319.055-1.536Z" transform="translate(-1073.467 -47.784)" fill="#333a4f"/>
          <path id="Path_8878" data-name="Path 8878" d="M1072.268,66.179A26.356,26.356,0,0,1,1076.975,50a11.149,11.149,0,0,0,1.313.017c.145-.933.122-1.5-.157-1.481-1.564.111-7.594,4.69-8.152,7.035,0,0-.893,11.949-1.675,18.984l5.025-8.04s.131-.372.345-.993C1072.719,66,1072.268,66.179,1072.268,66.179Z" transform="translate(-1067.187 -46.481)" fill="#9e1b25"/>
          <g id="Group_4769" data-name="Group 4769" transform="translate(1.787 2.053)">
            <path id="Path_8879" data-name="Path 8879" d="M1071.7,55.57c.511-2.148,5.6-6.159,7.659-6.906a.18.18,0,0,0-.177-.129c-1.564.111-7.594,4.69-8.152,7.035,0,0-.893,11.949-1.675,18.984l.809-1.295C1070.905,66.149,1071.7,55.571,1071.7,55.57Z" transform="translate(-1069.351 -48.534)" fill="#ffe08a"/>
          </g>
          <path id="Path_8880" data-name="Path 8880" d="M1086.672,52.152l1.548.317.008,1.518L1087,55.263l-1.244-.344s1.523-.235,1.836-1.171S1086.672,52.152,1086.672,52.152Z" transform="translate(-1073.473 -47.785)" fill="#333a4f" opacity="0.2" style="mix-blend-mode: multiply;isolation: isolate"/>
          <path id="Path_8881" data-name="Path 8881" d="M1094.468,48.371c-.109,1.456-2.466,2.466-5.263,2.257s-4.976-1.561-4.868-3.018,2.466-2.466,5.264-2.257S1094.578,46.915,1094.468,48.371Z" transform="translate(-1072.961 -45.326)" fill="#c97547"/>
          <path id="Path_8882" data-name="Path 8882" d="M1074.284,69.136a43.048,43.048,0,0,0,4.4-2.289,38.323,38.323,0,0,1,4.17-10.012l-1.254-.319s.372,1.256-1.971,6.269c-1.5,3.2-5.35,3.719-5.35,3.719S1074.223,68.3,1074.284,69.136Z" transform="translate(-1069.331 -49.356)" fill="#333a4f" opacity="0.2" style="mix-blend-mode: multiply;isolation: isolate"/>
          <path id="Path_8883" data-name="Path 8883" d="M1071.511,66.8s-4.618,2.319-4.953,11.755c9.065-10.308,19.3-14.558,22.15-16.453,1.786-1.191,2.558-8.98,2.558-8.98a6.691,6.691,0,0,0-2.764-3.1c-.044.1.9,1.737.835,1.88a18.719,18.719,0,0,1-4.687,6.16A69.347,69.347,0,0,1,1071.511,66.8Z" transform="translate(-1066.558 -47.016)" fill="#b52128"/>
          <path id="Path_8884" data-name="Path 8884" d="M1096.637,48.563l1,2.811-7.648,4.708-.384-4.907Z" transform="translate(-1074.86 -46.492)" fill="#f7eee2"/>
          <path id="Path_8885" data-name="Path 8885" d="M1083.175,47.689l-1.318,2,.262,4.679,3.149-3.828Z" transform="translate(-1072.069 -46.177)" fill="#f7eee2"/>
          <path id="Path_8886" data-name="Path 8886" d="M1088.441,62.564c1.8-1.18,2.574-8.965,2.574-8.965-.042-.106-.1-.212-.152-.319-.1-.163-.216-.322-.334-.478-.249,2.149-1.057,8.069-2.52,9.032-2.747,1.809-12.363,5.785-21.189,15.226-.053.4-.1.82-.134,1.256C1075.671,68.486,1085.634,64.407,1088.441,62.564Z" transform="translate(-1066.604 -48.019)" fill="#ffeaa9"/>
        </g>
        <g id="Group_4777" data-name="Group 4777" transform="translate(33.871)">
          <path id="Path_8887" data-name="Path 8887" d="M1106.775,39.272s-1.116,2.754-2.456,2.9l.521-3.649Z" transform="translate(-1088.838 -18.974)" fill="#8f4817"/>
          <path id="Path_8888" data-name="Path 8888" d="M1085.079,30.887l-.962-.32s.911-2.026,1.585-3.949c.851-2.426,1.01-4.154,1.393-4.467a2.684,2.684,0,0,1,2.711-.226C1090.8,23.132,1089.145,34.157,1085.079,30.887Z" transform="translate(-1081.561 -12.897)" fill="#995221"/>
          <path id="Path_8889" data-name="Path 8889" d="M1106.337,22.606c-4.08,4.715-17.833-1.31-19.386-7.847-.815-3.431,3.234-7.595,9.067-6.659C1103.978,9.376,1109.115,19.4,1106.337,22.606Z" transform="translate(-1082.545 -7.966)" fill="#b52128"/>
          <path id="Path_8890" data-name="Path 8890" d="M1101.862,11.464c2.678,3.4,3.708,7.5,2.108,9.35-2.765,3.2-9.968,1.456-14.81-2.029,3.952,5.285,14.52,9.116,18.011,5.081C1109.3,21.4,1106.763,14.916,1101.862,11.464Z" transform="translate(-1083.377 -9.226)" fill="#9e1b25"/>
          <path id="Path_8891" data-name="Path 8891" d="M1097.212,8.1a8.736,8.736,0,0,0-7.051,1.715,8.811,8.811,0,0,1,6.754-1.492c7.959,1.276,13.1,11.3,10.319,14.507a4.088,4.088,0,0,1-.583.541,4.171,4.171,0,0,0,.88-.765C1110.309,19.4,1105.172,9.376,1097.212,8.1Z" transform="translate(-1083.738 -7.966)" fill="#9e1b25"/>
          <path id="Path_8892" data-name="Path 8892" d="M1096.378,32.563c-.968,3.1-3.055,6.124-7.855,6.413-4.267.257-7.942-1.737-8.359-4.954-.376-2.9,1.88-4.356,3.957-8.361,1.358-2.619,1.676-5.96,3.884-7.737,1.111-.894,2.537-1.36,4.93-.9C1100.033,18.378,1097.554,28.8,1096.378,32.563Z" transform="translate(-1080.122 -11.164)" fill="#f4be84"/>
          <path id="Path_8893" data-name="Path 8893" d="M1093.008,17.056c-.283-.054-.542-.086-.8-.116,5.294,2.024,3.069,11.55,2.041,14.839-2.824,9.041-12.25,6.286-13.921,2.77.674,2.93,4.224,4.7,8.269,4.461,4.8-.289,6.888-3.316,7.855-6.412C1097.629,28.831,1100.107,18.413,1093.008,17.056Z" transform="translate(-1080.197 -11.199)" fill="#e2a36a"/>
          <path id="Path_8894" data-name="Path 8894" d="M1090.3,29.851c.518,1.631.07,3.2-1.519,3.238-1.053.029-1.486.26-1.525.8a1.341,1.341,0,0,0,.91,1.3c.646.324,1.553.5,1.608.363,0-.012-2.143-.491-1.915-1.539.1-.467.827-.328,1.557-.56A2.192,2.192,0,0,0,1090.3,29.851Z" transform="translate(-1082.69 -15.849)" fill="#c47b49"/>
          <path id="Path_8895" data-name="Path 8895" d="M1103.855,33.287l-1.463-.1a26.65,26.65,0,0,0,.876-4.216c.3-2.553.006-4.241.3-4.642a2.681,2.681,0,0,1,2.563-.913C1107.393,24.327,1108.623,35.407,1103.855,33.287Z" transform="translate(-1088.144 -13.497)" fill="#8f4817"/>
          <path id="Path_8896" data-name="Path 8896" d="M1107.64,37.364a1.537,1.537,0,1,1-1.7-1.352A1.537,1.537,0,0,1,1107.64,37.364Z" transform="translate(-1088.93 -18.065)" fill="#e2a36a"/>
          <g id="Group_4771" data-name="Group 4771" transform="translate(10.692 12.202)">
            <path id="Path_8897" data-name="Path 8897" d="M1096.833,28.318a3.848,3.848,0,0,1,2.76,2.42l.667-.425a3.131,3.131,0,0,0-2.665-3.275Z" transform="translate(-1096.833 -27.038)" fill="#995221"/>
            <path id="Path_8898" data-name="Path 8898" d="M1097.079,28.392l-.246.413a3.848,3.848,0,0,1,2.76,2.42l.349-.223A4.251,4.251,0,0,0,1097.079,28.392Z" transform="translate(-1096.833 -27.526)" fill="#8f4817"/>
          </g>
          <g id="Group_4772" data-name="Group 4772" transform="translate(3.979 11.223)">
            <path id="Path_8899" data-name="Path 8899" d="M1089.775,27.039a3.429,3.429,0,0,0-3.033.771l-.4-.637s.462-2.1,3.336-1.584Z" transform="translate(-1086.342 -25.507)" fill="#995221"/>
            <path id="Path_8900" data-name="Path 8900" d="M1086.57,27.97l.255.406a3.429,3.429,0,0,1,3.033-.771l-.03-.444A3.774,3.774,0,0,0,1086.57,27.97Z" transform="translate(-1086.424 -26.073)" fill="#8f4817"/>
          </g>
          <g id="Group_4773" data-name="Group 4773" transform="translate(2.769 20.752)">
            <path id="Path_8901" data-name="Path 8901" d="M1084.73,40.589l6.238,1.387s-1.62,2.044-3.723,1.576S1084.73,40.589,1084.73,40.589Z" transform="translate(-1084.551 -40.468)" fill="#6d3a31"/>
            <path id="Path_8902" data-name="Path 8902" d="M1086,41.207l4.914,1.1s-1.481.516-4.673-.475Z" transform="translate(-1085.007 -40.691)" fill="#f7eee2"/>
            <path id="Path_8903" data-name="Path 8903" d="M1090.7,43.97a3.4,3.4,0,0,1-2.66.62,2.782,2.782,0,0,1-1.1-.516A3.546,3.546,0,0,1,1090.7,43.97Z" transform="translate(-1085.348 -41.506)" fill="#994239" opacity="0.5" style="mix-blend-mode: screen;isolation: isolate"/>
            <path id="Path_8904" data-name="Path 8904" d="M1094.358,42.592c-.079.022-.188.112-.173.143s.173.045.252.024.1-.071.079-.117A.124.124,0,0,0,1094.358,42.592Z" transform="translate(-1087.956 -41.187)" fill="#6d3a31"/>
            <path id="Path_8905" data-name="Path 8905" d="M1084.507,40.565c.066.048.221.089.245.065s-.049-.147-.115-.194a.124.124,0,0,0-.165-.007C1084.437,40.464,1084.441,40.517,1084.507,40.565Z" transform="translate(-1084.45 -40.4)" fill="#6d3a31"/>
          </g>
          <g id="Group_4774" data-name="Group 4774" transform="translate(9.627 15.428)">
            <path id="Path_8906" data-name="Path 8906" d="M1095.279,33.355c-.485-.91.75-1.456,1.568-1.219a2.1,2.1,0,0,1,1.41,1.754l-.189.059A14.869,14.869,0,0,1,1095.279,33.355Z" transform="translate(-1095.17 -32.08)" fill="#6d3a31"/>
            <path id="Path_8907" data-name="Path 8907" d="M1095.357,33.595a1.184,1.184,0,0,1,1.324-.979,1.832,1.832,0,0,1,1.443,1.589C1098.062,34.44,1095.636,34.832,1095.357,33.595Z" transform="translate(-1095.237 -32.268)" fill="#ffe4cb"/>
            <path id="Path_8908" data-name="Path 8908" d="M1097.348,33.9a.926.926,0,1,1-.279-1.279A.926.926,0,0,1,1097.348,33.9Z" transform="translate(-1095.34 -32.222)" fill="#6d3a31"/>
          </g>
          <g id="Group_4775" data-name="Group 4775" transform="translate(4.044 14.093)">
            <path id="Path_8909" data-name="Path 8909" d="M1086.55,31.236c-.473-.887.731-1.42,1.528-1.189a1.717,1.717,0,0,1,1.209,1.6l-.184.057A12.452,12.452,0,0,1,1086.55,31.236Z" transform="translate(-1086.443 -29.994)" fill="#6d3a31"/>
            <path id="Path_8910" data-name="Path 8910" d="M1086.625,31.47a1.154,1.154,0,0,1,1.291-.954,1.475,1.475,0,0,1,1.241,1.44C1089.1,32.186,1086.9,32.676,1086.625,31.47Z" transform="translate(-1086.508 -30.177)" fill="#ffe4cb"/>
            <path id="Path_8911" data-name="Path 8911" d="M1088.566,31.766a.9.9,0,1,1-.272-1.247A.9.9,0,0,1,1088.566,31.766Z" transform="translate(-1086.609 -30.131)" fill="#6d3a31"/>
          </g>
          <path id="Path_8912" data-name="Path 8912" d="M1101.906,29.94s-3.843-6.079-8.6-6.927c-4.194-.747-5.608.443-5.608.443l.223-.958s1.676-1.224,5.33-.666a12.212,12.212,0,0,1,8.891,7.065Z" transform="translate(-1082.852 -12.908)" fill="#292d3a"/>
          <path id="Path_8913" data-name="Path 8913" d="M1106.565,36.935a.923.923,0,0,0-.434.182.773.773,0,0,1,.161-.052.817.817,0,1,1,.186,1.624.789.789,0,0,1-.294-.025.923.923,0,0,0,.6.147.944.944,0,1,0-.215-1.876Z" transform="translate(-1089.491 -18.398)" fill="#d38753"/>
          <path id="Path_8914" data-name="Path 8914" d="M1086.542,23.511s-2.576.809-2.49,1.1,11.11,2.1,11.968,2.138a9.74,9.74,0,0,0,2.15-.271,11.289,11.289,0,0,0-6.367-3.7C1087.943,22.189,1086.542,23.511,1086.542,23.511Z" transform="translate(-1081.537 -13.248)" fill="#292d3a"/>
          <path id="Path_8915" data-name="Path 8915" d="M1088.048,20.252l.858-3.312c2.269-2.921,12.613-1.767,14.4,5.451l-1.035,4.26s-1.637-5.179-8.843-6.536C1089.681,19.41,1088.048,20.252,1088.048,20.252Z" transform="translate(-1082.977 -10.662)" fill="#464f66"/>
          <path id="Path_8916" data-name="Path 8916" d="M1088.513,20.385l-.23.887a10.544,10.544,0,0,1,5.569-.1,12.01,12.01,0,0,1,8.728,6.15l.311-1.283c-.963-1.808-3.56-4.921-8.891-5.911A9.883,9.883,0,0,0,1088.513,20.385Z" transform="translate(-1083.062 -12.262)" fill="#ffeaa9"/>
          <g id="Group_4776" data-name="Group 4776" transform="translate(2.477 19.106)">
            <path id="Path_8917" data-name="Path 8917" d="M1089.81,39.545a2.337,2.337,0,0,1,1.5-.388c.783.121,1.143,1.17,1.864,1.351a2.157,2.157,0,0,0,1.5-.361,2.274,2.274,0,0,1-2.708.963,14.836,14.836,0,0,1-2.467-.722Z" transform="translate(-1085.981 -38.301)" fill="#8f4817"/>
            <path id="Path_8918" data-name="Path 8918" d="M1087.824,39.073a1.491,1.491,0,0,0-1.027-.946c-.819-.224-1.786.744-2.232.559s-.484-.857-.484-.857-.409,1.153.558,1.563a12.553,12.553,0,0,0,2.884.524C1088.1,40.025,1087.824,39.073,1087.824,39.073Z" transform="translate(-1083.995 -37.829)" fill="#8f4817"/>
          </g>
        </g>
        <g id="Group_4778" data-name="Group 4778" transform="translate(44.394 70.663)">
          <path id="Path_8919" data-name="Path 8919" d="M1101.632,118.563l-2.278-.152a7.659,7.659,0,0,0-1.548,1.6c-.436.6-1.463,3.264-1.192,3.444.624.415,1.07-1.884,1.363-1.763-.23.792-1.132,5.227-.651,5.417.6.239,1-3.582,1.189-3.539.366.086-1.054,4.125-.447,4.251s1.147-4.041,1.445-4.034-1.141,3.812-.6,3.855c.68.054,1.321-3.99,1.664-3.8.146.079-1.072,2.871-.647,2.884.4.013,1.089-1.291,1.434-3.027A31.492,31.492,0,0,0,1101.632,118.563Z" transform="translate(-1096.569 -118.411)" fill="#f4be84"/>
          <path id="Path_8920" data-name="Path 8920" d="M1099.794,118.411a7.655,7.655,0,0,0-1.548,1.6,5.6,5.6,0,0,0-.455.873A8.335,8.335,0,0,1,1102,121.91c.077-1.141.112-2.477.077-3.347Z" transform="translate(-1097.009 -118.411)" fill="#e2a36a"/>
        </g>
        <path id="Path_8921" data-name="Path 8921" d="M1105.361,59.271c7.179,6.415-2.677,40.078-2.677,40.078l-6.024-1.54S1100.1,54.57,1105.361,59.271Z" transform="translate(-1052.208 -26.317)" fill="#464f66"/>
        <path id="Path_8922" data-name="Path 8922" d="M1097.357,108.071c-.455,4.393-.7,7.444-.7,7.444l6.024,1.54s.845-2.891,1.858-7.126Z" transform="translate(-1052.208 -44.023)" fill="#b52128"/>
        <path id="Path_8923" data-name="Path 8923" d="M1043.355,56.619c-2.892-2.858-5.619-6.106-5.619-6.106l-4.392,3.834s1.642,2.941,4.154,6.668Z" transform="translate(-1029.402 -23.291)" fill="#9e1b25"/>
        <path id="Path_8924" data-name="Path 8924" d="M1097.75,107.538h0l7.178,1.884c.084-.351.168-.706.255-1.075l-7.333-1.756C1097.815,106.913,1097.782,107.23,1097.75,107.538Z" transform="translate(-1052.601 -43.491)" fill="#ffeaa9"/>
        <path id="Path_8925" data-name="Path 8925" d="M1039.838,64.383l.788,1.11,5.837-4.76c-.3-.283-.6-.574-.892-.868Z" transform="translate(-1031.741 -26.66)" fill="#ffe08a"/>
        <g id="Group_4779" data-name="Group 4779" transform="translate(27.147 57.113)">
          <circle id="Ellipse_185" data-name="Ellipse 185" cx="0.838" cy="0.838" r="0.838" transform="translate(0.28)" fill="#ffeaa9"/>
          <path id="Path_8926" data-name="Path 8926" d="M1071.287,109.676a.838.838,0,1,1-.838-.837A.838.838,0,0,1,1071.287,109.676Z" transform="translate(-1069.612 -101.413)" fill="#ffeaa9"/>
          <path id="Path_8927" data-name="Path 8927" d="M1072.086,120.15a.838.838,0,1,1-.838-.838A.838.838,0,0,1,1072.086,120.15Z" transform="translate(-1069.9 -105.185)" fill="#ffeaa9"/>
        </g>
        <path id="Path_8928" data-name="Path 8928" d="M1098.65,152.606q.112,1.929.233,3.83.478.118.955.274l-.224-4.1Z" transform="translate(-1052.925 -60.064)" fill="#871226"/>
        <path id="Path_8929" data-name="Path 8929" d="M1080.143,152.563h-8.115l1.749,4.281a12.917,12.917,0,0,1,7.52,0Z" transform="translate(-1043.336 -60.049)" fill="#2c303f"/>
        <path id="Path_8930" data-name="Path 8930" d="M1109.3,62.008c2.32,11.06-3.92,34.091-5.064,38.154l1.177.3S1114,71.123,1109.3,62.008Z" transform="translate(-1054.937 -27.432)" fill="#2f2842" opacity="0.2" style="mix-blend-mode: multiply;isolation: isolate"/>
      </g>
    </g>
  </g>
</svg>
