<svg xmlns="http://www.w3.org/2000/svg" width="552.5" height="589.898" viewBox="0 0 552.5 589.898">
  <g id="Group_13035" data-name="Group 13035" transform="translate(-975 -2348.521)">
    <path id="Path_4602" data-name="Path 4602" d="M1877.528,1470.256s144.952-159.887,230.771-103.135,94.4,78.579,150.182,76.4,98.691,85.673,68.655,151.156,30.036,235.737-90.109,251.017c-25.11,3.193-62.961,22.724-90.311,28.871-54.9,12.34-100.095,2.94-148.43,0-43.37-2.638-91.057,3.8-120.757-28.871-79.382-87.31-123.23-234.1-67.448-306.131,35.756-46.172,64.364-74.214,67.448-69.3Z" transform="translate(-810.017 993.586)" fill="#9eddd4" opacity="0.22"/>
    <g id="Group_4105" data-name="Group 4105" transform="translate(1002.61 2348.521)">
      <g id="Background_Complete" data-name="Background Complete" transform="translate(0 0)">
        <g id="Group_4015" data-name="Group 4015" transform="translate(0 70.741)">
          <rect id="Rectangle_212" data-name="Rectangle 212" width="33.275" height="14.061" transform="translate(18.562 326.168)" fill="none" stroke="#ebebeb" stroke-miterlimit="10" stroke-width="1"/>
          <rect id="Rectangle_213" data-name="Rectangle 213" width="33.275" height="14.061" transform="translate(0 343.898)" fill="none" stroke="#ebebeb" stroke-miterlimit="10" stroke-width="1"/>
          <rect id="Rectangle_214" data-name="Rectangle 214" width="33.275" height="14.061" transform="translate(425.577 169.645)" fill="none" stroke="#ebebeb" stroke-miterlimit="10" stroke-width="1"/>
          <rect id="Rectangle_215" data-name="Rectangle 215" width="33.275" height="14.061" transform="translate(407.016 187.375)" fill="none" stroke="#ebebeb" stroke-miterlimit="10" stroke-width="1"/>
          <rect id="Rectangle_216" data-name="Rectangle 216" width="33.275" height="14.061" transform="translate(388.527 169.645)" fill="none" stroke="#ebebeb" stroke-miterlimit="10" stroke-width="1"/>
          <rect id="Rectangle_217" data-name="Rectangle 217" width="33.275" height="14.061" transform="translate(491.115 343.898)" fill="none" stroke="#ebebeb" stroke-miterlimit="10" stroke-width="1"/>
          <rect id="Rectangle_218" data-name="Rectangle 218" width="33.275" height="14.061" transform="translate(472.554)" fill="none" stroke="#ebebeb" stroke-miterlimit="10" stroke-width="1"/>
          <rect id="Rectangle_219" data-name="Rectangle 219" width="33.275" height="14.061" transform="translate(491.115 17.73)" fill="none" stroke="#ebebeb" stroke-miterlimit="10" stroke-width="1"/>
          <rect id="Rectangle_220" data-name="Rectangle 220" width="33.275" height="14.061" transform="translate(18.562)" fill="none" stroke="#ebebeb" stroke-miterlimit="10" stroke-width="1"/>
        </g>
      </g>
      <g id="Shadow" transform="translate(12.998 538.583)">
        <g id="Group_4023" data-name="Group 4023">
          <path id="Path_4420" data-name="Path 4420" d="M-16.846,453.03c0,14.17-111.569,25.658-249.2,25.658s-249.2-11.488-249.2-25.658,111.57-25.657,249.2-25.657S-16.846,438.861-16.846,453.03Z" transform="translate(515.239 -427.373)" fill="#ebebeb"/>
        </g>
      </g>
      <g id="Floor" transform="translate(0.187 510.728)">
        <line id="Line_29" data-name="Line 29" x2="524.016" fill="none" stroke="#263238" stroke-linecap="round" stroke-linejoin="round" stroke-width="1"/>
      </g>
      <g id="Device" transform="translate(134.477 66.209)">
        <g id="Group_4045" data-name="Group 4045">
          <g id="Group_4034" data-name="Group 4034">
            <path id="Path_4421" data-name="Path 4421" d="M-184.64,51.45H-397.077a21.687,21.687,0,0,0-21.487,21.89v437.3a21.7,21.7,0,0,0,21.487,21.889H-184.64a21.724,21.724,0,0,0,21.513-21.889V73.34A21.708,21.708,0,0,0-184.64,51.45Zm8.067,445.669c0,11.51-8.62,20.821-19.251,20.821H-385.868c-10.656,0-19.276-9.311-19.276-20.821V89.914c0-23.448,8.62-24.591,19.276-24.591h38.074c2.212,0,4.021,2.513,4.021,5.629V72.3c0,7.3,4,7.326,8.9,7.326h88.035c4.951,0,8.922-.025,8.922-7.326V70.952c0-3.116,1.784-5.629,4.034-5.629h38.062c10.631,0,19.251,3.116,19.251,24.591Z" transform="translate(418.564 -51.45)" fill="#455a64"/>
            <line id="Line_30" data-name="Line 30" x1="0.716" transform="translate(12.71 419.859)" fill="none"/>
            <g id="Group_4033" data-name="Group 4033" transform="translate(13.42 13.873)">
              <path id="Path_4422" data-name="Path 4422" d="M-179.313,87.081v407.2c0,11.51-8.62,20.821-19.251,20.821H-388.608c-10.656,0-19.276-9.311-19.276-20.821V87.081c0-23.448,8.62-24.591,19.276-24.591h38.074c2.212,0,4.021,2.513,4.021,5.629v1.345c0,7.3,4,7.326,8.9,7.326h88.035c4.951,0,8.922-.025,8.922-7.326V68.119c0-3.116,1.784-5.629,4.034-5.629h38.062C-187.934,62.49-179.313,65.606-179.313,87.081Z" transform="translate(407.884 -62.49)" fill="#fff"/>
              <g id="Group_4032" data-name="Group 4032">
                <path id="Path_4423" data-name="Path 4423" d="M-179.313,87.081V132.94H-407.884V87.081c0-23.448,8.62-24.591,19.276-24.591h38.074c2.212,0,4.021,2.513,4.021,5.629v1.345c0,7.3,4,7.326,8.9,7.326h88.035c4.951,0,8.922-.025,8.922-7.326V68.119c0-3.116,1.784-5.629,4.034-5.629h38.062C-187.934,62.49-179.313,65.606-179.313,87.081Z" transform="translate(407.884 -62.49)" fill="#4bc1ea"/>
                <g id="Group_4027" data-name="Group 4027" transform="translate(14.908 7.433)">
                  <g id="u5Zjqx" transform="translate(27.627)">
                    <g id="Group_4024" data-name="Group 4024">
                      <path id="Path_4424" data-name="Path 4424" d="M-365.793,70.119l-.368.364-.209.21a4.929,4.929,0,0,0-3.541-1.47,4.933,4.933,0,0,0-3.55,1.474c-.065-.068-.131-.138-.2-.207-.121-.122-.241-.244-.363-.364l-.011-.006V70.11l.028-.023c.155-.137.305-.28.465-.412a5.473,5.473,0,0,1,1.076-.685,5.453,5.453,0,0,1,1.426-.48c.235-.043.474-.065.711-.094.082-.01.608-.011.624-.01.161.011.324.019.485.036a5.574,5.574,0,0,1,1.308.312,5.783,5.783,0,0,1,.885.415,5.62,5.62,0,0,1,.844.591c.132.113.259.234.388.351Z" transform="translate(374.034 -68.406)" fill="#fff"/>
                      <path id="Path_4425" data-name="Path 4425" d="M-372.53,71.515l-.582-.577a4.1,4.1,0,0,1,2.365-1.187,4.151,4.151,0,0,1,3.557,1.179l-.584.582a3.305,3.305,0,0,0-2.377-.983A3.314,3.314,0,0,0-372.53,71.515Z" transform="translate(374.271 -68.072)" fill="#fff"/>
                      <path id="Path_4426" data-name="Path 4426" d="M-368.592,71.761l-.578.577a1.7,1.7,0,0,0-1.219-.5,1.7,1.7,0,0,0-1.219.508l-.577-.577A2.524,2.524,0,0,1-368.592,71.761Z" transform="translate(374.508 -67.737)" fill="#fff"/>
                    </g>
                    <path id="Path_4427" data-name="Path 4427" d="M-370.127,72.591a.522.522,0,0,1-.523.523.522.522,0,0,1-.521-.523.522.522,0,0,1,.521-.521A.522.522,0,0,1-370.127,72.591Z" transform="translate(374.769 -67.466)" fill="#fff"/>
                  </g>
                  <g id="Group_4025" data-name="Group 4025" transform="translate(0 1.31)">
                    <path id="Path_4428" data-name="Path 4428" d="M-396.02,70.962a1.515,1.515,0,0,1,1.515-1.514,1.514,1.514,0,0,1,1.514,1.514,1.514,1.514,0,0,1-1.514,1.515A1.515,1.515,0,0,1-396.02,70.962Z" transform="translate(396.02 -69.448)" fill="#fff"/>
                    <path id="Path_4429" data-name="Path 4429" d="M-392.222,70.962a1.514,1.514,0,0,1,1.514-1.514,1.514,1.514,0,0,1,1.514,1.514,1.514,1.514,0,0,1-1.514,1.515A1.514,1.514,0,0,1-392.222,70.962Z" transform="translate(396.994 -69.448)" fill="#fff"/>
                    <path id="Path_4430" data-name="Path 4430" d="M-388.425,70.962a1.514,1.514,0,0,1,1.514-1.514,1.515,1.515,0,0,1,1.515,1.514,1.515,1.515,0,0,1-1.515,1.515A1.514,1.514,0,0,1-388.425,70.962Z" transform="translate(397.969 -69.448)" fill="#fff"/>
                    <path id="Path_4431" data-name="Path 4431" d="M-384.628,70.962a1.514,1.514,0,0,1,1.514-1.514,1.515,1.515,0,0,1,1.515,1.514,1.515,1.515,0,0,1-1.515,1.515A1.514,1.514,0,0,1-384.628,70.962Z" transform="translate(398.943 -69.448)" fill="#fff"/>
                    <path id="Path_4432" data-name="Path 4432" d="M-380.831,70.962a1.514,1.514,0,0,1,1.514-1.514,1.515,1.515,0,0,1,1.515,1.514,1.515,1.515,0,0,1-1.515,1.515A1.514,1.514,0,0,1-380.831,70.962Z" transform="translate(399.917 -69.448)" fill="#fff"/>
                  </g>
                  <g id="Group_4026" data-name="Group 4026" transform="translate(184.188 0.419)">
                    <path id="Path_4433" data-name="Path 4433" d="M-237.108,74.451H-249.44V68.739h12.332Zm-11.7-.628h11.075V69.367h-11.075Z" transform="translate(249.44 -68.739)" fill="#fff"/>
                    <rect id="Rectangle_230" data-name="Rectangle 230" width="7.949" height="3.772" transform="translate(1.023 0.97)" fill="#fff"/>
                    <rect id="Rectangle_231" data-name="Rectangle 231" width="1.097" height="3.056" transform="translate(12.339 1.328)" fill="#fff"/>
                  </g>
                </g>
                <g id="Group_4031" data-name="Group 4031" transform="translate(14.084 44.916)">
                  <g id="Group_4028" data-name="Group 4028">
                    <path id="Path_4434" data-name="Path 4434" d="M-389.923,110.889l-6.753-6.327,6.753-6.326,1.048,1.116-5.561,5.211,5.561,5.212Z" transform="translate(396.676 -98.235)" fill="#fff"/>
                  </g>
                  <g id="Group_4029" data-name="Group 4029" transform="translate(192.626)">
                    <path id="Path_4435" data-name="Path 4435" d="M-242.333,98.235l6.753,6.327-6.753,6.326-1.048-1.116,5.561-5.211-5.561-5.212Z" transform="translate(243.381 -98.235)" fill="#fff"/>
                  </g>
                </g>
              </g>
              <path id="Path_4441" data-name="Path 4441" d="M-302.167,67.219H-326.18a1.483,1.483,0,0,1-1.484-1.483h0a1.483,1.483,0,0,1,1.484-1.483h24.013a1.482,1.482,0,0,1,1.483,1.483h0A1.482,1.482,0,0,1-302.167,67.219Z" transform="translate(428.466 -62.038)" fill="#263238"/>
            </g>
          </g>
          <g id="Group_4044" data-name="Group 4044" transform="translate(43.092 154.426)">
            <g id="Group_4035" data-name="Group 4035" transform="translate(0 95.05)">
              <path id="Path_4442" data-name="Path 4442" d="M-376.477,251.36l-3.017,4.135v3.973a.8.8,0,0,1-.809.81.817.817,0,0,1-.81-.81V255.5l-2.987-4.135a.773.773,0,0,1,.162-1.118.785.785,0,0,1,1.118.177l2.517,3.443,2.516-3.443a.809.809,0,0,1,1.135-.177A.816.816,0,0,1-376.477,251.36Z" transform="translate(384.27 -249.962)" fill="#263238"/>
              <path id="Path_4443" data-name="Path 4443" d="M-377.366,258.625a3.676,3.676,0,0,1-1.015-2.59,3.8,3.8,0,0,1,1.015-2.576,3.436,3.436,0,0,1,2.532-1.118,3.252,3.252,0,0,1,2.458,1.118,3.677,3.677,0,0,1,1.03,2.576,3.562,3.562,0,0,1-1.03,2.59,3.256,3.256,0,0,1-2.458,1.118A3.441,3.441,0,0,1-377.366,258.625Zm.589-2.59a2.376,2.376,0,0,0,.53,1.559,1.989,1.989,0,0,0,1.412.544,1.929,1.929,0,0,0,1.355-.544,2.265,2.265,0,0,0,.573-1.559,2.218,2.218,0,0,0-.573-1.532,2.079,2.079,0,0,0-1.355-.559,2.135,2.135,0,0,0-1.412.559A2.324,2.324,0,0,0-376.776,256.035Z" transform="translate(385.781 -249.383)" fill="#263238"/>
              <path id="Path_4444" data-name="Path 4444" d="M-368.03,259.7a3.078,3.078,0,0,1-3.061-3.062V253.12a.8.8,0,0,1,.779-.779.786.786,0,0,1,.78.779v3.517a1.489,1.489,0,0,0,1.5,1.5,1.527,1.527,0,0,0,1.546-1.5V253.12a.772.772,0,0,1,.765-.779.818.818,0,0,1,.794.779v3.517A3.106,3.106,0,0,1-368.03,259.7Z" transform="translate(387.652 -249.383)" fill="#263238"/>
              <path id="Path_4445" data-name="Path 4445" d="M-359.257,253.117a.786.786,0,0,1-.78.78,1.415,1.415,0,0,0-.883.279,2.222,2.222,0,0,0-.677.707,4.536,4.536,0,0,0-.6,1.235v2.8a.8.8,0,0,1-.809.78.785.785,0,0,1-.78-.78v-5.8a.773.773,0,0,1,.78-.765.79.79,0,0,1,.809.765v.1a1.942,1.942,0,0,1,.309-.294,3.238,3.238,0,0,1,1.855-.574A.764.764,0,0,1-359.257,253.117Z" transform="translate(389.525 -249.38)" fill="#263238"/>
              <path id="Path_4446" data-name="Path 4446" d="M-354.385,258.625a3.676,3.676,0,0,1-1.015-2.59,3.8,3.8,0,0,1,1.015-2.576,3.438,3.438,0,0,1,2.532-1.118,3.252,3.252,0,0,1,2.458,1.118,3.677,3.677,0,0,1,1.03,2.576,3.562,3.562,0,0,1-1.03,2.59,3.256,3.256,0,0,1-2.458,1.118A3.443,3.443,0,0,1-354.385,258.625Zm.589-2.59a2.376,2.376,0,0,0,.53,1.559,1.989,1.989,0,0,0,1.412.544,1.929,1.929,0,0,0,1.355-.544,2.266,2.266,0,0,0,.574-1.559,2.219,2.219,0,0,0-.574-1.532,2.079,2.079,0,0,0-1.355-.559,2.135,2.135,0,0,0-1.412.559A2.324,2.324,0,0,0-353.8,256.035Z" transform="translate(391.678 -249.383)" fill="#263238"/>
              <path id="Path_4447" data-name="Path 4447" d="M-343.507,253.117a.785.785,0,0,1-.78.78,1.42,1.42,0,0,0-.883.279,2.219,2.219,0,0,0-.676.707,4.549,4.549,0,0,0-.6,1.235v2.8a.8.8,0,0,1-.809.78.786.786,0,0,1-.78-.78v-5.8a.774.774,0,0,1,.78-.765.789.789,0,0,1,.809.765v.1a1.943,1.943,0,0,1,.309-.294,3.244,3.244,0,0,1,1.855-.574A.764.764,0,0,1-343.507,253.117Z" transform="translate(393.566 -249.38)" fill="#263238"/>
              <path id="Path_4448" data-name="Path 4448" d="M-336.423,259.507a.8.8,0,0,1-.794.794.794.794,0,0,1-.78-.632,3.594,3.594,0,0,1-2,.632,3.637,3.637,0,0,1-3.576-3.664A3.644,3.644,0,0,1-340,252.942a3.492,3.492,0,0,1,1.973.617v-2.766a.8.8,0,0,1,.809-.8.8.8,0,0,1,.794.8v8.713ZM-340,254.546a1.907,1.907,0,0,0-1.383.6,2.089,2.089,0,0,0-.588,1.488,2.068,2.068,0,0,0,.588,1.456,1.9,1.9,0,0,0,1.383.6,1.88,1.88,0,0,0,1.383-.6,2.069,2.069,0,0,0,.589-1.456,2.09,2.09,0,0,0-.589-1.488A1.885,1.885,0,0,0-340,254.546Z" transform="translate(394.712 -249.984)" fill="#263238"/>
              <path id="Path_4449" data-name="Path 4449" d="M-336.04,256.019a3.643,3.643,0,0,1,3.591-3.678,3.519,3.519,0,0,1,3.547,3.413v.075a.4.4,0,0,1-.015.132.71.71,0,0,1-.765.589h-4.681a1.931,1.931,0,0,0,.5.97,2.277,2.277,0,0,0,1.412.663,2.41,2.41,0,0,0,1.531-.368.833.833,0,0,1,1.1-.044.673.673,0,0,1,0,.956,3.721,3.721,0,0,1-2.635.971A3.654,3.654,0,0,1-336.04,256.019Zm1.6-.72h4.164a2.4,2.4,0,0,0-2.178-1.561A2.054,2.054,0,0,0-334.435,255.3Z" transform="translate(396.645 -249.383)" fill="#263238"/>
              <path id="Path_4450" data-name="Path 4450" d="M-324.205,253.117a.786.786,0,0,1-.78.78,1.417,1.417,0,0,0-.883.279,2.222,2.222,0,0,0-.677.707,4.534,4.534,0,0,0-.6,1.235v2.8a.8.8,0,0,1-.809.78.785.785,0,0,1-.78-.78v-5.8a.773.773,0,0,1,.78-.765.79.79,0,0,1,.809.765v.1a1.94,1.94,0,0,1,.309-.294,3.238,3.238,0,0,1,1.855-.574A.764.764,0,0,1-324.205,253.117Z" transform="translate(398.518 -249.38)" fill="#263238"/>
              <path id="Path_4451" data-name="Path 4451" d="M-318.477,251.1a.8.8,0,0,1-.8.81.8.8,0,0,1-.794-.81v-.308a.791.791,0,0,1,.794-.8.782.782,0,0,1,.8.8Zm0,2.665v5.74a.782.782,0,0,1-.8.794.791.791,0,0,1-.794-.794v-5.74a.786.786,0,0,1,.794-.81A.778.778,0,0,1-318.477,253.766Z" transform="translate(400.743 -249.984)" fill="#263238"/>
              <path id="Path_4452" data-name="Path 4452" d="M-317.032,257.595a.767.767,0,0,1,1.1-.118,2.712,2.712,0,0,0,1.618.648,1.971,1.971,0,0,0,1-.28.6.6,0,0,0,.264-.441.234.234,0,0,0-.043-.148c-.015-.044-.075-.1-.192-.176a3.413,3.413,0,0,0-1.177-.412h-.014a5.669,5.669,0,0,1-1.282-.382,2.464,2.464,0,0,1-1.015-.854,1.781,1.781,0,0,1-.25-.927,2.069,2.069,0,0,1,.868-1.618,3.167,3.167,0,0,1,1.811-.544,3.78,3.78,0,0,1,2.208.809.81.81,0,0,1,.234,1.088.776.776,0,0,1-1.087.206,2.522,2.522,0,0,0-1.355-.544,1.5,1.5,0,0,0-.883.265.453.453,0,0,0-.236.338.155.155,0,0,0,.03.118.414.414,0,0,0,.162.148,3.025,3.025,0,0,0,1.073.352l.016.015h.014a5.305,5.305,0,0,1,1.37.427,2.294,2.294,0,0,1,1.045.867,1.916,1.916,0,0,1,.278.973,2.126,2.126,0,0,1-.926,1.708,3.348,3.348,0,0,1-1.914.588,4.277,4.277,0,0,1-2.62-1.017A.784.784,0,0,1-317.032,257.595Z" transform="translate(401.478 -249.383)" fill="#263238"/>
              <path id="Path_4453" data-name="Path 4453" d="M-307.914,256.035a3.744,3.744,0,0,1,3.737-3.694,3.878,3.878,0,0,1,2.341.809.808.808,0,0,1,.162,1.088.785.785,0,0,1-1.1.147,2.353,2.353,0,0,0-1.4-.47,2.182,2.182,0,0,0-2.179,2.12,2.17,2.17,0,0,0,2.179,2.1,2.385,2.385,0,0,0,1.4-.47.8.8,0,0,1,1.1.161.813.813,0,0,1-.162,1.089,4.05,4.05,0,0,1-2.341.78A3.729,3.729,0,0,1-307.914,256.035Z" transform="translate(403.861 -249.383)" fill="#263238"/>
              <path id="Path_4454" data-name="Path 4454" d="M-300.243,258.625a3.676,3.676,0,0,1-1.015-2.59,3.8,3.8,0,0,1,1.015-2.576,3.438,3.438,0,0,1,2.532-1.118,3.256,3.256,0,0,1,2.459,1.118,3.681,3.681,0,0,1,1.029,2.576,3.566,3.566,0,0,1-1.029,2.59,3.261,3.261,0,0,1-2.459,1.118A3.443,3.443,0,0,1-300.243,258.625Zm.591-2.59a2.375,2.375,0,0,0,.529,1.559,1.989,1.989,0,0,0,1.412.544,1.924,1.924,0,0,0,1.353-.544,2.256,2.256,0,0,0,.576-1.559,2.208,2.208,0,0,0-.576-1.532,2.073,2.073,0,0,0-1.353-.559,2.134,2.134,0,0,0-1.412.559A2.323,2.323,0,0,0-299.652,256.035Z" transform="translate(405.569 -249.383)" fill="#263238"/>
              <path id="Path_4455" data-name="Path 4455" d="M-287.527,255.4v3.517a.772.772,0,0,1-.765.78.794.794,0,0,1-.779-.78V255.4a1.511,1.511,0,0,0-1.531-1.487,1.47,1.47,0,0,0-1.471,1.487v3.517a.287.287,0,0,1-.03.148.806.806,0,0,1-.78.632.776.776,0,0,1-.78-.78v-5.8a.776.776,0,0,1,.78-.779.8.8,0,0,1,.721.456,2.944,2.944,0,0,1,1.561-.456A3.08,3.08,0,0,1-287.527,255.4Z" transform="translate(407.518 -249.383)" fill="#263238"/>
              <path id="Path_4456" data-name="Path 4456" d="M-283.983,252.459v.206h.442a.808.808,0,0,1,.809.809.817.817,0,0,1-.809.811h-.442v5.195a.806.806,0,0,1-.809.809.807.807,0,0,1-.809-.809v-5.195h-.383a.82.82,0,0,1-.824-.811.811.811,0,0,1,.824-.809h.383v-.206a3.032,3.032,0,0,1,.28-1.443,1.75,1.75,0,0,1,1.059-.912,2.983,2.983,0,0,1,.883-.117.815.815,0,0,1,.808.809.819.819,0,0,1-.808.824,1.04,1.04,0,0,0-.383.044.141.141,0,0,0-.088.044C-283.865,251.708-283.983,251.915-283.983,252.459Z" transform="translate(409.276 -249.987)" fill="#263238"/>
              <path id="Path_4457" data-name="Path 4457" d="M-280.637,251.1a.8.8,0,0,1-.794.81.8.8,0,0,1-.8-.81v-.308a.792.792,0,0,1,.8-.8.782.782,0,0,1,.794.8Zm0,2.665v5.74a.782.782,0,0,1-.794.794.791.791,0,0,1-.8-.794v-5.74a.787.787,0,0,1,.8-.81A.778.778,0,0,1-280.637,253.766Z" transform="translate(410.452 -249.984)" fill="#263238"/>
              <path id="Path_4458" data-name="Path 4458" d="M-274.413,253.117a.785.785,0,0,1-.779.78,1.415,1.415,0,0,0-.883.279,2.209,2.209,0,0,0-.677.707,4.459,4.459,0,0,0-.6,1.235v2.8a.8.8,0,0,1-.811.78.785.785,0,0,1-.779-.78v-5.8a.773.773,0,0,1,.779-.765.791.791,0,0,1,.811.765v.1a1.938,1.938,0,0,1,.308-.294,3.245,3.245,0,0,1,1.856-.574A.763.763,0,0,1-274.413,253.117Z" transform="translate(411.294 -249.38)" fill="#263238"/>
              <path id="Path_4459" data-name="Path 4459" d="M-267.648,255.387v3.532a.785.785,0,0,1-.78.78.807.807,0,0,1-.794-.78v-3.532a1.515,1.515,0,0,0-1.515-1.471,1.507,1.507,0,0,0-1.488,1.515v3.488c0,.029-.014.073-.014.1v.045c-.015.028-.015.058-.045.087v.074a.857.857,0,0,1-.735.471c-.059,0-.1-.015-.148-.015a.8.8,0,0,1-.632-.765v-5.784a.779.779,0,0,1,.78-.794.747.747,0,0,1,.706.441,3.1,3.1,0,0,1,1.576-.441,3.052,3.052,0,0,1,2.31,1.015,3.029,3.029,0,0,1,2.311-1.015,3.074,3.074,0,0,1,3.061,3.09v3.488a.785.785,0,0,1-.779.78.8.8,0,0,1-.8-.78v-3.488a1.507,1.507,0,0,0-1.487-1.515A1.527,1.527,0,0,0-267.648,255.387Z" transform="translate(412.614 -249.383)" fill="#263238"/>
              <path id="Path_4460" data-name="Path 4460" d="M-263.066,256.019a3.643,3.643,0,0,1,3.591-3.678,3.52,3.52,0,0,1,3.547,3.413v.075a.4.4,0,0,1-.015.132.709.709,0,0,1-.765.589h-4.681a1.932,1.932,0,0,0,.5.97,2.277,2.277,0,0,0,1.412.663,2.41,2.41,0,0,0,1.531-.368.831.831,0,0,1,1.1-.044.671.671,0,0,1,0,.956,3.718,3.718,0,0,1-2.634.971A3.654,3.654,0,0,1-263.066,256.019Zm1.6-.72h4.166a2.406,2.406,0,0,0-2.179-1.561A2.054,2.054,0,0,0-261.461,255.3Z" transform="translate(415.368 -249.383)" fill="#263238"/>
              <path id="Path_4461" data-name="Path 4461" d="M-248.751,259.507a.8.8,0,0,1-.8.794.794.794,0,0,1-.78-.632,3.594,3.594,0,0,1-2,.632,3.637,3.637,0,0,1-3.576-3.664,3.644,3.644,0,0,1,3.576-3.694,3.489,3.489,0,0,1,1.973.617v-2.766a.8.8,0,0,1,.809-.8.8.8,0,0,1,.8.8v8.713Zm-3.577-4.961a1.91,1.91,0,0,0-1.383.6,2.094,2.094,0,0,0-.588,1.488,2.074,2.074,0,0,0,.588,1.456,1.9,1.9,0,0,0,1.383.6,1.881,1.881,0,0,0,1.385-.6,2.073,2.073,0,0,0,.588-1.456,2.094,2.094,0,0,0-.588-1.488A1.885,1.885,0,0,0-252.329,254.546Z" transform="translate(417.205 -249.984)" fill="#263238"/>
            </g>
            <g id="Group_4036" data-name="Group 4036" transform="translate(45.629 76.307)">
              <path id="Path_4462" data-name="Path 4462" d="M-344.5,235.792H-347.6a.362.362,0,0,1-.353-.368.358.358,0,0,1,.353-.353h6.917a.358.358,0,0,1,.353.353.362.362,0,0,1-.353.368h-3.106v9.228a.357.357,0,0,1-.352.353.359.359,0,0,1-.354-.353Z" transform="translate(347.958 -235.071)" fill="#263238"/>
              <path id="Path_4463" data-name="Path 4463" d="M-334.8,241a2.154,2.154,0,0,0-2.3-2.119A2.15,2.15,0,0,0-339.374,241v4.063c0,.029-.015.044-.015.059-.014.03-.014.044-.029.059a.333.333,0,0,1-.221.176.048.048,0,0,1-.029.015h-.074a.4.4,0,0,1-.279-.117.416.416,0,0,1-.059-.118.323.323,0,0,1-.015-.118v-9.6a.358.358,0,0,1,.353-.353.361.361,0,0,1,.368.353v3.8a2.982,2.982,0,0,1,2.282-1.059,2.875,2.875,0,0,1,3.017,2.84v4.019a.362.362,0,0,1-.368.353.358.358,0,0,1-.353-.353Z" transform="translate(349.975 -235.071)" fill="#263238"/>
              <path id="Path_4464" data-name="Path 4464" d="M-326.234,237.884v6.505a.358.358,0,0,1-.353.353.358.358,0,0,1-.353-.353v-1.074a3.368,3.368,0,0,1-2.709,1.427,3.518,3.518,0,0,1-3.414-3.606,3.517,3.517,0,0,1,3.414-3.605,3.354,3.354,0,0,1,2.709,1.412v-1.059a.349.349,0,0,1,.353-.353A.349.349,0,0,1-326.234,237.884Zm-.706,3.252a2.818,2.818,0,0,0-2.709-2.914,2.827,2.827,0,0,0-2.708,2.914,2.813,2.813,0,0,0,2.708,2.9A2.8,2.8,0,0,0-326.94,241.136Z" transform="translate(351.78 -234.44)" fill="#263238"/>
              <path id="Path_4465" data-name="Path 4465" d="M-320.154,240.471a2.22,2.22,0,0,0-2.223-2.222,2.261,2.261,0,0,0-2.237,2.222v3.975a.325.325,0,0,1-.074.162.312.312,0,0,1-.264.132h-.089a.387.387,0,0,1-.235-.191.053.053,0,0,1-.015-.044.053.053,0,0,0-.015-.03v-6.579a.349.349,0,0,1,.354-.352.344.344,0,0,1,.338.352v.692a2.926,2.926,0,0,1,2.237-1.044,2.936,2.936,0,0,1,2.929,2.928v3.915a.349.349,0,0,1-.353.353.349.349,0,0,1-.353-.353Z" transform="translate(353.77 -234.437)" fill="#263238"/>
              <path id="Path_4466" data-name="Path 4466" d="M-318.122,235.424a.358.358,0,0,1,.353-.353.362.362,0,0,1,.368.353v6.932l4.269-4.253a.339.339,0,0,1,.5,0,.338.338,0,0,1,0,.5l-2.782,2.782,2.8,3.4a.368.368,0,0,1-.029.514.372.372,0,0,1-.236.074.3.3,0,0,1-.279-.132l-2.768-3.341-1.471,1.471v1.649a.362.362,0,0,1-.368.353.358.358,0,0,1-.353-.353Z" transform="translate(355.613 -235.071)" fill="#263238"/>
              <path id="Path_4467" data-name="Path 4467" d="M-308.524,237.869a.342.342,0,0,1,.338-.338.351.351,0,0,1,.369.338v3.915a2.208,2.208,0,0,0,2.208,2.223,2.231,2.231,0,0,0,2.236-2.223v-3.915a.257.257,0,0,1,.06-.176c0-.015.014-.03.014-.044.015,0,.015-.015.029-.015a.273.273,0,0,1,.133-.088h.03c.014,0,.029-.015.043-.015h.089a.958.958,0,0,1,.177.073.377.377,0,0,1,.088.118.277.277,0,0,1,.044.147v6.3a3.4,3.4,0,0,1-3.43,3.385,3.6,3.6,0,0,1-1.485-.338.365.365,0,0,1-.147-.471.379.379,0,0,1,.456-.176,2.67,2.67,0,0,0,1.176.279,2.707,2.707,0,0,0,2.723-2.679V243.7a2.975,2.975,0,0,1-2.236,1.03,2.946,2.946,0,0,1-2.915-2.943Z" transform="translate(358.076 -234.44)" fill="#263238"/>
              <path id="Path_4468" data-name="Path 4468" d="M-298.359,237.531a3.528,3.528,0,0,1,3.414,3.605,3.528,3.528,0,0,1-3.414,3.606,3.536,3.536,0,0,1-3.414-3.606A3.536,3.536,0,0,1-298.359,237.531Zm0,6.505a2.822,2.822,0,0,0,2.707-2.9,2.835,2.835,0,0,0-2.707-2.914,2.837,2.837,0,0,0-2.709,2.914A2.824,2.824,0,0,0-298.359,244.036Z" transform="translate(359.808 -234.44)" fill="#263238"/>
              <path id="Path_4469" data-name="Path 4469" d="M-294.483,237.872a.348.348,0,0,1,.352-.353.348.348,0,0,1,.353.353V241.8a2.23,2.23,0,0,0,2.208,2.237,2.246,2.246,0,0,0,2.238-2.237v-3.931a.357.357,0,0,1,.353-.353.353.353,0,0,1,.368.353V241.8a2.946,2.946,0,0,1-2.959,2.943,2.926,2.926,0,0,1-2.913-2.943Z" transform="translate(361.678 -234.443)" fill="#263238"/>
              <path id="Path_4470" data-name="Path 4470" d="M-287.184,235.424a.359.359,0,0,1,.354-.353.362.362,0,0,1,.368.353v7.389a.365.365,0,0,1-.368.368.362.362,0,0,1-.354-.368Zm0,9.243a.359.359,0,0,1,.354-.353.362.362,0,0,1,.368.353v.353a.362.362,0,0,1-.368.353.359.359,0,0,1-.354-.353Z" transform="translate(363.551 -235.071)" fill="#263238"/>
            </g>
            <g id="Group_4040" data-name="Group 4040" transform="translate(41.484)">
              <path id="Path_4471" data-name="Path 4471" d="M-317.011,213.411l-10.618-10.748,3.567-3.524,6.2,6.278,12.886-20.2,4.228,2.7Z" transform="translate(357.319 -171.556)" fill="#ffc727"/>
              <path id="Path_4472" data-name="Path 4472" d="M-311.265,229.859A27.788,27.788,0,0,1-339.021,202.1a27.789,27.789,0,0,1,27.756-27.758A27.789,27.789,0,0,1-283.507,202.1,27.788,27.788,0,0,1-311.265,229.859Zm0-51.744A24.015,24.015,0,0,0-335.251,202.1a24.014,24.014,0,0,0,23.987,23.987A24.015,24.015,0,0,0-287.277,202.1,24.016,24.016,0,0,0-311.265,178.115Z" transform="translate(354.396 -174.345)" fill="#ffc727"/>
              <g id="Group_4039" data-name="Group 4039" transform="translate(0 9.65)">
                <g id="Group_4037" data-name="Group 4037" transform="translate(0 0)">
                  <rect id="Rectangle_232" data-name="Rectangle 232" width="8.244" height="1.257" transform="translate(0 17.479)" fill="#ffc727"/>
                  <rect id="Rectangle_233" data-name="Rectangle 233" width="1.256" height="8.245" transform="matrix(0.707, -0.707, 0.707, 0.707, 4.499, 0.888)" fill="#ffc727"/>
                  <rect id="Rectangle_234" data-name="Rectangle 234" width="8.244" height="1.256" transform="translate(4.499 35.053) rotate(-45)" fill="#ffc727"/>
                </g>
                <g id="Group_4038" data-name="Group 4038" transform="translate(75.047 0)">
                  <rect id="Rectangle_235" data-name="Rectangle 235" width="8.244" height="1.257" transform="translate(2.972 17.479)" fill="#ffc727"/>
                  <rect id="Rectangle_236" data-name="Rectangle 236" width="8.244" height="1.256" transform="translate(0 5.829) rotate(-45)" fill="#ffc727"/>
                  <rect id="Rectangle_237" data-name="Rectangle 237" width="1.256" height="8.244" transform="matrix(0.707, -0.707, 0.707, 0.707, 0, 30.111)" fill="#ffc727"/>
                </g>
              </g>
            </g>
            <g id="Group_4042" data-name="Group 4042" transform="translate(47.128 155.104)">
              <rect id="Rectangle_238" data-name="Rectangle 238" width="74.977" height="25.193" fill="#ffc727"/>
              <g id="Group_4041" data-name="Group 4041" transform="translate(17.823 7.299)">
                <path id="Path_4473" data-name="Path 4473" d="M-332.582,313.316v-8.684a.8.8,0,0,1,.81-.81h1.737a5.142,5.142,0,0,1,5.137,5.137,5.147,5.147,0,0,1-5.137,5.166h-1.737A.807.807,0,0,1-332.582,313.316Zm1.635-.824h.912a3.52,3.52,0,0,0,3.5-3.534,3.5,3.5,0,0,0-3.5-3.5h-.912Z" transform="translate(332.582 -303.528)" fill="#fff"/>
                <path id="Path_4474" data-name="Path 4474" d="M-316.114,305.163a5.4,5.4,0,0,1,1.487,3.723,5.377,5.377,0,0,1-1.487,3.723,4.822,4.822,0,0,1-3.517,1.574,4.972,4.972,0,0,1-3.606-1.574,5.352,5.352,0,0,1-1.456-3.723,5.377,5.377,0,0,1,1.456-3.723,4.91,4.91,0,0,1,3.606-1.574A4.762,4.762,0,0,1-316.114,305.163Zm-.191,3.723a3.807,3.807,0,0,0-1-2.575,3.167,3.167,0,0,0-2.325-1.045,3.2,3.2,0,0,0-2.385,1.045,3.747,3.747,0,0,0-1,2.575,3.685,3.685,0,0,0,1,2.561,3.219,3.219,0,0,0,2.385,1.059,3.186,3.186,0,0,0,2.325-1.059A3.743,3.743,0,0,0-316.305,308.886Z" transform="translate(334.606 -303.588)" fill="#fff"/>
                <path id="Path_4475" data-name="Path 4475" d="M-313.058,313.295a.813.813,0,0,1-.8.808.806.806,0,0,1-.809-.808v-8.566a.792.792,0,0,1,.324-.677.811.811,0,0,1,1.118.176l4.754,6.579v-6.064a.8.8,0,0,1,.8-.794.813.813,0,0,1,.809.794v8.552a.815.815,0,0,1-.809.808.794.794,0,0,1-.6-.294.353.353,0,0,1-.074-.088l-4.71-6.534Z" transform="translate(337.179 -303.507)" fill="#fff"/>
                <path id="Path_4476" data-name="Path 4476" d="M-306.4,313.316v-8.684a.8.8,0,0,1,.809-.81h4.813a.817.817,0,0,1,.809.81.828.828,0,0,1-.809.823h-3.988v2.694h3.429a.826.826,0,0,1,.809.809.82.82,0,0,1-.809.824h-3.429v2.709h3.988a.828.828,0,0,1,.809.824.825.825,0,0,1-.809.808h-4.767c-.03,0-.03-.014-.03-.014l-.015.014A.806.806,0,0,1-306.4,313.316Z" transform="translate(339.3 -303.528)" fill="#fff"/>
              </g>
            </g>
            <g id="Group_4043" data-name="Group 4043" transform="translate(13.361 117.56)">
              <path id="Path_4477" data-name="Path 4477" d="M-371.688,270.861l-1.916-2.616a.212.212,0,0,1,.042-.278.187.187,0,0,1,.276.034l1.786,2.453,1.793-2.453a.187.187,0,0,1,.276-.034.2.2,0,0,1,.042.278l-1.907,2.6v2.56a.194.194,0,0,1-.2.2.2.2,0,0,1-.195-.2Z" transform="translate(373.638 -267.896)" fill="#c7c7c7"/>
              <path id="Path_4478" data-name="Path 4478" d="M-368.458,269.262a1.954,1.954,0,0,1,1.89,2,1.954,1.954,0,0,1-1.89,2,1.96,1.96,0,0,1-1.891-2A1.96,1.96,0,0,1-368.458,269.262Zm0,3.6a1.562,1.562,0,0,0,1.5-1.6,1.57,1.57,0,0,0-1.5-1.613,1.57,1.57,0,0,0-1.5,1.613A1.562,1.562,0,0,0-368.458,272.863Z" transform="translate(374.481 -267.552)" fill="#c7c7c7"/>
              <path id="Path_4479" data-name="Path 4479" d="M-366.316,269.451a.194.194,0,0,1,.2-.2.2.2,0,0,1,.2.2v2.176a1.233,1.233,0,0,0,1.221,1.238,1.243,1.243,0,0,0,1.24-1.238v-2.176a.2.2,0,0,1,.195-.2.2.2,0,0,1,.2.2v2.176a1.631,1.631,0,0,1-1.639,1.63,1.621,1.621,0,0,1-1.613-1.63Z" transform="translate(375.516 -267.554)" fill="#c7c7c7"/>
              <path id="Path_4480" data-name="Path 4480" d="M-358.941,273.214a.139.139,0,0,1-.08-.089l-1.5-3.569a.2.2,0,0,1,.1-.253.194.194,0,0,1,.253.106l1.328,3.146.921-2.193a.212.212,0,0,1,.187-.122.217.217,0,0,1,.2.122l.921,2.193,1.319-3.146a.2.2,0,0,1,.254-.106.2.2,0,0,1,.106.253l-1.492,3.552a.238.238,0,0,1-.074.1.169.169,0,0,1-.1.04h-.04a.186.186,0,0,1-.155-.123l-.009-.008-.929-2.209-.92,2.2a.03.03,0,0,0-.009.016.192.192,0,0,1-.171.123.262.262,0,0,1-.074-.016A.045.045,0,0,1-358.941,273.214Z" transform="translate(376.999 -267.545)" fill="#c7c7c7"/>
              <path id="Path_4481" data-name="Path 4481" d="M-355.143,268.42a.2.2,0,0,1,.2-.195.2.2,0,0,1,.2.195v.189a.208.208,0,0,1-.2.211.208.208,0,0,1-.2-.211Zm0,1.3a.194.194,0,0,1,.2-.195.2.2,0,0,1,.2.195v3.6a.2.2,0,0,1-.2.2.2.2,0,0,1-.2-.2Z" transform="translate(378.383 -267.818)" fill="#c7c7c7"/>
              <path id="Path_4482" data-name="Path 4482" d="M-353.417,268.1a.2.2,0,0,1,.195-.195.2.2,0,0,1,.2.195v5.313a.2.2,0,0,1-.2.2.2.2,0,0,1-.195-.2Z" transform="translate(378.826 -267.901)" fill="#c7c7c7"/>
              <path id="Path_4483" data-name="Path 4483" d="M-351.8,268.1a.2.2,0,0,1,.195-.195.2.2,0,0,1,.2.195v5.313a.2.2,0,0,1-.2.2.2.2,0,0,1-.195-.2Z" transform="translate(379.24 -267.901)" fill="#c7c7c7"/>
              <path id="Path_4484" data-name="Path 4484" d="M-348.289,271.7v-3.6a.2.2,0,0,1,.2-.195.2.2,0,0,1,.2.195v2.3a1.9,1.9,0,0,1,1.533-.783,1.963,1.963,0,0,1,1.93,2.005,1.958,1.958,0,0,1-1.93,1.988,1.9,1.9,0,0,1-1.533-.774v.578a.2.2,0,0,1-.2.2.2.2,0,0,1-.2-.2Zm.4-.08a1.565,1.565,0,0,0,1.533,1.588,1.558,1.558,0,0,0,1.531-1.588,1.57,1.57,0,0,0-1.531-1.607,1.57,1.57,0,0,0-1.533,1.542Z" transform="translate(380.141 -267.901)" fill="#c7c7c7"/>
              <path id="Path_4485" data-name="Path 4485" d="M-344.236,271.267a1.97,1.97,0,0,1,1.939-2.005,1.957,1.957,0,0,1,1.924,1.858v.033a.184.184,0,0,1-.2.178h-3.275a1.57,1.57,0,0,0,1.547,1.532,1.5,1.5,0,0,0,1.289-.725.19.19,0,0,1,.26-.065.208.208,0,0,1,.064.278,1.9,1.9,0,0,1-1.613.9A1.965,1.965,0,0,1-344.236,271.267Zm.416-.318h3.023a1.542,1.542,0,0,0-1.5-1.3A1.557,1.557,0,0,0-343.82,270.95Z" transform="translate(381.181 -267.552)" fill="#c7c7c7"/>
              <path id="Path_4486" data-name="Path 4486" d="M-338.115,269.464a.2.2,0,0,1,.2-.195.19.19,0,0,1,.188.195v.88a.6.6,0,0,1,.057-.1,1.923,1.923,0,0,1,1.6-.978.193.193,0,0,1,.2.195.2.2,0,0,1-.2.195,1.442,1.442,0,0,0-1.157.653,3.514,3.514,0,0,0-.48.929.124.124,0,0,0-.016.065v1.752a.192.192,0,0,1-.188.2.2.2,0,0,1-.2-.2Z" transform="translate(382.752 -267.55)" fill="#c7c7c7"/>
              <path id="Path_4487" data-name="Path 4487" d="M-335.82,271.267a1.971,1.971,0,0,1,1.94-2.005,1.955,1.955,0,0,1,1.923,1.858v.033a.184.184,0,0,1-.195.178h-3.276a1.57,1.57,0,0,0,1.548,1.532,1.5,1.5,0,0,0,1.288-.725.191.191,0,0,1,.261-.065.209.209,0,0,1,.064.278,1.9,1.9,0,0,1-1.613.9A1.966,1.966,0,0,1-335.82,271.267Zm.416-.318h3.025a1.543,1.543,0,0,0-1.5-1.3A1.559,1.559,0,0,0-335.4,270.95Z" transform="translate(383.34 -267.552)" fill="#c7c7c7"/>
              <path id="Path_4488" data-name="Path 4488" d="M-331.871,271.25a2.011,2.011,0,0,1,2.055-1.988,2.054,2.054,0,0,1,1.272.441.184.184,0,0,1,.024.268.2.2,0,0,1-.268.033,1.64,1.64,0,0,0-1.028-.358,1.632,1.632,0,0,0-1.662,1.6,1.628,1.628,0,0,0,1.662,1.613,1.686,1.686,0,0,0,1.028-.349.2.2,0,0,1,.268.031.2.2,0,0,1-.042.286,2.06,2.06,0,0,1-1.254.423A2.015,2.015,0,0,1-331.871,271.25Z" transform="translate(384.354 -267.552)" fill="#c7c7c7"/>
              <path id="Path_4489" data-name="Path 4489" d="M-328.265,271.267a1.97,1.97,0,0,1,1.94-2.005,1.956,1.956,0,0,1,1.923,1.858v.033a.184.184,0,0,1-.195.178h-3.277a1.572,1.572,0,0,0,1.549,1.532,1.5,1.5,0,0,0,1.287-.725.192.192,0,0,1,.261-.065.208.208,0,0,1,.065.278,1.9,1.9,0,0,1-1.613.9A1.965,1.965,0,0,1-328.265,271.267Zm.416-.318h3.023a1.54,1.54,0,0,0-1.5-1.3A1.558,1.558,0,0,0-327.849,270.95Z" transform="translate(385.279 -267.552)" fill="#c7c7c7"/>
              <path id="Path_4490" data-name="Path 4490" d="M-324.082,268.42a.2.2,0,0,1,.195-.195.2.2,0,0,1,.2.195v.189a.208.208,0,0,1-.2.211.207.207,0,0,1-.195-.211Zm0,1.3a.193.193,0,0,1,.195-.195.2.2,0,0,1,.2.195v3.6a.2.2,0,0,1-.2.2.2.2,0,0,1-.195-.2Z" transform="translate(386.352 -267.818)" fill="#c7c7c7"/>
              <path id="Path_4491" data-name="Path 4491" d="M-320.925,273.214a.214.214,0,0,1-.065-.089l-1.5-3.569a.2.2,0,0,1,.1-.253.192.192,0,0,1,.251.106l1.328,3.146,1.328-3.146a.193.193,0,0,1,.253-.106.19.19,0,0,1,.1.253l-1.49,3.537a.324.324,0,0,1-.049.1.178.178,0,0,1-.131.057.178.178,0,0,1-.067-.009c-.006,0-.006,0-.015-.008S-320.91,273.223-320.925,273.214Z" transform="translate(386.757 -267.545)" fill="#c7c7c7"/>
              <path id="Path_4492" data-name="Path 4492" d="M-318.487,268.42a.2.2,0,0,1,.2-.195.2.2,0,0,1,.2.195v.189a.209.209,0,0,1-.2.211.209.209,0,0,1-.2-.211Zm0,1.3a.2.2,0,0,1,.2-.195.2.2,0,0,1,.2.195v3.6a.2.2,0,0,1-.2.2.2.2,0,0,1-.2-.2Z" transform="translate(387.788 -267.818)" fill="#c7c7c7"/>
              <path id="Path_4493" data-name="Path 4493" d="M-313.819,270.89a1.23,1.23,0,0,0-1.23-1.231,1.254,1.254,0,0,0-1.239,1.231v2.2a.166.166,0,0,1-.04.089.174.174,0,0,1-.147.074h-.049a.217.217,0,0,1-.131-.106.034.034,0,0,1-.008-.025.027.027,0,0,0-.008-.016v-3.643a.192.192,0,0,1,.195-.195.19.19,0,0,1,.187.195v.383a1.618,1.618,0,0,1,1.239-.578,1.625,1.625,0,0,1,1.622,1.621v2.168a.194.194,0,0,1-.2.2.193.193,0,0,1-.195-.2Z" transform="translate(388.254 -267.55)" fill="#c7c7c7"/>
              <path id="Path_4494" data-name="Path 4494" d="M-309.153,272.938a1.876,1.876,0,0,1-1.882,1.874,2.083,2.083,0,0,1-.832-.186.211.211,0,0,1-.082-.261.182.182,0,0,1,.261-.09,1.441,1.441,0,0,0,.652.147,1.479,1.479,0,0,0,1.49-1.483v-.489a1.807,1.807,0,0,1-1.49.782,1.928,1.928,0,0,1-1.875-1.988,1.936,1.936,0,0,1,1.875-1.98,1.825,1.825,0,0,1,1.49.783v-.588a.2.2,0,0,1,.2-.195.2.2,0,0,1,.189.195Zm-.392-1.7a1.535,1.535,0,0,0-1.49-1.588,1.534,1.534,0,0,0-1.484,1.588,1.546,1.546,0,0,0,1.484,1.606A1.546,1.546,0,0,0-309.545,271.242Z" transform="translate(389.219 -267.552)" fill="#c7c7c7"/>
              <path id="Path_4495" data-name="Path 4495" d="M-303.033,269.457v3.6a.2.2,0,0,1-.2.2.2.2,0,0,1-.2-.2v-.594a1.864,1.864,0,0,1-1.5.79,1.948,1.948,0,0,1-1.891-2,1.948,1.948,0,0,1,1.891-2,1.853,1.853,0,0,1,1.5.783v-.588a.194.194,0,0,1,.2-.195A.193.193,0,0,1-303.033,269.457Zm-.392,1.8a1.56,1.56,0,0,0-1.5-1.613,1.565,1.565,0,0,0-1.5,1.613,1.556,1.556,0,0,0,1.5,1.6A1.551,1.551,0,0,0-303.425,271.259Z" transform="translate(390.782 -267.552)" fill="#c7c7c7"/>
              <path id="Path_4496" data-name="Path 4496" d="M-300.739,271.25a2.011,2.011,0,0,1,2.053-1.988,2.054,2.054,0,0,1,1.272.441.182.182,0,0,1,.024.268.2.2,0,0,1-.269.033,1.632,1.632,0,0,0-1.027-.358,1.631,1.631,0,0,0-1.661,1.6,1.627,1.627,0,0,0,1.661,1.613,1.677,1.677,0,0,0,1.027-.349.2.2,0,0,1,.269.031.194.194,0,0,1-.04.286,2.066,2.066,0,0,1-1.255.423A2.015,2.015,0,0,1-300.739,271.25Z" transform="translate(392.341 -267.552)" fill="#c7c7c7"/>
              <path id="Path_4497" data-name="Path 4497" d="M-295.165,269.262a1.954,1.954,0,0,1,1.891,2,1.954,1.954,0,0,1-1.891,2,1.959,1.959,0,0,1-1.89-2A1.959,1.959,0,0,1-295.165,269.262Zm0,3.6a1.562,1.562,0,0,0,1.5-1.6,1.57,1.57,0,0,0-1.5-1.613,1.57,1.57,0,0,0-1.5,1.613A1.562,1.562,0,0,0-295.165,272.863Z" transform="translate(393.287 -267.552)" fill="#c7c7c7"/>
              <path id="Path_4498" data-name="Path 4498" d="M-290,270.89a1.231,1.231,0,0,0-1.231-1.231,1.252,1.252,0,0,0-1.238,1.231v2.2a.189.189,0,0,1-.041.089.176.176,0,0,1-.147.074h-.049a.211.211,0,0,1-.129-.106.031.031,0,0,1-.009-.025.027.027,0,0,0-.008-.016v-3.643a.192.192,0,0,1,.195-.195.192.192,0,0,1,.188.195v.383a1.616,1.616,0,0,1,1.238-.578,1.625,1.625,0,0,1,1.622,1.621v2.168a.193.193,0,0,1-.2.2.193.193,0,0,1-.195-.2Z" transform="translate(394.365 -267.55)" fill="#c7c7c7"/>
              <path id="Path_4499" data-name="Path 4499" d="M-287.072,268.111a.2.2,0,0,1-.195.2.619.619,0,0,0-.506.155.978.978,0,0,0-.162.66v.423h.562a.2.2,0,0,1,.2.2.2.2,0,0,1-.2.2h-.562v3.471a.2.2,0,0,1-.2.2.2.2,0,0,1-.2-.2v-3.471h-.53a.2.2,0,0,1-.195-.2.2.2,0,0,1,.195-.2h.53v-.423a1.415,1.415,0,0,1,.26-.929,1.06,1.06,0,0,1,.808-.285A.2.2,0,0,1-287.072,268.111Z" transform="translate(395.338 -267.899)" fill="#c7c7c7"/>
              <path id="Path_4500" data-name="Path 4500" d="M-286.525,268.42a.2.2,0,0,1,.2-.195.2.2,0,0,1,.2.195v.189a.21.21,0,0,1-.2.211.207.207,0,0,1-.2-.211Zm0,1.3a.193.193,0,0,1,.2-.195.2.2,0,0,1,.2.195v3.6a.2.2,0,0,1-.2.2.2.2,0,0,1-.2-.2Z" transform="translate(395.988 -267.818)" fill="#c7c7c7"/>
              <path id="Path_4501" data-name="Path 4501" d="M-284.709,269.464a.194.194,0,0,1,.2-.195.19.19,0,0,1,.186.195v.88a.887.887,0,0,1,.058-.1,1.923,1.923,0,0,1,1.6-.978.192.192,0,0,1,.2.195.2.2,0,0,1-.2.195,1.442,1.442,0,0,0-1.157.653,3.553,3.553,0,0,0-.48.929.116.116,0,0,0-.018.065v1.752a.191.191,0,0,1-.186.2.2.2,0,0,1-.2-.2Z" transform="translate(396.454 -267.55)" fill="#c7c7c7"/>
              <path id="Path_4502" data-name="Path 4502" d="M-276.151,270.89a1.254,1.254,0,0,0-1.239-1.238,1.241,1.241,0,0,0-1.23,1.238v2.2a.026.026,0,0,1-.009.016v.016a.2.2,0,0,1-.1.106.209.209,0,0,1-.1.025h-.041a.03.03,0,0,1-.016-.009c-.015,0-.033-.016-.049-.025s-.015-.006-.024-.015l-.025-.025c-.008-.008-.008-.016-.015-.016s0-.008-.009-.015a.03.03,0,0,0-.008-.018.028.028,0,0,0-.009-.024V270.89a1.236,1.236,0,0,0-1.231-1.238,1.236,1.236,0,0,0-1.229,1.238v2.175a.173.173,0,0,1-.089.155.1.1,0,0,1-.049.025c-.009.009-.016.009-.034.009h-.049a.217.217,0,0,1-.162-.147v-3.652a.189.189,0,0,1,.187-.186.186.186,0,0,1,.2.186v.385a1.591,1.591,0,0,1,1.229-.57,1.619,1.619,0,0,1,1.427.847,1.652,1.652,0,0,1,1.434-.847,1.62,1.62,0,0,1,1.622,1.621v2.175a.193.193,0,0,1-.2.188.19.19,0,0,1-.187-.188Z" transform="translate(397.184 -267.55)" fill="#c7c7c7"/>
              <path id="Path_4503" data-name="Path 4503" d="M-272.259,269.457v3.6a.2.2,0,0,1-.2.2.2.2,0,0,1-.195-.2v-.594a1.866,1.866,0,0,1-1.5.79,1.947,1.947,0,0,1-1.889-2,1.947,1.947,0,0,1,1.889-2,1.855,1.855,0,0,1,1.5.783v-.588a.193.193,0,0,1,.195-.195A.193.193,0,0,1-272.259,269.457Zm-.391,1.8a1.56,1.56,0,0,0-1.5-1.613,1.565,1.565,0,0,0-1.5,1.613,1.556,1.556,0,0,0,1.5,1.6A1.551,1.551,0,0,0-272.65,271.259Z" transform="translate(398.679 -267.552)" fill="#c7c7c7"/>
              <path id="Path_4504" data-name="Path 4504" d="M-270.2,269.8a.212.212,0,0,1-.195.2h-.514v2.909a.313.313,0,0,0,.293.293.225.225,0,0,1,.2.2.218.218,0,0,1-.2.2.679.679,0,0,1-.7-.692V270h-.5c-.195,0-.195-.1-.195-.2s0-.195.195-.195h.5v-1.484a.211.211,0,0,1,.2-.195.219.219,0,0,1,.211.195V269.6h.514A.21.21,0,0,1-270.2,269.8Z" transform="translate(399.712 -267.895)" fill="#c7c7c7"/>
              <path id="Path_4505" data-name="Path 4505" d="M-269.082,268.42a.2.2,0,0,1,.2-.195.2.2,0,0,1,.2.195v.189a.208.208,0,0,1-.2.211.207.207,0,0,1-.2-.211Zm0,1.3a.193.193,0,0,1,.2-.195.2.2,0,0,1,.2.195v3.6a.2.2,0,0,1-.2.2.2.2,0,0,1-.2-.2Z" transform="translate(400.464 -267.818)" fill="#c7c7c7"/>
              <path id="Path_4506" data-name="Path 4506" d="M-265.526,269.262a1.954,1.954,0,0,1,1.891,2,1.954,1.954,0,0,1-1.891,2,1.958,1.958,0,0,1-1.889-2A1.958,1.958,0,0,1-265.526,269.262Zm0,3.6a1.562,1.562,0,0,0,1.5-1.6,1.57,1.57,0,0,0-1.5-1.613,1.569,1.569,0,0,0-1.5,1.613A1.561,1.561,0,0,0-265.526,272.863Z" transform="translate(400.891 -267.552)" fill="#c7c7c7"/>
              <path id="Path_4507" data-name="Path 4507" d="M-260.362,270.89a1.23,1.23,0,0,0-1.23-1.231,1.254,1.254,0,0,0-1.239,1.231v2.2a.169.169,0,0,1-.041.089.172.172,0,0,1-.146.074h-.049a.217.217,0,0,1-.131-.106.034.034,0,0,1-.008-.025.027.027,0,0,0-.008-.016v-3.643a.192.192,0,0,1,.195-.195.191.191,0,0,1,.187.195v.383a1.618,1.618,0,0,1,1.239-.578,1.625,1.625,0,0,1,1.622,1.621v2.168a.2.2,0,0,1-.2.2.194.194,0,0,1-.195-.2Z" transform="translate(401.969 -267.55)" fill="#c7c7c7"/>
              <path id="Path_4508" data-name="Path 4508" d="M-354.761,279.049a1.97,1.97,0,0,1,1.94-2.005A1.957,1.957,0,0,1-350.9,278.9v.033a.185.185,0,0,1-.195.18h-3.277a1.571,1.571,0,0,0,1.549,1.53,1.5,1.5,0,0,0,1.287-.725.19.19,0,0,1,.261-.064.208.208,0,0,1,.065.276,1.9,1.9,0,0,1-1.613.9A1.965,1.965,0,0,1-354.761,279.049Zm.416-.318h3.023a1.541,1.541,0,0,0-1.5-1.3A1.559,1.559,0,0,0-354.345,278.731Z" transform="translate(378.481 -265.555)" fill="#c7c7c7"/>
              <path id="Path_4509" data-name="Path 4509" d="M-344.873,278.671a1.252,1.252,0,0,0-1.238-1.238,1.24,1.24,0,0,0-1.23,1.238v2.2a.026.026,0,0,1-.009.016v.016a.2.2,0,0,1-.1.106.218.218,0,0,1-.1.025h-.041a.026.026,0,0,1-.016-.009c-.016,0-.033-.016-.049-.024s-.016-.008-.024-.016l-.025-.025c-.008-.006-.008-.015-.016-.015s0-.009-.008-.016a.027.027,0,0,0-.009-.018.029.029,0,0,0-.009-.024v-2.217a1.235,1.235,0,0,0-1.229-1.238,1.236,1.236,0,0,0-1.231,1.238v2.176a.176.176,0,0,1-.089.155.1.1,0,0,1-.049.024c-.009.009-.016.009-.033.009h-.049a.213.213,0,0,1-.162-.147v-3.65a.189.189,0,0,1,.187-.187.186.186,0,0,1,.195.187v.383a1.6,1.6,0,0,1,1.231-.57,1.624,1.624,0,0,1,1.426.847,1.651,1.651,0,0,1,1.434-.847,1.62,1.62,0,0,1,1.621,1.621v2.176a.19.19,0,0,1-.195.187.19.19,0,0,1-.188-.187Z" transform="translate(379.552 -265.554)" fill="#c7c7c7"/>
              <path id="Path_4510" data-name="Path 4510" d="M-340.98,277.239v3.6a.2.2,0,0,1-.2.195.2.2,0,0,1-.195-.195v-.6a1.864,1.864,0,0,1-1.5.79,1.948,1.948,0,0,1-1.891-2,1.948,1.948,0,0,1,1.891-2,1.853,1.853,0,0,1,1.5.783v-.587a.194.194,0,0,1,.195-.2A.2.2,0,0,1-340.98,277.239Zm-.392,1.8a1.56,1.56,0,0,0-1.5-1.613,1.565,1.565,0,0,0-1.5,1.613,1.557,1.557,0,0,0,1.5,1.6A1.551,1.551,0,0,0-341.372,279.04Z" transform="translate(381.046 -265.555)" fill="#c7c7c7"/>
              <path id="Path_4511" data-name="Path 4511" d="M-340.4,276.2a.2.2,0,0,1,.195-.195.2.2,0,0,1,.2.195v.189a.209.209,0,0,1-.2.211.206.206,0,0,1-.195-.211Zm0,1.3a.194.194,0,0,1,.195-.2.2.2,0,0,1,.2.2v3.6a.2.2,0,0,1-.2.195.2.2,0,0,1-.195-.195Z" transform="translate(382.166 -265.822)" fill="#c7c7c7"/>
              <path id="Path_4512" data-name="Path 4512" d="M-338.673,275.877a.2.2,0,0,1,.2-.195.2.2,0,0,1,.2.195v5.314a.2.2,0,0,1-.2.195.2.2,0,0,1-.2-.195Z" transform="translate(382.608 -265.905)" fill="#c7c7c7"/>
              <path id="Path_4513" data-name="Path 4513" d="M-333.769,281a.146.146,0,0,1-.082-.09l-1.5-3.569a.2.2,0,0,1,.1-.253.194.194,0,0,1,.253.106l1.328,3.146.92-2.193a.215.215,0,0,1,.188-.122.217.217,0,0,1,.2.122l.92,2.193,1.321-3.146a.2.2,0,0,1,.253-.106.194.194,0,0,1,.105.253l-1.49,3.554a.242.242,0,0,1-.074.1.169.169,0,0,1-.1.04h-.04a.186.186,0,0,1-.155-.123l-.009-.008-.929-2.208-.921,2.2a.026.026,0,0,0-.008.015.192.192,0,0,1-.171.123.263.263,0,0,1-.074-.016A.048.048,0,0,1-333.769,281Z" transform="translate(383.457 -265.548)" fill="#c7c7c7"/>
              <path id="Path_4514" data-name="Path 4514" d="M-329.971,276.2a.2.2,0,0,1,.2-.195.2.2,0,0,1,.2.195v.189a.208.208,0,0,1-.2.211.207.207,0,0,1-.2-.211Zm0,1.3a.2.2,0,0,1,.2-.2.2.2,0,0,1,.2.2v3.6a.2.2,0,0,1-.2.195.2.2,0,0,1-.2-.195Z" transform="translate(384.841 -265.822)" fill="#c7c7c7"/>
              <path id="Path_4515" data-name="Path 4515" d="M-326.677,277.582a.211.211,0,0,1-.2.2h-.513v2.909a.314.314,0,0,0,.294.294.225.225,0,0,1,.2.2.218.218,0,0,1-.2.195.679.679,0,0,1-.7-.692v-2.909h-.5c-.2,0-.2-.1-.2-.2s0-.2.2-.2h.5V275.9a.211.211,0,0,1,.195-.2.22.22,0,0,1,.212.2v1.483h.513A.211.211,0,0,1-326.677,277.582Z" transform="translate(385.222 -265.898)" fill="#c7c7c7"/>
              <path id="Path_4516" data-name="Path 4516" d="M-322.758,278.965a1.193,1.193,0,0,0-1.27-1.174,1.191,1.191,0,0,0-1.263,1.174v2.249c0,.016-.008.024-.008.033s-.009.024-.018.033a.187.187,0,0,1-.122.1.03.03,0,0,1-.016.009h-.042a.229.229,0,0,1-.155-.065.288.288,0,0,1-.033-.065.186.186,0,0,1-.008-.064v-5.314a.2.2,0,0,1,.195-.195.2.2,0,0,1,.2.195v2.1a1.651,1.651,0,0,1,1.263-.587,1.592,1.592,0,0,1,1.67,1.573v2.225a.2.2,0,0,1-.2.195.2.2,0,0,1-.2-.195Z" transform="translate(385.939 -265.905)" fill="#c7c7c7"/>
              <path id="Path_4517" data-name="Path 4517" d="M-318.029,277.043a1.953,1.953,0,0,1,1.889,2,1.953,1.953,0,0,1-1.889,2,1.959,1.959,0,0,1-1.891-2A1.959,1.959,0,0,1-318.029,277.043Zm0,3.6a1.562,1.562,0,0,0,1.5-1.6,1.57,1.57,0,0,0-1.5-1.613,1.57,1.57,0,0,0-1.5,1.613A1.562,1.562,0,0,0-318.029,280.644Z" transform="translate(387.42 -265.555)" fill="#c7c7c7"/>
              <path id="Path_4518" data-name="Path 4518" d="M-315.848,277.245a.2.2,0,0,1,.2-.195.191.191,0,0,1,.187.195v.881a.666.666,0,0,1,.058-.1,1.923,1.923,0,0,1,1.6-.978.193.193,0,0,1,.195.195.2.2,0,0,1-.195.2,1.443,1.443,0,0,0-1.157.652,3.627,3.627,0,0,0-.481.929.123.123,0,0,0-.016.065v1.753a.19.19,0,0,1-.187.195.194.194,0,0,1-.2-.195Z" transform="translate(388.465 -265.554)" fill="#c7c7c7"/>
              <path id="Path_4519" data-name="Path 4519" d="M-309.915,280.612a1.9,1.9,0,0,1-1.53.774,1.957,1.957,0,0,1-1.931-1.988,1.962,1.962,0,0,1,1.931-2.005,1.9,1.9,0,0,1,1.53.783v-2.3a.2.2,0,0,1,.2-.195.2.2,0,0,1,.2.195v5.314a.2.2,0,0,1-.2.195.2.2,0,0,1-.2-.195Zm0-1.148v-.131a1.568,1.568,0,0,0-1.53-1.541,1.574,1.574,0,0,0-1.532,1.606,1.565,1.565,0,0,0,1.532,1.59A1.559,1.559,0,0,0-309.915,279.463Z" transform="translate(389.099 -265.905)" fill="#c7c7c7"/>
              <path id="Path_4520" data-name="Path 4520" d="M-309.207,279.049a1.969,1.969,0,0,1,1.939-2.005,1.96,1.96,0,0,1,1.924,1.858v.033a.186.186,0,0,1-.2.18h-3.276a1.57,1.57,0,0,0,1.548,1.53,1.5,1.5,0,0,0,1.288-.725.189.189,0,0,1,.26-.064.207.207,0,0,1,.065.276,1.9,1.9,0,0,1-1.613.9A1.965,1.965,0,0,1-309.207,279.049Zm.416-.318h3.022a1.54,1.54,0,0,0-1.5-1.3A1.557,1.557,0,0,0-308.791,278.731Z" transform="translate(390.169 -265.555)" fill="#c7c7c7"/>
              <path id="Path_4521" data-name="Path 4521" d="M-305.167,277.245a.2.2,0,0,1,.2-.195.191.191,0,0,1,.187.195v.881a.655.655,0,0,1,.057-.1,1.923,1.923,0,0,1,1.6-.978.193.193,0,0,1,.195.195.2.2,0,0,1-.195.2,1.438,1.438,0,0,0-1.157.652,3.587,3.587,0,0,0-.481.929.123.123,0,0,0-.016.065v1.753a.19.19,0,0,1-.187.195.194.194,0,0,1-.2-.195Z" transform="translate(391.205 -265.554)" fill="#c7c7c7"/>
              <path id="Path_4522" data-name="Path 4522" d="M-297.127,280.612a1.9,1.9,0,0,1-1.532.774,1.957,1.957,0,0,1-1.931-1.988,1.962,1.962,0,0,1,1.931-2.005,1.9,1.9,0,0,1,1.532.783v-2.3a.2.2,0,0,1,.2-.195.2.2,0,0,1,.2.195v5.314a.2.2,0,0,1-.2.195.2.2,0,0,1-.2-.195Zm0-1.148v-.131a1.57,1.57,0,0,0-1.532-1.541,1.574,1.574,0,0,0-1.532,1.606,1.565,1.565,0,0,0,1.532,1.59A1.561,1.561,0,0,0-297.127,279.463Z" transform="translate(392.38 -265.905)" fill="#c7c7c7"/>
              <path id="Path_4523" data-name="Path 4523" d="M-296.42,279.049a1.97,1.97,0,0,1,1.94-2.005,1.96,1.96,0,0,1,1.923,1.858v.033a.185.185,0,0,1-.2.18h-3.276a1.57,1.57,0,0,0,1.549,1.53,1.5,1.5,0,0,0,1.287-.725.189.189,0,0,1,.26-.064.207.207,0,0,1,.065.276,1.9,1.9,0,0,1-1.612.9A1.965,1.965,0,0,1-296.42,279.049Zm.416-.318h3.023a1.542,1.542,0,0,0-1.5-1.3A1.558,1.558,0,0,0-296,278.731Z" transform="translate(393.449 -265.555)" fill="#c7c7c7"/>
              <path id="Path_4524" data-name="Path 4524" d="M-291.026,277.582a.211.211,0,0,1-.195.2h-.514v2.909a.314.314,0,0,0,.293.294.225.225,0,0,1,.2.2.218.218,0,0,1-.2.195.679.679,0,0,1-.7-.692v-2.909h-.5c-.195,0-.195-.1-.195-.2s0-.2.195-.2h.5V275.9a.212.212,0,0,1,.2-.2.219.219,0,0,1,.211.2v1.483h.514A.211.211,0,0,1-291.026,277.582Z" transform="translate(394.37 -265.898)" fill="#c7c7c7"/>
              <path id="Path_4525" data-name="Path 4525" d="M-286.667,277.239v3.6a.2.2,0,0,1-.2.195.2.2,0,0,1-.195-.195v-.6a1.866,1.866,0,0,1-1.5.79,1.948,1.948,0,0,1-1.89-2,1.948,1.948,0,0,1,1.89-2,1.856,1.856,0,0,1,1.5.783v-.587a.194.194,0,0,1,.195-.2A.194.194,0,0,1-286.667,277.239Zm-.391,1.8a1.561,1.561,0,0,0-1.5-1.613,1.565,1.565,0,0,0-1.5,1.613,1.556,1.556,0,0,0,1.5,1.6A1.552,1.552,0,0,0-287.058,279.04Z" transform="translate(394.982 -265.555)" fill="#c7c7c7"/>
              <path id="Path_4526" data-name="Path 4526" d="M-286.084,276.2a.2.2,0,0,1,.2-.195.2.2,0,0,1,.2.195v.189a.208.208,0,0,1-.2.211.206.206,0,0,1-.2-.211Zm0,1.3a.194.194,0,0,1,.2-.2.2.2,0,0,1,.2.2v3.6a.2.2,0,0,1-.2.195.2.2,0,0,1-.2-.195Z" transform="translate(396.101 -265.822)" fill="#c7c7c7"/>
              <path id="Path_4527" data-name="Path 4527" d="M-284.36,275.877a.2.2,0,0,1,.195-.195.2.2,0,0,1,.2.195v5.314a.2.2,0,0,1-.2.195.2.2,0,0,1-.195-.195Z" transform="translate(396.544 -265.905)" fill="#c7c7c7"/>
              <path id="Path_4528" data-name="Path 4528" d="M-283,280.206a.194.194,0,0,1,.278-.025,2.13,2.13,0,0,0,1.221.464,1.2,1.2,0,0,0,.758-.244.6.6,0,0,0,.3-.489.634.634,0,0,0-.285-.489,1.979,1.979,0,0,0-.847-.294l-.016-.008a2.265,2.265,0,0,1-.9-.31.832.832,0,0,1-.432-.716.993.993,0,0,1,.432-.783,1.712,1.712,0,0,1,.978-.269,2.148,2.148,0,0,1,1.19.432.207.207,0,0,1,.057.278.2.2,0,0,1-.269.057,1.746,1.746,0,0,0-.978-.4,1.2,1.2,0,0,0-.758.229.6.6,0,0,0-.253.456.482.482,0,0,0,.227.4,2.031,2.031,0,0,0,.816.276h.016a2.744,2.744,0,0,1,.969.327.994.994,0,0,1,.449.814,1.015,1.015,0,0,1-.456.807,1.631,1.631,0,0,1-.994.318,2.422,2.422,0,0,1-1.475-.57A.182.182,0,0,1-283,280.206Z" transform="translate(396.881 -265.555)" fill="#c7c7c7"/>
              <path id="Path_4529" data-name="Path 4529" d="M-279.264,279.573a.4.4,0,0,1,.407.407.4.4,0,0,1-.407.407.4.4,0,0,1-.407-.407A.4.4,0,0,1-279.264,279.573Z" transform="translate(397.747 -264.906)" fill="#c7c7c7"/>
            </g>
          </g>
        </g>
      </g>
      <g id="Character" transform="translate(0.425 245.11)">
        <g id="Group_4102" data-name="Group 4102">
          <g id="Group_4055" data-name="Group 4055" transform="translate(0 105.929)">
            <g id="Group_4048" data-name="Group 4048" transform="translate(124.031 88.427)">
              <g id="Group_4047" data-name="Group 4047">
                <g id="Group_4046" data-name="Group 4046">
                  <path id="Path_4530" data-name="Path 4530" d="M-426.54,348.495l2.982,17.883,20.2,109.094h3.256l-14.69-109.094-2.171-17.883Z" transform="translate(426.54 -348.495)" fill="#dbdbdb"/>
                </g>
              </g>
              <path id="Path_4531" data-name="Path 4531" d="M-416.961,348.495h-9.579l2.982,17.883h8.768Z" transform="translate(426.54 -348.495)" fill="#a6a6a6"/>
            </g>
            <g id="Group_4051" data-name="Group 4051" transform="translate(60.593 88.427)">
              <g id="Group_4050" data-name="Group 4050">
                <g id="Group_4049" data-name="Group 4049">
                  <path id="Path_4532" data-name="Path 4532" d="M-477.025,475.471h3.256l20.2-109.094,2.982-17.883h-9.579l-2.171,17.883Z" transform="translate(477.025 -348.495)" fill="#dbdbdb"/>
                </g>
              </g>
              <path id="Path_4533" data-name="Path 4533" d="M-463.164,348.495l-2.171,17.883h8.768l2.982-17.883Z" transform="translate(480.024 -348.495)" fill="#a6a6a6"/>
            </g>
            <g id="Group_4054" data-name="Group 4054" transform="translate(0 88.427)">
              <g id="Group_4053" data-name="Group 4053">
                <g id="Group_4052" data-name="Group 4052">
                  <path id="Path_4534" data-name="Path 4534" d="M-525.245,475.471h3.256l20.2-109.094,2.982-17.883h-9.579l-2.171,17.883Z" transform="translate(525.245 -348.495)" fill="#dbdbdb"/>
                </g>
              </g>
              <path id="Path_4535" data-name="Path 4535" d="M-513.555,366.377h8.767l2.982-17.883h-9.579Z" transform="translate(528.244 -348.495)" fill="#a6a6a6"/>
            </g>
            <path id="Path_4536" data-name="Path 4536" d="M-521.135,374.953h148.027v-15.6h-55.414l-18.624-81.232h-68.346Z" transform="translate(526.3 -278.123)" fill="#dbdbdb"/>
            <path id="Path_4537" data-name="Path 4537" d="M-521.135,374.953h8.069l5.259-96.83h-7.685Z" transform="translate(526.3 -278.123)" fill="#a6a6a6"/>
          </g>
          <g id="Group_4101" data-name="Group 4101" transform="translate(10.169)">
            <g id="Group_4062" data-name="Group 4062" transform="translate(21.162 118.978)">
              <g id="Group_4058" data-name="Group 4058" transform="translate(3.901 0.008)">
                <g id="Group_4056" data-name="Group 4056" transform="translate(44.036 131.676)">
                  <path id="Path_4538" data-name="Path 4538" d="M-373.674,475.374c-2.788.95-84.855.973-87.9-.955-.364-.217-.341-10.2-.582-17.8-.369-11.611,15.177-63.316,15.177-63.316l50.923,2.479-14.2,52.114s11.728,5.2,21.407,9.745c.013.011.025.011.025.023,5.957,2.8,11.146,5.343,12.337,6.284C-373.381,466.412-370.886,474.435-373.674,475.374Z" transform="translate(462.162 -393.303)" fill="#d3766a"/>
                  <path id="Path_4539" data-name="Path 4539" d="M-373.675,462.445c-2.788.95-84.855.973-87.9-.955-.364-.217-.532-7.629-.582-17.8,20.34,4.207,74.491,10.691,76.011,6.416.6-1.7-.716-3.618-2.676-5.372,5.957,2.8,11.146,5.343,12.337,6.284C-373.383,453.484-370.887,461.507-373.675,462.445Z" transform="translate(462.163 -380.375)" fill="#263238"/>
                </g>
                <g id="Group_4057" data-name="Group 4057" transform="translate(0.004 0.005)">
                  <path id="Path_4540" data-name="Path 4540" d="M-486.266,339.313c10.043,9.995,53.1,30.6,56.38,37.829,2.884,6.375-17.049,74.977-17.049,74.977l49.28,9.419s29.585-80.254,22.055-105.033c-6.987-23-85.737-67.988-85.737-67.988h-31.612S-506.054,319.642-486.266,339.313Z" transform="translate(497.204 -288.517)" fill="#d3766a"/>
                </g>
                <path id="Path_4541" data-name="Path 4541" d="M-386.184,341.615c-18.139,6.5-43.035,17.108-60.762,22.76-14.251-8.639-33.1-18.872-39.314-25.065-19.8-19.669-6.694-50.8-6.694-50.8h31.617S-409.459,318.147-386.184,341.615Z" transform="translate(497.207 -288.513)" opacity="0.1"/>
              </g>
              <g id="Group_4061" data-name="Group 4061">
                <g id="Group_4059" data-name="Group 4059" transform="translate(135.597 107.529)">
                  <path id="Path_4542" data-name="Path 4542" d="M-292.824,465.974c-2.89.568-84.218-10.426-86.976-12.744-.332-.264.5-7.631,1.812-17.716L-392.4,374.08l53.564,6.574,16.852,52.772a129.313,129.313,0,0,0,16.508,12.94c.01.013.023.014.021.026,5.529,3.57,10.328,6.791,11.381,7.884C-291.33,457.134-289.935,465.42-292.824,465.974Z" transform="translate(392.401 -374.08)" fill="#d3766a"/>
                  <path id="Path_4543" data-name="Path 4543" d="M-295.382,453.431c-2.89.568-84.218-10.426-86.976-12.744-.332-.264.5-7.631,1.812-17.716,19.593,6.9,72.382,20.594,74.463,16.56.823-1.606-.225-3.68-1.931-5.681,5.529,3.57,10.328,6.791,11.381,7.884C-293.888,444.591-292.493,452.876-295.382,453.431Z" transform="translate(394.959 -361.536)" fill="#263238"/>
                </g>
                <g id="Group_4060" data-name="Group 4060" transform="translate(0.947)">
                  <path id="Path_4544" data-name="Path 4544" d="M-300.128,437.734l-52.841,9.246-21.848-66.8c.653-22.8-2.7-31.061-15.524-35.033-21.828-6.762-75.181,18.213-99.336,1.453-19.615-13.61-3.968-58.1-3.968-58.1h56.72s6.843,8.344,8.11,13.239c0,0,70.249-5.412,85.965,14.52C-321.791,342.974-300.128,437.734-300.128,437.734Z" transform="translate(499.557 -288.507)" fill="#d3766a"/>
                  <path id="Path_4545" data-name="Path 4545" d="M-433.029,334.131s20.025-3.508,29.606,1.074c8.611,4.118,12.221,10.04,11.537,33.6" transform="translate(516.626 -277.13)" fill="none" stroke="#263238" stroke-miterlimit="10" stroke-width="1"/>
                </g>
                <path id="Path_4546" data-name="Path 4546" d="M-493.451,288.507s-15.428,40.288-.009,55.128,33.567,12.272,76.79,3c0,0,22.1-27.968,35.232-33.676a76.967,76.967,0,0,1,25.1-6.136s-25.123-8.133-71.987-6.421c0,0-3.483-7.375-8.406-11.892Z" transform="translate(500.311 -288.507)" fill="#263238"/>
              </g>
            </g>
            <g id="Group_4063" data-name="Group 4063" transform="translate(17.329)">
              <path id="Path_4547" data-name="Path 4547" d="M-438.474,283.085a49.011,49.011,0,0,1-9.439,5.867c5.122-8.644,4.347-28.171,3.722-25.385-3,13.313-11.371,27.9-14.556,28.615-.021,0-.033.01-.055.01a36.749,36.749,0,0,1-22.808-4.82.082.082,0,0,1,.023-.044c6.607-9.776,6.339-29.629,5.892-28.421-4.849,12.95-14.869,20.515-16.6,20.5h-.01c-6.429-6.15-9.834-12.286-8.915-12.908,6.669-4.53,12.346-16.214,17.469-28.562v-.011c5.064-12.175,7.621-23.757,14.743-34.622,6.519-9.946,19.536-11.829,26.907-6.744C-422.768,209.9-434.348,279.854-438.474,283.085Z" transform="translate(503.871 -193.823)" fill="#263238"/>
              <path id="Path_4548" data-name="Path 4548" d="M-458.075,196.428c-5.361,1.262-9.771,6.179-12.578,10.719-3.733,6.035-6.195,12.871-9.275,19.256a134.108,134.108,0,0,1-23.36,34.337.235.235,0,0,0,.319.344c10.4-7.835,17.53-19.082,23.373-30.645,2.987-5.911,5.333-12.1,8.158-18.08a40.107,40.107,0,0,1,5.711-9.191,24.788,24.788,0,0,1,8-5.828A.5.5,0,0,0-458.075,196.428Z" transform="translate(503.361 -193.158)" fill="#263238"/>
            </g>
            <g id="Group_4100" data-name="Group 4100" transform="translate(0 0)">
              <g id="Group_4071" data-name="Group 4071" transform="translate(66.72 22.773)">
                <g id="Group_4069" data-name="Group 4069" transform="translate(1.37)">
                  <g id="Group_4064" data-name="Group 4064" transform="translate(52.939)">
                    <path id="Path_4549" data-name="Path 4549" d="M-406.97,213.464l-13.64,33.529a1.255,1.255,0,0,0,.885,2.009l17.936,2.518a2.932,2.932,0,0,0,2.747-1.5l13.639-33.529a1.254,1.254,0,0,0-.882-2.009l-17.936-2.518A2.928,2.928,0,0,0-406.97,213.464Z" transform="translate(420.835 -211.946)" fill="#37474f"/>
                    <path id="Path_4550" data-name="Path 4550" d="M-405.274,213.687l-13.639,33.529a1.255,1.255,0,0,0,.883,2.009l17.936,2.518a2.934,2.934,0,0,0,2.748-1.5l13.639-33.529a1.254,1.254,0,0,0-.883-2.009l-17.936-2.518A2.929,2.929,0,0,0-405.274,213.687Z" transform="translate(421.271 -211.889)" fill="#455a64"/>
                    <path id="Path_4551" data-name="Path 4551" d="M-403.745,215.555a1.539,1.539,0,0,1-1.767,1.272,1.539,1.539,0,0,1-1.27-1.767,1.539,1.539,0,0,1,1.765-1.272A1.539,1.539,0,0,1-403.745,215.555Z" transform="translate(424.436 -211.479)" fill="#263238"/>
                  </g>
                  <path id="Path_4552" data-name="Path 4552" d="M-461.368,252.084c6.911,23.1,25.482,54.539,34.88,56.07,4.471.729,12.312,2.994,18.959-1.274,14.508-9.316,28.442-29.2,32.469-41.173,1.431-4.259-18.435-16.916-22.111-13.824-8.605,7.243-19.608,22.333-20.9,22.04-4.765-1.087-21.266-19.6-32.77-32.616C-464.8,225.5-464.122,242.877-461.368,252.084Z" transform="translate(462.965 -206.052)" fill="#d3766a"/>
                  <g id="Group_4068" data-name="Group 4068" transform="translate(50.568 7.733)">
                    <path id="Path_4553" data-name="Path 4553" d="M-387.361,246.892c-.925-9.218-2.577-11.444.774-19.638,2.2-5.377-.292-9.089-4.917-5.2-7.566,6.357-8.87,18.5-8.11,22.841Z" transform="translate(428.603 -217.499)" fill="#d3766a"/>
                    <g id="Group_4065" data-name="Group 4065" transform="translate(7.619)">
                      <path id="Path_4554" data-name="Path 4554" d="M-388.551,273.678s5.815-11.785,5.8-21.706c-.009-6.861-1.694-21.785-19.346-32.166-4.186-2.463-11.9-3-6.52,3.5,3.82,4.62,7.637,6.4,9.37,9.49,0,0-9.892.477-12.194,4.767a89.8,89.8,0,0,0-5.22,11.642,19.014,19.014,0,0,0,2.091,1.171s-2.031,4.085.243,10.649Z" transform="translate(416.659 -218.1)" fill="#d3766a"/>
                    </g>
                    <path id="Path_4555" data-name="Path 4555" d="M-382.248,243.37c-2.369-2.705-7.484-8.356-13.277-11.523-6.434-3.517-19.776-8.559-22.324-3.782-1.867,3.5,3.057,5.876,3.057,5.876s-5.954-.922-6.949,2.611c-.907,3.219,3.012,4.827,3.012,4.827s-3.708.062-3.983,3.331c-.333,3.932,7.493,3.156,10.6,7.43C-411.418,253.1-382.248,243.37-382.248,243.37Z" transform="translate(422.722 -216.045)" fill="#d3766a"/>
                    <g id="Group_4066" data-name="Group 4066" transform="translate(7.897 17.806)">
                      <path id="Path_4556" data-name="Path 4556" d="M-399.72,237.686a29.209,29.209,0,0,0-16.557-5.408c-.15,0-.227.121-.089.146a71.948,71.948,0,0,1,16.612,5.323C-399.717,237.764-399.691,237.71-399.72,237.686Z" transform="translate(416.437 -232.271)" fill="#263238"/>
                    </g>
                    <g id="Group_4067" data-name="Group 4067" transform="translate(3.871 25.165)">
                      <path id="Path_4557" data-name="Path 4557" d="M-402.637,242.574c-2.475-1.646-10.132-4.824-16.849-4.411-.149.01-.22.131-.08.151a77.122,77.122,0,0,1,16.9,4.323C-402.629,242.652-402.605,242.6-402.637,242.574Z" transform="translate(419.642 -238.127)" fill="#263238"/>
                    </g>
                  </g>
                </g>
                <g id="Group_4070" data-name="Group 4070" transform="translate(0 28.838)">
                  <path id="Path_4558" data-name="Path 4558" d="M-375.924,274.753s-22.618,31.819-33.344,34.289-16.671.667-20.354-.465a10.322,10.322,0,0,1-3.7-2.526c-9.126-8.825-23.549-37.373-28.8-52.99-3.938-11.739-1.836-21.515,6.132-17.073a28.671,28.671,0,0,1,7.047,6.153c13.577,15.341,29.746,30.44,30.668,30.12S-406.3,259.14-406.3,259.14Z" transform="translate(464.056 -234.896)" fill="#28ce9e"/>
                  <path id="Path_4559" data-name="Path 4559" d="M-392.452,274.234c-1.058-.816-11.356-6.711-13.62-7.944s-11.474-6.362-13.914-7.439a.093.093,0,0,0-.093.162c2.193,1.51,11.469,6.71,13.751,8.013s12.593,6.91,13.807,7.37C-392.418,274.435-392.38,274.289-392.452,274.234Z" transform="translate(475.327 -228.753)" fill="#263238"/>
                  <path id="Path_4560" data-name="Path 4560" d="M-401.646,304.489c-2.84,2.375-5.466,4.059-7.627,4.549-10.706,2.475-16.662.666-20.344-.465a10.044,10.044,0,0,1-3.707-2.526c-9.123-8.821-23.548-37.37-28.8-52.99-3.569-10.643-2.174-19.665,4.046-17.944C-443.867,252.467-416.863,285.728-401.646,304.489Z" transform="translate(464.056 -234.895)" opacity="0.1"/>
                </g>
              </g>
              <g id="Group_4074" data-name="Group 4074" transform="translate(20.676 48.322)">
                <g id="Group_4073" data-name="Group 4073">
                  <path id="Path_4561" data-name="Path 4561" d="M-432.386,286.4l2.345,23.685-70.657,1.407s16.388-59.521,29.193-72.7c8.663-8.918,18.532-7.972,24.663-1.412,1.551,1.66,17.694,21.323,19.443,30.981C-425.877,276.879-432.386,286.4-432.386,286.4Z" transform="translate(500.698 -232.278)" fill="#28ce9e"/>
                  <g id="Group_4072" data-name="Group 4072" transform="translate(41.581 51.346)">
                    <path id="Path_4562" data-name="Path 4562" d="M-449.143,273.14a63.208,63.208,0,0,0-9.282,1.228c-1.517.338-3.007.745-4.5,1.184-.744.219-1.488.412-2.238.6a9.984,9.984,0,0,1-2.394.373.056.056,0,0,0,0,.112,17.018,17.018,0,0,0,2.292.029,16.278,16.278,0,0,0,2.2-.343c1.542-.328,3.066-.728,4.6-1.072,3.1-.694,6.2-1.387,9.349-1.856C-448.967,273.375-449,273.129-449.143,273.14Z" transform="translate(467.607 -273.14)" fill="#28ce9e"/>
                    <path id="Path_4563" data-name="Path 4563" d="M-446.033,275.357a43.1,43.1,0,0,0-6.106-.548,28.659,28.659,0,0,0-3.061.14c-.489.045-.976.1-1.463.166-.535.07-1.066.23-1.6.29-.057.006-.06.116,0,.112.506-.038,1.018.03,1.525.03s1.018-.006,1.528-.007c1.02,0,2.038.011,3.058,0,2.043-.028,4.076-.029,6.117.033C-445.926,275.572-445.928,275.374-446.033,275.357Z" transform="translate(469.993 -272.712)" fill="#28ce9e"/>
                  </g>
                </g>
              </g>
              <g id="Group_4084" data-name="Group 4084" transform="translate(0 49.835)">
                <g id="Group_4075" data-name="Group 4075">
                  <path id="Path_4564" data-name="Path 4564" d="M-465.212,235.235c-24.928,12.655-53.548,41.229-51.87,50.738,1.869,10.592,37.692-7.3,37.328-8.893-.31-1.352,7.215-12.727,17.975-29.023C-450.834,231.482-459.047,232.106-465.212,235.235Z" transform="translate(517.152 -233.482)" fill="#28ce9e"/>
                </g>
                <g id="Group_4083" data-name="Group 4083" transform="translate(0.006 18.596)">
                  <g id="Group_4078" data-name="Group 4078" transform="translate(0 22.968)">
                    <path id="Path_4565" data-name="Path 4565" d="M-517.083,277.486c2.189,7.4,13.217,12.351,39.813,27.435,3.68,2.087,25.4-19.923,21.582-22.354-4.806-3.061-24.12-13.9-25.633-14.517C-494.078,262.867-518.567,272.47-517.083,277.486Z" transform="translate(517.147 -266.559)" fill="#d3766a"/>
                    <g id="Group_4077" data-name="Group 4077" transform="translate(29.253 12.807)">
                      <path id="Path_4566" data-name="Path 4566" d="M-466.92,276.751s11.447,5.851,16.511,10.786c6.779,6.608,9.912,15.105,11.009,18.746,2.292,7.6,2.578,27.554-3.155,28.64-5.19.983-4.452-19.43-4.452-19.43s2.683,20.936-3.784,20.971-4.262-23.613-4.262-23.613,2.274,21.573-4.4,20.554c-5.043-.77-4.253-22.3-4.253-22.3s1.826,18.557-3.4,17.988c-5.769-.628-6.287-20.549-6.287-20.549-13.028-3.681-17.725-10.761-20.467-16.2C-494.519,291.028-466.92,276.751-466.92,276.751Z" transform="translate(493.867 -276.751)" fill="#d3766a"/>
                      <g id="Group_4076" data-name="Group 4076" transform="translate(29.518 30.94)">
                        <path id="Path_4567" data-name="Path 4567" d="M-456.925,301.781c.4,2.448.829,4.923,1.015,7.4s.284,4.96.237,7.44a42.394,42.394,0,0,1-1.1,9.639c.89-5.7.364-14.576.18-17.053s-.246-4.951-.429-7.421C-457.024,301.722-456.935,301.722-456.925,301.781Z" transform="translate(473.803 -301.28)" fill="#263238"/>
                        <path id="Path_4568" data-name="Path 4568" d="M-464.051,302.181c.381,3.149.873,6.26,1.116,9.426.24,3.15.192,6.161.216,9.32,0,.242-.129.163-.142-.08-.148-3.155-.53-6.061-.716-9.213s-.25-6.316-.55-9.448C-464.132,302.136-464.058,302.133-464.051,302.181Z" transform="translate(471.979 -301.175)" fill="#263238"/>
                        <path id="Path_4569" data-name="Path 4569" d="M-470.209,301.433a70.867,70.867,0,0,1,.6,14.542c-.008.241-.166.121-.172-.127-.109-4.838-.161-8.634-.6-14.388C-470.382,301.372-470.226,301.333-470.209,301.433Z" transform="translate(470.376 -301.374)" fill="#263238"/>
                      </g>
                    </g>
                  </g>
                  <g id="Group_4082" data-name="Group 4082" transform="translate(0.058)">
                    <g id="Group_4079" data-name="Group 4079" transform="translate(0 22.915)">
                      <path id="Path_4570" data-name="Path 4570" d="M-455.252,280.009s-30.628,23.327-30.953,23.208-30.406-17.784-30.889-25.719,24.429-13.874,35.74-9.493S-455.252,280.009-455.252,280.009Z" transform="translate(517.102 -266.517)" fill="#28ce9e"/>
                      <path id="Path_4571" data-name="Path 4571" d="M-470.927,274.569c-1.2.721-10.867,8.511-12.931,10.247s-10.573,8.761-12.552,10.727a.1.1,0,0,0,.122.153c2.308-1.563,10.91-8.621,13.05-10.349s11.533-9.642,12.444-10.651C-470.718,274.612-470.845,274.52-470.927,274.569Z" transform="translate(522.402 -264.455)" fill="#28ce9e"/>
                    </g>
                    <g id="Group_4081" data-name="Group 4081" transform="translate(22.033)">
                      <path id="Path_4572" data-name="Path 4572" d="M-499.485,266.832c2.628-.416,9.86-1.02,15.729,1.925.065.031.035.116-.035.09-5.054-1.806-13.067-2.135-15.672-1.92C-499.531,266.932-499.551,266.843-499.485,266.832Z" transform="translate(499.578 -243.611)" fill="#263238"/>
                      <g id="Group_4080" data-name="Group 4080" transform="translate(15.38)">
                        <path id="Path_4573" data-name="Path 4573" d="M-464.782,286.126l1.89-1.439a260.138,260.138,0,0,0-24.435-11.754,235.341,235.341,0,0,1,15.241-24.653" transform="translate(487.327 -248.281)" fill="none" stroke="#263238" stroke-miterlimit="10" stroke-width="0.75"/>
                        <path id="Path_4574" data-name="Path 4574" d="M-480.08,256.517c.195-.08,5.11-5.041,5.11-5.041" transform="translate(489.186 -247.461)" fill="none" stroke="#263238" stroke-miterlimit="10" stroke-width="0.5"/>
                      </g>
                      <path id="Path_4575" data-name="Path 4575" d="M-499.567,291.355s5.245,3.373,7.053,4.431" transform="translate(499.567 -237.229)" fill="none" stroke="#263238" stroke-miterlimit="10" stroke-width="0.5"/>
                    </g>
                  </g>
                </g>
              </g>
              <g id="Group_4099" data-name="Group 4099" transform="translate(50.974)">
                <g id="Group_4085" data-name="Group 4085" transform="translate(9.602 31.353)">
                  <path id="Path_4576" data-name="Path 4576" d="M-468.94,238.719c.334,1.86,4.737,10.3,10.409,10.11,2.915-.1,2.974-10.314,2.974-10.314l.143-.751,2.011-10.512-14.312-8.476S-469.034,238.188-468.94,238.719Z" transform="translate(468.945 -218.773)" fill="#d3766a"/>
                  <path id="Path_4577" data-name="Path 4577" d="M-468.351,226.021a21.5,21.5,0,0,0,12.791,11.745l2.011-10.514-14.322-8.478S-468.1,222.089-468.351,226.021Z" transform="translate(469.097 -218.774)" fill="#263238"/>
                </g>
                <g id="Group_4098" data-name="Group 4098" transform="translate(2.243)">
                  <path id="Path_4578" data-name="Path 4578" d="M-437.889,217.142c1.642,18.713-9.38,21.81-13.416,22.16-3.663.318-16.177.934-19.746-17.51s4.615-25.123,12.955-26.293S-439.531,198.428-437.889,217.142Z" transform="translate(475.543 -193.44)" fill="#d3766a"/>
                  <g id="Group_4092" data-name="Group 4092" transform="translate(20.61 17.505)">
                    <path id="Path_4579" data-name="Path 4579" d="M-446.849,209.756a12.174,12.174,0,0,1-1.277-.23,2.094,2.094,0,0,1-1.257-.485.668.668,0,0,1-.023-.815,1.657,1.657,0,0,1,1.621-.434,2.439,2.439,0,0,1,1.553.816A.713.713,0,0,1-446.849,209.756Z" transform="translate(460.674 -207.753)" fill="#263238"/>
                    <path id="Path_4580" data-name="Path 4580" d="M-456.79,210.09a12.288,12.288,0,0,0,1.262-.3,2.1,2.1,0,0,0,1.228-.555.67.67,0,0,0-.025-.816,1.656,1.656,0,0,0-1.644-.341,2.437,2.437,0,0,0-1.5.9A.713.713,0,0,0-456.79,210.09Z" transform="translate(458.6 -207.689)" fill="#263238"/>
                    <g id="Group_4087" data-name="Group 4087" transform="translate(0 5.791)">
                      <g id="Group_4086" data-name="Group 4086" transform="translate(1.701)">
                        <path id="Path_4581" data-name="Path 4581" d="M-454.606,213.379c-.013-.049-.1.065-.093.118.108,1.274.016,2.753-1.117,3.238-.035.015-.028.078.014.07C-454.4,216.533-454.3,214.569-454.606,213.379Z" transform="translate(457.355 -212.104)" fill="#263238"/>
                        <path id="Path_4582" data-name="Path 4582" d="M-455.507,212.362c-2.063-.048-2.008,4.081-.1,4.125C-453.724,216.533-453.778,212.4-455.507,212.362Z" transform="translate(457.046 -212.362)" fill="#263238"/>
                      </g>
                      <path id="Path_4583" data-name="Path 4583" d="M-455.968,212.565c-.358.237-.7.655-1.14.7-.5.057-.888-.371-1.221-.782-.035-.043-.07-.006-.07.048,0,.792.313,1.6,1.164,1.706.774.1,1.321-.611,1.508-1.409C-455.694,212.684-455.824,212.468-455.968,212.565Z" transform="translate(458.399 -212.334)" fill="#263238"/>
                    </g>
                    <g id="Group_4089" data-name="Group 4089" transform="translate(11.402 5.328)">
                      <g id="Group_4088" data-name="Group 4088" transform="translate(0 0.081)">
                        <path id="Path_4584" data-name="Path 4584" d="M-449.242,213.132c.009-.049.1.06.1.113-.033,1.278.145,2.749,1.3,3.168.036.013.033.077-.01.072C-449.265,216.293-449.479,214.338-449.242,213.132Z" transform="translate(449.325 -211.785)" fill="#263238"/>
                        <path id="Path_4585" data-name="Path 4585" d="M-448.113,212.062c2.056-.167,2.239,3.957.334,4.113C-449.654,216.327-449.837,212.2-448.113,212.062Z" transform="translate(449.331 -212.057)" fill="#263238"/>
                      </g>
                      <path id="Path_4586" data-name="Path 4586" d="M-447.62,212.311c.335.2.676.587,1.067.6.452.009.765-.451,1.035-.892.028-.045.062-.013.065.042.057.788-.167,1.621-.919,1.806-.684.17-1.221-.485-1.445-1.262C-447.858,212.455-447.756,212.229-447.62,212.311Z" transform="translate(449.71 -211.993)" fill="#263238"/>
                    </g>
                    <path id="Path_4587" data-name="Path 4587" d="M-455.125,221.4c.236.357.447.824.893.96a3.39,3.39,0,0,0,1.412-.024.045.045,0,0,1,.04.075,1.725,1.725,0,0,1-1.734.337,1.363,1.363,0,0,1-.745-1.317C-455.262,221.357-455.16,221.352-455.125,221.4Z" transform="translate(459.205 -204.259)" fill="#263238"/>
                    <g id="Group_4090" data-name="Group 4090" transform="translate(5.347 0.045)">
                      <path id="Path_4588" data-name="Path 4588" d="M-449.7,220.232s.312,1.9.335,2.8a4.847,4.847,0,0,1-4.755-1.338c-.074-.078.047-.182.131-.128a6.459,6.459,0,0,0,3.938,1.023c.058-.251-.642-3.242-.5-3.256a7.862,7.862,0,0,1,2.057.412c-.534-3.983-1.7-7.849-2.175-11.822a.123.123,0,0,1,.234-.065,65.116,65.116,0,0,1,2.885,12.635C-447.464,221.007-449.336,220.376-449.7,220.232Z" transform="translate(454.143 -207.789)" fill="#263238"/>
                    </g>
                    <g id="Group_4091" data-name="Group 4091" transform="translate(4.904 13.86)">
                      <path id="Path_4589" data-name="Path 4589" d="M-450.508,220.15a4.648,4.648,0,0,1-1.853,1.456,2.088,2.088,0,0,1-1.272.088c-.922-.235-.95-1.079-.787-1.8a5.014,5.014,0,0,1,.4-1.108A6.034,6.034,0,0,0-450.508,220.15Z" transform="translate(454.496 -218.783)" fill="#263238"/>
                      <path id="Path_4590" data-name="Path 4590" d="M-452.361,221.38a2.088,2.088,0,0,1-1.272.088c-.922-.235-.95-1.079-.787-1.8A2.163,2.163,0,0,1-452.361,221.38Z" transform="translate(454.496 -218.557)" fill="#ff9bbc"/>
                    </g>
                  </g>
                  <g id="Group_4094" data-name="Group 4094" transform="translate(1.444)">
                    <g id="Group_4093" data-name="Group 4093">
                      <path id="Path_4591" data-name="Path 4591" d="M-469.552,221.652c3.5.5,4.532-7.516,4.532-7.516s14.982-2.283,16.452-14.427a20.579,20.579,0,0,0,10.2,11.436s-.3-13.344-10.828-16.112c0,0-13.041-4.994-20.59,5.294S-471.9,221.316-469.552,221.652Z" transform="translate(473.652 -193.823)" fill="#263238"/>
                    </g>
                    <path id="Path_4592" data-name="Path 4592" d="M-450.864,197.793a13.231,13.231,0,0,1-.759,5.541,13.776,13.776,0,0,1-2.9,4.865,11.943,11.943,0,0,1-1.024.993l-.526.481c-.187.146-.383.281-.578.418-.392.266-.773.552-1.172.8-.417.225-.838.441-1.26.652-.211.1-.418.217-.633.313l-.662.244-1.322.483c-.906.236-1.823.425-2.733.6.865-.361,1.748-.627,2.592-.99l1.247-.581.622-.289c.2-.109.39-.236.586-.354.387-.24.774-.476,1.167-.7.372-.258.724-.545,1.086-.816l.54-.407.491-.466a11.391,11.391,0,0,0,.958-.951,15.8,15.8,0,0,0,2.922-4.529,16.512,16.512,0,0,0,.881-2.587A16.014,16.014,0,0,0-450.864,197.793Z" transform="translate(476.016 -192.804)" fill="#263238"/>
                  </g>
                  <g id="Group_4097" data-name="Group 4097" transform="translate(0 22.536)">
                    <g id="Group_4095" data-name="Group 4095">
                      <path id="Path_4593" data-name="Path 4593" d="M-467.028,216.386s-4.105-5.859-6.764-4.394.432,9.961,3.557,11.121a3.177,3.177,0,0,0,4.255-1.711Z" transform="translate(474.801 -211.757)" fill="#d3766a"/>
                      <path id="Path_4594" data-name="Path 4594" d="M-473.236,213.864a.044.044,0,0,0-.016.084c2.191.885,3.346,2.915,4.156,5.02a1.753,1.753,0,0,0-2.624-.477c-.058.041,0,.131.059.117a1.956,1.956,0,0,1,2.151.68,9.409,9.409,0,0,1,1.032,1.739c.1.2.456.09.381-.136l-.018-.05C-468.063,218.048-470.238,214.143-473.236,213.864Z" transform="translate(475.191 -211.216)" fill="#263238"/>
                    </g>
                    <g id="Group_4096" data-name="Group 4096" transform="translate(4.892 9.64)">
                      <path id="Path_4595" data-name="Path 4595" d="M-470.879,220.447a.807.807,0,0,0,.99.567.809.809,0,0,0,.567-.99.807.807,0,0,0-.99-.567A.807.807,0,0,0-470.879,220.447Z" transform="translate(470.908 -219.428)" fill="#455a64"/>
                      <path id="Path_4596" data-name="Path 4596" d="M-470.556,220.248a.382.382,0,0,0,.469.269.381.381,0,0,0,.268-.469.381.381,0,0,0-.468-.269A.382.382,0,0,0-470.556,220.248Z" transform="translate(470.994 -219.342)" fill="#263238"/>
                    </g>
                    <path id="Path_4597" data-name="Path 4597" d="M-472.005,219.6a.57.57,0,0,0,.7.4.57.57,0,0,0,.4-.7.57.57,0,0,0-.7-.4A.572.572,0,0,0-472.005,219.6Z" transform="translate(475.513 -209.928)" fill="#455a64"/>
                  </g>
                </g>
                <path id="Path_4598" data-name="Path 4598" d="M-476.586,236.048S-467.392,250.4-457,250.206c8.252-.156,8.869-9.913,8.869-9.913a20.2,20.2,0,0,0-15.242-8.009A22.5,22.5,0,0,0-476.586,236.048Z" transform="translate(476.586 -183.962)" fill="#d3766a"/>
              </g>
            </g>
          </g>
        </g>
      </g>
      <g id="Speech_Bubble" data-name="Speech Bubble" transform="translate(101.433 197.463)">
        <g id="Group_4104" data-name="Group 4104">
          <g id="Group_4103" data-name="Group 4103">
            <path id="Path_4599" data-name="Path 4599" d="M-384.82,186.26a27.326,27.326,0,0,1-30.014,24.331,27.148,27.148,0,0,1-15.627-7.052l-13.668,2.005,6.838-11.814a27.112,27.112,0,0,1-1.874-13.155,27.324,27.324,0,0,1,30.015-24.33A27.325,27.325,0,0,1-384.82,186.26Z" transform="translate(445.049 -155.855)" fill="#fff"/>
            <path id="Path_4600" data-name="Path 4600" d="M-384.632,186.309a27.507,27.507,0,0,1-5.513,13.847,30.516,30.516,0,0,1-2.477,2.851,30.62,30.62,0,0,1-2.883,2.44,26.925,26.925,0,0,1-6.591,3.669,27.214,27.214,0,0,1-7.355,1.754,26.757,26.757,0,0,1-3.795.072,23.891,23.891,0,0,1-3.781-.393,27.554,27.554,0,0,1-13.514-6.672l.323.1-13.654,2.1-.99.152.5-.873,6.8-11.838-.031.467a27.619,27.619,0,0,1,1.683-24.349,27.935,27.935,0,0,1,8.556-9.11,27.54,27.54,0,0,1,11.658-4.374,27.757,27.757,0,0,1,12.352,1.141,27.892,27.892,0,0,1,10.536,6.46A27.476,27.476,0,0,1-384.632,186.309Zm0,0a27.389,27.389,0,0,0-8.295-22.437,27.56,27.56,0,0,0-10.535-6.216,27.262,27.262,0,0,0-12.15-.911,26.857,26.857,0,0,0-11.281,4.457,28.153,28.153,0,0,0-8.174,8.915,26.97,26.97,0,0,0-3.467,11.559,27.287,27.287,0,0,0,1.923,11.9l.1.244-.13.224-6.878,11.792-.489-.721,13.679-1.915.188-.028.134.127a26.91,26.91,0,0,0,13.082,6.738,23.548,23.548,0,0,0,3.706.451,26.521,26.521,0,0,0,3.738-.006,26.886,26.886,0,0,0,7.3-1.606,25.406,25.406,0,0,0,6.589-3.552,30.28,30.28,0,0,0,2.885-2.408,30.43,30.43,0,0,0,2.486-2.822A27.447,27.447,0,0,0-384.632,186.309Z" transform="translate(444.861 -155.904)" fill="#263238"/>
          </g>
          <path id="Path_4601" data-name="Path 4601" d="M-418.715,196.564l-11.668-11.811,3.92-3.872,6.816,6.9,14.16-22.2,4.646,2.963Z" transform="translate(448.576 -153.421)" fill="#ffc727"/>
        </g>
      </g>
    </g>
  </g>
</svg>
