<svg xmlns="http://www.w3.org/2000/svg" xmlns:xlink="http://www.w3.org/1999/xlink" width="696.13" height="572.365" viewBox="0 0 696.13 572.365">
  <defs>
    <filter id="Rectangle_249" x="60.128" y="0" width="249.869" height="125.792" filterUnits="userSpaceOnUse">
      <feOffset dx="6" dy="-6" input="SourceAlpha"/>
      <feGaussianBlur stdDeviation="3" result="blur"/>
      <feFlood flood-opacity="0.161"/>
      <feComposite operator="in" in2="blur"/>
      <feComposite in="SourceGraphic"/>
    </filter>
    <filter id="Rectangle_249-2" x="437.591" y="116.375" width="258.539" height="114.147" filterUnits="userSpaceOnUse">
      <feOffset dx="6" dy="-6" input="SourceAlpha"/>
      <feGaussianBlur stdDeviation="3" result="blur-2"/>
      <feFlood flood-opacity="0.161"/>
      <feComposite operator="in" in2="blur-2"/>
      <feComposite in="SourceGraphic"/>
    </filter>
    <filter id="Rectangle_249-3" x="0" y="142.393" width="254.452" height="122.568" filterUnits="userSpaceOnUse">
      <feOffset dx="6" dy="-6" input="SourceAlpha"/>
      <feGaussianBlur stdDeviation="3" result="blur-3"/>
      <feFlood flood-opacity="0.161"/>
      <feComposite operator="in" in2="blur-3"/>
      <feComposite in="SourceGraphic"/>
    </filter>
  </defs>
  <g id="Group_13039" data-name="Group 13039" transform="translate(-626.78 -4486.476)">
    <g id="Group_13038" data-name="Group 13038">
      <g id="Group_4237" data-name="Group 4237" transform="translate(689.907 4501.476)">
        <g id="Group_4233" data-name="Group 4233" transform="translate(0 0)">
          <path id="Path_5918" data-name="Path 5918" d="M606.132,214.674l-39.254-69.469v30.541Z" transform="translate(-348.132 -72.147)" fill="#d7e1ff"/>
          <g transform="matrix(1, 0, 0, 1, -63.13, -15)" filter="url(#Rectangle_249)">
            <rect id="Rectangle_249-4" data-name="Rectangle 249" width="231.869" height="107.792" rx="4.335" transform="translate(63.13 15)" fill="#d7e1ff"/>
          </g>
        </g>
      </g>
      <path id="Path_5919" data-name="Path 5919" d="M1867.533,1457.836s129.291-142.667,205.837-92.028,84.2,70.116,133.956,68.169,88.028,76.446,61.237,134.877,26.791,210.349-80.373,223.983c-22.4,2.849-58.958,18.635-83.353,24.119-48.973,11.011-99.287-1.643-142.4-4.267-38.684-2.354-68.413,9.3-94.9-19.853-70.805-77.907-109.916-208.889-60.161-273.162,31.893-41.2,57.41-66.221,60.161-61.839Z" transform="translate(-1046.193 3237.453)" fill="#9ec2dd" opacity="0.22"/>
      <text id="Make_your_Sunday_delicious_with_BIRYANI_and_get_special_discount_of_30_or_upto_0.1._Order_now." data-name="Make your Sunday delicious 
with BIRYANI and get special 
discount of 30% or upto $0.1.
Order now." transform="translate(701.441 4527.388)" fill="#212322" font-size="14" font-family="Poppins-Medium, Poppins" font-weight="500"><tspan x="0" y="0">Make your Sunday delicious </tspan><tspan x="0" y="21">with BIRYANI and get special </tspan><tspan x="0" y="42">discount of 30% or upto $0.1.</tspan><tspan x="0" y="63">Order now.</tspan></text>
      <g id="Group_4235" data-name="Group 4235" transform="translate(851.034 4585.747)">
        <g id="Group_4232" data-name="Group 4232" transform="translate(0 0)">
          <path id="Path_5860" data-name="Path 5860" d="M506.535,179.606c5.341-7.715,43.558-10.937,50.864-2.374s-17.28,44.559-17.28,44.559L503.03,196.966Z" transform="translate(-410.531 -53.1)" fill="#fcd4ae"/>
          <path id="Path_5861" data-name="Path 5861" d="M575.706,190.43s51.83,10.683,58.557,16.618,12.661,38.663,17.409,46.038,18.992,20.781,19.585,31.29,7.715,4.573,8.9,25.939,3.561,46.885-7.122,51.633-23.146-2.967-31.455-5.341-17.8-16.618-23.146-18.4v29.081c0,7.715,5.341,25.709,3.561,29.769s-17.851,15.929-17.851,15.929l-111.925-7.122S476,389.841,476,383.312s4.154-11.276,3.561-18.4A72.779,72.779,0,0,0,476,349.484s-10.089,3.561-22.552,7.715-18.4,1.78-23.146-3.561-6.528-18.991-4.154-30.861-1.187-23.146,6.528-32.642.594-8.9,10.089-21.959,15.431-52.82,21.959-59.942,54.6-17.8,54.6-17.8Z" transform="translate(-425.101 -49.681)" fill="#91a9e5"/>
          <g id="Group_4189" data-name="Group 4189" transform="translate(99.24 90.203)">
            <path id="Path_5862" data-name="Path 5862" d="M525.759,227.864c-14.054-7.514-16.689-18.054-16.689-18.054s.748-21.615.546-39.3c-.083-7.312-.332-13.947-.855-18.113-1.8-14.244,43.4,9.5,43.4,9.5s-.083,6.552.2,15.027c.368,11.122,1.353,25.567,3.976,32.891C560.964,222.725,539.812,235.378,525.759,227.864Z" transform="translate(-508.709 -147.846)" fill="#ff8f76"/>
            <path id="Path_5863" data-name="Path 5863" d="M552.359,176.92c-10.113,11.312-15.585,12.06-20.974,12.06-7.407,0-15.122-8.333-21.769-18.469-.083-7.312-.332-13.947-.855-18.113-1.8-14.244,43.4,9.5,43.4,9.5S552.074,168.445,552.359,176.92Z" transform="translate(-508.709 -147.846)" fill="#f76a52"/>
          </g>
          <path id="Path_5864" data-name="Path 5864" d="M507.311,152.475s-6.825-4.243-8.012-12.212-.558-29.036,11.294-21.32S507.311,152.475,507.311,152.475Z" transform="translate(-411.307 -63.359)" fill="#f76a52"/>
          <path id="Path_5865" data-name="Path 5865" d="M549.38,161.192s6.251,2.671,12.682-5.341,10-20.475,7.027-24.63-11.432,0-11.432,0Z" transform="translate(-401.865 -61.096)" fill="#f76a52"/>
          <path id="Path_5866" data-name="Path 5866" d="M481.4,483.181s41.057,7.122,63.655,5.539c0,0,2.614-55.392,5.089-53.81s12.191,54.039,12.191,54.039,35.388,4.519,62.293-3.395c0,0-9.5-89.418-19.783-121.071,0,0-24.771,9.5-34.542,7.122s-56.458-18.2-93.651-14.244C476.655,357.363,475.865,418.293,481.4,483.181Z" transform="translate(-415.469 -18.588)" fill="#281f35"/>
          <g id="Group_4197" data-name="Group 4197" transform="translate(59.962 338.964)">
            <g id="Group_4190" data-name="Group 4190" transform="translate(79.692 8.954)">
              <path id="Path_5867" data-name="Path 5867" d="M543.945,406.072a1.013,1.013,0,0,1-.146-.009,1.186,1.186,0,0,1-1.033-1.322c1.814-14.747.012-38.26-.006-38.495a1.187,1.187,0,0,1,2.367-.185c.018.239,1.839,23.989-.006,38.969A1.187,1.187,0,0,1,543.945,406.072Z" transform="translate(-542.757 -364.966)" fill="#5a4b70"/>
            </g>
            <g id="Group_4191" data-name="Group 4191" transform="translate(42.806 0.757)">
              <path id="Path_5868" data-name="Path 5868" d="M514.43,374.128a1.188,1.188,0,0,1-1.129-.82c-.116-.359-2.826-8.825-.973-14.431a1.186,1.186,0,1,1,2.253.744c-1.61,4.875.952,12.873.978,12.952a1.188,1.188,0,0,1-.761,1.5A1.209,1.209,0,0,1,514.43,374.128Z" transform="translate(-511.682 -358.059)" fill="#5a4b70"/>
            </g>
            <g id="Group_4192" data-name="Group 4192" transform="translate(37.233)">
              <path id="Path_5869" data-name="Path 5869" d="M509.393,374.247a1.188,1.188,0,0,1-1.123-.8c-.118-.342-2.848-8.437.029-15.3a1.186,1.186,0,1,1,2.188.919c-2.52,6.012,0,13.529.029,13.605a1.188,1.188,0,0,1-1.122,1.573Z" transform="translate(-506.986 -357.422)" fill="#5a4b70"/>
            </g>
            <g id="Group_4193" data-name="Group 4193" transform="translate(5.972 9.605)">
              <path id="Path_5870" data-name="Path 5870" d="M481.835,402.8a1.168,1.168,0,0,1-.541-.132,1.188,1.188,0,0,1-.513-1.6c.121-.236,12.149-23.727,12.531-34.415a1.187,1.187,0,0,1,2.372.087c-.4,11.214-12.285,34.433-12.791,35.416A1.191,1.191,0,0,1,481.835,402.8Z" transform="translate(-480.649 -365.514)" fill="#5a4b70"/>
            </g>
            <g id="Group_4194" data-name="Group 4194" transform="translate(122.295 14.452)">
              <path id="Path_5871" data-name="Path 5871" d="M593.286,396.013a1.191,1.191,0,0,1-.591-.158c-9.437-5.432-13.833-24.016-14.016-24.8a1.187,1.187,0,0,1,2.313-.535c.042.183,4.343,18.365,12.887,23.28a1.187,1.187,0,0,1-.594,2.217Z" transform="translate(-578.649 -369.598)" fill="#5a4b70"/>
            </g>
            <g id="Group_4195" data-name="Group 4195" transform="translate(0 8.488)">
              <path id="Path_5872" data-name="Path 5872" d="M506.912,369.172a1.146,1.146,0,0,1-.281-.033c-14.252-3.466-29.536-1.751-29.69-1.734a1.187,1.187,0,0,1-.273-2.357c.64-.076,15.847-1.785,30.524,1.785a1.187,1.187,0,0,1-.28,2.34Z" transform="translate(-475.618 -364.573)" fill="#5a4b70"/>
            </g>
            <g id="Group_4196" data-name="Group 4196" transform="translate(106.075 10.714)">
              <path id="Path_5873" data-name="Path 5873" d="M566.17,374.142a1.187,1.187,0,0,1-.063-2.372c.134-.008,13.541-.792,23.207-5.214a1.187,1.187,0,1,1,.987,2.158c-10.081,4.613-23.5,5.395-24.065,5.426A.635.635,0,0,1,566.17,374.142Z" transform="translate(-564.985 -366.448)" fill="#5a4b70"/>
            </g>
          </g>
          <g id="Group_4211" data-name="Group 4211" transform="translate(13.509 198.687)">
            <g id="Group_4198" data-name="Group 4198" transform="translate(20.179 30.622)">
              <path id="Path_5874" data-name="Path 5874" d="M454.669,278.676a1.187,1.187,0,0,1-.831-2.033c4.709-4.624,14.981-6.457,23.234-7.93a77.59,77.59,0,0,0,9.466-2.043c7.543-2.529,13.06-1.372,13.293-1.321a1.187,1.187,0,0,1-.5,2.319,25.107,25.107,0,0,0-12.032,1.253,77.479,77.479,0,0,1-9.8,2.128c-7.932,1.415-17.8,3.176-21.989,7.287A1.185,1.185,0,0,1,454.669,278.676Z" transform="translate(-453.483 -265.04)" fill="#7693cc"/>
            </g>
            <g id="Group_4199" data-name="Group 4199" transform="translate(0 34.115)">
              <path id="Path_5875" data-name="Path 5875" d="M437.668,284.538a1.174,1.174,0,0,1-.763-.28,1.186,1.186,0,0,1-.142-1.672c16.305-19.324,40.709-13.922,40.953-13.866a1.187,1.187,0,0,1-.536,2.313c-.23-.055-23.255-5.108-38.6,13.083A1.184,1.184,0,0,1,437.668,284.538Z" transform="translate(-436.482 -267.983)" fill="#7693cc"/>
            </g>
            <g id="Group_4200" data-name="Group 4200" transform="translate(13.65 26.184)">
              <path id="Path_5876" data-name="Path 5876" d="M474.263,265.541a59.156,59.156,0,0,1-6.7-.705c-5.825-.8-13.8-1.881-18.022-.476a1.187,1.187,0,1,1-.751-2.252c4.744-1.582,12.7-.5,19.095.375,3.064.418,6.241.851,7.116.628a1.188,1.188,0,0,1,.582,2.3A5.587,5.587,0,0,1,474.263,265.541Z" transform="translate(-447.982 -261.302)" fill="#7693cc"/>
            </g>
            <g id="Group_4201" data-name="Group 4201" transform="translate(39.777 52.152)">
              <path id="Path_5877" data-name="Path 5877" d="M471.18,332.143a1.187,1.187,0,0,1-.773-2.088c.178-.153,17.924-15.448,25.059-27.595,3.72-6.334,7.016-8.512,9.664-10.261,2.729-1.8,4.7-3.105,6.458-8.219a1.187,1.187,0,1,1,2.245.773c-2.019,5.877-4.51,7.522-7.395,9.427-2.571,1.7-5.484,3.623-8.925,9.483-7.337,12.49-24.819,27.558-25.561,28.194A1.18,1.18,0,0,1,471.18,332.143Z" transform="translate(-469.993 -283.179)" fill="#7693cc"/>
            </g>
            <g id="Group_4202" data-name="Group 4202" transform="translate(168.825 48.295)">
              <path id="Path_5878" data-name="Path 5878" d="M587.241,314.946a1.187,1.187,0,0,1-1.083-.7c-.791-1.746-1.045-4.259-1.339-7.169-.453-4.494-1.018-10.087-3.83-14.657-5.3-8.62.324-12.276.381-12.311a1.187,1.187,0,0,1,1.269,2.006c-.174.116-3.637,2.547.371,9.06,3.1,5.035,3.693,10.927,4.172,15.664.273,2.7.508,5.036,1.14,6.429a1.187,1.187,0,0,1-1.081,1.676Z" transform="translate(-578.715 -279.929)" fill="#7693cc"/>
            </g>
            <g id="Group_4203" data-name="Group 4203" transform="translate(207.126 30.624)">
              <path id="Path_5879" data-name="Path 5879" d="M635.314,278.676a1.186,1.186,0,0,1-.612-.171c-.153-.093-15.367-9.275-22.818-11.123a1.188,1.188,0,0,1,.573-2.305c7.8,1.936,22.837,11.013,23.473,11.4a1.186,1.186,0,0,1-.616,2.2Z" transform="translate(-610.982 -265.042)" fill="#7693cc"/>
            </g>
            <g id="Group_4204" data-name="Group 4204" transform="translate(197.323 15.924)">
              <path id="Path_5880" data-name="Path 5880" d="M633.3,273.927a1.18,1.18,0,0,1-.47-.1,30.742,30.742,0,0,1-3.376-2.1c-4-2.654-10.684-7.095-16.085-8.736-4.044-1.23-10.8-3.762-10.641-6.894.107-2.1,2.806-2.863,4.825-3.257,8.725-1.7,23.457,9.117,24.079,9.579a1.186,1.186,0,0,1-1.411,1.907c-.145-.107-14.528-10.657-22.213-9.156-2.586.5-2.918,1.094-2.921,1.1.117.588,2.856,2.589,8.974,4.449,5.733,1.744,12.6,6.305,16.707,9.03,1.34.89,2.605,1.731,3,1.9a1.187,1.187,0,0,1-.471,2.277Z" transform="translate(-602.724 -252.658)" fill="#7693cc"/>
            </g>
            <g id="Group_4205" data-name="Group 4205" transform="translate(185.167 22.598)">
              <path id="Path_5881" data-name="Path 5881" d="M605.825,261.99a1.183,1.183,0,0,1-.513-.116,13.579,13.579,0,0,0-11.105-.012,1.187,1.187,0,0,1-1.074-2.116,15.852,15.852,0,0,1,13.206-.012,1.187,1.187,0,0,1-.514,2.256Z" transform="translate(-592.482 -258.28)" fill="#7693cc"/>
            </g>
            <g id="Group_4206" data-name="Group 4206" transform="translate(178.638)">
              <path id="Path_5882" data-name="Path 5882" d="M588.169,257.537a1.186,1.186,0,0,1-1.141-1.517c.393-1.357.182-10.253-.045-15.541a1.187,1.187,0,0,1,2.372-.1c.1,2.349.571,14.177-.045,16.3A1.187,1.187,0,0,1,588.169,257.537Z" transform="translate(-586.982 -239.242)" fill="#7693cc"/>
            </g>
            <g id="Group_4207" data-name="Group 4207" transform="translate(42.632 5.687)">
              <path id="Path_5883" data-name="Path 5883" d="M473.586,271.344a1.187,1.187,0,0,1-1.187-1.187V245.22a1.187,1.187,0,1,1,2.374,0v24.937A1.186,1.186,0,0,1,473.586,271.344Z" transform="translate(-472.399 -244.033)" fill="#7693cc"/>
            </g>
            <g id="Group_4208" data-name="Group 4208" transform="translate(42.633 103.488)">
              <path id="Path_5884" data-name="Path 5884" d="M473.586,350.763a1.188,1.188,0,0,1-.855-2.011c.123-.128,12.442-12.994,15.876-21.576a1.187,1.187,0,1,1,2.2.881c-3.606,9.014-15.85,21.8-16.37,22.341A1.183,1.183,0,0,1,473.586,350.763Z" transform="translate(-472.4 -326.429)" fill="#7693cc"/>
            </g>
            <g id="Group_4209" data-name="Group 4209" transform="translate(52.425 131.384)">
              <path id="Path_5885" data-name="Path 5885" d="M510.72,359.188a1.148,1.148,0,0,1-.275-.032l-28.883-6.886a1.187,1.187,0,0,1,.55-2.309l28.882,6.886a1.186,1.186,0,0,1-.274,2.341Z" transform="translate(-480.65 -349.931)" fill="#7693cc"/>
            </g>
            <g id="Group_4210" data-name="Group 4210" transform="translate(172.488 93.4)">
              <path id="Path_5886" data-name="Path 5886" d="M589.137,358.287a1.187,1.187,0,0,1-1.144-.878c-.058-.214-5.814-21.7-6.191-38.265a1.186,1.186,0,0,1,1.16-1.213h.027a1.187,1.187,0,0,1,1.187,1.16c.37,16.285,6.051,37.488,6.109,37.7a1.189,1.189,0,0,1-.837,1.456A1.215,1.215,0,0,1,589.137,358.287Z" transform="translate(-581.801 -317.93)" fill="#7693cc"/>
            </g>
          </g>
          <path id="Path_5887" data-name="Path 5887" d="M510.241,210.541s15.961,25.339,45.81,1.6L544.337,194.93l-9.352,13.207-11.5-13.207Z" transform="translate(-409.182 -48.839)" fill="#fcd4ae"/>
          <path id="Path_5888" data-name="Path 5888" d="M526.124,198.015l-13.448,31.743S496.24,208.649,496.1,195.023l11.731-16.593Z" transform="translate(-411.826 -51.924)" fill="#ffe7cc"/>
          <path id="Path_5889" data-name="Path 5889" d="M538.966,198.389,555.6,224.8s9.63-14.3,11.639-28.963L550.68,176.43Z" transform="translate(-403.812 -52.298)" fill="#ffe7cc"/>
          <path id="Path_5890" data-name="Path 5890" d="M530.584,194.1c7.795,2.1,20.1-8.309,26.506-17.8s9.271-21.662,13.328-32.642.782-34.422-4.4-39.763-34.3-12.76-46.9-7.419-11.943,23.443-12.889,30.861-2.941,28.442,0,38.873C509.2,176.743,519.965,191.231,530.584,194.1Z" transform="translate(-410.222 -67.593)" fill="#ff8f76"/>
          <g id="Group_4212" data-name="Group 4212" transform="translate(101.31 56.232)">
            <path id="Path_5891" data-name="Path 5891" d="M511.64,123.326a1.187,1.187,0,0,1-.445-2.287,25.125,25.125,0,0,1,18.809.024,1.187,1.187,0,0,1-1,2.154,23.175,23.175,0,0,0-16.923.021A1.18,1.18,0,0,1,511.64,123.326Z" transform="translate(-510.453 -119.225)" fill="#771813"/>
          </g>
          <g id="Group_4213" data-name="Group 4213" transform="translate(137.552 60.928)">
            <path id="Path_5892" data-name="Path 5892" d="M559.225,131.719a1.181,1.181,0,0,1-.813-.323c-6.89-6.49-16.051-5.819-16.14-5.81a1.2,1.2,0,0,1-1.281-1.084,1.187,1.187,0,0,1,1.081-1.282,25.054,25.054,0,0,1,17.967,6.448,1.187,1.187,0,0,1-.814,2.051Z" transform="translate(-540.986 -123.182)" fill="#771813"/>
          </g>
          <path id="Path_5893" data-name="Path 5893" d="M506.607,145.24s-12.717-12.463-10.187-24.63,8.369-36.5,19.546-30.564c0,0-6.628-6.825-13.156,2.077s-8.309,21.959-8.309,21.959S492.948,90.343,501.142,85s16.521,2.077,16.521,2.077-2.144-16.618,20.285-15.134c0,0-16.778,2.671-16.908,11.87a18.254,18.254,0,0,1,17.224-8.309c11.727,1.187,16.822,5.341,31.782,9.792s30.379,15.431,25.346,32.048c0,0-3.149-16.981-12.519-18.464,0,0,15.415,14.189,8.318,30.4a55.067,55.067,0,0,1-20.721,23.972s2.563-15.729,1.872-21.96c0,0-12.9-6.528-25.043-23.146,0,0,7.644,17.464,20.638,23.146,0,0-29-7.419-36.086-27.894,0,0,3.005,20.772,13.391,29.081,0,0-20.32-7.585-18.507-31.455,0,0-10.573,16.914-7.309,31.751,0,0-9.2-14.244.3-28.487C519.724,104.29,509.811,115.269,506.607,145.24Z" transform="translate(-412.147 -71.851)" fill="#8e2820"/>
          <g id="Group_4214" data-name="Group 4214" transform="translate(109.475 9.7)">
            <path id="Path_5894" data-name="Path 5894" d="M518.53,92.429a1.338,1.338,0,0,1-.255-.025,1.232,1.232,0,0,1-.919-1.448c.209-1.049,3.528-6.357,9.108-9.116,5.255-2.6,11-2.408,17.07.567a1.187,1.187,0,1,1-1.046,2.132c-4.912-2.407-9.554-2.772-13.8-1.091a18.783,18.783,0,0,0-9.027,8.074A1.122,1.122,0,0,1,518.53,92.429Z" transform="translate(-517.332 -80.023)" fill="#771813"/>
          </g>
          <g id="Group_4215" data-name="Group 4215" transform="translate(93.272 19.466)">
            <path id="Path_5895" data-name="Path 5895" d="M504.869,98.85a1.188,1.188,0,0,1-1.116-1.6c4.123-11.28,13.852-8.775,13.95-8.749a1.187,1.187,0,0,1-.62,2.291c-.331-.085-7.745-1.907-11.1,7.274A1.188,1.188,0,0,1,504.869,98.85Z" transform="translate(-503.681 -88.251)" fill="#771813"/>
          </g>
          <g id="Group_4216" data-name="Group 4216" transform="translate(152.384 23.567)">
            <path id="Path_5896" data-name="Path 5896" d="M564.529,123.24a1.2,1.2,0,0,1-.344-.051c-.92-.279-.9-1.018-.863-2.361.35-12.6-2.812-21.693-9.4-27.012a1.186,1.186,0,1,1,1.491-1.846c7.194,5.808,10.652,15.539,10.28,28.924-.011.388-.021.678-.018.853a1.189,1.189,0,0,1-1.148,1.492Zm.355-2.321a1.183,1.183,0,0,1,.2.085A1.162,1.162,0,0,0,564.884,120.92Zm0,0h0Zm0,0Zm0,0Z" transform="translate(-553.482 -91.706)" fill="#771813"/>
          </g>
          <g id="Group_4217" data-name="Group 4217" transform="translate(146.329 14.695)">
            <path id="Path_5897" data-name="Path 5897" d="M571.576,95.749a1.184,1.184,0,0,1-.8-.309c-7.151-6.509-21.255-8.826-21.4-8.849a1.187,1.187,0,0,1,.373-2.344c.607.1,14.942,2.448,22.621,9.436a1.188,1.188,0,0,1-.8,2.065Z" transform="translate(-548.38 -84.231)" fill="#771813"/>
          </g>
          <g id="Group_4218" data-name="Group 4218" transform="translate(113.111 99.335)">
            <path id="Path_5898" data-name="Path 5898" d="M534.329,163.7c-9.734,0-13.581-6.067-13.758-6.356a1.187,1.187,0,0,1,2.02-1.246h0c.17.269,4.28,6.592,15.245,4.958a1.187,1.187,0,1,1,.35,2.349A26.3,26.3,0,0,1,534.329,163.7Z" transform="translate(-520.395 -155.539)" fill="#f76a52"/>
          </g>
          <g id="Group_4219" data-name="Group 4219" transform="translate(123.327 87.928)">
            <path id="Path_5899" data-name="Path 5899" d="M530.189,155.533a1.187,1.187,0,0,1-.819-2.046h0c.129-.122,3.128-3.046,1.4-5.726a1.188,1.188,0,1,1,2-1.287c2.238,3.472-.174,7.231-1.761,8.735A1.18,1.18,0,0,1,530.189,155.533Z" transform="translate(-529.001 -145.929)" fill="#f76a52"/>
          </g>
          <path id="Path_5900" data-name="Path 5900" d="M521.129,136.042c-.584,2.546-2.127,4.365-3.445,4.062s-1.911-2.611-1.326-5.157,2.127-4.364,3.445-4.062S521.714,133.5,521.129,136.042Z" transform="translate(-408.081 -60.82)" fill="#260918"/>
          <path id="Path_5901" data-name="Path 5901" d="M549.317,141.5c-.584,2.546-2.127,4.365-3.445,4.062s-1.911-2.611-1.326-5.157,2.127-4.364,3.445-4.062S549.9,138.951,549.317,141.5Z" transform="translate(-402.811 -59.8)" fill="#260918"/>
          <g id="Group_4230" data-name="Group 4230" transform="translate(76.105 158.772)">
            <path id="Path_5902" data-name="Path 5902" d="M518.949,231.613s8.195-13.2,11.115-14.711,16.525-6.259,18.178-3.636-10.645,6.177-12.677,8.116-11.817,16.926-11.817,16.926Z" transform="translate(-483.659 -204.328)" fill="#ff8f76"/>
            <path id="Path_5903" data-name="Path 5903" d="M571.964,270.346A206.491,206.491,0,0,0,587.812,286s10.881-6.845,12.068-20.338l-13.959-11.873Z" transform="translate(-473.747 -196.606)" fill="#ff8f76"/>
            <path id="Path_5904" data-name="Path 5904" d="M522.007,272.4c-8.141,9.99-19.9,16.221-19.9,16.221s-14.2-6.476-12.793-17.333c0,0,7.3-2.011,13.85-10.886Z" transform="translate(-489.218 -195.369)" fill="#ff8f76"/>
            <g id="Group_4223" data-name="Group 4223" transform="translate(49.569)">
              <path id="Path_5905" data-name="Path 5905" d="M580.179,251.438c-.942-7.949-3.875-20.028-7.085-27.546-1.534-3.593-2.106-9.061-3.3-11.69-1-2.184-4.069,4.648-3.637,6.915a31.689,31.689,0,0,1-.145,10.252C565.318,232.421,580.179,251.438,580.179,251.438Z" transform="translate(-524.434 -204.462)" fill="#ff8f76"/>
              <rect id="Rectangle_248" data-name="Rectangle 248" width="40.059" height="73.643" rx="3.271" transform="translate(40.038 74.886) rotate(-178.169)" fill="#6b6f8e"/>
              <path id="Path_5906" data-name="Path 5906" d="M596.734,265.3c-2.077-3.473-3.976-6.229-5.925-10.112-5.3-10.57-10.987-21.407-13.482-25.122-3.41-5.08-15.649-7.989-19.723-8.316s-14.594.387-15.262,3.445,9.883,1.611,13.662,1.944c4.2.37,8.775,2.83,8.106,5.887s-5.715-.2-12.165-.859-18.283,1.905-19.631,4.624,5.79,13.134,9.876,16.855,11.813,2.006,19.478,5.246c4.252,1.8,5.874,14.17,22.466,19.288C589.295,279.768,603.218,276.136,596.734,265.3Z" transform="translate(-530.76 -202.611)" fill="#ff8f76"/>
              <g id="Group_4220" data-name="Group 4220" transform="translate(2.728 35.276)">
                <path id="Path_5907" data-name="Path 5907" d="M560.667,239.7a1.2,1.2,0,0,1-.241-.025c-2.722-.561-10.222-1.989-12.3-1.966-2.564.059-13.4,1.429-13.509,1.443a1.188,1.188,0,0,1-.3-2.356c.451-.056,11.069-1.4,13.755-1.46,2.772-.093,12.428,1.928,12.838,2.013a1.187,1.187,0,0,1-.24,2.35Z" transform="translate(-533.277 -235.333)" fill="#f76a52"/>
              </g>
              <g id="Group_4221" data-name="Group 4221" transform="translate(7.817 43.446)">
                <path id="Path_5908" data-name="Path 5908" d="M558.91,246.406a1.174,1.174,0,0,1-.374-.061c-5.115-1.7-19.642-1.754-19.789-1.756a1.187,1.187,0,0,1,0-2.374h0c.612,0,15.058.062,20.529,1.875a1.187,1.187,0,0,1-.373,2.315Z" transform="translate(-537.564 -242.216)" fill="#f76a52"/>
              </g>
              <g id="Group_4222" data-name="Group 4222" transform="translate(42.801 24.3)">
                <path id="Path_5909" data-name="Path 5909" d="M577.61,245.829a1.188,1.188,0,0,1-1.05-.631l-9.522-18,2.1-1.11,9.522,18a1.186,1.186,0,0,1-1.048,1.741Z" transform="translate(-567.038 -226.086)" fill="#f76a52"/>
              </g>
            </g>
            <path id="Path_5910" data-name="Path 5910" d="M526.011,231.559a10.466,10.466,0,0,1,8.5,6.971c2.1,6.354-6.578,22.463-11.794,30.265S518.592,237.647,526.011,231.559Z" transform="translate(-483.559 -200.763)" fill="#ff8f76"/>
            <g id="Group_4229" data-name="Group 4229" transform="translate(12.891 23.259)">
              <path id="Path_5911" data-name="Path 5911" d="M501.134,266.939c1.83-6.577.192-27.982,1.325-31.084s23.516-10.915,26.17-10.365,4.708,10.666,4.474,14.933-5.084,4.482-5.481,7.575,1.6,9.534,1.37,13.8-6.05,19.344-18.207,22.6S499.227,273.8,501.134,266.939Z" transform="translate(-500.079 -225.162)" fill="#ff8f76"/>
              <g id="Group_4224" data-name="Group 4224" transform="translate(10.176 6.349)">
                <path id="Path_5912" data-name="Path 5912" d="M513.151,274.141a1.187,1.187,0,0,1-1-1.83c.054-.084,5.378-8.465,2.769-14.667a106.1,106.1,0,0,0-6.271-12.4l1.891-1.418c.029.031,3.077,3.282,5.9,2.1,1.39-.577.754-7.17-1.331-13.831a1.186,1.186,0,0,1,2.265-.709c1.087,3.471,4.3,14.933-.021,16.732a6.054,6.054,0,0,1-4.315.094c1.2,2.253,2.69,5.237,4.065,8.507,3.1,7.363-2.713,16.491-2.963,16.875A1.185,1.185,0,0,1,513.151,274.141Z" transform="translate(-508.652 -230.558)" fill="#f76a52"/>
              </g>
              <g id="Group_4225" data-name="Group 4225" transform="translate(9.295 13.949)">
                <path id="Path_5913" data-name="Path 5913" d="M509.8,244.746a1.314,1.314,0,0,1-1.24-.882c-.221-.629-1.261-3.861-.153-5.672a2.57,2.57,0,0,1,1.875-1.218,1.315,1.315,0,0,1,.362,2.605c-.272.332-.079,2.039.4,3.42a1.316,1.316,0,0,1-.811,1.674A1.338,1.338,0,0,1,509.8,244.746Z" transform="translate(-507.909 -236.961)" fill="#f76a52"/>
              </g>
              <g id="Group_4226" data-name="Group 4226" transform="translate(21.212 4.919)">
                <path id="Path_5914" data-name="Path 5914" d="M519.136,248.531a1.188,1.188,0,0,1-.392-2.309c1.657-.58,4.463-2.033,4.943-3.454.442-1.313-1.043-7.166-2.673-11.835a1.188,1.188,0,0,1,2.242-.783c.611,1.751,3.61,10.62,2.68,13.377-1,2.976-5.859,4.745-6.41,4.938A1.173,1.173,0,0,1,519.136,248.531Z" transform="translate(-517.949 -229.354)" fill="#f76a52"/>
              </g>
              <g id="Group_4227" data-name="Group 4227" transform="translate(24.408)">
                <path id="Path_5915" data-name="Path 5915" d="M526.944,231.813a1.188,1.188,0,0,1-1.141-.862c-.8-2.794-4.028-3.36-4.165-3.383a1.187,1.187,0,0,1,.374-2.344c.2.031,4.852.808,6.072,5.074a1.186,1.186,0,0,1-.813,1.467A1.164,1.164,0,0,1,526.944,231.813Z" transform="translate(-520.642 -225.209)" fill="#f76a52"/>
              </g>
              <g id="Group_4228" data-name="Group 4228" transform="translate(20.475 9.409)">
                <path id="Path_5916" data-name="Path 5916" d="M519.252,261.379a1.188,1.188,0,0,1-1.141-.857c-.129-.45-3.107-11.04,3.474-14.646l.255-.14.292-.006a6.862,6.862,0,0,0,4.571-2.3c1.653-1.949,2.22-4.96,1.683-8.949a1.187,1.187,0,0,1,2.354-.317c.631,4.707-.128,8.353-2.256,10.836a9.186,9.186,0,0,1-5.972,3.08c-4.642,2.845-2.146,11.689-2.12,11.78a1.189,1.189,0,0,1-.811,1.472A1.216,1.216,0,0,1,519.252,261.379Z" transform="translate(-517.328 -233.136)" fill="#f76a52"/>
              </g>
            </g>
          </g>
          <g id="Group_4231" data-name="Group 4231" transform="translate(160.397 59.739)">
            <path id="Path_5917" data-name="Path 5917" d="M568.118,128.827a1.186,1.186,0,0,1-.637-.186l-6.7-4.273a1.188,1.188,0,0,1,1.277-2l6.7,4.273a1.188,1.188,0,0,1-.64,2.189Z" transform="translate(-560.233 -122.18)" fill="#771813"/>
          </g>
        </g>
        <g id="Group_4234" data-name="Group 4234" transform="translate(182.469 32.104)">
          <g id="Group_4233-2" data-name="Group 4233" transform="translate(0 0)">
            <path id="Path_5918-2" data-name="Path 5918" d="M566.877,214.674l39.254-69.469v30.541Z" transform="translate(-566.877 -139.242)" fill="#ffd7fe"/>
            <g transform="matrix(1, 0, 0, 1, -406.72, -131.38)" filter="url(#Rectangle_249-2)">
              <rect id="Rectangle_249-5" data-name="Rectangle 249" width="240.539" height="96.148" rx="4.335" transform="translate(681.13 227.52) rotate(180)" fill="#ffd7fe"/>
            </g>
          </g>
        </g>
      </g>
      <text id="Hungry_Your_favourite_Pizza_Bounce_CCombo_get_2_Moburgs_2_Pepsi_at_just_09._And_much_more..." data-name="Hungry? Your favourite Pizza
Bounce CCombo, get  2 
Moburgs &amp; 2 Pepsi at just $09. 
And much more..." transform="translate(1079.28 4639.624)" fill="#212322" font-size="14" font-family="Poppins-Medium, Poppins" font-weight="500"><tspan x="0" y="0">Hungry? Your favourite Pizza</tspan><tspan x="0" y="21" xml:space="preserve">Bounce CCombo, get  2 </tspan><tspan x="0" y="42">Moburgs &amp; 2 Pepsi at just $09. </tspan><tspan x="0" y="63">And much more...</tspan></text>
      <g id="Group_4236" data-name="Group 4236" transform="translate(629.78 4643.869)">
        <g id="Group_4233-3" data-name="Group 4233" transform="translate(0 0)">
          <path id="Path_5918-3" data-name="Path 5918" d="M606.132,214.674l-39.254-69.469v30.541Z" transform="translate(-339.035 -75.371)" fill="#d7ffe2"/>
          <g transform="matrix(1, 0, 0, 1, -3, -157.39)" filter="url(#Rectangle_249-3)">
            <rect id="Rectangle_249-6" data-name="Rectangle 249" width="236.452" height="104.569" rx="4.335" transform="translate(3 157.39)" fill="#d7ffe2"/>
          </g>
        </g>
      </g>
    </g>
    <text id="This_Sunday_celebrate_with_Momos_when_you_order_Momos_Moburgs_and_more_and_get_upto_50_off_" data-name="This Sunday celebrate with
Momos when you order Momos,
Moburgs and more and get 
upto 50% off !!!" transform="translate(635.332 4667.06)" fill="#212322" font-size="14" font-family="Poppins-Medium, Poppins" font-weight="500"><tspan x="0" y="0">This Sunday celebrate with</tspan><tspan x="0" y="21">Momos when you order Momos,</tspan><tspan x="0" y="42">Moburgs and more and get </tspan><tspan x="0" y="63">upto </tspan><tspan y="63" font-family="Poppins-Bold, Poppins" font-weight="700">50% off</tspan><tspan y="63" xml:space="preserve"> !!!</tspan></text>
  </g>
</svg>
