<svg xmlns="http://www.w3.org/2000/svg" width="393.101" height="329.483" viewBox="0 0 393.101 329.483">
  <g id="Group_13036" data-name="Group 13036" transform="translate(-1069.204 -3185.183)">
    <path id="Path_4676" data-name="Path 4676" d="M63.348,72.072S163.964-27.852,223.533,7.616,289.06,56.725,327.78,55.361s68.5,53.543,47.655,94.467,28.391,156.306-55.006,165.855c-17.43,2-49.4-6.23-68.388-2.388-38.111,7.712-61.183-1.471-94.734-3.308-18.755-1.027-41.739-2.591-62.222-2.173a152.7,152.7,0,0,1-19.339-.675c-1.155-.1,1.424-.321,0,0-1.509.343-6.993,1.161-8.464-.3C12.179,252.278-22.19,160.4,16.53,115.384,41.349,86.528,61.207,69,63.348,72.072Z" transform="matrix(0.999, -0.035, 0.035, 0.999, 1069.204, 3198.525)" fill="#9eddd4" opacity="0.46"/>
    <g id="Group_4131" data-name="Group 4131" transform="translate(1128.202 3251.295)">
      <path id="Path_4604" data-name="Path 4604" d="M724.51,469.157s-13.49,26.986-27.192,45.614c-5.452,7.414-10.938,13.5-15.62,16.042a37.328,37.328,0,0,0-11.674,10.625c-8.315,11.078-12.152,24.947-12.152,24.947l-35.038-53.009s1.2-51.817,5.4-60.484c6.131-12.631,9.093-38.152,11.449-43.233,1.747-3.769,6.738-23.239,7.216-24.669.208-.616,1.869-1.562,4.025-1.56,1.731,0,4.669,1.672,5.409,5.11,3.747,17.373-.763,28.832-.712,29.341,1.322,13.351-2.652,23.262.135,25.887.1.1.3.051.569-.123,4.83-3.1,34.81-46.809,38.5-47.753C698.73,394.9,724.51,469.157,724.51,469.157Z" transform="translate(-560.036 -360.534)" fill="#ffb27d"/>
      <path id="Path_4605" data-name="Path 4605" d="M396.176,1460.844s-.477,23.556-1.843,55.283H305.951c20.2-43.081,37.766-79.341,37.766-79.341S394.04,1438.323,396.176,1460.844Z" transform="translate(-287.8 -1265.485)" fill="#27c9b1"/>
      <path id="Path_4606" data-name="Path 4606" d="M1349.062,265.934l-10.851,15.907-10.647,15.61a2.437,2.437,0,0,1-2.214.977c-2.555-.242-5.716-3.928-8.18-5.968l-.25-.205a7.686,7.686,0,0,1-1.02-10.791l16.274-19.672v0l4.827-5.834a7.686,7.686,0,0,1,10.791-1.02l.25.205A7.688,7.688,0,0,1,1349.062,265.934Z" transform="translate(-1153.954 -248.641)" fill="#ffb27d"/>
      <path id="Path_4607" data-name="Path 4607" d="M1406.509,334.32l-10.647,15.61a2.437,2.437,0,0,1-2.214.977l6.824-36.636C1400.487,314.476,1401.647,330.914,1406.509,334.32Z" transform="translate(-1222.252 -301.12)" fill="#efa26f"/>
      <path id="Path_4608" data-name="Path 4608" d="M888.208,1295.781c-5.452,7.414-10.938,13.5-15.62,16.042a37.328,37.328,0,0,0-11.674,10.625c-3.693-1.721-7.9-3.741-12.017-5.741a6.853,6.853,0,0,1-.3-12.186l.141-.078c4.6-2.632,9.311-11.923,9.311-11.923Z" transform="translate(-750.927 -1141.546)" fill="#efa26f"/>
      <path id="Path_4609" data-name="Path 4609" d="M774.619,400.224l-2.839,11.462s2.482,1.015,4.076.227S778.75,400.841,774.619,400.224Z" transform="translate(-687.999 -374.963)" fill="#ffc197"/>
      <g id="Group_4107" data-name="Group 4107" transform="translate(96.299 3.63)">
        <rect id="Rectangle_240" data-name="Rectangle 240" width="82.883" height="156.022" rx="33" fill="#2b478b"/>
        <g id="Group_4106" data-name="Group 4106" transform="translate(4.109 4.828)">
          <path id="Path_4610" data-name="Path 4610" d="M964.456,282.175V412.4a8.052,8.052,0,0,1-8.025,8.031H897.813a8.051,8.051,0,0,1-8.024-8.031V282.175a8.051,8.051,0,0,1,8.024-8.031h58.618A8.052,8.052,0,0,1,964.456,282.175Z" transform="translate(-889.789 -274.144)" fill="#fff"/>
        </g>
        <path id="Rectangle_241" data-name="Rectangle 241" d="M3.914,0H27.842a3.914,3.914,0,0,1,3.914,3.914v0a3.914,3.914,0,0,1-3.914,3.914H3.914A3.914,3.914,0,0,1,0,3.914v0A3.914,3.914,0,0,1,3.914,0Z" transform="translate(25.564 0.914)" fill="#2b478b"/>
      </g>
      <g id="Group_4108" data-name="Group 4108" transform="translate(167.008 62.608)">
        <path id="Path_4611" data-name="Path 4611" d="M1385.2,680.061l-1.618.615-10.881,4.135a6.912,6.912,0,0,1-.771.244,7.432,7.432,0,0,1-8.787-4.539l-.16-.418a7.433,7.433,0,0,1,4.295-9.56l10.144-3.854.737-.281,1.618-.615a7.431,7.431,0,0,1,9.558,4.295l.16.418A7.433,7.433,0,0,1,1385.2,680.061Z" transform="translate(-1362.506 -665.307)" fill="#ffb27d"/>
        <path id="Path_4612" data-name="Path 4612" d="M1394.362,717.264a43.4,43.4,0,0,1-6.862,2.162,2.9,2.9,0,0,1-2.269-1.136,6.707,6.707,0,0,1-1.368-2.468,7.864,7.864,0,0,1-.372-1.575,6.656,6.656,0,0,1,.06-1.874,1.87,1.87,0,0,1,1.038-1.336l.008,0a42.911,42.911,0,0,1,6.6-2.588,2.867,2.867,0,0,1,3.556,1.589l.229.624,1.167,3.2A2.739,2.739,0,0,1,1394.362,717.264Z" transform="translate(-1380.5 -702.26)" fill="#ffd3b6"/>
        <path id="Path_4613" data-name="Path 4613" d="M1401.153,728.177a43.39,43.39,0,0,1-6.862,2.162,2.9,2.9,0,0,1-2.269-1.136c-.092-.213-.175-.438-.255-.678a7.833,7.833,0,0,1-.372-1.575,6.642,6.642,0,0,1,.06-1.874,1.869,1.869,0,0,1,1.038-1.336s.006,0,.008,0a42.916,42.916,0,0,1,6.6-2.587,3.129,3.129,0,0,1,2.671.423l1.167,3.2A2.74,2.74,0,0,1,1401.153,728.177Z" transform="translate(-1387.291 -713.173)" fill="#ffc197"/>
      </g>
      <g id="Group_4109" data-name="Group 4109" transform="translate(170.053 82.27)">
        <path id="Path_4614" data-name="Path 4614" d="M1398.835,815.255l-8.391,2.284a4.819,4.819,0,0,1-5.9-3.374l-.259-.95a4.819,4.819,0,0,1,3.374-5.9l8.391-2.284a4.819,4.819,0,0,1,5.9,3.374l.259.95A4.819,4.819,0,0,1,1398.835,815.255Z" transform="translate(-1384.12 -804.866)" fill="#ffb27d"/>
        <path id="Path_4615" data-name="Path 4615" d="M1403.346,832.861a37.836,37.836,0,0,1-5.788,1.217,2.827,2.827,0,0,1-2.289-1.816,6.348,6.348,0,0,1-.617-2.416,4.8,4.8,0,0,1,.187-1.436,1.486,1.486,0,0,1,.949-.959l.008,0a37.476,37.476,0,0,1,5.6-1.563,2.374,2.374,0,0,1,2.8,1.45l.217.756.646,2.269A2.128,2.128,0,0,1,1403.346,832.861Z" transform="translate(-1393.168 -822.883)" fill="#ffd3b6"/>
        <path id="Path_4616" data-name="Path 4616" d="M1406.075,840.548a37.848,37.848,0,0,1-5.788,1.217,2.828,2.828,0,0,1-2.289-1.816,5.341,5.341,0,0,1-.169-1.157,4.808,4.808,0,0,1,.187-1.436,1.491,1.491,0,0,1,.949-.959s.006,0,.008,0a37.262,37.262,0,0,1,5.6-1.561,2.533,2.533,0,0,1,2.57.945l.646,2.269A2.128,2.128,0,0,1,1406.075,840.548Z" transform="translate(-1395.896 -830.57)" fill="#ffc197"/>
      </g>
      <path id="Path_4617" data-name="Path 4617" d="M512.935,1419.344s17.271,16.542,28.914,22.928l8.815-6.252v9.224s17.337,3.066,22.8,0V1420.09l-48.694-24.41Z" transform="translate(-465.622 -1230.171)" fill="#1aa4b7"/>
      <path id="Path_4618" data-name="Path 4618" d="M538.215,1354.612c-6.708,1.375-21.165-3.894-21.165-3.894l2.332-22.523-16.337,18.71c-8.314-3.094-21.317-11.167-29.042-16.192-3.846-2.5-6.385-4.248-6.385-4.248,10.9-17.543,21.868-33.951,21.868-33.951,3.219,6.439,10.837,12.03,19.1,16.5a162.393,162.393,0,0,0,29.214,11.776C537.791,1334.179,538.215,1354.612,538.215,1354.612Z" transform="translate(-426.689 -1141.541)" fill="#fff"/>
      <g id="Group_4110" data-name="Group 4110" transform="translate(166.189 42.773)">
        <path id="Path_4619" data-name="Path 4619" d="M1379.942,543.033c-.06.022-.119.042-.181.062l-11,2.824c-4.837,1.243-9.839-1.374-11.116-5.816l-.654-2.275c-1.227-4.264,1.41-8.723,5.905-10.169l3.632-.933,7.369-1.891c4.837-1.243,9.839,1.374,11.116,5.815l.654,2.275C1386.876,537.132,1384.326,541.526,1379.942,543.033Z" transform="translate(-1356.69 -524.526)" fill="#ffb27d"/>
        <path id="Path_4620" data-name="Path 4620" d="M1423.022,566.09l-5.344,2.408-.034.008a5.748,5.748,0,0,1-.646.133c-.089.014-.181.024-.271.034a.717.717,0,0,1-.113,0,.85.85,0,0,1-.738-1.2,5.315,5.315,0,0,0,.3-3.624l-.127-.465a.036.036,0,0,0,0-.014l-.414-1.518a5.69,5.69,0,0,0-1.937-2.953c-.109-.09-.223-.173-.338-.253a1.535,1.535,0,0,1,.45-2.733l.034-.01,5.865-.887a2.792,2.792,0,0,1,3.242,2.172l.471,1.728,1,3.685C1424.816,564.055,1424.472,565.7,1423.022,566.09Z" transform="translate(-1404.81 -550.653)" fill="#ffd3b6"/>
        <path id="Path_4621" data-name="Path 4621" d="M1429.084,580.643l-5.344,2.409-.034.008c-.125.024-.517.089-1.03.169a.85.85,0,0,1-.738-1.2,5.315,5.315,0,0,0,.3-3.624l-.127-.465a.036.036,0,0,0,0-.014l-.414-1.518a5.69,5.69,0,0,0-1.937-2.953,1.491,1.491,0,0,1,.841-.6l.034-.01,5.865-.887a2.667,2.667,0,0,1,2.983,1.514l1,3.685C1430.878,578.608,1430.534,580.249,1429.084,580.643Z" transform="translate(-1410.873 -565.206)" fill="#ffc197"/>
      </g>
      <path id="Path_4622" data-name="Path 4622" d="M816.934,689.109s-2.4-20.949-4.614-25.034-4.088-12.266-.681-18.345,4.583-17.776,4.583-17.776c1.322,13.352-2.652,23.262.135,25.887.1.1.3.051.569-.122Z" transform="translate(-720.635 -570.609)" fill="#efa26f"/>
      <g id="Group_4111" data-name="Group 4111" transform="translate(0 107.415)">
        <path id="Path_4623" data-name="Path 4623" d="M183.363,983.336h40.7a5.917,5.917,0,0,1,5.9,5.9v17.858a5.435,5.435,0,0,1-5.419,5.419H223.5l1.961,8.283-12.312-8.283h-30.14a5.912,5.912,0,0,1-5.894-5.895V989.582A6.264,6.264,0,0,1,183.363,983.336Z" transform="translate(-177.117 -983.336)" fill="#f7faff"/>
        <path id="Path_4624" data-name="Path 4624" d="M207.287,1062.522H249.73a1.054,1.054,0,0,0,1.051-1.051h0a1.054,1.054,0,0,0-1.051-1.051H207.287a1.054,1.054,0,0,0-1.051,1.051h0A1.054,1.054,0,0,0,207.287,1062.522Z" transform="translate(-202.133 -1049.56)" fill="#cbe1fd"/>
        <path id="Path_4625" data-name="Path 4625" d="M207.287,1095.916H249.73a1.054,1.054,0,0,0,1.051-1.051h0a1.054,1.054,0,0,0-1.051-1.051H207.287a1.054,1.054,0,0,0-1.051,1.051h0A1.054,1.054,0,0,0,207.287,1095.916Z" transform="translate(-202.133 -1078.249)" fill="#cbe1fd"/>
        <path id="Path_4626" data-name="Path 4626" d="M207.287,1129.309H249.73a1.054,1.054,0,0,0,1.051-1.051h0a1.054,1.054,0,0,0-1.051-1.051H207.287a1.054,1.054,0,0,0-1.051,1.051h0A1.054,1.054,0,0,0,207.287,1129.309Z" transform="translate(-202.133 -1106.937)" fill="#cbe1fd"/>
        <path id="Path_4627" data-name="Path 4627" d="M370.19,1017.1h18.018a1.255,1.255,0,0,0,1.251-1.251h0a1.255,1.255,0,0,0-1.251-1.251H370.19a1.255,1.255,0,0,0-1.251,1.251h0A1.255,1.255,0,0,0,370.19,1017.1Z" transform="translate(-341.913 -1010.19)" fill="#cbe1fd"/>
        <path id="Rectangle_242" data-name="Rectangle 242" d="M1.251,0H11.569A1.251,1.251,0,0,1,12.82,1.251v0A1.251,1.251,0,0,1,11.569,2.5H1.251A1.251,1.251,0,0,1,0,1.251v0A1.251,1.251,0,0,1,1.251,0Z" transform="translate(24.623 6.906) rotate(180)" fill="#cbe1fd"/>
      </g>
      <g id="Group_4112" data-name="Group 4112" transform="translate(195.276 103.902)">
        <path id="Path_4628" data-name="Path 4628" d="M1673.144,1007.518l25.6,8.37-15.336-14.947-1.557,3.652-6.59.032Z" transform="translate(-1657.646 -994.948)" fill="#9ec3f6"/>
        <path id="Path_4629" data-name="Path 4629" d="M1604.246,985.294l-19.87-15.116-21.229-4.849Z" transform="translate(-1563.147 -964.354)" fill="#fff"/>
        <path id="Path_4630" data-name="Path 4630" d="M1746.01,964.4l15.336,14.947-10.222-20.94Z" transform="translate(-1720.246 -958.405)" fill="#fff"/>
      </g>
      <g id="Group_4113" data-name="Group 4113" transform="translate(24.478 0)">
        <path id="Path_4631" data-name="Path 4631" d="M374.787,271.583,350.856,275l15.88-10.824.808,3.47,5.82,1.054Z" transform="translate(-350.856 -258.08)" fill="#9ec3f6"/>
        <path id="Path_4632" data-name="Path 4632" d="M350.856,272.4l19.914-10.267,19.518-.982Z" transform="translate(-350.856 -255.488)" fill="#fff"/>
        <path id="Path_4633" data-name="Path 4633" d="M366.737,227.021l-15.88,10.824,12.294-16.917Z" transform="translate(-350.856 -220.929)" fill="#fff"/>
      </g>
      <g id="Group_4117" data-name="Group 4117" transform="translate(106.576 11.03)">
        <path id="Path_4634" data-name="Path 4634" d="M959.806,329.728l-.835.6-.84-.593a1.028,1.028,0,0,1,1.675-.006Z" transform="translate(-954.67 -325.062)" fill="#fff"/>
        <g id="Group_4114" data-name="Group 4114" transform="translate(2.268 2.777)">
          <path id="Path_4635" data-name="Path 4635" d="M951.7,318.93a2.482,2.482,0,0,0-2.032,1.057l.53.372a1.837,1.837,0,0,1,3-.011l.528-.379A2.485,2.485,0,0,0,951.7,318.93Z" transform="translate(-949.668 -318.93)" fill="#fff"/>
        </g>
        <g id="Group_4115" data-name="Group 4115">
          <path id="Path_4636" data-name="Path 4636" d="M937.868,299.22a5.252,5.252,0,0,0-4.3,2.235l.531.372a4.609,4.609,0,0,1,7.519-.028l.526-.379A5.25,5.25,0,0,0,937.868,299.22Z" transform="translate(-933.568 -299.22)" fill="#fff"/>
        </g>
        <g id="Group_4116" data-name="Group 4116" transform="translate(1.234 1.52)">
          <path id="Path_4637" data-name="Path 4637" d="M945.394,310.01a3.758,3.758,0,0,0-3.066,1.584l.53.372a3.117,3.117,0,0,1,5.059-.02l.526-.376A3.755,3.755,0,0,0,945.394,310.01Z" transform="translate(-942.328 -310.01)" fill="#fff"/>
        </g>
      </g>
      <g id="Group_4118" data-name="Group 4118" transform="translate(159.398 96.873)">
        <path id="Path_4638" data-name="Path 4638" d="M1414.951,1062.742h-64.817c-3.108-2.084-19.25-13.094-25.929-21.3-1.415-1.74-6.592-16.731-10.571-28.9-2.484-7.6-4.5-14.109-4.842-15.6a19.4,19.4,0,0,1-.245-2.945v-.014c-.169-4.978.062-14.576.3-22.2v-.035l0-.1c.011-.335.021-.665.032-.992v-.011c0-.032,0-.066,0-.1.044-1.324.086-2.573.125-3.708.1-2.838.185-4.972.22-5.807l.014-.389h0c.1-.058,3.221-1.722,7.388,1.281,1.006.726,1.936,2.478,2.784,4.765.542,1.46,1.051,3.136,1.524,4.9,1.82,6.8,3.127,14.919,3.824,17.094,1.124,3.515,14.376,18.973,15.2,19.934.013.017.027.032.039.048V984.247l-10-26.769-4.107-10.989-2.064-5.523a99.589,99.589,0,0,1-5.822-11.45,54.038,54.038,0,0,1-2.887-8.466c-.158-.665-.292-1.323-.4-1.967v0a14.278,14.278,0,0,1,.125-6.332c.968-3.174,3.149-3.772,4.824-3.707.173.006.341.021.5.039a3.421,3.421,0,0,1,.482.093,3.358,3.358,0,0,1,.833.347s0,0,0,0a3.379,3.379,0,0,1,1.088,1.017s1.414,1.847,3.312,4.329c1.248,1.634,2.707,3.543,4.107,5.383,2.494,3.279,4.81,6.337,5.447,7.233,3.442,4.845,12.71,20.635,12.71,20.635l10.848.455a7.2,7.2,0,0,1,4.611,1.93c3.858,3.6,12.174,11.4,13.194,12.557,0,.38,6.463,3.488,11.456,6.255,3.571,1.509,10.355,6.857,10.355,6.857a11.962,11.962,0,0,1,3.019,3.658c2.326,5.062,8.635,49.088,11.651,70.853C1414.272,1057.684,1414.9,1062.38,1414.951,1062.742Z" transform="translate(-1308.488 -908.963)" fill="#ffb27d"/>
        <path id="Path_4639" data-name="Path 4639" d="M1590.113,1186.445s10.05,16.405,11.38,17.144,6.5,1.774,7.094,0S1590.113,1186.445,1590.113,1186.445Z" transform="translate(-1550.435 -1147.287)" fill="#efa26f"/>
        <path id="Path_4640" data-name="Path 4640" d="M1816.122,1306.564l-.051-.045s-6.784-5.348-10.355-6.857c-4.584-2.541-10.406-5.368-11.33-6.109,1.064,1.216,8.549,9.687,11.429,10.321C1808.345,1304.432,1814.09,1306,1816.122,1306.564Z" transform="translate(-1725.929 -1239.305)" fill="#efa26f"/>
        <path id="Path_4641" data-name="Path 4641" d="M1532.249,1467.268v-24.413s5.8,9.7,6.243,15.022S1536.083,1471.81,1532.249,1467.268Z" transform="translate(-1500.724 -1367.572)" fill="#efa26f"/>
        <path id="Path_4642" data-name="Path 4642" d="M1364.8,918.624a43.822,43.822,0,0,1-2.889-5.565,2.785,2.785,0,0,1,.384-2.14,4.831,4.831,0,0,1,1.521-1.58,5.055,5.055,0,0,1,1.068-.576,4.15,4.15,0,0,1,1.367-.252,1.45,1.45,0,0,1,1.167.679s0,0,0,.006a42.555,42.555,0,0,1,3.146,5.27,2.7,2.7,0,0,1-.463,3.323l-.408.3-2.088,1.525C1366.738,920.244,1365.487,919.812,1364.8,918.624Z" transform="translate(-1354.312 -908.51)" fill="#ffd3b6"/>
        <path id="Path_4643" data-name="Path 4643" d="M1364.8,926.248a43.82,43.82,0,0,1-2.889-5.565,2.785,2.785,0,0,1,.384-2.14c.136-.114.283-.222.442-.329a5.061,5.061,0,0,1,1.068-.576,4.15,4.15,0,0,1,1.367-.252,1.451,1.451,0,0,1,1.168.678s0,0,0,.006a42.522,42.522,0,0,1,3.146,5.27,3.209,3.209,0,0,1,.209,2.372l-2.088,1.525C1366.738,927.867,1365.487,927.436,1364.8,926.248Z" transform="translate(-1354.312 -916.134)" fill="#ffc197"/>
        <path id="Path_4644" data-name="Path 4644" d="M1413.762,1683.806,1394.4,1693.83h-12.89c-3.108-2.084-19.25-13.094-25.929-21.3-1.415-1.74-6.592-16.73-10.571-28.9v-.006c.528,1.616,11.632,25.264,14.793,27.952s19.761,18.338,24.346,18.179c4.441-.152,28.082-5.593,29.547-5.93C1413.719,1683.817,1413.74,1683.811,1413.762,1683.806Z" transform="translate(-1339.864 -1540.051)" fill="#efa26f"/>
        <path id="Path_4645" data-name="Path 4645" d="M1683.865,1917.851h-69.8a280.5,280.5,0,0,1,30.78-10.009c.022,0,.043-.01.066-.016,11.925-3.016,24.2-4.845,30.867-2.1l.048.072Z" transform="translate(-1571.008 -1764.072)" fill="#fff"/>
        <path id="Path_4646" data-name="Path 4646" d="M1309.242,1343.371a.006.006,0,0,0,0,0c1.176-.432,2.828-.716,3.631.626,1.251,2.088-3.4,20.51-3.976,22.828Z" transform="translate(-1308.844 -1281.795)" fill="#efa26f"/>
        <path id="Path_4647" data-name="Path 4647" d="M1311.436,1275.254l-.4,11.143s2.343.381,3.675-.613S1315.339,1275.123,1311.436,1275.254Z" transform="translate(-1310.678 -1223.583)" fill="#ffc197"/>
      </g>
      <path id="Path_4648" data-name="Path 4648" d="M577.151,1455.241c-6.708,1.375-21.165-3.894-21.165-3.894l2.332-22.523-16.337,18.71c-8.314-3.094-21.317-11.167-29.042-16.191,19.8-2.158,34.578-21.7,34.578-21.7a162.393,162.393,0,0,0,29.214,11.776C576.727,1434.808,577.151,1455.241,577.151,1455.241Z" transform="translate(-465.625 -1242.17)" fill="#f2f7ff"/>
      <path id="Path_4649" data-name="Path 4649" d="M641.985,1571.634a2.719,2.719,0,1,1,2.694,2.744A2.72,2.72,0,0,1,641.985,1571.634Z" transform="translate(-576.49 -1379.02)" fill="#f99746"/>
      <g id="Group_4129" data-name="Group 4129" transform="translate(109.264 21.379)">
        <g id="Group_4128" data-name="Group 4128">
          <g id="Group_4125" data-name="Group 4125" transform="translate(4.829)">
            <g id="Group_4120" data-name="Group 4120" transform="translate(14.3)">
              <g id="Group_4119" data-name="Group 4119" transform="translate(4.182)">
                <path id="Path_4650" data-name="Path 4650" d="M1122.529,459.2c0,.092-.008.141-.008.141l-.045-.137c-.241-.744-1.42-4.415-2.493-8.5-1.484-5.656-2.764-12.109-1.079-12.706,3.192-1.131,3.781,7.906,3.79,14.575C1122.7,455.856,1122.563,458.566,1122.529,459.2Z" transform="translate(-1118.106 -428.709)" fill="#a8d29f"/>
                <path id="Path_4651" data-name="Path 4651" d="M1152.084,395.817c-1.153,2.559-2.154,4.712-2.729,6-.25.562-.419.96-.484,1.156.056-.319.206-1.173.421-2.389h0c.323-1.822.791-4.455,1.3-7.313,1.247-6.948,2.765-15.225,3.12-16.409.625-2.087,3.507-6.532,5.446-2.665C1160.423,376.71,1155.56,388.1,1152.084,395.817Z" transform="translate(-1144.537 -372.669)" fill="#a8d29f"/>
                <path id="Path_4652" data-name="Path 4652" d="M1153.609,485.668c-1.192,1.258-2.194,2.279-2.754,2.843-.306.309-.479.481-.479.481s.305-.651.825-1.69c.491-.982,1.174-2.31,1.972-3.764,2.615-4.764,6.464-10.871,8.851-10.518C1164.747,473.422,1157.93,481.107,1153.609,485.668Z" transform="translate(-1145.829 -458.869)" fill="#a8d29f"/>
                <path id="Path_4653" data-name="Path 4653" d="M1133.983,537.269l-.053,0c-.241-.744-1.42-4.415-2.493-8.5a3.857,3.857,0,0,0,2.71,1.869C1134.153,533.923,1134.017,536.633,1133.983,537.269Z" transform="translate(-1129.559 -506.776)" fill="#82b378"/>
                <path id="Path_4654" data-name="Path 4654" d="M1154.654,521.44c-1.153,2.559-2.154,4.712-2.729,6a10.48,10.48,0,0,1-.063-1.234h0c.323-1.822.791-4.455,1.3-7.313A3.545,3.545,0,0,0,1154.654,521.44Z" transform="translate(-1147.106 -498.292)" fill="#82b378"/>
                <path id="Path_4655" data-name="Path 4655" d="M1156.532,549.894c-1.192,1.258-2.194,2.279-2.754,2.843a7.617,7.617,0,0,1,.346-1.209c.492-.982,1.174-2.31,1.972-3.764A5.207,5.207,0,0,0,1156.532,549.894Z" transform="translate(-1148.752 -523.094)" fill="#82b378"/>
              </g>
              <path id="Path_4656" data-name="Path 4656" d="M1148.687,587.781c-.016.089-.024.136-.024.136S1148.659,587.865,1148.687,587.781Z" transform="translate(-1140.171 -557.474)" fill="#a8d29f"/>
              <path id="Path_4657" data-name="Path 4657" d="M1098.54,581.553c-2,5.666-4.49,11.844-4.49,11.844l-5.626-1.686s.659-4.2,1.626-8.866c1.128-5.445,1.771-10.938,4.085-12.367a4.37,4.37,0,0,1,2-.625,4.891,4.891,0,0,1,1.006.029c.079.01.156.022.234.036a5.289,5.289,0,0,1,.574.136c.073.021.146.044.217.069a5.489,5.489,0,0,1,.719.3,4.2,4.2,0,0,1,2.066,2.046C1101.872,574.893,1100.051,577.272,1098.54,581.553Z" transform="translate(-1088.423 -542.06)" fill="#ed7d2b"/>
            </g>
            <g id="Group_4121" data-name="Group 4121" transform="translate(20.093 26.844)">
              <path id="Path_4658" data-name="Path 4658" d="M1131.115,582.79a34,34,0,0,0-1.311,14.654,2.934,2.934,0,0,0,2.356,2.536c.868,0,2.582-1.583,3.561-3.6a7.565,7.565,0,0,0,.609-1.737c.982-4.659,2.8-10.27,5.057-13.137a33.729,33.729,0,0,1,9.688-8.849h0c.412-.236,10.108-7.3,10.108-7.3.965-1.02-.178-2.162-.178-2.162a26.529,26.529,0,0,1-3.73,2.425c-2.809,1.617-7.742-.278-7.742-.278a4.706,4.706,0,0,0-4.382.263,34.769,34.769,0,0,0-7.533,6.167A30.268,30.268,0,0,0,1131.115,582.79Z" transform="translate(-1129.54 -563.199)" fill="#ffb93e"/>
              <path id="Path_4659" data-name="Path 4659" d="M1173.794,626.183c.982-4.659,2.8-10.27,5.057-13.137a33.728,33.728,0,0,1,9.688-8.849h0c.074-.054,2.965-2.186-.239-4.116-3.136-1.889-15.935,12.184-15.117,27.84A7.57,7.57,0,0,0,1173.794,626.183Z" transform="translate(-1167.004 -594.737)" fill="#ffa412"/>
            </g>
            <g id="Group_4124" data-name="Group 4124" transform="translate(0 27.362)">
              <path id="Path_4660" data-name="Path 4660" d="M1002.07,602.636a10.451,10.451,0,0,1-1.488,1.83,14.124,14.124,0,0,1-10.2,3.77,13.288,13.288,0,0,1-2.8-4.084h0c-.634-1.586-1.1-3.922,0-5.655a4.36,4.36,0,0,1,2.535-1.924c1.564-.476,3.163-.231,3.862-.927a6.939,6.939,0,0,1,2.747-1.621c.176-.056.354-.106.535-.147h0c.075-.018.149-.034.225-.049h0a4.663,4.663,0,0,1,4.667,1.474,5.3,5.3,0,0,1,.767,1.256A6.522,6.522,0,0,1,1002.07,602.636Z" transform="translate(-986.922 -589.931)" fill="#a8d29f"/>
              <path id="Path_4661" data-name="Path 4661" d="M994.944,625.44s-1.482,1.163-1.028,2.45,1.625.693,1.992-.2S995.919,625.008,994.944,625.44Z" transform="translate(-992.857 -617.133)" fill="#d1f2c9"/>
              <path id="Path_4662" data-name="Path 4662" d="M1006.18,604.989a5.315,5.315,0,0,1,.767,1.257c.79,1.776,1.875,6.486.569,8.537l-1.751,1.6c-2.222,2.189-6.872,1.581-11.363,1.539a13.289,13.289,0,0,1-2.8-4.084h0a10.939,10.939,0,0,0,10.786-2.39A11.478,11.478,0,0,0,1006.18,604.989Z" transform="translate(-990.943 -599.62)" fill="#95c38b"/>
              <g id="Group_4122" data-name="Group 4122" transform="translate(0.693 1.311)">
                <path id="Path_4663" data-name="Path 4663" d="M997.913,577.9c-.917-.546-1.845.221-2.922.642a11.309,11.309,0,0,1-3.15.413,15.052,15.052,0,0,1,2.25-2.446C995.488,575.29,997.913,577.9,997.913,577.9Z" transform="translate(-991.841 -576.185)" fill="#a8d29f"/>
                <path id="Path_4664" data-name="Path 4664" d="M997.913,577.9a3.95,3.95,0,0,0-3.233-.795,23.463,23.463,0,0,0-2.839,1.85,15.052,15.052,0,0,1,2.25-2.446C995.488,575.29,997.913,577.9,997.913,577.9Z" transform="translate(-991.841 -576.185)" fill="#82b378"/>
              </g>
              <path id="Path_4665" data-name="Path 4665" d="M1013.458,597.546a6.938,6.938,0,0,1,2.747-1.621c-1.831.687-2.841,3.008-3.536,2.739a12.256,12.256,0,0,0-3.073-.191C1011.16,598,1012.759,598.243,1013.458,597.546Z" transform="translate(-1006.401 -591.833)" fill="#95c38b"/>
              <path id="Path_4666" data-name="Path 4666" d="M1060.537,594.537c-.058.016-.132.033-.225.049C1060.387,594.568,1060.461,594.552,1060.537,594.537Z" transform="translate(-1049.972 -590.64)" fill="#95c38b"/>
              <g id="Group_4123" data-name="Group 4123" transform="translate(6.072)">
                <path id="Path_4667" data-name="Path 4667" d="M1030.344,573.664h0a5.809,5.809,0,0,1,.1-4.029,25.622,25.622,0,0,1,1.136-2.671.15.15,0,0,1,.277.019l.112.338a1.219,1.219,0,0,1-.114,1.015c-.567.938-1.708,3.132-1.194,4.937C1030.717,573.476,1030.448,573.9,1030.344,573.664Z" transform="translate(-1030.018 -566.88)" fill="#82b378"/>
              </g>
            </g>
          </g>
          <g id="Group_4127" data-name="Group 4127" transform="translate(19.634 37.034)">
            <g id="Group_4126" data-name="Group 4126" transform="translate(3.498)">
              <path id="Path_4668" data-name="Path 4668" d="M1117.016,638.49l-.183-.073a6.777,6.777,0,0,1,3.052-2.411,8.032,8.032,0,0,1,1.8-.476.179.179,0,0,1,.159.061l.153.178a.151.151,0,0,1-.092.246C1121.026,636.142,1118.238,636.672,1117.016,638.49Z" transform="translate(-1116.833 -635.528)" fill="#2b478b"/>
            </g>
            <path id="Path_4669" data-name="Path 4669" d="M1092.247,648.633c.928-2.317,2.233-1.794,3.843-1.15s2.916,1.167,1.988,3.484a3.142,3.142,0,1,1-5.832-2.335Z" transform="translate(-1092.008 -645.328)" fill="#699dee"/>
            <path id="Path_4670" data-name="Path 4670" d="M1100.6,650.715a1.2,1.2,0,0,1,1.142-.794.778.778,0,0,1,.55.937,1.013,1.013,0,0,1-1.046.714A.759.759,0,0,1,1100.6,650.715Z" transform="translate(-1099.38 -647.888)" fill="#92beff"/>
          </g>
          <path id="Path_4671" data-name="Path 4671" d="M1154.16,663.131l4.974,35.431a7.3,7.3,0,0,1-7.233,8.319h-7.494a6.356,6.356,0,0,1-6.319-7.047l4.209-32.958Z" transform="translate(-1111.929 -622.208)" fill="#fcecdb"/>
          <path id="Path_4672" data-name="Path 4672" d="M1040.955,663.131a47.371,47.371,0,0,0,26.121,0l-4.144,43.862h-26.247Z" transform="translate(-1024.845 -622.208)" fill="#fcecdb"/>
          <path id="Path_4673" data-name="Path 4673" d="M968.758,663.131l4.974,35.522a7.316,7.316,0,0,1-7.233,8.34h-7.494a6.367,6.367,0,0,1-6.319-7.066l3.563-36.8a36.1,36.1,0,0,0,6.025.343A48.041,48.041,0,0,0,968.758,663.131Z" transform="translate(-952.648 -622.208)" fill="#efcbab"/>
          <path id="Path_4674" data-name="Path 4674" d="M1122.235,685.474a.934.934,0,1,0-1.4.807c.4,3.143-.229,5.712-1.787,7.286-1.417,1.431-3.566,1.961-6.215,1.534-2.329-.376-3.862-2.953-4.738-5.049a24.332,24.332,0,0,1-1.219-3.873.934.934,0,1,0-1.073.107c.5,2.3,2.361,9.144,6.859,9.869a11.84,11.84,0,0,0,1.885.158,7.145,7.145,0,0,0,5.259-1.994c1.787-1.8,2.518-4.669,2.093-8.126A.932.932,0,0,0,1122.235,685.474Z" transform="translate(-1083.818 -640.601)" fill="#ed7d2b"/>
        </g>
      </g>
      <g id="Group_4130" data-name="Group 4130" transform="translate(240.257 25.762)">
        <path id="Path_4675" data-name="Path 4675" d="M1892.454,421.731a2.873,2.873,0,0,0-.041-1.013,2.105,2.105,0,0,0-.428-.841,3.971,3.971,0,0,0-.856-.756,10.484,10.484,0,0,0-1.328-.743,27.512,27.512,0,0,1-2.451-1.347,8.69,8.69,0,0,1-1.833-1.492,5.108,5.108,0,0,1-1.082-1.818,5.764,5.764,0,0,1,.466-4.36,4.853,4.853,0,0,1,1.352-1.5,6.058,6.058,0,0,1,1.936-.922,8.068,8.068,0,0,1,2.417-.279l.341-2.876,2.315.275-.346,2.916a7.239,7.239,0,0,1,2.178.926,5.473,5.473,0,0,1,2.438,3.5,7.27,7.27,0,0,1,.1,2.471l-4.181-.5a3.547,3.547,0,0,0-.43-2.5,2.465,2.465,0,0,0-1.822-1.027,3.132,3.132,0,0,0-1.143.048,2.125,2.125,0,0,0-.833.405,1.98,1.98,0,0,0-.537.693,2.916,2.916,0,0,0-.255.91,2.669,2.669,0,0,0,.038.917,1.969,1.969,0,0,0,.411.805,3.974,3.974,0,0,0,.864.756,13.485,13.485,0,0,0,1.38.8q1.341.691,2.426,1.378a8.785,8.785,0,0,1,1.824,1.5,4.933,4.933,0,0,1,1.269,4.137,5.27,5.27,0,0,1-.664,2.074,4.792,4.792,0,0,1-1.358,1.488,5.844,5.844,0,0,1-1.946.887,8.721,8.721,0,0,1-2.429.257l-.317,2.674-2.3-.273.316-2.661a9.769,9.769,0,0,1-2.26-.8,6.192,6.192,0,0,1-1.851-1.4,5.543,5.543,0,0,1-1.161-2.08,6.755,6.755,0,0,1-.193-2.83l4.181.5a4.154,4.154,0,0,0,.079,1.624,2.692,2.692,0,0,0,.595,1.106,2.61,2.61,0,0,0,.956.658,4.465,4.465,0,0,0,1.146.293,3.731,3.731,0,0,0,1.214-.033,2.492,2.492,0,0,0,.918-.382,1.98,1.98,0,0,0,.608-.671A2.413,2.413,0,0,0,1892.454,421.731Z" transform="translate(-1882.411 -403.782)" fill="#fff"/>
      </g>
    </g>
  </g>
</svg>
