<svg xmlns="http://www.w3.org/2000/svg" xmlns:xlink="http://www.w3.org/1999/xlink" width="797.777" height="475.357" viewBox="0 0 797.777 475.357">
  <defs>
    <filter id="Rectangle_913" x="515.051" y="108.216" width="282.726" height="133.908" filterUnits="userSpaceOnUse">
      <feOffset dx="15" dy="15" input="SourceAlpha"/>
      <feGaussianBlur stdDeviation="15" result="blur"/>
      <feFlood flood-opacity="0.161"/>
      <feComposite operator="in" in2="blur"/>
      <feComposite in="SourceGraphic"/>
    </filter>
    <filter id="Rectangle_914" x="0" y="195.642" width="282.726" height="133.908" filterUnits="userSpaceOnUse">
      <feOffset dx="15" dy="15" input="SourceAlpha"/>
      <feGaussianBlur stdDeviation="15" result="blur-2"/>
      <feFlood flood-opacity="0.161"/>
      <feComposite operator="in" in2="blur-2"/>
      <feComposite in="SourceGraphic"/>
    </filter>
  </defs>
  <g id="Group_13037" data-name="Group 13037" transform="translate(-576.111 -4596.759)">
    <g id="Group_13036" data-name="Group 13036">
      <g id="Group_13035" data-name="Group 13035">
        <g id="Group_5458" data-name="Group 5458" transform="translate(733.322 4596.759)">
          <g id="Group_5457" data-name="Group 5457" transform="translate(0 0)">
            <path id="Path_10232" data-name="Path 10232" d="M6443.393,1710.446a266.035,266.035,0,0,0,57.727-165.874c0-147.571-119.642-267.2-267.228-267.2s-267.228,119.63-267.228,267.2a266.038,266.038,0,0,0,57.727,165.874Z" transform="translate(-5962.476 -1236.582)" fill="#d9ffff"/>
            <ellipse id="Ellipse_361" data-name="Ellipse 361" cx="18.587" cy="18.585" rx="18.587" ry="18.585" transform="translate(48.947 41.228)" fill="#d9ffff"/>
            <g id="Group_5435" data-name="Group 5435" transform="translate(0 270.381)">
              <g id="Group_5419" data-name="Group 5419" transform="translate(32.027)">
                <g id="Group_5416" data-name="Group 5416" transform="translate(0 41.624)">
                  <g id="Group_5415" data-name="Group 5415" transform="translate(12.249)">
                    <g id="Group_5410" data-name="Group 5410" transform="translate(50.009 42.329)">
                      <g id="Group_5409" data-name="Group 5409">
                        <rect id="Rectangle_882" data-name="Rectangle 882" width="42.262" height="54.263" fill="#ffa305"/>
                        <path id="Path_10233" data-name="Path 10233" d="M6319.549,2167.594v-54.263h24.815l-.387,54.263Z" transform="translate(-6277.287 -2113.332)" fill="#de7f04"/>
                      </g>
                      <rect id="Rectangle_883" data-name="Rectangle 883" width="6.316" height="12.35" transform="translate(15.786)" fill="#ffc766"/>
                    </g>
                    <g id="Group_5411" data-name="Group 5411" transform="translate(30.502 42.329)">
                      <path id="Path_10234" data-name="Path 10234" d="M6154.864,2167.594v-54.263h19.506l-.3,54.263Z" transform="translate(-6154.864 -2113.332)" fill="#de7f04"/>
                    </g>
                    <g id="Group_5413" data-name="Group 5413">
                      <g id="Group_5412" data-name="Group 5412">
                        <rect id="Rectangle_884" data-name="Rectangle 884" width="31.311" height="42.329" transform="translate(21.014)" fill="#de7f04"/>
                        <path id="Path_10235" data-name="Path 10235" d="M6098.21,2042.8v-42.329h-24.67l.328,42.329Z" transform="translate(-6073.54 -2000.476)" fill="#ffa305"/>
                      </g>
                      <rect id="Rectangle_885" data-name="Rectangle 885" width="4.927" height="9.633" transform="translate(35.084)" fill="#ffc766"/>
                    </g>
                    <g id="Group_5414" data-name="Group 5414" transform="translate(52.126)">
                      <rect id="Rectangle_886" data-name="Rectangle 886" width="31.311" height="42.329" transform="translate(21.014)" fill="#ffa305"/>
                      <path id="Path_10236" data-name="Path 10236" d="M6233.53,2042.8v-42.329h-21.015l.328,42.329Z" transform="translate(-6212.516 -2000.476)" fill="#ffa305"/>
                    </g>
                    <rect id="Rectangle_887" data-name="Rectangle 887" width="18.783" height="42.329" transform="translate(85.668)" fill="#de7f04"/>
                  </g>
                  <rect id="Rectangle_888" data-name="Rectangle 888" width="43.779" height="54.263" transform="translate(0 42.329)" fill="#ffa305"/>
                  <rect id="Rectangle_889" data-name="Rectangle 889" width="6.316" height="12.35" transform="translate(18.732 42.329)" fill="#ffc766"/>
                </g>
                <rect id="Rectangle_890" data-name="Rectangle 890" width="4.927" height="9.633" transform="translate(78.462 41.624)" fill="#ffc766"/>
                <g id="Group_5418" data-name="Group 5418" transform="translate(35.507)">
                  <g id="Group_5417" data-name="Group 5417">
                    <rect id="Rectangle_891" data-name="Rectangle 891" width="31.311" height="42.329" transform="translate(21.014)" fill="#de7f04"/>
                    <path id="Path_10237" data-name="Path 10237" d="M6160.221,1931.828V1889.5h-24.67l.327,42.329Z" transform="translate(-6135.551 -1889.499)" fill="#ffa305"/>
                  </g>
                  <rect id="Rectangle_892" data-name="Rectangle 892" width="4.927" height="9.633" transform="translate(35.084)" fill="#ffc766"/>
                </g>
              </g>
              <g id="Group_5434" data-name="Group 5434" transform="translate(0 15.022)">
                <g id="Group_5433" data-name="Group 5433">
                  <g id="Group_5420" data-name="Group 5420" transform="translate(15.133 163.924)">
                    <circle id="Ellipse_362" data-name="Ellipse 362" cx="12.76" cy="12.76" r="12.76" transform="matrix(0.006, -1, 1, 0.006, 124.457, 25.52)" fill="#4d4d4d"/>
                    <circle id="Ellipse_363" data-name="Ellipse 363" cx="7.705" cy="7.705" r="7.705" transform="translate(129.509 20.463) rotate(-89.426)" fill="#bdbdbd"/>
                    <circle id="Ellipse_364" data-name="Ellipse 364" cx="12.76" cy="12.76" r="12.76" transform="matrix(0.006, -1, 1, 0.006, 93.138, 25.523)" fill="#4d4d4d"/>
                    <circle id="Ellipse_365" data-name="Ellipse 365" cx="7.705" cy="7.705" r="7.705" transform="matrix(0.009, -1, 1, 0.009, 98.192, 20.467)" fill="#bdbdbd"/>
                    <circle id="Ellipse_366" data-name="Ellipse 366" cx="12.76" cy="12.76" r="12.76" transform="translate(23.515 25.522) rotate(-89.675)" fill="#4d4d4d"/>
                    <circle id="Ellipse_367" data-name="Ellipse 367" cx="7.705" cy="7.705" r="7.705" transform="translate(28.57 20.467) rotate(-89.46)" fill="#bdbdbd"/>
                    <circle id="Ellipse_368" data-name="Ellipse 368" cx="12.76" cy="12.76" r="12.76" transform="matrix(0.006, -1, 1, 0.006, 0, 25.522)" fill="#4d4d4d"/>
                    <circle id="Ellipse_369" data-name="Ellipse 369" cx="7.705" cy="7.705" r="7.705" transform="translate(5.054 20.466) rotate(-89.449)" fill="#bdbdbd"/>
                  </g>
                  <path id="Path_10238" data-name="Path 10238" d="M6357.517,2366.4l7.669-3.821v-11.268h10.858v12.97l-15.329,7.664C6355.925,2373.653,6353.8,2368.118,6357.517,2366.4Z" transform="translate(-6205.546 -2193.125)" fill="#4d4d4d"/>
                  <path id="Path_10239" data-name="Path 10239" d="M6274.009,2366.4l7.669-3.821v-11.268h10.858v12.97l-15.329,7.664C6272.417,2373.653,6270.289,2368.118,6274.009,2366.4Z" transform="translate(-6153.36 -2193.125)" fill="#4d4d4d"/>
                  <path id="Path_10240" data-name="Path 10240" d="M6088.385,2366.4l7.67-3.821v-11.268h10.857v12.97l-15.329,7.664C6086.793,2373.653,6084.664,2368.118,6088.385,2366.4Z" transform="translate(-6037.358 -2193.125)" fill="#4d4d4d"/>
                  <path id="Path_10241" data-name="Path 10241" d="M6025.69,2366.4l7.669-3.821v-11.268h10.858v12.97l-15.329,7.664C6024.1,2373.653,6021.97,2368.118,6025.69,2366.4Z" transform="translate(-5998.179 -2193.125)" fill="#4d4d4d"/>
                  <g id="Group_5424" data-name="Group 5424" transform="translate(60.487 34.921)">
                    <g id="Group_5423" data-name="Group 5423">
                      <g id="Group_5421" data-name="Group 5421">
                        <path id="Path_10242" data-name="Path 10242" d="M6133.884,2111.559a1.84,1.84,0,0,1-.6-.3,1.382,1.382,0,0,1-.55-.787l-15.957-86.571c-.071-.384.166-.644.587-.646l131.4-.594a1.491,1.491,0,0,1,.946.416,1.267,1.267,0,0,1,.461.861l.234,87.1a.51.51,0,0,1-.574.51l-115.6.071A1.313,1.313,0,0,1,6133.884,2111.559Zm-14.812-86.431,15.576,84.688,113.833.019-.251-85.4Z" transform="translate(-6116.764 -2022.656)" fill="#4d4d4d"/>
                        <path id="Path_10243" data-name="Path 10243" d="M6133.878,2102.127l-.589-1.111,126.063-1.393.511,1.051Z" transform="translate(-6127.091 -2070.755)" fill="#4d4d4d"/>
                        <path id="Path_10244" data-name="Path 10244" d="M6148.328,2180.928l-.567-1.094,120.728-1.181.494,1.037Z" transform="translate(-6136.134 -2120.143)" fill="#4d4d4d"/>
                      </g>
                      <g id="Group_5422" data-name="Group 5422" transform="translate(11.101 0.652)">
                        <path id="Path_10245" data-name="Path 10245" d="M6162.681,2112.954a.522.522,0,0,1-.364-.347l-15.952-86.587c-.029-.157.1-.243.292-.192a.569.569,0,0,1,.4.379l15.936,86.556c.027.151-.1.24-.286.2Z" transform="translate(-6146.361 -2025.281)" fill="#4d4d4d"/>
                        <path id="Path_10246" data-name="Path 10246" d="M6190.683,2112.862a.515.515,0,0,1-.362-.349l-14.5-86.639c-.027-.156.105-.24.294-.186a.561.561,0,0,1,.39.379l14.487,86.608c.025.151-.1.237-.289.192Z" transform="translate(-6164.767 -2025.193)" fill="#4d4d4d"/>
                        <path id="Path_10247" data-name="Path 10247" d="M6218.715,2112.771a.506.506,0,0,1-.358-.351l-13.05-86.691c-.023-.154.11-.235.3-.18a.551.551,0,0,1,.382.379l13.035,86.661c.022.15-.107.233-.291.187Z" transform="translate(-6183.196 -2025.104)" fill="#4d4d4d"/>
                        <path id="Path_10248" data-name="Path 10248" d="M6246.779,2112.679a.5.5,0,0,1-.355-.353l-11.595-86.744c-.021-.153.114-.231.3-.174a.539.539,0,0,1,.374.38l11.581,86.713c.019.148-.112.229-.293.181Z" transform="translate(-6201.646 -2025.016)" fill="#4d4d4d"/>
                        <path id="Path_10249" data-name="Path 10249" d="M6274.877,2112.587a.5.5,0,0,1-.353-.355l-10.136-86.8c-.018-.152.117-.227.3-.169a.528.528,0,0,1,.366.38l10.123,86.765c.018.147-.115.226-.3.176Z" transform="translate(-6220.119 -2024.927)" fill="#4d4d4d"/>
                        <path id="Path_10250" data-name="Path 10250" d="M6303.008,2112.5a.487.487,0,0,1-.35-.356l-8.674-86.849c-.015-.15.121-.223.3-.163h0a.528.528,0,0,1,.357.38l8.661,86.818c.015.146-.119.222-.3.17Z" transform="translate(-6238.614 -2024.839)" fill="#4d4d4d"/>
                        <path id="Path_10251" data-name="Path 10251" d="M6331.169,2112.4h0a.48.48,0,0,1-.343-.358l-7.209-86.9c-.012-.148.123-.218.3-.158h0a.519.519,0,0,1,.35.38l7.2,86.87C6331.479,2112.381,6331.346,2112.455,6331.169,2112.4Z" transform="translate(-6257.13 -2024.75)" fill="#4d4d4d"/>
                        <path id="Path_10252" data-name="Path 10252" d="M6359.363,2112.312l-.007,0a.474.474,0,0,1-.336-.358L6353.28,2025c-.01-.147.12-.214.307-.152a.512.512,0,0,1,.342.38l5.729,86.923C6359.668,2112.291,6359.536,2112.362,6359.363,2112.312Z" transform="translate(-6275.67 -2024.662)" fill="#4d4d4d"/>
                        <path id="Path_10253" data-name="Path 10253" d="M6387.591,2112.218l-.012,0a.467.467,0,0,1-.329-.359l-4.268-87.006c-.007-.146.135-.212.309-.146a.505.505,0,0,1,.334.381l4.258,86.976C6387.89,2112.2,6387.76,2112.268,6387.591,2112.218Z" transform="translate(-6294.232 -2024.571)" fill="#4d4d4d"/>
                        <path id="Path_10254" data-name="Path 10254" d="M6415.849,2112.124l-.015,0a.46.46,0,0,1-.322-.359l-2.793-87.059c0-.144.134-.211.31-.141a.5.5,0,0,1,.327.381l2.784,87.029C6416.145,2112.106,6416.016,2112.173,6415.849,2112.124Z" transform="translate(-6312.816 -2024.48)" fill="#4d4d4d"/>
                        <path id="Path_10255" data-name="Path 10255" d="M6444.142,2112.034l-.019-.006a.454.454,0,0,1-.315-.359l-1.313-87.112c0-.142.139-.2.311-.135a.489.489,0,0,1,.318.381l1.306,87.082C6444.432,2112.017,6444.3,2112.082,6444.142,2112.034Z" transform="translate(-6331.423 -2024.393)" fill="#4d4d4d"/>
                      </g>
                    </g>
                  </g>
                  <g id="Group_5428" data-name="Group 5428" transform="translate(0 35.505)">
                    <g id="Group_5427" data-name="Group 5427">
                      <g id="Group_5425" data-name="Group 5425">
                        <path id="Path_10256" data-name="Path 10256" d="M5971.881,2112.557a1.178,1.178,0,0,1-.351-.342,2.3,2.3,0,0,1-.374-.882l-15.643-86.019c-.062-.339.03-.568.227-.57l61.416-.53a.785.785,0,0,1,.507.366,1.886,1.886,0,0,1,.349.76l15.307,86.686c.061.347-.018.572-.2.572l-61.042.017A.4.4,0,0,1,5971.881,2112.557Zm-15.2-86.153,15.414,84.2,59.972.082-14.89-84.9Z" transform="translate(-5955.495 -2024.215)" fill="#4d4d4d"/>
                        <path id="Path_10257" data-name="Path 10257" d="M5970.661,2105.509l-.381-1.06,61.12-1.311.423,1Z" transform="translate(-5964.734 -2073.536)" fill="#4d4d4d"/>
                        <path id="Path_10258" data-name="Path 10258" d="M5984.754,2183.948l-.392-1.131,60.952-1.18.437,1.069Z" transform="translate(-5973.535 -2122.593)" fill="#4d4d4d"/>
                      </g>
                      <g id="Group_5426" data-name="Group 5426" transform="translate(5.217 0.575)">
                        <path id="Path_10259" data-name="Path 10259" d="M5985.942,2113.665a.619.619,0,0,1-.231-.389l-16.3-86.078c-.026-.139.028-.215.122-.169a.51.51,0,0,1,.217.334l16.334,86.088c.032.17-.025.269-.127.22Z" transform="translate(-5969.404 -2026.54)" fill="#4d4d4d"/>
                        <path id="Path_10260" data-name="Path 10260" d="M5999.613,2113.587a.624.624,0,0,1-.233-.391l-16.19-86.129c-.026-.138.028-.211.122-.164a.522.522,0,0,1,.216.334l16.225,86.141c.032.168-.025.264-.128.214Z" transform="translate(-5978.015 -2026.461)" fill="#4d4d4d"/>
                        <path id="Path_10261" data-name="Path 10261" d="M6013.3,2113.51a.628.628,0,0,1-.234-.393l-16.081-86.179c-.026-.137.029-.208.122-.159a.52.52,0,0,1,.215.335l16.116,86.192c.031.168-.027.261-.129.209Z" transform="translate(-5986.636 -2026.382)" fill="#4d4d4d"/>
                        <path id="Path_10262" data-name="Path 10262" d="M6027,2113.433a.636.636,0,0,1-.236-.4l-15.971-86.23c-.025-.135.03-.2.123-.154a.53.53,0,0,1,.214.335l16.006,86.245c.03.166-.027.257-.13.2Z" transform="translate(-5995.267 -2026.303)" fill="#4d4d4d"/>
                        <path id="Path_10263" data-name="Path 10263" d="M6040.721,2113.355a.639.639,0,0,1-.238-.4l-15.86-86.281c-.024-.134.031-.2.123-.149a.528.528,0,0,1,.212.336l15.9,86.3c.03.165-.028.253-.131.2Z" transform="translate(-6003.908 -2026.224)" fill="#4d4d4d"/>
                        <path id="Path_10264" data-name="Path 10264" d="M6054.456,2113.277a.644.644,0,0,1-.238-.4l-15.751-86.332c-.024-.133.032-.2.124-.144h0a.54.54,0,0,1,.21.335l15.787,86.349c.029.164-.029.249-.131.191Z" transform="translate(-6012.561 -2026.145)" fill="#4d4d4d"/>
                        <path id="Path_10265" data-name="Path 10265" d="M6068.208,2113.2h0a.649.649,0,0,1-.238-.4l-15.64-86.382c-.024-.13.031-.192.122-.14h0a.55.55,0,0,1,.21.336l15.676,86.4C6068.367,2113.175,6068.309,2113.258,6068.208,2113.2Z" transform="translate(-6021.222 -2026.066)" fill="#4d4d4d"/>
                        <path id="Path_10266" data-name="Path 10266" d="M6081.975,2113.123l0,0a.649.649,0,0,1-.237-.4l-15.529-86.433c-.023-.13.029-.189.125-.134a.556.556,0,0,1,.209.336l15.565,86.454C6082.132,2113.1,6082.074,2113.18,6081.975,2113.123Z" transform="translate(-6029.895 -2025.987)" fill="#4d4d4d"/>
                        <path id="Path_10267" data-name="Path 10267" d="M6095.759,2113.044l-.006,0a.668.668,0,0,1-.236-.4l-15.418-86.484c-.022-.128.036-.187.125-.129a.558.558,0,0,1,.208.336l15.455,86.507C6095.914,2113.022,6095.858,2113.1,6095.759,2113.044Z" transform="translate(-6038.577 -2025.907)" fill="#4d4d4d"/>
                        <path id="Path_10268" data-name="Path 10268" d="M6109.56,2112.964l-.009-.006a.671.671,0,0,1-.234-.4l-15.307-86.536c-.022-.127.032-.186.125-.124a.563.563,0,0,1,.207.336l15.344,86.559C6109.712,2112.944,6109.657,2113.019,6109.56,2112.964Z" transform="translate(-6047.271 -2025.826)" fill="#4d4d4d"/>
                        <path id="Path_10269" data-name="Path 10269" d="M6123.376,2112.888l-.01-.007a.674.674,0,0,1-.234-.4l-15.194-86.587c-.022-.126.035-.179.126-.119a.571.571,0,0,1,.205.336l15.232,86.612C6123.527,2112.87,6123.472,2112.942,6123.376,2112.888Z" transform="translate(-6055.975 -2025.748)" fill="#4d4d4d"/>
                      </g>
                    </g>
                  </g>
                  <g id="Group_5432" data-name="Group 5432" transform="translate(131.715 34.742)">
                    <g id="Group_5431" data-name="Group 5431">
                      <g id="Group_5429" data-name="Group 5429">
                        <path id="Path_10270" data-name="Path 10270" d="M6308.525,2111.257a.932.932,0,0,1-.291-.345,2.025,2.025,0,0,1-.226-.889l-1.339-86.762c-.006-.342.123-.573.318-.575l60.977-.507c.14,0,.308.138.442.369a1.638,1.638,0,0,1,.221.767l.9,87.435c0,.35-.111.576-.295.576l-60.521-.01A.342.342,0,0,1,6308.525,2111.257Zm-.877-86.9,1.411,84.931,59.445.109-.777-85.633Z" transform="translate(-6306.67 -2022.179)" fill="#4d4d4d"/>
                        <path id="Path_10271" data-name="Path 10271" d="M6308.389,2104.148l-.2-1.069,60.813-1.3.255,1.009Z" transform="translate(-6307.617 -2071.926)" fill="#4d4d4d"/>
                        <path id="Path_10272" data-name="Path 10272" d="M6309.476,2183.264l-.2-1.141,60.625-1.163.258,1.079Z" transform="translate(-6308.297 -2121.406)" fill="#4d4d4d"/>
                      </g>
                      <g id="Group_5430" data-name="Group 5430" transform="translate(5.139 0.578)">
                        <path id="Path_10273" data-name="Path 10273" d="M6322.517,2112.335a.52.52,0,0,1-.166-.392l-1.98-86.822c0-.14.063-.217.147-.171a.421.421,0,0,1,.16.337l2.014,86.833c0,.172-.069.271-.163.222Z" transform="translate(-6320.37 -2024.48)" fill="#4d4d4d"/>
                        <path id="Path_10274" data-name="Path 10274" d="M6336.083,2112.263a.523.523,0,0,1-.167-.395L6334.052,2025c0-.139.063-.213.148-.165a.431.431,0,0,1,.159.338l1.9,86.885c0,.17-.069.267-.163.216Z" transform="translate(-6328.92 -2024.404)" fill="#4d4d4d"/>
                        <path id="Path_10275" data-name="Path 10275" d="M6349.666,2112.191a.528.528,0,0,1-.167-.4l-1.748-86.924c0-.138.063-.209.147-.16a.43.43,0,0,1,.157.338l1.78,86.938c0,.169-.069.263-.162.21Z" transform="translate(-6337.481 -2024.329)" fill="#4d4d4d"/>
                        <path id="Path_10276" data-name="Path 10276" d="M6363.265,2112.119a.532.532,0,0,1-.168-.4l-1.631-86.975c0-.136.063-.206.147-.155a.437.437,0,0,1,.157.338l1.663,86.99c0,.167-.07.259-.162.2Z" transform="translate(-6346.052 -2024.253)" fill="#4d4d4d"/>
                        <path id="Path_10277" data-name="Path 10277" d="M6376.88,2112.047a.53.53,0,0,1-.169-.4l-1.513-87.026c0-.135.063-.2.146-.15a.434.434,0,0,1,.154.339l1.546,87.043c0,.166-.069.255-.162.2Z" transform="translate(-6354.634 -2024.177)" fill="#4d4d4d"/>
                        <path id="Path_10278" data-name="Path 10278" d="M6390.511,2111.975a.537.537,0,0,1-.17-.4l-1.4-87.078c0-.134.063-.2.146-.145h0a.453.453,0,0,1,.153.338l1.428,87.1c0,.165-.07.251-.162.192Z" transform="translate(-6363.225 -2024.101)" fill="#4d4d4d"/>
                        <path id="Path_10279" data-name="Path 10279" d="M6404.159,2111.9h0a.544.544,0,0,1-.17-.4l-1.277-87.129c0-.132.063-.194.145-.141h0a.454.454,0,0,1,.152.339l1.31,87.148C6404.321,2111.878,6404.249,2111.961,6404.159,2111.9Z" transform="translate(-6371.827 -2024.025)" fill="#4d4d4d"/>
                        <path id="Path_10280" data-name="Path 10280" d="M6417.822,2111.831l0,0a.551.551,0,0,1-.169-.405l-1.158-87.18c0-.131.06-.191.145-.135a.461.461,0,0,1,.152.339l1.191,87.2C6417.981,2111.808,6417.911,2111.888,6417.822,2111.831Z" transform="translate(-6380.439 -2023.949)" fill="#4d4d4d"/>
                        <path id="Path_10281" data-name="Path 10281" d="M6431.5,2111.757l-.005,0a.559.559,0,0,1-.168-.405l-1.04-87.232c0-.129.065-.188.145-.13a.463.463,0,0,1,.151.339l1.073,87.254C6431.658,2111.736,6431.589,2111.814,6431.5,2111.757Z" transform="translate(-6389.061 -2023.872)" fill="#4d4d4d"/>
                        <path id="Path_10282" data-name="Path 10282" d="M6445.2,2111.683l-.008-.005a.561.561,0,0,1-.167-.406l-.921-87.283c0-.128.063-.187.144-.125a.472.472,0,0,1,.15.339l.954,87.307C6445.353,2111.664,6445.285,2111.739,6445.2,2111.683Z" transform="translate(-6397.694 -2023.794)" fill="#4d4d4d"/>
                        <path id="Path_10283" data-name="Path 10283" d="M6458.909,2111.612l-.01-.007a.574.574,0,0,1-.166-.407l-.8-87.335c0-.126.064-.18.145-.12a.474.474,0,0,1,.148.339l.835,87.36C6459.061,2111.594,6458.995,2111.667,6458.909,2111.612Z" transform="translate(-6406.336 -2023.719)" fill="#4d4d4d"/>
                      </g>
                    </g>
                  </g>
                  <path id="Path_10284" data-name="Path 10284" d="M6469.777,2055.881a1.835,1.835,0,0,0,1.835-1.835V1945.714a8.6,8.6,0,0,1,8.59-8.589h25.9a1.835,1.835,0,0,0,0-3.67h-25.9a12.274,12.274,0,0,0-12.26,12.259v108.331A1.835,1.835,0,0,0,6469.777,2055.881Z" transform="translate(-6275.738 -1931.991)" fill="#4d4d4d"/>
                  <path id="Path_10285" data-name="Path 10285" d="M6309.988,2055.881a1.835,1.835,0,0,0,1.835-1.835V1945.714a8.6,8.6,0,0,1,8.59-8.589h25.9a1.835,1.835,0,0,0,0-3.67h-25.9a12.274,12.274,0,0,0-12.26,12.259v108.331A1.835,1.835,0,0,0,6309.988,2055.881Z" transform="translate(-6175.881 -1931.991)" fill="#4d4d4d"/>
                  <path id="Path_10286" data-name="Path 10286" d="M6137.282,2294.292h104.934a17.234,17.234,0,1,0,0-34.468H6130.53a1.835,1.835,0,1,0,0,3.67h111.686a13.564,13.564,0,1,1,0,27.127H6137.282a1.835,1.835,0,0,0,0,3.67Z" transform="translate(-6063.732 -2135.949)" fill="#4d4d4d"/>
                  <path id="Path_10287" data-name="Path 10287" d="M6024.985,2294.292h104.934a17.234,17.234,0,1,0,0-34.468H6018.232a1.835,1.835,0,0,0,0,3.67h111.687a13.564,13.564,0,1,1,0,27.127H6024.985a1.835,1.835,0,1,0,0,3.67Z" transform="translate(-5993.555 -2135.949)" fill="#4d4d4d"/>
                  <rect id="Rectangle_893" data-name="Rectangle 893" width="63.382" height="6.549" rx="3.275" transform="translate(165.239)" fill="#4d4d4d"/>
                </g>
              </g>
            </g>
            <path id="Path_10288" data-name="Path 10288" d="M6393.089,1194.855c-.21-28.541,53.944-32.731,53.309-17.715l97.217.338c11.249.158,20.332,10.339,20.294,22.733l-1.282,413.969c-.037,12.128-9.076,21.958-20.2,21.961l-102.981.517a12.452,12.452,0,0,1-5.783,5.373c-28.816-.229-41.913-11.578-42.025-26.189C6390.566,1613.148,6391.929,1200.222,6393.089,1194.855Z" transform="translate(-6227.812 -1168.62)" fill="#4d4d4d"/>
            <g id="Group_5436" data-name="Group 5436" transform="translate(186.594 0.056)">
              <path id="Path_10289" data-name="Path 10289" d="M6473.965,1642.2l126.708-.143c11.514.02,20.88-10.067,20.925-22.538l1.54-425.765c.046-12.751-9.358-23.2-21.01-23.336l-127.077-1.651c-11.747-.135-21.292,10.148-21.314,22.959l-.752,427.759C6452.963,1632.016,6462.359,1642.182,6473.965,1642.2Z" transform="translate(-6452.985 -1168.768)" fill="#4d4d4d"/>
              <path id="Path_10290" data-name="Path 10290" d="M6475.814,1644.058a17.216,17.216,0,0,0,2.332.16l126.677-.344c9.9.007,18.029-8.84,18.067-19.726l1.5-425.3c.039-11.13-8.126-20.293-18.139-20.418l-127.038-1.855c-.292,0-.588,0-.878.011A17.408,17.408,0,0,0,6466,1182.5a20.771,20.771,0,0,0-5.178,13.9l-.78,428.191C6460.025,1634.453,6466.782,1642.814,6475.814,1644.058Z" transform="translate(-6457.396 -1173.646)" fill="#0d0d0d"/>
              <path id="Path_10291" data-name="Path 10291" d="M6478.175,1235.5l-.85,426.617,150.214-.011,1.438-425.369Z" transform="translate(-6468.196 -1210.469)" fill="#fff"/>
            </g>
            <g id="Group_5438" data-name="Group 5438" transform="translate(196.44 25.083)">
              <g id="Group_5437" data-name="Group 5437" transform="translate(0.074)">
                <path id="Path_10292" data-name="Path 10292" d="M6641.7,1303.486l-16.958-.138-54.5-67.107,17.035.14Z" transform="translate(-6536.177 -1235.962)" fill="#f13005"/>
                <path id="Path_10293" data-name="Path 10293" d="M6596.356,1303.115l-16.947-.138-54.591-67.108,17.034.14Z" transform="translate(-6507.795 -1235.729)" fill="#f1e3e0"/>
                <path id="Path_10294" data-name="Path 10294" d="M6551.046,1302.744l-16.959-.138-54.655-67.109,17.023.14Z" transform="translate(-6479.432 -1235.496)" fill="#f13005"/>
                <path id="Path_10295" data-name="Path 10295" d="M6687.026,1303.858l-16.946-.138-54.428-67.106,17.021.14Z" transform="translate(-6564.56 -1236.194)" fill="#f1e3e0"/>
                <path id="Path_10296" data-name="Path 10296" d="M6777.672,1304.6l-16.945-.138-54.276-67.1,17.021.14Z" transform="translate(-6621.302 -1236.66)" fill="#f1e3e0"/>
                <path id="Path_10297" data-name="Path 10297" d="M6911.964,1305.7l-15.289-.125-54.048-67.1,15.344.126Z" transform="translate(-6706.403 -1237.358)" fill="#f13005"/>
                <path id="Path_10298" data-name="Path 10298" d="M6868.315,1305.343l-16.945-.138-54.124-67.1,17.021.14Z" transform="translate(-6678.043 -1237.126)" fill="#f1e3e0"/>
                <path id="Path_10299" data-name="Path 10299" d="M6732.345,1304.229l-16.958-.139-54.353-67.1,17.034.14Z" transform="translate(-6592.921 -1236.427)" fill="#f13005"/>
                <path id="Path_10300" data-name="Path 10300" d="M6822.99,1304.971l-16.958-.138-54.2-67.1,17.033.14Z" transform="translate(-6649.663 -1236.893)" fill="#f13005"/>
              </g>
              <path id="Path_10301" data-name="Path 10301" d="M6642.11,1414.559l.006,10.215c.006,10.825-16.929,10.687-16.948-.138l-.018-10.216Z" transform="translate(-6570.422 -1347.311)" fill="#d62b04"/>
              <path id="Path_10302" data-name="Path 10302" d="M6687.315,1414.928l-.005,10.215c-.005,10.825-16.929,10.686-16.936-.138l-.006-10.215Z" transform="translate(-6598.68 -1347.542)" fill="#f1c5bc"/>
              <path id="Path_10303" data-name="Path 10303" d="M6732.5,1415.3l-.017,10.215c-.019,10.824-16.953,10.686-16.947-.138l0-10.215Z" transform="translate(-6626.907 -1347.773)" fill="#d62b04"/>
              <path id="Path_10304" data-name="Path 10304" d="M6777.684,1415.666l-.028,10.215c-.03,10.824-16.953,10.686-16.935-.138l.017-10.215Z" transform="translate(-6655.144 -1348.003)" fill="#f1c5bc"/>
              <path id="Path_10305" data-name="Path 10305" d="M6822.857,1416.035l-.039,10.215c-.042,10.824-16.977,10.686-16.946-.138l.028-10.215Z" transform="translate(-6683.36 -1348.234)" fill="#d62b04"/>
              <path id="Path_10306" data-name="Path 10306" d="M6868.038,1416.4l-.051,10.215c-.054,10.824-16.977,10.686-16.935-.138l.04-10.215Z" transform="translate(-6711.594 -1348.464)" fill="#f1c5bc"/>
              <path id="Path_10307" data-name="Path 10307" d="M6913.211,1416.774l-.062,10.214c-.066,10.823-17,10.686-16.945-.138l.05-10.215Z" transform="translate(-6739.811 -1348.695)" fill="#d62b04"/>
              <path id="Path_10308" data-name="Path 10308" d="M6958.39,1417.143l-.074,10.214c-.079,10.823-17,10.685-16.934-.138l.063-10.214Z" transform="translate(-6768.044 -1348.926)" fill="#f1c5bc"/>
              <path id="Path_10309" data-name="Path 10309" d="M7001.894,1417.5l-.084,10.214a7.654,7.654,0,1,1-15.279-.125l.074-10.214Z" transform="translate(-6796.258 -1349.157)" fill="#d62b04"/>
              <path id="Path_10310" data-name="Path 10310" d="M6533.964,1302.605l1.329.184-56.057-.5.074-66.8Z" transform="translate(-6479.235 -1235.496)" fill="#f1e3e0"/>
            </g>
            <path id="Path_10311" data-name="Path 10311" d="M6416.558,1424.741h0a4.255,4.255,0,0,0,4.377-4.193l.924-108.083a4.456,4.456,0,0,0-4.337-4.456h0a4.3,4.3,0,0,0-4.409,4.256l-.861,108.086A4.407,4.407,0,0,0,6416.558,1424.741Z" transform="translate(-6240.936 -1255.728)" fill="#0d0d0d"/>
            <g id="Group_5445" data-name="Group 5445" transform="translate(307.262 136.262)">
              <g id="Group_5439" data-name="Group 5439">
                <rect id="Rectangle_894" data-name="Rectangle 894" width="23.435" height="129.344" fill="#04f2f5"/>
                <rect id="Rectangle_895" data-name="Rectangle 895" width="4.935" height="106.293" rx="2.467" transform="translate(9.25 11.526)" fill="#0d0d0d"/>
              </g>
              <g id="Group_5444" data-name="Group 5444" transform="translate(9.25 20.528)">
                <path id="Path_10312" data-name="Path 10312" d="M7048.1,1882.551s8.437-.513,12.781,6.98-1.107,14.461-1.107,14.461,15.6.336,17.425,14.969-11.533,16.791-11.533,16.791,5.427,11.185-7.491,19.916-25.505-7.326-25.505-7.326-10.766,4.177-19.4-6.507.855-21.473.855-21.473-6.335-4.608-4.948-15.819,10.442-11.456,10.442-11.456-4.272-6.665.461-11.555,12.273-.609,12.273-.609,2.245-8.484,8.253-7.321S7048.1,1882.551,7048.1,1882.551Z" transform="translate(-6930.357 -1765.905)" fill="#0d0d0d"/>
                <path id="Path_10313" data-name="Path 10313" d="M6990.447,1873.391l-17.494-17.777.015-30.76-5.779-.761s-4.729,27.975-4.714,33.921c.013,5.278,17.728,28.22,17.728,28.22Z" transform="translate(-6901.298 -1735.035)" fill="#ffa88f"/>
                <path id="Path_10314" data-name="Path 10314" d="M7036.722,1954.249c-5.523-4.661-21.478-2.49-21.478-2.49s-10.412,8.549-11.268,14.869c-.614,4.536,2.021,29.792,2.021,29.792h25.582l9.674-26.539S7042.246,1958.911,7036.722,1954.249Z" transform="translate(-6927.176 -1814.501)" fill="#029e73"/>
                <path id="Path_10315" data-name="Path 10315" d="M7060.088,2134.618c2.093,12.325,4.525,32.378,5.5,46.349,6.673,29.295,5.093,34.977,7.663,52.733-2.8,2.175-6.933.7-6.933.7-4.72-12.057-12.049-32.208-13.911-49.415-4.4-14.295-9.046-29.38-13.857-45.006l-.352-.9C7034.136,2125.465,7056.883,2117.326,7060.088,2134.618Z" transform="translate(-6948.319 -1922.953)" fill="#ffa88f"/>
                <path id="Path_10316" data-name="Path 10316" d="M6986.727,2071.675a119.229,119.229,0,0,0-5.192,21.823c-2,13.269-8.529,106.085-8.529,106.085l7.264.042c3.883-15.9,11.6-28.557,10.642-49.025l18.425-56.293-9.028-22.631Z" transform="translate(-6907.879 -1889.756)" fill="#ffa88f"/>
                <path id="Path_10317" data-name="Path 10317" d="M7084.335,1874.97l17.93-16.718-7.161-32.258,6.179-1.9s15.115,30.656,15.1,36.6c-.013,5.278-25.5,29.876-25.5,29.876C7086.873,1892.47,7080.885,1883.6,7084.335,1874.97Z" transform="translate(-6976.809 -1735.035)" fill="#ffa88f"/>
                <path id="Path_10318" data-name="Path 10318" d="M7031.78,1871.964c-4.235,7.749-4.771,15.285,1.817,18.938s15.361.331,19.6-7.418,2.328-16.992-4.258-20.644S7036.016,1864.215,7031.78,1871.964Z" transform="translate(-6942.632 -1758.489)" fill="#ffa88f"/>
                <path id="Path_10319" data-name="Path 10319" d="M7042.226,1931.584h9.61l.381,10.354c0,2.14-4.963,5.162-8.987,4.925-3.13-.184-5.218-2.375-4.207-4.635Z" transform="translate(-6948.975 -1802.209)" fill="#ffa88f"/>
                <path id="Path_10320" data-name="Path 10320" d="M6980.868,2136.824c3.063-40.272,10.772-65.149,10.772-65.149H7017.2c4.525,3.547,8.633,9.726,11.253,16.328,1.787,5.234,8.951,28.093,11.718,48.821C7019.958,2144.141,6983.47,2141.456,6980.868,2136.824Z" transform="translate(-6912.793 -1889.756)" fill="#029e73"/>
                <path id="Path_10321" data-name="Path 10321" d="M7036.01,2061.427l-1.246,4.541h-26.432l-.224-4.541Z" transform="translate(-6929.816 -1883.352)" fill="#0d0d0d"/>
                <g id="Group_5440" data-name="Group 5440" transform="translate(51.624 309.827)">
                  <path id="Path_10322" data-name="Path 10322" d="M6937.848,2420.037c0-.09,4.307-.095,8.912-.074,5.3.016,11.9.074,11.9.074a24,24,0,0,0-.466-7.3l-8.3-.042a56.411,56.411,0,0,0-6.335,1.618c-.265.081-.55.139-.842.209C6936.265,2416.019,6937.848,2420.226,6937.848,2420.037Z" transform="translate(-6937.425 -2412.698)" fill="#994803"/>
                  <path id="Path_10323" data-name="Path 10323" d="M6937.848,2422.732c0-.09,4.307-.094,8.912-.074a4.084,4.084,0,0,0,.218-1.326,4.648,4.648,0,0,0-3.424-4.322c-.267.074-.55.139-.842.209C6936.265,2418.714,6937.848,2422.921,6937.848,2422.732Z" transform="translate(-6937.425 -2415.393)" fill="#994803"/>
                  <rect id="Rectangle_896" data-name="Rectangle 896" width="21.517" height="1.307" transform="translate(0 6.038)" fill="#994803"/>
                </g>
                <g id="Group_5441" data-name="Group 5441" transform="translate(116.412 309.889)">
                  <path id="Path_10324" data-name="Path 10324" d="M7110.353,2420.2c.124,0,2.233-.025,4.848-.049,4.257-.041,9.851-.074,10.376.049,1.482-3.583-1.592-5.422-4.424-6.436-1.207-.427-2.373-.706-3.12-.9l-7.212.041A24,24,0,0,0,7110.353,2420.2Z" transform="translate(-7110.068 -2412.864)" fill="#994803"/>
                  <rect id="Rectangle_897" data-name="Rectangle 897" width="15.933" height="1.307" transform="translate(0 6.036)" fill="#994803"/>
                </g>
                <path id="Path_10325" data-name="Path 10325" d="M7122.77,2421.583c4.257-.041,9.852-.074,10.377.049,1.482-3.583-1.593-5.421-4.425-6.435a5.88,5.88,0,0,0-5.065,1.67A4.067,4.067,0,0,0,7122.77,2421.583Z" transform="translate(-7001.226 -2104.404)" fill="#994803"/>
                <path id="Path_10326" data-name="Path 10326" d="M7035.968,1861.435c.186-.264-2.151,9.721,11.734,15.947,8.549-5.847,6.205-24.268-9.227-20.552-1.859-3.312-10.723-5.086-13.482,3.012-7.2.947-7.042,7.814-2.3,7.437C7022.689,1867.279,7031.212,1868.208,7035.968,1861.435Z" transform="translate(-6936.828 -1753.752)" fill="#0d0d0d"/>
                <path id="Path_10327" data-name="Path 10327" d="M7086.052,1911.861a2.643,2.643,0,1,0,2.644-2.643A2.644,2.644,0,0,0,7086.052,1911.861Z" transform="translate(-6978.525 -1788.232)" fill="#ffa88f"/>
                <g id="Group_5443" data-name="Group 5443" transform="translate(0)">
                  <path id="Path_10328" data-name="Path 10328" d="M6925.679,1586.649h-126.31v88.287h126.31a7.982,7.982,0,0,0,7.982-7.981v-72.324A7.982,7.982,0,0,0,6925.679,1586.649Z" transform="translate(-6799.369 -1586.649)" fill="#0266c9"/>
                  <path id="Path_10329" data-name="Path 10329" d="M7075.744,1634.917h-10.468v-4.194a2.53,2.53,0,0,1,2.53-2.529h14.648v10.122c0,.606.322,1.1.928,1.1h0c.606,0,.845-.491.845-1.1v-10.122h2.535a2.529,2.529,0,0,1,2.529,2.529v12.263h-13.738a.848.848,0,0,0-.858.732.816.816,0,0,0,.813.9h13.784v5.059a2.529,2.529,0,0,1-2.529,2.529h-18.956a2.53,2.53,0,0,1-2.53-2.529v-13.095h10.515a.833.833,0,0,0,.829-.918A.866.866,0,0,0,7075.744,1634.917Z" transform="translate(-6965.542 -1612.612)" fill="#ffca05"/>
                  <rect id="Rectangle_898" data-name="Rectangle 898" width="29.037" height="14.65" transform="translate(31.495 78.351) rotate(180)" fill="#eceae9"/>
                  <g id="Group_5442" data-name="Group 5442" transform="translate(2.619 48.529)">
                    <rect id="Rectangle_899" data-name="Rectangle 899" width="27.096" height="6.837" transform="translate(94.034)" fill="#eceae9"/>
                    <rect id="Rectangle_900" data-name="Rectangle 900" width="27.602" height="6.837" transform="translate(62.619)" fill="#eceae9"/>
                    <rect id="Rectangle_901" data-name="Rectangle 901" width="28.193" height="6.837" fill="#eceae9"/>
                    <rect id="Rectangle_902" data-name="Rectangle 902" width="26.083" height="6.837" transform="translate(32.217)" fill="#eceae9"/>
                  </g>
                  <rect id="Rectangle_903" data-name="Rectangle 903" width="83.567" height="8.826" transform="translate(123.588 72.527) rotate(180)" fill="#ffca05"/>
                  <rect id="Rectangle_904" data-name="Rectangle 904" width="35.952" height="10.291" transform="translate(38.41 18.594) rotate(180)" fill="#eceae9"/>
                </g>
                <path id="Path_10330" data-name="Path 10330" d="M6979.944,1815.19s2.265-.546,2.889-4.427.716-2.98.716-2.98-2.134-1.1-3.265,3.379a7.5,7.5,0,0,0-5.469,1.893s-.837.387-.384,1.641S6979.532,1815.793,6979.944,1815.19Z" transform="translate(-6908.687 -1724.767)" fill="#ffa88f"/>
                <path id="Path_10331" data-name="Path 10331" d="M7107,1815.153s-3.338-1.114-4.659-8.064c2.146-1.526,2.99,2.508,2.99,2.508s8.185-.688,7.848,3.655S7107,1815.153,7107,1815.153Z" transform="translate(-6988.706 -1724.193)" fill="#ffa88f"/>
                <rect id="Rectangle_905" data-name="Rectangle 905" width="1.607" height="88.287" transform="translate(0 0)" fill="#0d0d0d" style="mix-blend-mode: soft-light;isolation: isolate"/>
              </g>
            </g>
            <rect id="Rectangle_906" data-name="Rectangle 906" width="71.388" height="39.549" transform="translate(216.803 136.262)" fill="#04f2f5"/>
            <rect id="Rectangle_907" data-name="Rectangle 907" width="71.388" height="39.549" transform="translate(216.803 181.136)" fill="#04f2f5"/>
            <rect id="Rectangle_908" data-name="Rectangle 908" width="71.388" height="39.549" transform="translate(216.803 225.927)" fill="#04f2f5"/>
            <rect id="Rectangle_909" data-name="Rectangle 909" width="111.442" height="111.431" transform="translate(215.95 297.166)" fill="#04f2f5"/>
            <g id="Group_5446" data-name="Group 5446" transform="translate(239.716 329.007)">
              <path id="Path_10332" data-name="Path 10332" d="M6643.551,2098.887H6604a1.81,1.81,0,0,1-1.724-1.257l-7.576-23.6a1.811,1.811,0,0,1,1.724-2.364h54.7a1.81,1.81,0,0,1,1.724,2.364l-7.575,23.6A1.811,1.811,0,0,1,6643.551,2098.887Zm-38.228-3.621h36.907l6.413-19.978h-49.734Z" transform="translate(-6594.615 -2061.967)" fill="#025b75"/>
              <path id="Path_10333" data-name="Path 10333" d="M6657.21,2092.718h-33.728a1.811,1.811,0,1,1,0-3.621h32.405a3.285,3.285,0,0,0,3.361-3.143c.142-1.4-.389-2.82-1.327-3.228l11.388-35.661a1.81,1.81,0,0,1,1.725-1.26h11.777a1.81,1.81,0,1,1,0,3.621h-10.454l-10.438,33.1C6664.693,2087.088,6660.916,2092.718,6657.21,2092.718Z" transform="translate(-6611.524 -2045.805)" fill="#025b75"/>
              <circle id="Ellipse_370" data-name="Ellipse 370" cx="4.164" cy="4.164" r="4.164" transform="translate(14.695 48.814)" fill="#025b75"/>
              <circle id="Ellipse_371" data-name="Ellipse 371" cx="4.164" cy="4.164" r="4.164" transform="translate(35.654 48.814)" fill="#025b75"/>
              <path id="Path_10334" data-name="Path 10334" d="M6671.966,2098.887a1.811,1.811,0,0,1-1.811-1.811v-23.6a1.811,1.811,0,0,1,3.622,0v23.6A1.811,1.811,0,0,1,6671.966,2098.887Z" transform="translate(-6641.823 -2061.967)" fill="#025b75"/>
              <path id="Path_10335" data-name="Path 10335" d="M6636.129,2098.887a1.812,1.812,0,0,1-1.764-1.41l-5.356-23.6a1.811,1.811,0,0,1,3.532-.8l5.356,23.6a1.812,1.812,0,0,1-1.768,2.212Z" transform="translate(-6616.081 -2061.966)" fill="#025b75"/>
              <path id="Path_10336" data-name="Path 10336" d="M6697.763,2098.886a1.81,1.81,0,0,1-1.794-2.071l3.433-23.6a1.811,1.811,0,0,1,3.584.521l-3.433,23.6A1.811,1.811,0,0,1,6697.763,2098.886Z" transform="translate(-6657.942 -2061.966)" fill="#025b75"/>
              <path id="Path_10337" data-name="Path 10337" d="M6653.729,2107.137H6606.65a1.81,1.81,0,1,1,0-3.621h47.078a1.81,1.81,0,1,1,0,3.621Z" transform="translate(-6601.005 -2081.87)" fill="#025b75"/>
            </g>
            <circle id="Ellipse_372" data-name="Ellipse 372" cx="8.932" cy="8.932" r="8.932" transform="translate(232.127 349.121) rotate(-89.546)" fill="#f13005"/>
            <g id="Group_5447" data-name="Group 5447" transform="translate(234.693 145.718)">
              <path id="Path_10338" data-name="Path 10338" d="M6599.871,1561.369a10.319,10.319,0,1,0,0,12.155,10.263,10.263,0,0,1,0-12.155Z" transform="translate(-6581.224 -1557.128)" fill="#fff"/>
              <path id="Path_10339" data-name="Path 10339" d="M6639.268,1557.128a10.3,10.3,0,0,0-8.327,4.241,10.263,10.263,0,0,1,0,12.155,10.315,10.315,0,1,0,8.327-16.4Z" transform="translate(-6612.293 -1557.128)" fill="#04dbde"/>
              <path id="Path_10340" data-name="Path 10340" d="M6627.62,1568.436a10.262,10.262,0,1,0,1.993,6.078A10.254,10.254,0,0,0,6627.62,1568.436Z" transform="translate(-6608.973 -1564.195)" fill="#03adb0"/>
            </g>
            <g id="Group_5451" data-name="Group 5451" transform="translate(237.101 189.522)">
              <g id="Group_5448" data-name="Group 5448">
                <rect id="Rectangle_910" data-name="Rectangle 910" width="34.783" height="19.215" fill="#03adb0"/>
              </g>
              <g id="Group_5449" data-name="Group 5449" transform="translate(1.447 1.447)">
                <path id="Path_10341" data-name="Path 10341" d="M6623.359,1690.076l.031,0v-8.343a3.741,3.741,0,0,1-3.794-3.958h-24.23a3.748,3.748,0,0,1-3.825,3.96l-.038,0v8.405l.038,0a3.743,3.743,0,0,1,3.825,3.959h24.172A3.751,3.751,0,0,1,6623.359,1690.076Z" transform="translate(-6591.503 -1677.776)" fill="#03adb0"/>
              </g>
              <g id="Group_5450" data-name="Group 5450" transform="translate(13.201 5.235)">
                <circle id="Ellipse_373" data-name="Ellipse 373" cx="4.373" cy="4.373" r="4.373" fill="#03adb0"/>
              </g>
            </g>
            <g id="Group_5452" data-name="Group 5452" transform="translate(232.559 194.819)">
              <rect id="Rectangle_911" data-name="Rectangle 911" width="34.783" height="19.215" fill="#04d6d9"/>
              <path id="Path_10342" data-name="Path 10342" d="M6611.251,1704.2l.03,0v-8.343a3.742,3.742,0,0,1-3.794-3.958h-24.231a3.747,3.747,0,0,1-3.825,3.96l-.037,0v8.405l.037,0a3.743,3.743,0,0,1,3.825,3.96h24.172A3.752,3.752,0,0,1,6611.251,1704.2Z" transform="translate(-6577.946 -1690.45)" fill="#fff"/>
              <circle id="Ellipse_374" data-name="Ellipse 374" cx="4.373" cy="4.373" r="4.373" transform="translate(13.126 5.31) rotate(-0.988)" fill="#04d6d9"/>
            </g>
            <g id="Group_5453" data-name="Group 5453" transform="translate(238.548 233.453)">
              <path id="Path_10343" data-name="Path 10343" d="M6591.5,1794.685v18.538l23.9-3.31v-18.869Z" transform="translate(-6591.504 -1791.044)" fill="#028b8f"/>
              <path id="Path_10344" data-name="Path 10344" d="M6599.542,1800.752l.056,18.119,22.857,1.227-.057-18.443Z" transform="translate(-6596.527 -1797.111)" fill="#fff"/>
              <path id="Path_10345" data-name="Path 10345" d="M6591.5,1800.752v18.538l23.9,5.627v-18.869Z" transform="translate(-6591.504 -1797.111)" fill="#03abb0"/>
            </g>
            <g id="Group_5456" data-name="Group 5456" transform="translate(70.995 162.785)">
              <g id="Group_5455" data-name="Group 5455">
                <g id="Group_5454" data-name="Group 5454">
                  <path id="Path_10346" data-name="Path 10346" d="M6144.779,1641.5h0l0-.138Z" transform="translate(-6144.777 -1626.837)" fill="#d9ffff"/>
                  <path id="Path_10347" data-name="Path 10347" d="M6144.779,1641.5h0l0-.138Z" transform="translate(-6144.777 -1626.837)" fill="#d9ffff"/>
                  <path id="Path_10348" data-name="Path 10348" d="M6286.947,1639.567l0-.138c0,.009,0,.048,0,.138Z" transform="translate(-6233.622 -1625.627)" fill="#d9ffff"/>
                  <path id="Path_10349" data-name="Path 10349" d="M6286.947,1639.567l0-.138c0,.009,0,.048,0,.138Z" transform="translate(-6233.622 -1625.627)" fill="#d9ffff"/>
                  <path id="Path_10350" data-name="Path 10350" d="M6171.25,1602.632c-6.1,6.775-15.886,12.146-26.466,14.665.01.709.063,4.64.31,22.755.329,24.165,23.7,35.555,27.171,37.117,3.432-1.655,26.48-13.677,26.151-37.842-.246-18.115-.3-22.046-.31-22.755C6187.461,1614.341,6177.532,1609.239,6171.25,1602.632Z" transform="translate(-6144.781 -1602.632)" fill="#318f66"/>
                  <path id="Path_10351" data-name="Path 10351" d="M6181.337,1683.162a47.284,47.284,0,0,1-11.351-7.987c-6.714-6.444-10.176-13.954-10.29-22.324l-.249-18.291a50.472,50.472,0,0,0,21.071-11.438,50.461,50.461,0,0,0,21.374,10.86l.249,18.291c.114,8.369-3.143,15.971-9.678,22.6A47.307,47.307,0,0,1,6181.337,1683.162Z" transform="translate(-6153.946 -1615.438)" fill="#40b883"/>
                </g>
              </g>
              <path id="Path_10352" data-name="Path 10352" d="M6207.342,1670.132c-6.368,1.1-14.958,7.081-20.317,14.182a11.632,11.632,0,0,0-6.157-6.866l-5.376,5.6c3.446,1.479,7.261,5.776,7.837,10.235l5.485.749c2.224-4.6,7.982-15.6,19.725-21.671A8.993,8.993,0,0,0,6207.342,1670.132Z" transform="translate(-6163.972 -1644.815)" fill="#fff"/>
            </g>
          </g>
          <rect id="Rectangle_912" data-name="Rectangle 912" width="510.761" height="1.595" transform="translate(9.392 473.762)" fill="#03a9cc"/>
        </g>
        <g transform="matrix(1, 0, 0, 1, 576.11, 4596.76)" filter="url(#Rectangle_913)">
          <rect id="Rectangle_913-2" data-name="Rectangle 913" width="192.726" height="43.908" rx="21.954" transform="translate(545.05 138.22)" fill="#1c68ff"/>
        </g>
        <g transform="matrix(1, 0, 0, 1, 576.11, 4596.76)" filter="url(#Rectangle_914)">
          <rect id="Rectangle_914-2" data-name="Rectangle 914" width="192.726" height="43.908" rx="21.954" transform="translate(30 225.64)" fill="#318f66"/>
        </g>
      </g>
    </g>
    <text id="Payment_received" data-name="Payment received" transform="translate(1149.924 4761.398)" fill="#fff" font-size="15" font-family="Poppins-Medium, Poppins" font-weight="500"><tspan x="0" y="0">Payment received</tspan></text>
    <text id="Secured_by_GUNI" data-name="Secured by GUNI" transform="translate(634.924 4849.398)" fill="#fff" font-size="15" font-family="Poppins-Medium, Poppins" font-weight="500"><tspan x="0" y="0">Secured by GUNI</tspan></text>
  </g>
</svg>
