<svg xmlns="http://www.w3.org/2000/svg" width="409" height="347.196" viewBox="0 0 409 347.196">
  <g id="Group_13029" data-name="Group 13029" transform="translate(-436.9 -3540.533)">
    <rect id="Rectangle_174" data-name="Rectangle 174" width="409" height="307" rx="35" transform="translate(436.9 3560.533)" fill="#b6e6dd" opacity="0.98"/>
    <g id="Group_3886" data-name="Group 3886" transform="translate(454.9 3540.533)">
      <g id="Group_3809" data-name="Group 3809" transform="translate(23.035 0)">
        <circle id="Ellipse_104" data-name="Ellipse 104" cx="122.752" cy="122.752" r="122.752" transform="translate(0 173.598) rotate(-45)" fill="#fff0d9" opacity="0.33"/>
        <circle id="Ellipse_107" data-name="Ellipse 107" cx="31.966" cy="31.966" r="31.966" transform="translate(15.606 231.006)" fill="#fff0d9"/>
      </g>
      <g id="Group_3849" data-name="Group 3849" transform="translate(120.442 65.288)">
        <g id="Group_3814" data-name="Group 3814" transform="translate(0 6.602)">
          <path id="Path_3544" data-name="Path 3544" d="M1161.861,494.336h-9.439a26.231,26.231,0,0,1-26.231-26.232h0a26.231,26.231,0,0,1,26.231-26.232h9.439a26.231,26.231,0,0,1,26.231,26.232h0A26.231,26.231,0,0,1,1161.861,494.336Z" transform="translate(-1045.746 -330.95)" fill="#f6af3d"/>
          <path id="Path_3545" data-name="Path 3545" d="M1167.3,491.473h-94.8a13.115,13.115,0,0,1-13.115-13.115h0a13.116,13.116,0,0,1,13.115-13.116h94.8a13.117,13.117,0,0,1,13.116,13.116h0A13.116,13.116,0,0,1,1167.3,491.473Z" transform="translate(-1053.93 -328.087)" fill="#e2982b"/>
          <g id="Group_3813" data-name="Group 3813" transform="translate(4.377 156.538)">
            <path id="Path_3546" data-name="Path 3546" d="M1173.843,495.895H1065.117a6.692,6.692,0,0,1-6.692-6.692h0a6.692,6.692,0,0,1,6.692-6.692h108.726a6.693,6.693,0,0,1,6.692,6.692h0A6.693,6.693,0,0,1,1173.843,495.895Z" transform="translate(-1058.425 -482.51)" fill="#1c1b1a"/>
            <g id="Group_3812" data-name="Group 3812" transform="translate(7.53 11.647)">
              <g id="Group_3810" data-name="Group 3810" transform="translate(96.852)">
                <path id="Path_3547" data-name="Path 3547" d="M1156.943,525.238h4.347V492.886h-9.875Z" transform="translate(-1151.415 -492.886)" fill="#1c1b1a"/>
              </g>
              <g id="Group_3811" data-name="Group 3811">
                <path id="Path_3548" data-name="Path 3548" d="M1069.48,525.238h-4.348V492.886h9.875Z" transform="translate(-1065.133 -492.886)" fill="#1c1b1a"/>
              </g>
            </g>
          </g>
          <path id="Rectangle_193" data-name="Rectangle 193" d="M27.319,0H79.357a27.319,27.319,0,0,1,27.319,27.319V140.807A22.579,22.579,0,0,1,84.1,163.386H22.579A22.579,22.579,0,0,1,0,140.807V27.319A27.319,27.319,0,0,1,27.319,0Z" fill="#f6af3d"/>
        </g>
        <g id="Group_3847" data-name="Group 3847" transform="translate(7.336)">
          <g id="Group_3832" data-name="Group 3832" transform="translate(14.303)">
            <g id="Group_3815" data-name="Group 3815">
              <path id="Path_3549" data-name="Path 3549" d="M1099.751,354.25c-1.075,3.988-.525,8.621-3.094,11.855-3.271,4.118-10.389,4.268-12.578,9.05-2.114,4.619,2.048,9.936,1.155,14.937-.754,4.217-4.768,6.906-7.461,10.238a18.618,18.618,0,0,0-1.794,20.213,18.293,18.293,0,0,0,18.117,9.037c9.16-1.319,17.676-9.689,26.365-6.509,5.619,2.058,8.589,8.252,13.643,11.456,5.568,3.533,13.32,2.764,18.512-1.3s7.8-10.965,7.28-17.538a26.947,26.947,0,0,0-8.761-17.229c-2.078-1.935-4.588-3.9-4.9-6.72-.263-2.379,1.147-4.57,2.079-6.774a18.2,18.2,0,0,0-3.736-19.394c-2.218-2.242-5.15-4.067-6.119-7.067-.73-2.257-.172-4.734-.593-7.068-.733-4.065-4.391-7.1-8.337-8.325C1119.734,340.074,1102.842,342.8,1099.751,354.25Z" transform="translate(-1073.804 -336.588)" fill="#1c1b1a"/>
              <circle id="Ellipse_108" data-name="Ellipse 108" cx="7.857" cy="7.857" r="7.857" transform="translate(54.89)" fill="#1c1b1a"/>
              <circle id="Ellipse_109" data-name="Ellipse 109" cx="7.857" cy="7.857" r="7.857" transform="translate(20.688 0)" fill="#1c1b1a"/>
            </g>
            <g id="Group_3816" data-name="Group 3816" transform="translate(37.732 35.089)">
              <rect id="Rectangle_194" data-name="Rectangle 194" width="13.733" height="22.422" transform="translate(13.733 22.422) rotate(180)" fill="#c16b5d"/>
              <path id="Path_3550" data-name="Path 3550" d="M1121.123,383.652h0V368.434h-13.48v1.736A13.481,13.481,0,0,0,1121.123,383.652Z" transform="translate(-1107.391 -368.434)" fill="#a54d44"/>
            </g>
            <path id="Path_3551" data-name="Path 3551" d="M1099.448,357.769a19.377,19.377,0,0,0,.457,4.215l.1.942.77,7.107c.44,5.329,11.495,12.056,11.495,12.056a7.83,7.83,0,0,0,2.5,1.264,11.555,11.555,0,0,0,2.75.568,6.977,6.977,0,0,0,4.719-1.506c.337-.266.689-.507,1.043-.75,2.218-1.52,8.711-6.306,9.312-10.529l1.082-10.617a17.938,17.938,0,0,0,.209-2.051c.01-.231.013-.464.013-.7a17.224,17.224,0,1,0-34.448,0Z" transform="translate(-1070.662 -336.762)" fill="#c16b5d"/>
            <path id="Path_3552" data-name="Path 3552" d="M1099.448,357.769a19.377,19.377,0,0,0,.457,4.215l.1.942a32.069,32.069,0,0,0,11.918-16.208c4.552,3.628,12.509-.77,16.835,3.124,1.755,1.576,2.334,4.043,3.406,6.141a11.98,11.98,0,0,0,1.719,2.484c.01-.231.013-.464.013-.7a17.224,17.224,0,1,0-34.448,0Z" transform="translate(-1070.662 -336.762)" fill="#1c1b1a"/>
            <g id="Group_3823" data-name="Group 3823" transform="translate(22.69 24.09)">
              <g id="Group_3821" data-name="Group 3821">
                <g id="Group_3818" data-name="Group 3818" transform="translate(35.497 0)">
                  <path id="Path_3553" data-name="Path 3553" d="M1136.5,364.065a5.43,5.43,0,1,0-5.43,5.43A5.43,5.43,0,0,0,1136.5,364.065Z" transform="translate(-1125.641 -358.635)" fill="#c16b5d"/>
                  <g id="Group_3817" data-name="Group 3817" transform="translate(3.746 2.645)">
                    <path id="Path_3554" data-name="Path 3554" d="M1132.58,363.123a4.42,4.42,0,0,0-3.6,2.1" transform="translate(-1128.978 -360.73)" fill="none" stroke="#7b3b24" stroke-miterlimit="10" stroke-width="0.42"/>
                    <path id="Path_3555" data-name="Path 3555" d="M1129.617,360.991a3.954,3.954,0,0,1,2.848,5.312" transform="translate(-1128.9 -360.991)" fill="none" stroke="#7b3b24" stroke-miterlimit="10" stroke-width="0.42"/>
                  </g>
                </g>
                <g id="Group_3820" data-name="Group 3820">
                  <circle id="Ellipse_110" data-name="Ellipse 110" cx="5.43" cy="5.43" r="5.43" fill="#c16b5d"/>
                  <g id="Group_3819" data-name="Group 3819" transform="translate(3.281 2.645)">
                    <path id="Path_3556" data-name="Path 3556" d="M1097.146,363.123a4.42,4.42,0,0,1,3.6,2.1" transform="translate(-1096.915 -360.73)" fill="none" stroke="#7b3b24" stroke-miterlimit="10" stroke-width="0.42"/>
                    <path id="Path_3557" data-name="Path 3557" d="M1100.056,360.991a3.956,3.956,0,0,0-2.848,5.312" transform="translate(-1096.94 -360.991)" fill="none" stroke="#7b3b24" stroke-miterlimit="10" stroke-width="0.42"/>
                  </g>
                </g>
              </g>
              <g id="Group_3822" data-name="Group 3822" transform="translate(2.977 9.624)">
                <path id="Path_3558" data-name="Path 3558" d="M1129.215,367.208l-2.028,3.526-2.029,3.526h8.113l-2.028-3.526Z" transform="translate(-1093.18 -367.208)" fill="none" stroke="#eaab40" stroke-linecap="round" stroke-linejoin="round" stroke-width="0.42"/>
                <path id="Path_3559" data-name="Path 3559" d="M1100.727,367.208l-2.028,3.526-2.028,3.526h8.113l-2.028-3.526Z" transform="translate(-1096.67 -367.208)" fill="none" stroke="#eaab40" stroke-linecap="round" stroke-linejoin="round" stroke-width="0.42"/>
              </g>
            </g>
            <g id="Group_3831" data-name="Group 3831" transform="translate(32.695 18.635)">
              <g id="Group_3828" data-name="Group 3828" transform="translate(0 4.055)">
                <g id="Group_3825" data-name="Group 3825">
                  <path id="Path_3560" data-name="Path 3560" d="M1114.845,361.771s-2.2-4.268-5.11-4.381-5.624,3.69-5.624,3.69,2.465,2.646,5.371,2.759A8.671,8.671,0,0,0,1114.845,361.771Z" transform="translate(-1102.785 -357.388)" fill="#a54d44"/>
                  <g id="Group_3824" data-name="Group 3824" transform="translate(0 0.957)">
                    <path id="Path_3561" data-name="Path 3561" d="M1114.822,361.561a7.307,7.307,0,0,1-10.52-.425,8.687,8.687,0,0,1,5.357-2.024c.036.01.059,0,.1.008a7.9,7.9,0,0,1,4.053,1.574s-.023.012-.005.018A8.911,8.911,0,0,1,1114.822,361.561Z" transform="translate(-1102.762 -358.134)" fill="#fcfcfc"/>
                    <path id="Path_3562" data-name="Path 3562" d="M1113.171,361.158a2.27,2.27,0,1,1-4.36-1.266,2.146,2.146,0,0,1,.4-.773,7.9,7.9,0,0,1,4.053,1.574s-.023.012-.006.018A3.523,3.523,0,0,1,1113.171,361.158Z" transform="translate(-1102.221 -358.132)" fill="#6f4828"/>
                    <path id="Path_3563" data-name="Path 3563" d="M1114.056,360.03a5.97,5.97,0,0,0-1.977-1.79" transform="translate(-1101.809 -358.24)" fill="none" stroke="#7b3b24" stroke-miterlimit="10" stroke-width="0.42"/>
                    <path id="Path_3564" data-name="Path 3564" d="M1112.238,360.366a1.254,1.254,0,1,0-1.254,1.255A1.254,1.254,0,0,0,1112.238,360.366Z" transform="translate(-1102.097 -358.133)" fill="#1c1b1a"/>
                    <path id="Path_3565" data-name="Path 3565" d="M1114.994,361.62a7.016,7.016,0,0,0-2.182-2.071,6.533,6.533,0,0,0-2.97-.975,6.6,6.6,0,0,0-3.083.629,8,8,0,0,0-2.5,1.776l.335-.047c-.549-.164-1.1-.332-1.668-.448.452.368.93.684,1.405,1l.124.083.211-.13a13.324,13.324,0,0,1,2.511-1.19,7.04,7.04,0,0,1,5.235.094A16.3,16.3,0,0,1,1114.994,361.62Z" transform="translate(-1102.93 -358.2)" fill="#071321"/>
                  </g>
                </g>
                <g id="Group_3827" data-name="Group 3827" transform="translate(19.077 0.13)">
                  <path id="Path_3566" data-name="Path 3566" d="M1120.075,361.757s2-4.135,4.635-4.251,5.07,3.829,5.07,3.829-2.209,2.375-4.845,2.49A7.508,7.508,0,0,1,1120.075,361.757Z" transform="translate(-1119.907 -357.504)" fill="#a54d44"/>
                  <g id="Group_3826" data-name="Group 3826" transform="translate(0 0.826)">
                    <path id="Path_3567" data-name="Path 3567" d="M1120.075,361.561a7.525,7.525,0,0,0,4.856,2.025,7.623,7.623,0,0,0,4.681-2.45,7.52,7.52,0,0,0-4.856-2.024c-.033.01-.054,0-.086.008a6.8,6.8,0,0,0-3.675,1.574s.021.012,0,.018A8.446,8.446,0,0,0,1120.075,361.561Z" transform="translate(-1119.907 -358.134)" fill="#fcfcfc"/>
                    <path id="Path_3568" data-name="Path 3568" d="M1119.925,360.03a5.639,5.639,0,0,1,1.791-1.79" transform="translate(-1119.925 -358.24)" fill="none" stroke="#7b3b24" stroke-miterlimit="10" stroke-width="0.42"/>
                    <path id="Path_3569" data-name="Path 3569" d="M1128.22,361.158a2.27,2.27,0,1,1-4.36-1.266,2.15,2.15,0,0,1,.4-.773,7.9,7.9,0,0,1,4.053,1.574s-.024.012-.006.018A3.5,3.5,0,0,1,1128.22,361.158Z" transform="translate(-1119.454 -358.132)" fill="#6f4828"/>
                    <circle id="Ellipse_111" data-name="Ellipse 111" cx="1.254" cy="1.254" r="1.254" transform="translate(5.448 0.979)" fill="#1c1b1a"/>
                    <path id="Path_3570" data-name="Path 3570" d="M1120.072,361.62a15.781,15.781,0,0,1,2.336-1.264,8.694,8.694,0,0,1,1.186-.4,6.292,6.292,0,0,1,1.185-.161,6.494,6.494,0,0,1,2.359.458,12.122,12.122,0,0,1,2.264,1.179l.243.163.138-.126c.392-.357.787-.709,1.149-1.111a15.9,15.9,0,0,0-1.484.595l.38.037a7.125,7.125,0,0,0-2.23-1.768,5.215,5.215,0,0,0-5.621.358A6.334,6.334,0,0,0,1120.072,361.62Z" transform="translate(-1119.907 -358.2)" fill="#071321"/>
                  </g>
                </g>
              </g>
              <g id="Group_3829" data-name="Group 3829" transform="translate(2.876)">
                <path id="Path_3571" data-name="Path 3571" d="M1120.766,355.955a19.686,19.686,0,0,0,2.2.227c.65.036,1.253.058,1.855.068s1.207.008,1.857-.008a21.345,21.345,0,0,0,2.207-.155,3.821,3.821,0,0,0-1.705-1.725,5.186,5.186,0,0,0-4.653-.07A3.91,3.91,0,0,0,1120.766,355.955Z" transform="translate(-1103.621 -353.776)" fill="#1c1b1a"/>
                <path id="Path_3572" data-name="Path 3572" d="M1113.612,355.955a3.908,3.908,0,0,0-1.762-1.662,5.184,5.184,0,0,0-4.652.07,3.826,3.826,0,0,0-1.706,1.725,21.352,21.352,0,0,0,2.207.155c.65.016,1.253.02,1.857.008s1.206-.033,1.855-.068A19.653,19.653,0,0,0,1113.612,355.955Z" transform="translate(-1105.492 -353.776)" fill="#1c1b1a"/>
              </g>
              <path id="Path_3573" data-name="Path 3573" d="M1120.217,367.248a2.843,2.843,0,0,0-5.679,0" transform="translate(-1101.508 -352.456)" fill="none" stroke="#7b3b24" stroke-miterlimit="10" stroke-width="0.42"/>
              <g id="Group_3830" data-name="Group 3830" transform="translate(11.406 17.152)">
                <path id="Path_3574" data-name="Path 3574" d="M1121.752,372.586c-.384,1.511-2.163,2.655-4.28,2.655-2.163,0-3.973-1.2-4.311-2.762a9.125,9.125,0,0,0,4.311,1.09A10.65,10.65,0,0,0,1121.752,372.586Z" transform="translate(-1113.082 -368.637)" fill="#a54d44"/>
                <path id="Path_3575" data-name="Path 3575" d="M1121.472,371.084a15.578,15.578,0,0,0-8.085.033,5.019,5.019,0,0,1,8.085-.033Z" transform="translate(-1113.055 -369.056)" fill="#9b3a35"/>
                <path id="Path_3576" data-name="Path 3576" d="M1121.832,372.192a2.039,2.039,0,0,1-.1.647,10.515,10.515,0,0,1-4.278.982,9.044,9.044,0,0,1-4.307-1.089,2.113,2.113,0,0,1-.06-.54,2.7,2.7,0,0,1,.119-.778,1.328,1.328,0,0,1,.1-.254c.037-.065.066-.139.1-.2a15.454,15.454,0,0,1,8.081-.033,1.371,1.371,0,0,1,.119.237,2.658,2.658,0,0,1,.082.254A2.141,2.141,0,0,1,1121.832,372.192Z" transform="translate(-1113.091 -368.891)" fill="#1c1b1a"/>
                <path id="Path_3577" data-name="Path 3577" d="M1119.925,373.2a10.373,10.373,0,0,1-2.654.388,8.495,8.495,0,0,1-2.639-.4,4.182,4.182,0,0,1,2.639-.862A4.131,4.131,0,0,1,1119.925,373.2Z" transform="translate(-1112.902 -368.655)" fill="#cf5f46"/>
                <path id="Path_3578" data-name="Path 3578" d="M1121.586,371.161h-8.3c.037-.065.066-.139.1-.2a15.455,15.455,0,0,1,8.081-.033A1.38,1.38,0,0,1,1121.586,371.161Z" transform="translate(-1113.067 -368.891)" fill="#fcfcfc"/>
              </g>
            </g>
          </g>
          <g id="Group_3838" data-name="Group 3838" transform="translate(64.104 38.369)">
            <g id="Group_3837" data-name="Group 3837">
              <g id="Group_3835" data-name="Group 3835" transform="translate(0 17.343)">
                <g id="Group_3834" data-name="Group 3834">
                  <g id="Group_3833" data-name="Group 3833">
                    <path id="Path_3579" data-name="Path 3579" d="M1144.631,413.728v35.544a8.942,8.942,0,0,1-7.146-5.431l-8.246-19.763-10.377-24.9a8.927,8.927,0,1,1,16.477-6.878l5.377,12.925Z" transform="translate(-1118.169 -386.806)" fill="#f7f7f7"/>
                    <path id="Path_3580" data-name="Path 3580" d="M1167.5,393.374l-15.8,47.236a8.936,8.936,0,0,1-7.616,7.831,8.65,8.65,0,0,1-1.434.093c-.309-.012-.616-.026-.911-.066V412.924l.108.228,15.65-19.606Z" transform="translate(-1115.281 -386.001)" fill="#c16b5d"/>
                    <line id="Line_15" data-name="Line 15" x2="10.104" y2="24.228" transform="translate(3.402 18.871)" fill="none" stroke="#e6e6e8" stroke-miterlimit="10" stroke-width="0.643"/>
                  </g>
                </g>
              </g>
              <g id="Group_3836" data-name="Group 3836" transform="translate(33.789)">
                <path id="Path_3581" data-name="Path 3581" d="M1149.747,383.077a2.373,2.373,0,0,1,2.825.991l1.606,2.5a4.411,4.411,0,0,1,1.332-.567l-3.611-9.784a1.915,1.915,0,0,1,.752-2.315,1.853,1.853,0,0,1,2.691.947l2.214,6-2.284-7.162a1.9,1.9,0,0,1,1.273-2.284h0c1.794-.315,2.168.887,2.494,1.91l3.327,10.43.193-.013,1.587-9.046a1.92,1.92,0,0,1,1.821-1.628,1.86,1.86,0,0,1,1.857,2.181l-.481,2.733a1.855,1.855,0,0,1,2.33-.5,1.889,1.889,0,0,1,.945,2.026l-1.758,10.02c-.008.046-.026.089-.037.134a7.516,7.516,0,0,1-.666,5.44,7.991,7.991,0,0,1-6.167,4.285c-4.146.441-6.918-2.545-8.908-5.754-1.249-2.016-4.447-7.144-4.447-7.144A2.31,2.31,0,0,1,1149.747,383.077Z" transform="translate(-1148.271 -371.355)" fill="#c16b5d"/>
                <line id="Line_16" data-name="Line 16" x1="1.28" y2="6.798" transform="translate(17.795 6.619)" fill="none" stroke="#a54d44" stroke-miterlimit="10" stroke-width="0.208"/>
                <line id="Line_17" data-name="Line 17" x2="2.17" y2="6.521" transform="translate(8.125 6.005)" fill="none" stroke="#a54d44" stroke-miterlimit="10" stroke-width="0.208"/>
                <path id="Path_3582" data-name="Path 3582" d="M1160.122,386.878a4.392,4.392,0,0,0-5.771-2.3" transform="translate(-1147.526 -369.779)" fill="none" stroke="#a54d44" stroke-miterlimit="10" stroke-width="0.208"/>
              </g>
            </g>
          </g>
          <g id="Group_3840" data-name="Group 3840" transform="translate(29.609 48.703)">
            <path id="Path_3583" data-name="Path 3583" d="M1144.075,410.348c0-3.62-1.614-6.727-3.92-8.072v0a24.756,24.756,0,0,0-3.651-8.8c-.217-.331-.448-.649-.678-.966a20.929,20.929,0,0,0-1.486-1.833c-.217-.245-.448-.491-.679-.735-.318-.332-.649-.65-.981-.953-.144-.144-.3-.274-.461-.419-.188-.158-.376-.318-.578-.476a18.645,18.645,0,0,0-1.717-1.313c-.692-.476-1.429-.909-2.165-1.313H1100.3a24.667,24.667,0,0,0-12.857,21.661l2.568,49.931h48.041l1.991-38.559v-.008C1142.406,417.177,1144.075,414.029,1144.075,410.348Z" transform="translate(-1087.439 -379.962)" fill="#f7f7f7"/>
            <path id="Path_3584" data-name="Path 3584" d="M1134.18,437.237l1.13-18.85c2.415-1.275,4.129-4.454,4.129-8.182,0-3.622-1.617-6.732-3.925-8.075a24.7,24.7,0,0,0-10.229-15.5" transform="translate(-1082.803 -379.818)" fill="none" stroke="#e6e6e8" stroke-miterlimit="10" stroke-width="0.643"/>
            <g id="Group_3839" data-name="Group 3839" transform="translate(12.785)">
              <path id="Path_3585" data-name="Path 3585" d="M1101.186,380.562,1116.437,384l7.213,11.221-24.821-5.592Z" transform="translate(-1098.829 -380.562)" fill="#fff" stroke="#e6e6e8" stroke-miterlimit="10" stroke-width="0.321"/>
              <path id="Path_3586" data-name="Path 3586" d="M1123.35,382.677l-5.263,1.412,3.2,10.87,7.656-5.886Z" transform="translate(-1096.47 -380.303)" fill="#fff" stroke="#e6e6e8" stroke-miterlimit="10" stroke-width="0.321"/>
              <line id="Line_18" data-name="Line 18" y2="14.36" transform="translate(24.82 14.657)" fill="none" stroke="#e6e6e8" stroke-miterlimit="10" stroke-width="0.643"/>
            </g>
          </g>
          <g id="Group_3844" data-name="Group 3844" transform="translate(0 55.945)">
            <path id="Path_3587" data-name="Path 3587" d="M1078.937,444.439l32.734-41.156a10.028,10.028,0,0,0-1.606-14.09h0a10.028,10.028,0,0,0-14.091,1.606l-32.732,41.156a10.028,10.028,0,0,0,1.606,14.09h0A10.027,10.027,0,0,0,1078.937,444.439Z" transform="translate(-1061.061 -387.014)" fill="#f7f7f7"/>
            <path id="Path_3588" data-name="Path 3588" d="M1086.759,430.006l21.763-27.362a10.03,10.03,0,0,0,1.276-10.406" transform="translate(-1057.913 -386.374)" fill="none" stroke="#e6e6e8" stroke-miterlimit="10" stroke-width="0.643"/>
            <g id="Group_3843" data-name="Group 3843" transform="translate(1.212 24.261)">
              <g id="Group_3841" data-name="Group 3841" transform="translate(54.857)">
                <path id="Path_3589" data-name="Path 3589" d="M1124.049,413.593a2.109,2.109,0,0,0,1.678,2.471l2.547.487-1.255,3.382a2.111,2.111,0,1,0,3.958,1.469l1.91-5.153.22-.589a2.112,2.112,0,0,0-1.087-2.648l-.012,0a2.031,2.031,0,0,0-.4-.118l-.378-.073-4.714-.9A2.111,2.111,0,0,0,1124.049,413.593Z" transform="translate(-1109.418 -408.228)" fill="#c16b5d"/>
                <path id="Path_3590" data-name="Path 3590" d="M1130.445,412.714l.378.073a2.029,2.029,0,0,1,.4.118c-.047-.02-.094-.043-.146-.061A2.09,2.09,0,0,0,1130.445,412.714Z" transform="translate(-1108.63 -408.126)" fill="#c16b5d"/>
                <path id="Path_3591" data-name="Path 3591" d="M1122.312,419.961l5.093.973a2.112,2.112,0,0,1,1.677,2.471c-.006.028-.013.056-.02.084a1.973,1.973,0,0,1-1.394,1.779l-3.4,1.032a1.972,1.972,0,0,1-2.46-1.314h0a1.948,1.948,0,0,1-.066-.834l-.224-.044a2.111,2.111,0,0,1,.792-4.147Z" transform="translate(-1109.933 -407.243)" fill="#c16b5d"/>
                <path id="Path_3592" data-name="Path 3592" d="M1122.565,418.817h0a2.112,2.112,0,0,0,1.677,2.471l5.093.973a2.111,2.111,0,0,0,2.47-1.677h0a2.111,2.111,0,0,0-1.677-2.47l-5.093-.974A2.112,2.112,0,0,0,1122.565,418.817Z" transform="translate(-1109.6 -407.589)" fill="#c16b5d"/>
                <path id="Path_3593" data-name="Path 3593" d="M1128.156,422.084l.9.173a2.111,2.111,0,0,0,2.47-1.677h0a2.111,2.111,0,0,0-1.678-2.469l-5.092-.974" transform="translate(-1109.326 -407.585)" fill="none" stroke="#a54d44" stroke-miterlimit="10" stroke-width="0.215"/>
                <path id="Path_3594" data-name="Path 3594" d="M1131.147,412.888a2.112,2.112,0,0,1,1.087,2.648l-.22.589a2.133,2.133,0,0,0,.4-.889,2.113,2.113,0,0,0-1.268-2.348Z" transform="translate(-1108.544 -408.105)" fill="#c16b5d"/>
                <path id="Path_3595" data-name="Path 3595" d="M1126.049,408.859l6.466-.144a2.106,2.106,0,0,1,1.825.979,2.035,2.035,0,0,1,.172.217l3.441,5.068a2.112,2.112,0,1,1-3.494,2.372l-2.979-4.389-5.338.119a2.112,2.112,0,0,1-2.157-2.064h0A2.111,2.111,0,0,1,1126.049,408.859Z" transform="translate(-1109.422 -408.616)" fill="#c16b5d"/>
                <path id="Path_3596" data-name="Path 3596" d="M1125.824,408.859l6.466-.144a2.106,2.106,0,0,1,1.825.979,2,2,0,0,1,.172.217l3.442,5.068a2.112,2.112,0,0,1-3.494,2.372l-1.112-1.64" transform="translate(-1109.196 -408.616)" fill="none" stroke="#a54d44" stroke-miterlimit="10" stroke-width="0.215"/>
                <path id="Path_3597" data-name="Path 3597" d="M1133.347,415.695l-1.867-2.749-5.338.119a2.111,2.111,0,0,1-2.157-2.064h0a2.111,2.111,0,0,1,2.064-2.158" transform="translate(-1109.422 -408.6)" fill="#c16b5d"/>
                <path id="Path_3598" data-name="Path 3598" d="M1128.776,409.115l-.586,7.166-.192,2.843-3.42,6.746-4.5,1.394-.157.049-.033.01h0a6.956,6.956,0,0,1-7.3-11.1l-.01-.336,9.008-6.115a6.636,6.636,0,0,1,4.829-1.054Z" transform="translate(-1111.011 -408.627)" fill="#c16b5d"/>
                <path id="Path_3599" data-name="Path 3599" d="M1131.289,419.819l1.325-3.574.22-.589a2.112,2.112,0,0,0-1.086-2.648l-.012,0a2.03,2.03,0,0,0-.4-.118l-.378-.073-4.715-.9" transform="translate(-1109.144 -408.224)" fill="none" stroke="#a54d44" stroke-miterlimit="10" stroke-width="0.215"/>
                <line id="Line_19" data-name="Line 19" x1="2.882" y1="0.551" transform="translate(17.131 7.904)" fill="none" stroke="#a54d44" stroke-miterlimit="10" stroke-width="0.215"/>
                <path id="Path_3600" data-name="Path 3600" d="M1124.486,420.364l2.7.516a2.112,2.112,0,0,1,1.677,2.471c-.006.028-.013.056-.02.084a1.973,1.973,0,0,1-1.394,1.779l-3.4,1.032a1.972,1.972,0,0,1-2.459-1.314" transform="translate(-1109.715 -407.189)" fill="none" stroke="#a54d44" stroke-miterlimit="10" stroke-width="0.215"/>
                <line id="Line_20" data-name="Line 20" x1="4.813" y2="0.254" transform="translate(11.876 17.488)" fill="none" stroke="#a54d44" stroke-miterlimit="10" stroke-width="0.215"/>
              </g>
              <g id="Group_3842" data-name="Group 3842" transform="translate(0 7.204)">
                <path id="Path_3601" data-name="Path 3601" d="M1074.893,444.851l44.471-19.772-.595-10.034-49.321,10.5a10.029,10.029,0,0,0-6.929,12.373h0A10.028,10.028,0,0,0,1074.893,444.851Z" transform="translate(-1062.14 -415.045)" fill="#c16b5d"/>
              </g>
            </g>
          </g>
          <g id="Group_3845" data-name="Group 3845" transform="translate(32.286 115.03)">
            <path id="Path_3602" data-name="Path 3602" d="M1189.139,514.686l-.47.294a5.88,5.88,0,0,0-1.866,8.1,20.258,20.258,0,0,0,11.531,8.711h0a9.58,9.58,0,0,1,5.062,3.543l5.065,6.922a10.787,10.787,0,0,0,14.425,2.775L1202.7,512.765l-5.186-8.981-3.8-5.387-10.608,6.636Z" transform="translate(-1078.397 -432.454)" fill="#c16b5d"/>
            <path id="Path_3603" data-name="Path 3603" d="M1179.365,468.577l-68.957,3.642a19.075,19.075,0,0,1-20.056-18.042l-.529-10.014,84.963-4.49a16.076,16.076,0,0,1,16.9,15.206h0A13.03,13.03,0,0,1,1179.365,468.577Z" transform="translate(-1089.824 -439.651)" fill="#267769"/>
            <path id="Path_3604" data-name="Path 3604" d="M1185.5,513.117,1155.9,462.363a14.765,14.765,0,0,1,6.6-20.861h0a14.765,14.765,0,0,1,20.187,8.845l20.247,62.08Z" transform="translate(-1081.976 -439.589)" fill="#267769"/>
          </g>
          <g id="Group_3846" data-name="Group 3846" transform="translate(32.506 123.004)">
            <path id="Path_3605" data-name="Path 3605" d="M1189.63,472.7a13.02,13.02,0,0,1-12.568,7.681l-9.29-.485-59.668-3.091a19.056,19.056,0,0,1-18.06-20.045l.522-10.01,84.965,4.416a16.053,16.053,0,0,1,15.218,16.884A13.1,13.1,0,0,1,1189.63,472.7Z" transform="translate(-1090.02 -446.754)" fill="#358579"/>
            <path id="Path_3606" data-name="Path 3606" d="M1111.757,556.744a10.779,10.779,0,0,1-4-14.133l3.917-7.633a3.7,3.7,0,0,0,.168-.369q.125-.257.229-.525a9.593,9.593,0,0,0,.5-5.22,20.273,20.273,0,0,1,2.613-14.217,5.876,5.876,0,0,1,8.076-1.961l.479.284,5.918-9.721,5.756,3.5,4.935,3-3.114,5.817-.282.431-5.413,8.23Z" transform="translate(-1087.992 -439.833)" fill="#c16b5d"/>
            <path id="Path_3607" data-name="Path 3607" d="M1125.709,509.659l33.433-51.283a14.982,14.982,0,0,1,22.51-3.011h0a14.983,14.983,0,0,1,.667,21.755L1135.626,524.1Z" transform="translate(-1085.647 -446.163)" fill="#358579"/>
          </g>
        </g>
        <path id="Rectangle_195" data-name="Rectangle 195" d="M7.814,0h32.53A21.558,21.558,0,0,1,61.9,21.558v9.347A21.558,21.558,0,0,1,40.344,52.464H7.814A7.814,7.814,0,0,1,0,44.65V7.814A7.814,7.814,0,0,1,7.814,0Z" transform="translate(0 118.136)" fill="#f6af3d"/>
        <g id="Group_3848" data-name="Group 3848" transform="translate(55.593 71.666)">
          <path id="Path_3608" data-name="Path 3608" d="M1187.424,446.037h-83.373a4.379,4.379,0,0,1,4.379-4.379h78.994Z" transform="translate(-1104.051 -396.04)" fill="#b1c8dd"/>
          <path id="Path_3609" data-name="Path 3609" d="M1186.587,451.015h-59.019l9.96-48.6a1.72,1.72,0,0,1,1.69-1.4h55a2.147,2.147,0,0,1,2.109,2.547Z" transform="translate(-1101.17 -401.019)" fill="#b1c8dd"/>
          <path id="Path_3610" data-name="Path 3610" d="M1186.4,451.015H1130.3l10.225-50h56.428a2.148,2.148,0,0,1,2.11,2.547l-9.2,44.575A3.53,3.53,0,0,1,1186.4,451.015Z" transform="translate(-1100.835 -401.019)" fill="#dae4ef"/>
          <path id="Path_3611" data-name="Path 3611" d="M1185.367,451.015h-1.051c-28.588,0-50.129-21.906-44.819-50h56.428a2.148,2.148,0,0,1,2.11,2.547l-9.2,44.575A3.53,3.53,0,0,1,1185.367,451.015Z" transform="translate(-1099.808 -401.019)" fill="#f3f8ff"/>
          <path id="Path_3612" data-name="Path 3612" d="M1157.27,422a4.916,4.916,0,1,1,4.917,4.915A4.916,4.916,0,0,1,1157.27,422Z" transform="translate(-1097.531 -399.05)" fill="#dae4ef"/>
        </g>
      </g>
      <g id="Group_3870" data-name="Group 3870" transform="translate(46.313 126.113)">
        <g id="Group_3857" data-name="Group 3857" transform="translate(13.081)">
          <g id="Group_3856" data-name="Group 3856">
            <g id="Group_3855" data-name="Group 3855">
              <g id="Group_3854" data-name="Group 3854">
                <g id="Group_3850" data-name="Group 3850" transform="translate(20.122 52.601)">
                  <path id="Path_3613" data-name="Path 3613" d="M1032.226,467.855c-5.345-.136-8.2-9.01-9.152-15.925a19.4,19.4,0,0,0,1.79-1.092,13.547,13.547,0,0,1-2.035-1.025,23.468,23.468,0,0,1-.04-4.555c.409-3.253,2.27-7.066,5.541-7.036,2.891.026,4.735,3.048,5.708,5.77a60.081,60.081,0,0,1,2.375,10.818,21.8,21.8,0,0,1-1.635,3.261c.156.228.311.461.467.695.49-.13.986-.262,1.478-.388C1036.944,463.512,1036.007,467.95,1032.226,467.855Z" transform="translate(-1017.498 -438.222)" fill="#267769"/>
                  <path id="Path_3614" data-name="Path 3614" d="M1018.065,493.949c7.477-3.11,12.221-10.847,13.88-18.773s.718-16.138-.228-24.181" transform="translate(-1018.065 -436.657)" fill="none" stroke="#477c5c" stroke-miterlimit="10" stroke-width="0.244"/>
                </g>
                <g id="Group_3851" data-name="Group 3851" transform="translate(33.454 38.513)">
                  <path id="Path_3615" data-name="Path 3615" d="M1058.048,442.681l5.487.237a23.815,23.815,0,0,1-2.568,6.665c-3.253,5.719-8.377,10.1-13.521,14.2-5.818,4.638-10.2,2.725-8.606-4.658a156.842,156.842,0,0,1,4.319-15.568c.828-2.52,1.7-5.017,2.579-7.486.17-.469.335-.935.5-1.4,1.436-3.968,3.764-8.488,7.957-8.965,3.3-.379,6.338,2.11,7.936,5.021a15.645,15.645,0,0,1,1.829,6.235A41.35,41.35,0,0,1,1058.048,442.681Z" transform="translate(-1028.893 -425.671)" fill="#267769"/>
                  <path id="Path_3616" data-name="Path 3616" d="M1031.434,497.677c-2.752-6.974-1.409-15,1.7-21.822s7.827-12.756,12.132-18.894,8.307-12.744,9.636-20.122" transform="translate(-1029.942 -424.303)" fill="none" stroke="#477c5c" stroke-miterlimit="10" stroke-width="0.237"/>
                </g>
                <g id="Group_3852" data-name="Group 3852" transform="translate(17.487)">
                  <path id="Path_3617" data-name="Path 3617" d="M1048.073,413.784A22.475,22.475,0,0,0,1046.1,399.9a9.7,9.7,0,0,0-3.3-1.82c-.08-.025-.153-.049-.23-.072a12.967,12.967,0,0,0-8.334.373,18.786,18.786,0,0,0-7.643,6.1c-.52.653-1.013,1.329-1.479,2.008q-1.371,1.983-2.535,4.088a13.033,13.033,0,0,1,3.26,2.983,22.648,22.648,0,0,0-6.584,4.333,51.6,51.6,0,0,0-2.818,12.407c-.881,8.816.806,17.92,11.622,10.632a52.17,52.17,0,0,0,9.338-8.045,50.706,50.706,0,0,0,3.724-4.566l0,0a49.531,49.531,0,0,0,6.358-11.9C1047.73,415.528,1047.924,414.646,1048.073,413.784Zm-17.949,22.343a3.262,3.262,0,0,1-1.45,1.065,1.614,1.614,0,0,1-1.679-.388c-1.156-1.347,1.2-7.164,3.029-7.612C1033.377,428.372,1031.106,434.981,1030.124,436.128Z" transform="translate(-1015.654 -390.611)" fill="#267769"/>
                  <path id="Path_3618" data-name="Path 3618" d="M1017.017,488.19A108.474,108.474,0,0,1,1035.7,408.9" transform="translate(-1015.718 -389.212)" fill="none" stroke="#477c5c" stroke-miterlimit="10" stroke-width="0.275"/>
                  <path id="Path_3619" data-name="Path 3619" d="M1045.927,417.4a49.425,49.425,0,0,1-5.642,10.44,50.519,50.519,0,0,1-4.122,5.115c-.014-.025-.025-.052-.035-.074a18.747,18.747,0,0,1-1.331-4.627,118.3,118.3,0,0,0-6.164-20.541q-.94-2.357-1.991-4.675a17.429,17.429,0,0,1,6.4-4.644,13,13,0,0,1,8.254-.4c.078.022.151.047.23.072a9.725,9.725,0,0,1,3.257,1.74c.016.025.028.052.043.08a22.476,22.476,0,0,1,1.969,13.888c-.149.862-.344,1.743-.585,2.631C1046.126,416.743,1046.028,417.072,1045.927,417.4Z" transform="translate(-1014.38 -390.608)" fill="#195e51"/>
                  <path id="Path_3620" data-name="Path 3620" d="M1046.591,418.157a29.008,29.008,0,0,1-5.642,10.44c-.141.159-.283.319-.429.47l0,0c-.291.313-.588.611-.894.9.4-4.567-.085-7.725-2.658-11.741a64.426,64.426,0,0,0-7.667-9.756q-1.466-1.547-3.042-2.991c-.089-.083-.18-.164-.268-.247a21,21,0,0,1-3.49-3.685,6.307,6.307,0,0,1-1.083-5.17c.587-1.986,2.453-3.339,4.379-4.1,5.857-2.3,12.939-.11,17.121,4.587a18.03,18.03,0,0,1,2.537,3.7c.016.025.028.052.043.08a22.478,22.478,0,0,1,1.969,13.888c-.149.862-.344,1.743-.585,2.631C1046.79,417.5,1046.692,417.825,1046.591,418.157Z" transform="translate(-1015.044 -391.361)" fill="#47998b"/>
                  <path id="Path_3621" data-name="Path 3621" d="M1039.829,429.738c.189-.33.373-.664.543-1a23.739,23.739,0,0,0-18.146-34.449" transform="translate(-1014.921 -391.003)" fill="none" stroke="#477c5c" stroke-miterlimit="10" stroke-width="0.275"/>
                </g>
                <g id="Group_3853" data-name="Group 3853" transform="translate(0 32.862)">
                  <path id="Path_3622" data-name="Path 3622" d="M1017.294,433.159c.153.33.3.661.422.993a36.011,36.011,0,0,1,1.977,11.375c-.687-.013-1.374,0-2.059.031-.81.042-1.863.382-1.827,1.191a1.642,1.642,0,0,0,.558.98q1.748,1.839,3.5,3.684a60.947,60.947,0,0,0,.522,6.939,27.077,27.077,0,0,0,1.39,5.7c.485,1.309,2.583,3.832,2.427,5.146a1.681,1.681,0,0,1-1.364,1.63c-1.782.392-4.784-1.176-5.831-1.934a44.458,44.458,0,0,1-10.991-11.5,34.78,34.78,0,0,1-2.656-4.867,30.968,30.968,0,0,1-2.334-7.8,25.569,25.569,0,0,1,.02-8.226,14.06,14.06,0,0,1,2.6-6.444,7.733,7.733,0,0,1,6.034-3.09,6.025,6.025,0,0,1,.682.056C1013.493,427.438,1015.911,430.172,1017.294,433.159Z" transform="translate(-1000.07 -419.862)" fill="#267769"/>
                  <path id="Path_3623" data-name="Path 3623" d="M1017.01,432.7c.082.159.162.323.238.487.153.33.294.665.42,1,.24.625.447,1.256.631,1.89a1.837,1.837,0,0,1-.084.169,20.838,20.838,0,0,1-3.892,4.759q-5.576,5.6-11.16,11.2c-.056-.131-.115-.265-.169-.4a30.583,30.583,0,0,1-2.008-7.049,25.613,25.613,0,0,1,.017-8.227,14.1,14.1,0,0,1,2.6-6.443,7.728,7.728,0,0,1,6.029-3.089,5.769,5.769,0,0,1,.686.056C1013.276,427.448,1015.6,429.91,1017.01,432.7Z" transform="translate(-1000.076 -419.858)" fill="#195e51"/>
                  <path id="Path_3624" data-name="Path 3624" d="M1008.613,427.105a44.713,44.713,0,0,0,29.742,53.182" transform="translate(-999.255 -419.845)" fill="none" stroke="#477c5c" stroke-miterlimit="10" stroke-width="0.275"/>
                  <path id="Path_3625" data-name="Path 3625" d="M1008.644,441.213c2.489-3.645,5.316-7.094,7.816-10.733,1.436-2.09,2.823-4.557,2.212-6.763-.624-2.252-3.3-3.393-5.825-3a12.229,12.229,0,0,0-6.653,3.909,22.661,22.661,0,0,0-5.991,13.921,26.873,26.873,0,0,0,.349,6.512,70.742,70.742,0,0,0,2.733,7.909,9.471,9.471,0,0,1,.418-2.457,30.05,30.05,0,0,1,1.355-3.233A48.086,48.086,0,0,1,1008.644,441.213Z" transform="translate(-1000.139 -420.637)" fill="#47998b"/>
                  <path id="Path_3626" data-name="Path 3626" d="M1002.827,452.376a28.364,28.364,0,0,1,13.445-30.96" transform="translate(-999.898 -420.542)" fill="none" stroke="#477c5c" stroke-miterlimit="10" stroke-width="0.275"/>
                </g>
              </g>
            </g>
          </g>
        </g>
        <g id="Group_3858" data-name="Group 3858" transform="translate(52.406 19.862)">
          <path id="Path_3627" data-name="Path 3627" d="M1055.271,431.448c-6.588,9.578-14.843,15.34-18.436,12.868s-1.166-12.241,5.422-21.819,14.842-15.34,18.436-12.868S1061.859,421.869,1055.271,431.448Z" transform="translate(-1035.173 -409.056)" fill="#47998b"/>
          <path id="Path_3628" data-name="Path 3628" d="M1039.227,489.921c-2.335-12.709-4.68-25.619-3.416-38.479s6.641-25.892,17.053-33.543" transform="translate(-1035.139 -407.973)" fill="none" stroke="#195e51" stroke-miterlimit="10" stroke-width="0.221"/>
        </g>
        <g id="Group_3859" data-name="Group 3859" transform="translate(0 71.233)">
          <path id="Path_3629" data-name="Path 3629" d="M1001.754,456.845c6.227,2.592,10.448,6.674,9.431,9.119s-6.89,2.325-13.117-.267-10.448-6.676-9.431-9.119S995.527,454.253,1001.754,456.845Z" transform="translate(-988.486 -454.82)" fill="#47998b"/>
          <path id="Path_3630" data-name="Path 3630" d="M1040.134,503.7A72.31,72.31,0,0,0,992.5,457.339" transform="translate(-987.995 -454.511)" fill="none" stroke="#195e51" stroke-miterlimit="10" stroke-width="0.25"/>
        </g>
        <g id="Group_3860" data-name="Group 3860" transform="translate(40.561 69.196)">
          <path id="Path_3631" data-name="Path 3631" d="M1052.5,454.588c-4.866,2.025-8.165,5.216-7.37,7.126s5.385,1.817,10.25-.209,8.165-5.215,7.37-7.126S1057.363,452.563,1052.5,454.588Z" transform="translate(-1022.123 -453.005)" fill="#47998b"/>
          <path id="Path_3632" data-name="Path 3632" d="M1024.621,491.2a56.505,56.505,0,0,1,37.223-36.23" transform="translate(-1024.621 -452.764)" fill="none" stroke="#195e51" stroke-miterlimit="10" stroke-width="0.195"/>
        </g>
        <g id="Group_3863" data-name="Group 3863" transform="translate(16.928 111.215)">
          <g id="Group_3861" data-name="Group 3861">
            <rect id="Rectangle_196" data-name="Rectangle 196" width="5.817" height="53.695" fill="#161c3d"/>
            <rect id="Rectangle_197" data-name="Rectangle 197" width="2.909" height="53.695" transform="translate(2.909)" fill="#1c1b1a"/>
          </g>
          <g id="Group_3862" data-name="Group 3862" transform="translate(32.203)">
            <rect id="Rectangle_198" data-name="Rectangle 198" width="5.817" height="53.695" fill="#161c3d"/>
            <rect id="Rectangle_199" data-name="Rectangle 199" width="2.909" height="53.695" transform="translate(2.909)" fill="#1c1b1a"/>
          </g>
        </g>
        <g id="Group_3866" data-name="Group 3866" transform="translate(18.817 90.055)">
          <g id="Group_3865" data-name="Group 3865">
            <path id="Path_3633" data-name="Path 3633" d="M1054.036,471.588V516.8a3.568,3.568,0,0,1-3.574,3.574h-41.637a3,3,0,0,1-.754-.086,3.556,3.556,0,0,1-2.821-3.488V471.588Z" transform="translate(-1005.25 -471.588)" fill="#f3f8ff"/>
            <path id="Path_3634" data-name="Path 3634" d="M1054.036,471.588a48.78,48.78,0,0,1-45.966,48.7,3.556,3.556,0,0,1-2.821-3.488V471.588Z" transform="translate(-1005.25 -471.588)" fill="#fff"/>
            <g id="Group_3864" data-name="Group 3864" transform="translate(0 4.225)">
              <line id="Line_21" data-name="Line 21" x2="48.961" fill="none" stroke="#e6e6e8" stroke-miterlimit="10" stroke-width="0.643"/>
              <line id="Line_22" data-name="Line 22" x2="48.961" transform="translate(0 3.254)" fill="none" stroke="#e6e6e8" stroke-miterlimit="10" stroke-width="0.643"/>
            </g>
          </g>
          <path id="Path_3635" data-name="Path 3635" d="M1054.036,507.524V512.4a3.568,3.568,0,0,1-3.574,3.574h-41.637a3,3,0,0,1-.754-.086,3.556,3.556,0,0,1-2.821-3.488v-4.874Z" transform="translate(-1005.25 -467.186)" fill="#f6af3d"/>
        </g>
        <g id="Group_3869" data-name="Group 3869" transform="translate(32.528 111.215)">
          <g id="Group_3867" data-name="Group 3867" transform="translate(30.888)">
            <rect id="Rectangle_200" data-name="Rectangle 200" width="5.817" height="53.695" fill="#273156"/>
            <rect id="Rectangle_201" data-name="Rectangle 201" width="2.909" height="53.695" transform="translate(2.909)" fill="#1c1b1a"/>
          </g>
          <g id="Group_3868" data-name="Group 3868">
            <rect id="Rectangle_202" data-name="Rectangle 202" width="5.817" height="53.695" fill="#273156"/>
            <rect id="Rectangle_203" data-name="Rectangle 203" width="2.909" height="53.695" transform="translate(2.909)" fill="#1c1b1a"/>
          </g>
        </g>
      </g>
      <g id="Group_3885" data-name="Group 3885" transform="translate(0 45.941)">
        <g id="Group_3879" data-name="Group 3879" transform="translate(0 0)">
          <g id="Group_3872" data-name="Group 3872" transform="translate(43.981)">
            <circle id="Ellipse_112" data-name="Ellipse 112" cx="27.734" cy="27.734" r="27.734" transform="translate(0 39.222) rotate(-45)" fill="#ffd392"/>
            <g id="Group_3871" data-name="Group 3871" transform="translate(19.328 24.611)">
              <path id="Path_3636" data-name="Path 3636" d="M1022.989,366.982l-15.013-6.322v-9.912h15.013Z" transform="translate(-1003.095 -340.776)" fill="#195e51"/>
              <path id="Path_3637" data-name="Path 3637" d="M1021.351,366.982l15.013-6.322v-9.912h-15.013Z" transform="translate(-1001.456 -340.776)" fill="#195e51"/>
              <path id="Path_3638" data-name="Path 3638" d="M1043.417,352.277l-19.895,9.176-19.895-9.176,19.895-10.412Z" transform="translate(-1003.627 -341.864)" fill="#47998b"/>
              <path id="Path_3639" data-name="Path 3639" d="M1031.8,372.571V356.082l-10.453-4.941" transform="translate(-1001.456 -340.728)" fill="none" stroke="#090909" stroke-miterlimit="10" stroke-width="0.551"/>
              <circle id="Ellipse_113" data-name="Ellipse 113" cx="1.698" cy="1.698" r="1.698" transform="translate(28.65 30.145)" fill="#1c1b1a"/>
            </g>
          </g>
          <g id="Group_3878" data-name="Group 3878" transform="translate(0 84.993)">
            <circle id="Ellipse_114" data-name="Ellipse 114" cx="27.734" cy="27.734" r="27.734" fill="#ffddb0"/>
            <g id="Group_3877" data-name="Group 3877" transform="translate(15.551 8.799)">
              <g id="Group_3873" data-name="Group 3873" transform="translate(1.123)">
                <path id="Path_3640" data-name="Path 3640" d="M985.086,403.5v30.626h-23V408.706l5.211-5.211Z" transform="translate(-962.082 -403.495)" fill="#195e51"/>
              </g>
              <g id="Group_3875" data-name="Group 3875" transform="translate(0 1.123)">
                <path id="Path_3641" data-name="Path 3641" d="M984.086,404.5v30.626h-23V409.706l5.211-5.211Z" transform="translate(-961.082 -404.495)" fill="#fff"/>
                <path id="Path_3642" data-name="Path 3642" d="M961.082,409.706l5.211-5.211v5.211Z" transform="translate(-961.082 -404.495)" fill="#f6af3d"/>
                <g id="Group_3874" data-name="Group 3874" transform="translate(3.981 8.75)">
                  <line id="Line_23" data-name="Line 23" x2="14.071" transform="translate(0 3.424)" fill="none" stroke="#358579" stroke-miterlimit="10" stroke-width="0.557"/>
                  <line id="Line_24" data-name="Line 24" x2="7.521" fill="none" stroke="#358579" stroke-miterlimit="10" stroke-width="0.557"/>
                  <line id="Line_25" data-name="Line 25" x2="14.071" transform="translate(0 6.848)" fill="none" stroke="#358579" stroke-miterlimit="10" stroke-width="0.557"/>
                  <line id="Line_26" data-name="Line 26" x2="14.071" transform="translate(0 10.272)" fill="none" stroke="#358579" stroke-miterlimit="10" stroke-width="0.557"/>
                  <line id="Line_27" data-name="Line 27" x2="14.071" transform="translate(0 13.696)" fill="none" stroke="#358579" stroke-miterlimit="10" stroke-width="0.557"/>
                </g>
              </g>
              <g id="Group_3876" data-name="Group 3876" transform="translate(11.498 19.066)">
                <path id="Path_3643" data-name="Path 3643" d="M976.51,439.678l-1.553-3.457-3.631,1.089,4.193-9.177L980.7,430.5Z" transform="translate(-971.326 -419.543)" fill="#c68322"/>
                <path id="Path_3644" data-name="Path 3644" d="M981.084,439.678l1.553-3.457,3.631,1.089-4.193-9.177-5.184,2.369Z" transform="translate(-970.644 -419.543)" fill="#c68322"/>
                <path id="Path_3645" data-name="Path 3645" d="M980.065,421.316h0a1.205,1.205,0,0,0,1.788.651h0a1.206,1.206,0,0,1,1.758,1.475h0a1.207,1.207,0,0,0,.952,1.649h0a1.205,1.205,0,0,1,.4,2.26h0a1.206,1.206,0,0,0-.33,1.875h0a1.206,1.206,0,0,1-1.147,1.988h0a1.207,1.207,0,0,0-1.459,1.224h0a1.205,1.205,0,0,1-2.156.785h0a1.207,1.207,0,0,0-1.9,0h0a1.205,1.205,0,0,1-2.156-.785h0a1.206,1.206,0,0,0-1.458-1.224h0a1.206,1.206,0,0,1-1.147-1.988h0a1.206,1.206,0,0,0-.331-1.875h0a1.205,1.205,0,0,1,.4-2.26h0a1.206,1.206,0,0,0,.952-1.649h0a1.205,1.205,0,0,1,1.758-1.475h0a1.206,1.206,0,0,0,1.789-.651h0A1.206,1.206,0,0,1,980.065,421.316Z" transform="translate(-971.215 -420.48)" fill="#f6af3d"/>
                <path id="Path_3646" data-name="Path 3646" d="M975.044,427.123a3.529,3.529,0,1,1,3.528,3.528A3.528,3.528,0,0,1,975.044,427.123Z" transform="translate(-970.87 -420.099)" fill="#fff"/>
                <path id="Path_3647" data-name="Path 3647" d="M975.685,427.045a2.809,2.809,0,1,1,2.808,2.81A2.809,2.809,0,0,1,975.685,427.045Z" transform="translate(-970.792 -420.02)" fill="#c68322"/>
              </g>
            </g>
          </g>
          <path id="Path_3648" data-name="Path 3648" d="M975.673,399.483a49.184,49.184,0,0,1,26.766-32.281" transform="translate(-943.743 -314.149)" fill="none" stroke="#f6af3d" stroke-miterlimit="10" stroke-width="1" stroke-dasharray="2"/>
        </g>
        <g id="Group_3884" data-name="Group 3884" transform="translate(286.081 33.32)">
          <g id="Group_3881" data-name="Group 3881">
            <circle id="Ellipse_115" data-name="Ellipse 115" cx="27.734" cy="27.734" r="27.734" fill="#ffddb0"/>
            <g id="Group_3880" data-name="Group 3880" transform="translate(10.404 10.102)">
              <circle id="Ellipse_116" data-name="Ellipse 116" cx="11.878" cy="11.878" r="11.878" fill="#358579"/>
              <circle id="Ellipse_117" data-name="Ellipse 117" cx="8.626" cy="8.626" r="8.626" transform="translate(3.252 3.252)" fill="#fff"/>
              <path id="Path_3649" data-name="Path 3649" d="M1219.52,363.309a7.21,7.21,0,0,1,7.812,1.584" transform="translate(-1210.356 -358.113)" fill="none" stroke="#358579" stroke-linecap="round" stroke-linejoin="round" stroke-width="0.613"/>
              <path id="Path_3650" data-name="Path 3650" d="M1235.239,379.551l5.52,5.52a2.086,2.086,0,0,1-2.95,2.95l-5.522-5.52Z" transform="translate(-1208.792 -356.059)" fill="#f6af3d"/>
              <path id="Path_3651" data-name="Path 3651" d="M1230.387,374.7l5.521,5.521-2.951,2.95-5.52-5.52a2.086,2.086,0,0,1,2.951-2.95Z" transform="translate(-1209.46 -356.727)" fill="#358579"/>
            </g>
          </g>
          <g id="Group_3883" data-name="Group 3883" transform="translate(23.678 71.24)">
            <circle id="Ellipse_118" data-name="Ellipse 118" cx="27.734" cy="27.734" r="27.734" transform="translate(0 54.764) rotate(-80.854)" fill="#ffddb0"/>
            <g id="Group_3882" data-name="Group 3882" transform="translate(27.099 9.364)">
              <rect id="Rectangle_204" data-name="Rectangle 204" width="10.31" height="24.859" transform="translate(0.09 8.736)" fill="#f6af3d"/>
              <rect id="Rectangle_205" data-name="Rectangle 205" width="10.31" height="3.15" transform="translate(0.09 5.586)" fill="#fff"/>
              <path id="Path_3652" data-name="Path 3652" d="M1252.559,421.43h0a5.155,5.155,0,0,0-5.155,5.156v.43h10.309v-.43A5.155,5.155,0,0,0,1252.559,421.43Z" transform="translate(-1247.313 -421.43)" fill="#358579"/>
              <line id="Line_28" data-name="Line 28" y2="24.859" transform="translate(5.245 8.736)" fill="none" stroke="#c68322" stroke-miterlimit="10" stroke-width="0.5"/>
              <path id="Path_3653" data-name="Path 3653" d="M1257.73,451.362l-1.877,3.241h-6.671l-1.859-3.241Z" transform="translate(-1247.323 -417.763)" fill="#fff"/>
              <path id="Path_3654" data-name="Path 3654" d="M1255.65,454.249l-.733,1.263-2.593,4.5-2.61-4.5-.734-1.263Z" transform="translate(-1247.12 -417.409)" fill="#1c1b1a"/>
            </g>
          </g>
          <path id="Path_3655" data-name="Path 3655" d="M1250.742,381.8a49.179,49.179,0,0,1,7.823,41.2" transform="translate(-1196.127 -345.68)" fill="none" stroke="#f6af3d" stroke-miterlimit="10" stroke-width="1" stroke-dasharray="2"/>
        </g>
      </g>
    </g>
  </g>
</svg>
