<svg xmlns="http://www.w3.org/2000/svg" xmlns:xlink="http://www.w3.org/1999/xlink" width="358" height="342.113" viewBox="0 0 358 342.113">
  <defs>
    <filter id="Rectangle_757" x="216.007" y="23.489" width="126.792" height="163.767" filterUnits="userSpaceOnUse">
      <feOffset dx="1" dy="5" input="SourceAlpha"/>
      <feGaussianBlur stdDeviation="4" result="blur"/>
      <feFlood flood-opacity="0.149"/>
      <feComposite operator="in" in2="blur"/>
      <feComposite in="SourceGraphic"/>
    </filter>
    <clipPath id="clip-path">
      <rect id="Rectangle_762" data-name="Rectangle 762" width="14.666" height="12.61" transform="translate(12.61 0) rotate(90)" fill="none"/>
    </clipPath>
    <filter id="Rectangle_796" x="11.617" y="32.208" width="130.371" height="163.767" filterUnits="userSpaceOnUse">
      <feOffset dx="1" dy="5" input="SourceAlpha"/>
      <feGaussianBlur stdDeviation="4" result="blur-2"/>
      <feFlood flood-opacity="0.149"/>
      <feComposite operator="in" in2="blur-2"/>
      <feComposite in="SourceGraphic"/>
    </filter>
    <clipPath id="clip-path-7">
      <rect id="Rectangle_799" data-name="Rectangle 799" width="13.551" height="12.61" transform="translate(12.61 0) rotate(90)" fill="none"/>
    </clipPath>
    <clipPath id="clip-path-9">
      <rect id="Rectangle_807" data-name="Rectangle 807" width="13.075" height="12.61" transform="translate(12.61 0) rotate(90)" fill="none"/>
    </clipPath>
    <filter id="Rectangle_819" x="106.78" y="61.072" width="140.938" height="204.829" filterUnits="userSpaceOnUse">
      <feOffset dx="1" dy="5" input="SourceAlpha"/>
      <feGaussianBlur stdDeviation="4" result="blur-3"/>
      <feFlood flood-opacity="0.149"/>
      <feComposite operator="in" in2="blur-3"/>
      <feComposite in="SourceGraphic"/>
    </filter>
    <clipPath id="clip-path-12">
      <rect id="Rectangle_824" data-name="Rectangle 824" width="18.115" height="15.575" transform="translate(15.575 0) rotate(90)" fill="none"/>
    </clipPath>
    <clipPath id="clip-path-16">
      <ellipse id="Ellipse_341" data-name="Ellipse 341" cx="38.842" cy="39.104" rx="38.842" ry="39.104" transform="translate(0 11.613) rotate(-8.598)" fill="none"/>
    </clipPath>
  </defs>
  <g id="Group_13042" data-name="Group 13042" transform="translate(-1072 -4011.821)">
    <g id="Group_5338" data-name="Group 5338" transform="translate(1072 4012.067)">
      <g id="Group_5235" data-name="Group 5235" transform="translate(10.303 0)">
        <path id="Path_9826" data-name="Path 9826" d="M272.02,377a16.872,16.872,0,1,0,9.923,31.371L291.4,415.8l4.685-.911-.518,5.188,5.644,4.785,5.086-1.574-.8,5.211,5.644,4.785,13.41-3.556-35.469-29.7A16.872,16.872,0,0,0,272.02,377Zm-8.107,12.473a4,4,0,1,1,4.311,3.655A4,4,0,0,1,263.914,389.469Z" transform="translate(-104.122 -109.84)" fill="#a6dce6"/>
        <path id="Path_9827" data-name="Path 9827" d="M271.243-1.541c-3.781,14.9-7.578,30.285-4.365,45.282,1.481,6.911,4.413,13.511,7.321,20.067,17.514,39.49,34.992,81.181,28.431,123.144-3.04,19.44-11.212,38.1-22.21,55.2-6.579,10.231-16.783,15.612-16.783,27.212,0,6.634,6.162,9.091,8.363,4.791" transform="translate(-106.213 1.541)" fill="none" stroke="#454849" stroke-miterlimit="10" stroke-width="2" stroke-dasharray="5"/>
        <g id="Group_5211" data-name="Group 5211" transform="translate(185.709 16.898)">
          <g id="Group_5210" data-name="Group 5210">
            <g id="Group_5208" data-name="Group 5208" transform="translate(13.034)">
              <path id="Path_9828" data-name="Path 9828" d="M322.188,38.192a15.472,15.472,0,1,1,15.773,15.152A15.487,15.487,0,0,1,322.188,38.192Z" transform="translate(-322.185 -22.403)" fill="#d8edf1"/>
            </g>
            <g id="Group_5209" data-name="Group 5209" transform="translate(0 21.572)">
              <path id="Path_9829" data-name="Path 9829" d="M303.717,57.107a4.054,4.054,0,1,1,4.133,3.97A4.058,4.058,0,0,1,303.717,57.107Z" transform="translate(-303.716 -52.971)" fill="#d8edf1"/>
            </g>
          </g>
        </g>
        <g id="Group_5215" data-name="Group 5215" transform="translate(112.431 15.07)">
          <g id="Group_5214" data-name="Group 5214">
            <g id="Group_5212" data-name="Group 5212" transform="translate(13.609 20.141)">
              <path id="Path_9830" data-name="Path 9830" d="M230.822,54.007l-3.107-1.9a.445.445,0,0,1-.146-.144l-2.147-3.4a.452.452,0,0,0-.771.009l-2.158,3.6a.445.445,0,0,1-.159.157l-2.946,1.733a.453.453,0,0,0-.017.77l2.991,1.935a.443.443,0,0,1,.121.114l2.344,3.245a.452.452,0,0,0,.763-.047l1.967-3.576a.454.454,0,0,1,.194-.186l3.037-1.519A.452.452,0,0,0,230.822,54.007Z" transform="translate(-219.166 -48.353)" fill="#d8edf1"/>
            </g>
            <g id="Group_5213" data-name="Group 5213">
              <path id="Path_9831" data-name="Path 9831" d="M216.609,27.925,212.151,25.2a.642.642,0,0,1-.21-.207l-3.081-4.878a.649.649,0,0,0-1.105.013l-3.1,5.162a.65.65,0,0,1-.227.226L200.2,28a.649.649,0,0,0-.024,1.1l4.292,2.776a.666.666,0,0,1,.174.165l3.363,4.657a.65.65,0,0,0,1.1-.067l2.822-5.132a.651.651,0,0,1,.279-.268l4.358-2.179A.649.649,0,0,0,216.609,27.925Z" transform="translate(-199.881 -19.813)" fill="#d8edf1"/>
            </g>
          </g>
        </g>
        <g id="Group_5222" data-name="Group 5222" transform="translate(51.654 294.599)" opacity="0.58">
          <g id="Group_5217" data-name="Group 5217">
            <g id="Group_5216" data-name="Group 5216">
              <path id="Path_9832" data-name="Path 9832" d="M113.768,435.3a20.766,20.766,0,0,0,19.575,21.307,19.745,19.745,0,0,0,20.682-19.37,20.767,20.767,0,0,0-19.575-21.307A19.746,19.746,0,0,0,113.768,435.3Z" transform="translate(-113.76 -415.906)" fill="#d8edf1"/>
              <path id="Path_9833" data-name="Path 9833" d="M136.725,418.581a20.123,20.123,0,0,1,14.794,7.667,20.739,20.739,0,0,1,3.28,11.769,19.745,19.745,0,0,1-20.682,19.37,20.216,20.216,0,0,1-10.056-3.255,20.5,20.5,0,0,1-7.661-16.516A19.4,19.4,0,0,1,136.725,418.581Z" transform="translate(-114.535 -416.686)" fill="#d8edf1"/>
            </g>
          </g>
          <g id="Group_5221" data-name="Group 5221" transform="translate(12.436 6.933)">
            <g id="Group_5220" data-name="Group 5220">
              <g id="Group_5218" data-name="Group 5218" transform="translate(0 3.763)">
                <path id="Path_9834" data-name="Path 9834" d="M138.757,451.147a10.272,10.272,0,0,0,4.185-.543,5.424,5.424,0,0,0,2.582-1.9,4.968,4.968,0,0,0,.91-2.779,4.394,4.394,0,0,0-.878-2.992,6.123,6.123,0,0,0-2.246-1.738,27.613,27.613,0,0,0-3.5-1.236,25.992,25.992,0,0,1-2.66-.872,4.75,4.75,0,0,1-1.625-1.061,2.2,2.2,0,0,1-.622-1.674,2.612,2.612,0,0,1,1.241-2.188,5.88,5.88,0,0,1,3.565-.7,9.775,9.775,0,0,1,2.71.538A10.3,10.3,0,0,1,145,435.321l.977-2.2a9.2,9.2,0,0,0-2.825-1.428,13.082,13.082,0,0,0-3.376-.612,9.885,9.885,0,0,0-4.157.558,5.482,5.482,0,0,0-2.541,1.9,5.016,5.016,0,0,0-.9,2.795,4.493,4.493,0,0,0,.876,3.034,6.024,6.024,0,0,0,2.26,1.752,28.242,28.242,0,0,0,3.512,1.237q1.738.5,2.687.888a4.476,4.476,0,0,1,1.584,1.045,2.227,2.227,0,0,1,.608,1.673,2.5,2.5,0,0,1-1.253,2.145,6.3,6.3,0,0,1-3.633.654,10.492,10.492,0,0,1-3.551-.8,8.731,8.731,0,0,1-2.8-1.778l-1.088,2.139a8.915,8.915,0,0,0,3.159,1.936A13.33,13.33,0,0,0,138.757,451.147Z" transform="translate(-131.382 -431.063)" fill="#fff"/>
              </g>
              <g id="Group_5219" data-name="Group 5219" transform="translate(5.055)">
                <path id="Path_9835" data-name="Path 9835" d="M144.112,452.63l-1.388-.067.725-26.632,1.388.067Z" transform="translate(-139.775 -425.789)" fill="#fff"/>
                <path id="Path_9836" data-name="Path 9836" d="M139.933,452.429l-1.388-.067.724-26.632,1.388.067Z" transform="translate(-138.545 -425.73)" fill="#fff"/>
              </g>
            </g>
          </g>
        </g>
        <path id="Path_9837" data-name="Path 9837" d="M260.911,454.489a3.806,3.806,0,1,1-5.383,0A3.807,3.807,0,0,1,260.911,454.489Z" transform="translate(-103.498 -132.334)" fill="#d8edf1"/>
        <g id="Group_5226" data-name="Group 5226" transform="translate(0 237.982)">
          <g id="Group_5225" data-name="Group 5225">
            <g id="Group_5223" data-name="Group 5223">
              <path id="Path_9838" data-name="Path 9838" d="M45.759,335.863l1.563,2.627a.384.384,0,0,0,.119.124l2.8,1.815a.388.388,0,0,1-.007.651L47.27,342.9a.365.365,0,0,0-.129.133l-1.427,2.491a.367.367,0,0,1-.634.014l-1.593-2.529a.364.364,0,0,0-.095-.1l-2.672-1.982a.388.388,0,0,1,.039-.645l2.944-1.663a.379.379,0,0,0,.154-.164l1.251-2.568A.368.368,0,0,1,45.759,335.863Z" transform="translate(-40.566 -335.68)" fill="#d8edf1"/>
            </g>
            <g id="Group_5224" data-name="Group 5224" transform="translate(12.3 7.139)">
              <path id="Path_9839" data-name="Path 9839" d="M65.448,346.059l2.243,3.77a.539.539,0,0,0,.17.178l4.017,2.6a.557.557,0,0,1-.011.935l-4.251,2.619a.532.532,0,0,0-.186.192l-2.048,3.575a.527.527,0,0,1-.909.02l-2.287-3.629a.551.551,0,0,0-.136-.147l-3.834-2.844a.556.556,0,0,1,.055-.925L62.5,350.02a.539.539,0,0,0,.22-.236l1.795-3.685A.528.528,0,0,1,65.448,346.059Z" transform="translate(-57.996 -345.796)" fill="#d8edf1"/>
            </g>
          </g>
        </g>
        <ellipse id="Ellipse_339" data-name="Ellipse 339" cx="164.867" cy="3.844" rx="164.867" ry="3.844" transform="translate(17.963 334.179)" fill="#d8edf1"/>
        <g id="Group_5230" data-name="Group 5230" transform="translate(90.832 267.572)">
          <path id="Path_9840" data-name="Path 9840" d="M169.9,405.471a22.507,22.507,0,0,1,16.932-27.337A23.312,23.312,0,0,1,214.3,395.741c2.91,12.411-4.252,25.013-16.932,27.337A23.614,23.614,0,0,1,169.9,405.471Z" transform="translate(-169.276 -377.609)" fill="#a6dce6"/>
          <path id="Path_9841" data-name="Path 9841" d="M210.291,394.279A21.849,21.849,0,0,0,195.255,377.9,22.42,22.42,0,0,0,169.9,405.473a23.539,23.539,0,0,0,12.416,15.7,20.279,20.279,0,0,0,11.259,1.246C206.572,419.509,213.277,407.784,210.291,394.279Z" transform="translate(-169.276 -377.61)" fill="#d8edf1"/>
          <g id="Group_5229" data-name="Group 5229" transform="translate(14.18 5.615)">
            <g id="Group_5227" data-name="Group 5227" transform="translate(0 4.687)">
              <path id="Path_9842" data-name="Path 9842" d="M192.954,416.541a9.67,9.67,0,0,1-3.585-2.351l1.245-2.728a9.48,9.48,0,0,0,3.179,2.163,10.753,10.753,0,0,0,4.036.912,6.686,6.686,0,0,0,4.133-.927,3.328,3.328,0,0,0,1.434-2.74,2.92,2.92,0,0,0-.685-2.092,4.885,4.885,0,0,0-1.8-1.274,30.609,30.609,0,0,0-3.052-1.043,29.248,29.248,0,0,1-3.989-1.46,6.721,6.721,0,0,1-2.564-2.146,5.982,5.982,0,0,1-.985-3.8,6.948,6.948,0,0,1,1.03-3.549,6.594,6.594,0,0,1,2.9-2.468,10.369,10.369,0,0,1,4.731-.822,13.37,13.37,0,0,1,3.836.676,9.776,9.776,0,0,1,3.207,1.72l-1.12,2.8a10.906,10.906,0,0,0-2.927-1.589,9.969,9.969,0,0,0-3.08-.6,6.253,6.253,0,0,0-4.056.983A3.489,3.489,0,0,0,193.421,399a2.887,2.887,0,0,0,.7,2.093,5.182,5.182,0,0,0,1.844,1.292,26.693,26.693,0,0,0,3.021,1.025,28.509,28.509,0,0,1,3.973,1.459A6.826,6.826,0,0,1,205.509,407a5.845,5.845,0,0,1,.987,3.748,6.879,6.879,0,0,1-1.045,3.531,6.522,6.522,0,0,1-2.943,2.467,10.756,10.756,0,0,1-4.762.8A13.651,13.651,0,0,1,192.954,416.541Z" transform="translate(-189.369 -392.207)" fill="#fbffff"/>
            </g>
            <g id="Group_5228" data-name="Group 5228" transform="translate(5.711 0)">
              <rect id="Rectangle_717" data-name="Rectangle 717" width="1.579" height="33.615" transform="translate(4.312 0.096) rotate(1.637)" fill="#fbffff"/>
              <rect id="Rectangle_718" data-name="Rectangle 718" width="1.579" height="33.615" transform="translate(0.957 0) rotate(1.631)" fill="#fbffff"/>
            </g>
          </g>
        </g>
        <g id="Group_5232" data-name="Group 5232" transform="translate(81.438 308.107)">
          <rect id="Rectangle_719" data-name="Rectangle 719" width="62.629" height="14.077" rx="1.277" transform="translate(62.629 14.087) rotate(-179.991)" fill="#a6dce6"/>
          <g id="Group_5231" data-name="Group 5231" transform="translate(1.581 1.161)">
            <rect id="Rectangle_720" data-name="Rectangle 720" width="2.223" height="11.888" transform="translate(2.223 11.888) rotate(-179.987)" fill="#d8edf1"/>
            <rect id="Rectangle_721" data-name="Rectangle 721" width="2.223" height="11.887" transform="matrix(-1, 0, 0, -1, 5.557, 11.888)" fill="#d8edf1"/>
            <rect id="Rectangle_722" data-name="Rectangle 722" width="2.223" height="11.887" transform="matrix(-1, 0, 0, -1, 8.891, 11.889)" fill="#d8edf1"/>
            <rect id="Rectangle_723" data-name="Rectangle 723" width="2.223" height="11.888" transform="translate(12.225 11.89) rotate(-179.991)" fill="#d8edf1"/>
            <rect id="Rectangle_724" data-name="Rectangle 724" width="2.223" height="11.887" transform="translate(15.682 11.89) rotate(-179.991)" fill="#d8edf1"/>
            <rect id="Rectangle_725" data-name="Rectangle 725" width="2.223" height="11.887" transform="translate(19.016 11.891) rotate(-179.991)" fill="#d8edf1"/>
            <rect id="Rectangle_726" data-name="Rectangle 726" width="2.223" height="11.887" transform="matrix(-1, 0, 0, -1, 22.35, 11.891)" fill="#d8edf1"/>
            <rect id="Rectangle_727" data-name="Rectangle 727" width="2.223" height="11.887" transform="translate(25.684 11.892) rotate(-179.991)" fill="#d8edf1"/>
            <rect id="Rectangle_728" data-name="Rectangle 728" width="2.223" height="11.888" transform="matrix(-1, 0, 0, -1, 28.895, 11.892)" fill="#d8edf1"/>
            <rect id="Rectangle_729" data-name="Rectangle 729" width="2.223" height="11.887" transform="matrix(-1, 0, 0, -1, 32.228, 11.893)" fill="#d8edf1"/>
            <rect id="Rectangle_730" data-name="Rectangle 730" width="2.223" height="11.888" transform="translate(35.562 11.893) rotate(-179.991)" fill="#d8edf1"/>
            <rect id="Rectangle_731" data-name="Rectangle 731" width="2.223" height="11.887" transform="translate(38.896 11.894) rotate(-179.989)" fill="#d8edf1"/>
            <rect id="Rectangle_732" data-name="Rectangle 732" width="2.223" height="11.887" transform="translate(42.354 11.894) rotate(-179.989)" fill="#d8edf1"/>
            <rect id="Rectangle_733" data-name="Rectangle 733" width="2.223" height="11.887" transform="translate(45.688 11.895) rotate(-179.991)" fill="#d8edf1"/>
            <rect id="Rectangle_734" data-name="Rectangle 734" width="2.223" height="11.887" transform="translate(49.021 11.895) rotate(-179.989)" fill="#d8edf1"/>
            <rect id="Rectangle_735" data-name="Rectangle 735" width="2.223" height="11.888" transform="translate(52.355 11.896) rotate(-179.989)" fill="#d8edf1"/>
            <rect id="Rectangle_736" data-name="Rectangle 736" width="2.223" height="11.888" transform="translate(55.566 11.896) rotate(-179.991)" fill="#d8edf1"/>
            <rect id="Rectangle_737" data-name="Rectangle 737" width="2.223" height="11.887" transform="translate(58.9 11.897) rotate(-179.991)" fill="#d8edf1"/>
          </g>
        </g>
        <g id="Group_5234" data-name="Group 5234" transform="translate(76.039 321.17)">
          <rect id="Rectangle_738" data-name="Rectangle 738" width="62.629" height="14.077" rx="1.277" transform="translate(62.629 14.087) rotate(-179.991)" fill="#a6dce6"/>
          <g id="Group_5233" data-name="Group 5233" transform="translate(1.581 1.162)">
            <rect id="Rectangle_739" data-name="Rectangle 739" width="2.223" height="11.888" transform="matrix(-1, 0, 0, -1, 2.223, 11.888)" fill="#d8edf1"/>
            <rect id="Rectangle_740" data-name="Rectangle 740" width="2.223" height="11.887" transform="matrix(-1, 0, 0, -1, 5.557, 11.888)" fill="#d8edf1"/>
            <rect id="Rectangle_741" data-name="Rectangle 741" width="2.223" height="11.887" transform="translate(8.891 11.889) rotate(-179.993)" fill="#d8edf1"/>
            <rect id="Rectangle_742" data-name="Rectangle 742" width="2.223" height="11.887" transform="matrix(-1, 0, 0, -1, 12.224, 11.889)" fill="#d8edf1"/>
            <rect id="Rectangle_743" data-name="Rectangle 743" width="2.223" height="11.887" transform="matrix(-1, 0, 0, -1, 15.682, 11.89)" fill="#d8edf1"/>
            <rect id="Rectangle_744" data-name="Rectangle 744" width="2.223" height="11.888" transform="matrix(-1, 0, 0, -1, 19.016, 11.89)" fill="#d8edf1"/>
            <rect id="Rectangle_745" data-name="Rectangle 745" width="2.223" height="11.887" transform="translate(22.35 11.891) rotate(-179.993)" fill="#d8edf1"/>
            <rect id="Rectangle_746" data-name="Rectangle 746" width="2.223" height="11.887" transform="translate(25.684 11.891) rotate(-179.993)" fill="#d8edf1"/>
            <rect id="Rectangle_747" data-name="Rectangle 747" width="2.223" height="11.887" transform="matrix(-1, 0, 0, -1, 28.894, 11.892)" fill="#d8edf1"/>
            <rect id="Rectangle_748" data-name="Rectangle 748" width="2.223" height="11.888" transform="translate(32.228 11.892) rotate(-179.989)" fill="#d8edf1"/>
            <rect id="Rectangle_749" data-name="Rectangle 749" width="2.223" height="11.887" transform="translate(35.562 11.893) rotate(-179.991)" fill="#d8edf1"/>
            <rect id="Rectangle_750" data-name="Rectangle 750" width="2.223" height="11.887" transform="translate(38.896 11.893) rotate(-179.989)" fill="#d8edf1"/>
            <rect id="Rectangle_751" data-name="Rectangle 751" width="2.223" height="11.887" transform="translate(42.353 11.894) rotate(-179.989)" fill="#d8edf1"/>
            <rect id="Rectangle_752" data-name="Rectangle 752" width="2.223" height="11.887" transform="translate(45.687 11.894) rotate(-179.989)" fill="#d8edf1"/>
            <rect id="Rectangle_753" data-name="Rectangle 753" width="2.223" height="11.887" transform="translate(49.021 11.895) rotate(-179.989)" fill="#d8edf1"/>
            <rect id="Rectangle_754" data-name="Rectangle 754" width="2.223" height="11.887" transform="matrix(-1, 0, 0, -1, 52.355, 11.896)" fill="#d8edf1"/>
            <rect id="Rectangle_755" data-name="Rectangle 755" width="2.223" height="11.888" transform="translate(55.566 11.896) rotate(-179.991)" fill="#d8edf1"/>
            <rect id="Rectangle_756" data-name="Rectangle 756" width="2.223" height="11.888" transform="matrix(-1, 0, 0, -1, 58.9, 11.896)" fill="#d8edf1"/>
          </g>
        </g>
      </g>
      <g id="Group_5308" data-name="Group 5308" transform="translate(22.617 30.243)">
        <g id="Group_5262" data-name="Group 5262" transform="translate(204.391)">
          <g transform="matrix(1, 0, 0, 1, -227.01, -30.49)" filter="url(#Rectangle_757)">
            <rect id="Rectangle_757-2" data-name="Rectangle 757" width="102.792" height="139.767" rx="12.255" transform="translate(227.01 30.49)" fill="#fff"/>
          </g>
          <g id="Group_5261" data-name="Group 5261" transform="translate(19.205 18.398)">
            <g id="Group_5236" data-name="Group 5236" transform="translate(49.017 39.147)">
              <path id="Path_9843" data-name="Path 9843" d="M464.919,159.648q-.881-9.609-.944-19.268l-1.376-.025c-.322,6.11-.711,13.124-1.033,19.235" transform="translate(-449.387 -128.005)" fill="#454849"/>
              <path id="Path_9844" data-name="Path 9844" d="M464.919,210.765q-.881-9.608-.944-19.267l-1.376-.026c-.322,6.111-.711,13.124-1.033,19.235" transform="translate(-449.387 -143.047)" fill="#454849"/>
              <path id="Path_9845" data-name="Path 9845" d="M464.463,204.147a41.593,41.593,0,0,0,4.246-10.252,57.469,57.469,0,0,0-6.176,9.845" transform="translate(-449.672 -143.761)" fill="#454849"/>
              <path id="Path_9846" data-name="Path 9846" d="M460.461,201.161l-4.956-9.632,5.011,5.744" transform="translate(-447.603 -143.065)" fill="#454849"/>
              <path id="Path_9847" data-name="Path 9847" d="M457.807,184.763a9.436,9.436,0,0,0,3.977,1.541,3.23,3.23,0,0,0,3.394-2.064,8.982,8.982,0,0,0,7.465-15.31,5.465,5.465,0,0,1-1.117-1.27,6.166,6.166,0,0,1-.4-2.15A6.727,6.727,0,0,0,465,159.8a9.131,9.131,0,0,1-1.84-.134A8.553,8.553,0,0,1,461,158.459a7.209,7.209,0,0,0-10.711,8.065,5.643,5.643,0,0,0-5.753,4.22,8.292,8.292,0,0,0,1.862,7.25,4.125,4.125,0,0,0,.526,5.14,5.655,5.655,0,0,0,5.2,1.376,2.707,2.707,0,0,1,1.671-.073,4.158,4.158,0,0,1,.8.613,2.5,2.5,0,0,0,3.436-.483" transform="translate(-444.308 -133.032)" fill="#a6dce6"/>
              <path id="Path_9848" data-name="Path 9848" d="M477.231,168.625a6.168,6.168,0,0,1-.4-2.15,6.727,6.727,0,0,0-6.124-5.713c-.442-.023-.891,0-1.329-.048,0,.042-.009.083-.009.126a8.024,8.024,0,0,1,5.862,8.785,8.093,8.093,0,0,0-.287,2.566,9.86,9.86,0,0,0,.577,1.68,5.749,5.749,0,0,1-7.277,7.358,6.994,6.994,0,0,1-4.551,4.6,9.011,9.011,0,0,0,3.8,1.438,3.23,3.23,0,0,0,3.393-2.064,8.983,8.983,0,0,0,7.465-15.31A5.446,5.446,0,0,1,477.231,168.625Z" transform="translate(-450.012 -133.996)" fill="#2ea8bc" opacity="0.28"/>
              <path id="Path_9849" data-name="Path 9849" d="M459.416,139.94a5.9,5.9,0,0,0,2.487.963,2.019,2.019,0,0,0,2.122-1.29,5.615,5.615,0,0,0,4.667-9.572,3.4,3.4,0,0,1-.7-.794,3.875,3.875,0,0,1-.251-1.344,4.2,4.2,0,0,0-3.829-3.572,5.628,5.628,0,0,1-1.15-.084,5.329,5.329,0,0,1-1.35-.753,4.507,4.507,0,0,0-6.7,5.042,3.528,3.528,0,0,0-3.6,2.638,5.186,5.186,0,0,0,1.164,4.533,2.578,2.578,0,0,0,.328,3.213,3.537,3.537,0,0,0,3.253.861,1.686,1.686,0,0,1,1.045-.046,2.605,2.605,0,0,1,.5.383,1.565,1.565,0,0,0,2.148-.3" transform="translate(-446.271 -122.855)" fill="#a6dce6"/>
              <path id="Path_9850" data-name="Path 9850" d="M471.56,129.851a3.872,3.872,0,0,1-.251-1.344,4.205,4.205,0,0,0-3.828-3.572c-.277-.014-.557,0-.831-.03,0,.026,0,.052-.006.078a5.016,5.016,0,0,1,3.665,5.493,5.066,5.066,0,0,0-.179,1.6,6.1,6.1,0,0,0,.361,1.05,3.594,3.594,0,0,1-4.55,4.6,4.372,4.372,0,0,1-2.845,2.877,5.623,5.623,0,0,0,2.374.9,2.019,2.019,0,0,0,2.122-1.29,5.615,5.615,0,0,0,4.667-9.572A3.406,3.406,0,0,1,471.56,129.851Z" transform="translate(-449.837 -123.458)" fill="#2ea8bc" opacity="0.28"/>
            </g>
            <path id="Path_9851" data-name="Path 9851" d="M438.141,176.288H380.526V74.38l57.616,7.682Z" transform="translate(-376.521 -69.442)" fill="#d4f0f5"/>
            <g id="Group_5240" data-name="Group 5240" transform="translate(11.957 20.01)">
              <rect id="Rectangle_758" data-name="Rectangle 758" width="16.982" height="14.83" transform="translate(14.83 0) rotate(90)" fill="#2ea8bc"/>
              <rect id="Rectangle_759" data-name="Rectangle 759" width="14.666" height="12.61" transform="translate(13.72 1.158) rotate(90)" fill="#d4f0f5"/>
              <g id="Group_5239" data-name="Group 5239" transform="translate(1.11 1.158)" opacity="0.4">
                <g id="Group_5238" data-name="Group 5238" transform="translate(0 0)" clip-path="url(#clip-path)">
                  <g id="Group_5237" data-name="Group 5237" transform="translate(-8.395 -6.613)">
                    <rect id="Rectangle_760" data-name="Rectangle 760" width="28.752" height="7.093" transform="matrix(0.841, -0.541, 0.541, 0.841, 0, 15.56)" fill="#fff"/>
                    <rect id="Rectangle_761" data-name="Rectangle 761" width="28.752" height="4.408" transform="matrix(0.841, -0.541, 0.541, 0.841, 6.86, 22.42)" fill="#fff"/>
                  </g>
                </g>
              </g>
              <rect id="Rectangle_763" data-name="Rectangle 763" width="0.975" height="14.83" transform="translate(7.902 15.906) rotate(180)" fill="#2ea8bc"/>
            </g>
            <g id="Group_5244" data-name="Group 5244" transform="translate(38.244 20.01)">
              <rect id="Rectangle_764" data-name="Rectangle 764" width="16.982" height="14.83" transform="translate(14.83 0) rotate(90)" fill="#2ea8bc"/>
              <rect id="Rectangle_765" data-name="Rectangle 765" width="14.666" height="12.61" transform="translate(13.72 1.158) rotate(90)" fill="#d4f0f5"/>
              <g id="Group_5243" data-name="Group 5243" transform="translate(1.11 1.158)" opacity="0.4">
                <g id="Group_5242" data-name="Group 5242" transform="translate(0 0)" clip-path="url(#clip-path)">
                  <g id="Group_5241" data-name="Group 5241" transform="translate(-8.395 -6.613)">
                    <rect id="Rectangle_766" data-name="Rectangle 766" width="28.752" height="7.093" transform="matrix(0.841, -0.541, 0.541, 0.841, 0, 15.56)" fill="#fff"/>
                    <rect id="Rectangle_767" data-name="Rectangle 767" width="28.752" height="4.408" transform="translate(6.86 22.42) rotate(-32.763)" fill="#fff"/>
                  </g>
                </g>
              </g>
              <rect id="Rectangle_769" data-name="Rectangle 769" width="0.975" height="14.83" transform="translate(7.903 15.906) rotate(180)" fill="#2ea8bc"/>
            </g>
            <g id="Group_5248" data-name="Group 5248" transform="translate(11.957 46.14)">
              <rect id="Rectangle_770" data-name="Rectangle 770" width="16.982" height="14.83" transform="translate(14.83 0) rotate(90)" fill="#2ea8bc"/>
              <rect id="Rectangle_771" data-name="Rectangle 771" width="14.666" height="12.61" transform="translate(13.72 1.158) rotate(90)" fill="#d4f0f5"/>
              <g id="Group_5247" data-name="Group 5247" transform="translate(1.11 1.158)" opacity="0.4">
                <g id="Group_5246" data-name="Group 5246" transform="translate(0 0)" clip-path="url(#clip-path)">
                  <g id="Group_5245" data-name="Group 5245" transform="translate(-8.395 -6.613)">
                    <rect id="Rectangle_772" data-name="Rectangle 772" width="28.752" height="7.093" transform="translate(0 15.56) rotate(-32.763)" fill="#fff"/>
                    <rect id="Rectangle_773" data-name="Rectangle 773" width="28.752" height="4.408" transform="matrix(0.841, -0.541, 0.541, 0.841, 6.86, 22.42)" fill="#fff"/>
                  </g>
                </g>
              </g>
              <rect id="Rectangle_775" data-name="Rectangle 775" width="0.975" height="14.83" transform="translate(7.902 15.906) rotate(180)" fill="#2ea8bc"/>
            </g>
            <g id="Group_5252" data-name="Group 5252" transform="translate(38.244 46.14)">
              <rect id="Rectangle_776" data-name="Rectangle 776" width="16.982" height="14.83" transform="translate(14.83 0) rotate(90)" fill="#2ea8bc"/>
              <rect id="Rectangle_777" data-name="Rectangle 777" width="14.666" height="12.61" transform="translate(13.72 1.158) rotate(90)" fill="#d4f0f5"/>
              <g id="Group_5251" data-name="Group 5251" transform="translate(1.11 1.158)" opacity="0.4">
                <g id="Group_5250" data-name="Group 5250" transform="translate(0 0)" clip-path="url(#clip-path)">
                  <g id="Group_5249" data-name="Group 5249" transform="translate(-8.395 -6.613)">
                    <rect id="Rectangle_778" data-name="Rectangle 778" width="28.752" height="7.093" transform="translate(0 15.56) rotate(-32.763)" fill="#fff"/>
                    <rect id="Rectangle_779" data-name="Rectangle 779" width="28.752" height="4.408" transform="matrix(0.841, -0.541, 0.541, 0.841, 6.86, 22.42)" fill="#fff"/>
                  </g>
                </g>
              </g>
              <rect id="Rectangle_781" data-name="Rectangle 781" width="0.975" height="14.83" transform="translate(7.903 15.906) rotate(180)" fill="#2ea8bc"/>
            </g>
            <g id="Group_5256" data-name="Group 5256" transform="translate(10.612 71.827)">
              <rect id="Rectangle_782" data-name="Rectangle 782" width="16.982" height="14.83" transform="translate(16.175 0) rotate(90)" fill="#2ea8bc"/>
              <rect id="Rectangle_783" data-name="Rectangle 783" width="14.666" height="12.61" transform="translate(15.065 1.158) rotate(90)" fill="#d4f0f5"/>
              <rect id="Rectangle_784" data-name="Rectangle 784" width="1.95" height="17.52" transform="translate(0 18.932) rotate(-90)" fill="#2ea8bc"/>
              <g id="Group_5255" data-name="Group 5255" transform="translate(2.455 1.158)" opacity="0.4">
                <g id="Group_5254" data-name="Group 5254" transform="translate(0 0)" clip-path="url(#clip-path)">
                  <g id="Group_5253" data-name="Group 5253" transform="translate(-8.395 -6.613)">
                    <rect id="Rectangle_785" data-name="Rectangle 785" width="28.752" height="7.093" transform="translate(0 15.56) rotate(-32.763)" fill="#fff"/>
                    <rect id="Rectangle_786" data-name="Rectangle 786" width="28.752" height="4.408" transform="matrix(0.841, -0.541, 0.541, 0.841, 6.86, 22.42)" fill="#fff"/>
                  </g>
                </g>
              </g>
              <rect id="Rectangle_788" data-name="Rectangle 788" width="0.975" height="14.83" transform="translate(9.248 15.906) rotate(180)" fill="#2ea8bc"/>
            </g>
            <g id="Group_5260" data-name="Group 5260" transform="translate(36.899 71.827)">
              <rect id="Rectangle_789" data-name="Rectangle 789" width="16.982" height="14.83" transform="translate(16.175 0) rotate(90)" fill="#2ea8bc"/>
              <rect id="Rectangle_790" data-name="Rectangle 790" width="14.666" height="12.61" transform="translate(15.065 1.158) rotate(90)" fill="#d4f0f5"/>
              <rect id="Rectangle_791" data-name="Rectangle 791" width="1.95" height="17.52" transform="translate(0 18.932) rotate(-90)" fill="#2ea8bc"/>
              <g id="Group_5259" data-name="Group 5259" transform="translate(2.455 1.158)" opacity="0.4">
                <g id="Group_5258" data-name="Group 5258" transform="translate(0 0)" clip-path="url(#clip-path)">
                  <g id="Group_5257" data-name="Group 5257" transform="translate(-8.395 -6.613)">
                    <rect id="Rectangle_792" data-name="Rectangle 792" width="28.752" height="7.093" transform="translate(0 15.56) rotate(-32.763)" fill="#fff"/>
                    <rect id="Rectangle_793" data-name="Rectangle 793" width="28.752" height="4.408" transform="translate(6.86 22.42) rotate(-32.763)" fill="#fff"/>
                  </g>
                </g>
              </g>
              <rect id="Rectangle_795" data-name="Rectangle 795" width="0.975" height="14.83" transform="translate(9.248 15.906) rotate(180)" fill="#2ea8bc"/>
            </g>
            <path id="Path_9852" data-name="Path 9852" d="M374.94,214.955a4.15,4.15,0,0,1,1.108-3.769,3.858,3.858,0,0,1,3.706-.949,1.92,1.92,0,0,0,.79.14c.491-.071.788-.577,1.049-1.011a7.111,7.111,0,0,1,4.9-3.583,4.527,4.527,0,0,1,4.91,3A3.886,3.886,0,0,1,397,210.665a5.257,5.257,0,0,1,5.984,4.294" transform="translate(-374.851 -108.101)" fill="#a6dce6"/>
            <path id="Path_9853" data-name="Path 9853" d="M438.142,85.69V80.3l-57.616-7.054v4.745Z" transform="translate(-376.521 -69.109)" fill="#2ea8bc" opacity="0.28"/>
            <path id="Path_9854" data-name="Path 9854" d="M439.81,81.943l-64.676-9.185-.093-5.374L439.717,76.4Z" transform="translate(-374.907 -67.383)" fill="#2ea8bc"/>
          </g>
        </g>
        <g id="Group_5284" data-name="Group 5284" transform="translate(0 8.719)">
          <g transform="matrix(1, 0, 0, 1, -22.62, -39.21)" filter="url(#Rectangle_796)">
            <rect id="Rectangle_796-2" data-name="Rectangle 796" width="106.371" height="139.767" rx="12.255" transform="translate(128.99 178.97) rotate(180)" fill="#fff"/>
          </g>
          <g id="Group_5283" data-name="Group 5283" transform="translate(15.127 18.014)">
            <path id="Path_9855" data-name="Path 9855" d="M145.858,127.574H109.782V87.39l36.076,3.029Z" transform="translate(-88.376 -81.606)" fill="#d4f0f5"/>
            <path id="Path_9856" data-name="Path 9856" d="M145.962,93.958V88.569l-36.18-4.093v4.745Z" transform="translate(-88.376 -80.749)" fill="#2ea8bc" opacity="0.28"/>
            <path id="Path_9857" data-name="Path 9857" d="M148.959,90.79,104.74,84.568l-.093-5.374,44.218,6.055Z" transform="translate(-86.865 -79.194)" fill="#2ea8bc"/>
            <path id="Path_9858" data-name="Path 9858" d="M84.15,201.008h57.616V132.173L84.15,137.362Z" transform="translate(-80.833 -94.785)" fill="#d4f0f5"/>
            <g id="Group_5266" data-name="Group 5266" transform="translate(38.151 52.49)">
              <rect id="Rectangle_797" data-name="Rectangle 797" width="15.691" height="14.83" transform="translate(14.83 0) rotate(90)" fill="#2ea8bc"/>
              <rect id="Rectangle_798" data-name="Rectangle 798" width="13.551" height="12.61" transform="translate(13.72 1.07) rotate(90)" fill="#d4f0f5"/>
              <g id="Group_5265" data-name="Group 5265" transform="translate(1.11 1.07)" opacity="0.4">
                <g id="Group_5264" data-name="Group 5264" transform="translate(0 0)" clip-path="url(#clip-path-7)">
                  <g id="Group_5263" data-name="Group 5263" transform="translate(-12.418 -6.11)">
                    <path id="Path_9859" data-name="Path 9859" d="M125.147,151.942l24.178,14.376,3.839-5.511-24.178-14.376Z" transform="translate(-119.74 -146.431)" fill="#fff"/>
                    <path id="Path_9860" data-name="Path 9860" d="M117.486,158.837l24.178,14.376,2.385-3.425-24.178-14.376Z" transform="translate(-117.486 -149.074)" fill="#fff"/>
                  </g>
                </g>
              </g>
              <rect id="Rectangle_800" data-name="Rectangle 800" width="0.975" height="13.702" transform="translate(6.927 0.994)" fill="#2ea8bc"/>
            </g>
            <g id="Group_5270" data-name="Group 5270" transform="translate(11.863 52.49)">
              <rect id="Rectangle_801" data-name="Rectangle 801" width="15.691" height="14.83" transform="translate(14.83 0) rotate(90)" fill="#2ea8bc"/>
              <rect id="Rectangle_802" data-name="Rectangle 802" width="13.551" height="12.61" transform="translate(13.72 1.07) rotate(90)" fill="#d4f0f5"/>
              <g id="Group_5269" data-name="Group 5269" transform="translate(1.11 1.07)" opacity="0.4">
                <g id="Group_5268" data-name="Group 5268" transform="translate(0 0)" clip-path="url(#clip-path-7)">
                  <g id="Group_5267" data-name="Group 5267" transform="translate(-12.418 -6.11)">
                    <path id="Path_9861" data-name="Path 9861" d="M87.9,151.942l24.178,14.376,3.839-5.511L91.737,146.431Z" transform="translate(-82.491 -146.431)" fill="#fff"/>
                    <path id="Path_9862" data-name="Path 9862" d="M80.237,158.837l24.178,14.376,2.385-3.425L82.622,155.412Z" transform="translate(-80.237 -149.074)" fill="#fff"/>
                  </g>
                </g>
              </g>
              <rect id="Rectangle_804" data-name="Rectangle 804" width="0.975" height="13.702" transform="translate(6.927 0.994)" fill="#2ea8bc"/>
            </g>
            <g id="Group_5274" data-name="Group 5274" transform="translate(31.741 14.908)">
              <rect id="Rectangle_805" data-name="Rectangle 805" width="15.139" height="14.83" transform="translate(14.83 0) rotate(90)" fill="#2ea8bc"/>
              <rect id="Rectangle_806" data-name="Rectangle 806" width="13.075" height="12.61" transform="translate(13.72 1.032) rotate(90)" fill="#d4f0f5"/>
              <g id="Group_5273" data-name="Group 5273" transform="translate(1.11 1.032)" opacity="0.4">
                <g id="Group_5272" data-name="Group 5272" transform="translate(0 0)" clip-path="url(#clip-path-9)">
                  <g id="Group_5271" data-name="Group 5271" transform="translate(-12.418 -5.895)">
                    <path id="Path_9863" data-name="Path 9863" d="M116.065,98.746l24.178,13.871,3.839-5.318L119.9,93.428Z" transform="translate(-110.658 -93.428)" fill="#fff"/>
                    <path id="Path_9864" data-name="Path 9864" d="M108.4,105.4l24.178,13.871,2.385-3.3-24.178-13.871Z" transform="translate(-108.404 -95.978)" fill="#fff"/>
                  </g>
                </g>
              </g>
              <rect id="Rectangle_808" data-name="Rectangle 808" width="0.975" height="13.221" transform="translate(6.927 0.959)" fill="#2ea8bc"/>
            </g>
            <g id="Group_5278" data-name="Group 5278" transform="translate(36.806 76.211)">
              <rect id="Rectangle_809" data-name="Rectangle 809" width="15.691" height="14.83" transform="translate(16.175 0) rotate(90)" fill="#2ea8bc"/>
              <rect id="Rectangle_810" data-name="Rectangle 810" width="13.551" height="12.61" transform="translate(15.065 1.07) rotate(90)" fill="#d4f0f5"/>
              <rect id="Rectangle_811" data-name="Rectangle 811" width="1.802" height="17.52" transform="translate(0 17.493) rotate(-90)" fill="#2ea8bc"/>
              <g id="Group_5277" data-name="Group 5277" transform="translate(2.455 1.07)" opacity="0.4">
                <g id="Group_5276" data-name="Group 5276" transform="translate(0 0)" clip-path="url(#clip-path-7)">
                  <g id="Group_5275" data-name="Group 5275" transform="translate(-12.418 -6.11)">
                    <path id="Path_9865" data-name="Path 9865" d="M125.147,185.554l24.178,14.376,3.839-5.511-24.178-14.376Z" transform="translate(-119.74 -180.043)" fill="#fff"/>
                    <path id="Path_9866" data-name="Path 9866" d="M117.486,192.449l24.178,14.376,2.385-3.425-24.178-14.376Z" transform="translate(-117.486 -182.686)" fill="#fff"/>
                  </g>
                </g>
              </g>
              <rect id="Rectangle_813" data-name="Rectangle 813" width="0.975" height="13.702" transform="translate(8.272 0.994)" fill="#2ea8bc"/>
            </g>
            <g id="Group_5282" data-name="Group 5282" transform="translate(10.518 76.211)">
              <rect id="Rectangle_814" data-name="Rectangle 814" width="15.691" height="14.83" transform="translate(16.175 0) rotate(90)" fill="#2ea8bc"/>
              <rect id="Rectangle_815" data-name="Rectangle 815" width="13.551" height="12.61" transform="translate(15.065 1.07) rotate(90)" fill="#d4f0f5"/>
              <rect id="Rectangle_816" data-name="Rectangle 816" width="1.802" height="17.52" transform="translate(0 17.493) rotate(-90)" fill="#2ea8bc"/>
              <g id="Group_5281" data-name="Group 5281" transform="translate(2.455 1.07)" opacity="0.4">
                <g id="Group_5280" data-name="Group 5280" transform="translate(0 0)" clip-path="url(#clip-path-7)">
                  <g id="Group_5279" data-name="Group 5279" transform="translate(-12.418 -6.11)">
                    <path id="Path_9867" data-name="Path 9867" d="M87.9,185.554l24.178,14.376,3.839-5.511L91.737,180.043Z" transform="translate(-82.491 -180.043)" fill="#fff"/>
                    <path id="Path_9868" data-name="Path 9868" d="M80.237,192.449l24.178,14.376L106.8,203.4,82.622,189.024Z" transform="translate(-80.237 -182.686)" fill="#fff"/>
                  </g>
                </g>
              </g>
              <rect id="Rectangle_818" data-name="Rectangle 818" width="0.975" height="13.702" transform="translate(8.272 0.994)" fill="#2ea8bc"/>
            </g>
            <path id="Path_9869" data-name="Path 9869" d="M84.149,143.483v-5.389l57.616-7.054v4.745Z" transform="translate(-80.833 -94.452)" fill="#2ea8bc" opacity="0.28"/>
            <path id="Path_9870" data-name="Path 9870" d="M79.5,139.736l64.676-9.185.093-5.374L79.591,134.2Z" transform="translate(-79.464 -92.726)" fill="#2ea8bc"/>
            <path id="Path_9871" data-name="Path 9871" d="M107.344,227a3.011,3.011,0,0,1,.758-2.67,2.571,2.571,0,0,1,2.532-.673,1.263,1.263,0,0,0,.541.1c.335-.05.538-.408.717-.716a4.875,4.875,0,0,1,3.35-2.539,3.086,3.086,0,0,1,3.356,2.124,2.616,2.616,0,0,1,3.821,1.336,3.61,3.61,0,0,1,4.09,3.043" transform="translate(-87.641 -120.77)" fill="#2ea8bc" opacity="0.4"/>
            <path id="Path_9872" data-name="Path 9872" d="M107.492,225.876a4.149,4.149,0,0,0-1.109-3.769,3.857,3.857,0,0,0-3.706-.949,1.92,1.92,0,0,1-.79.14c-.491-.071-.788-.577-1.049-1.011a7.113,7.113,0,0,0-4.9-3.583,4.527,4.527,0,0,0-4.91,3,3.885,3.885,0,0,0-5.591,1.886,5.256,5.256,0,0,0-5.984,4.294" transform="translate(-79.45 -119.65)" fill="#a6dce6"/>
          </g>
        </g>
        <g id="Group_5307" data-name="Group 5307" transform="translate(95.163 37.582)">
          <g transform="matrix(1, 0, 0, 1, -117.78, -68.07)" filter="url(#Rectangle_819)">
            <rect id="Rectangle_819-2" data-name="Rectangle 819" width="116.938" height="180.829" rx="12.255" transform="translate(117.78 68.07)" fill="#fff"/>
          </g>
          <g id="Group_5306" data-name="Group 5306" transform="translate(15.727 19.942)">
            <path id="Path_9873" data-name="Path 9873" d="M295.309,272.571H224.148V146.7l71.161,9.488Z" transform="translate(-217.795 -129.852)" fill="#d4f0f5"/>
            <g id="Group_5288" data-name="Group 5288" transform="translate(16.174 35.467)">
              <rect id="Rectangle_820" data-name="Rectangle 820" width="20.975" height="18.316" transform="translate(18.316 0) rotate(90)" fill="#2ea8bc"/>
              <rect id="Rectangle_821" data-name="Rectangle 821" width="18.115" height="15.575" transform="translate(16.946 1.43) rotate(90)" fill="#d4f0f5"/>
              <g id="Group_5287" data-name="Group 5287" transform="translate(1.371 1.43)" opacity="0.4">
                <g id="Group_5286" data-name="Group 5286" transform="translate(0 0)" clip-path="url(#clip-path-12)">
                  <g id="Group_5285" data-name="Group 5285" transform="translate(-10.368 -8.168)">
                    <rect id="Rectangle_822" data-name="Rectangle 822" width="35.512" height="8.761" transform="translate(0 19.218) rotate(-32.763)" fill="#fff"/>
                    <rect id="Rectangle_823" data-name="Rectangle 823" width="35.511" height="5.444" transform="translate(8.473 27.691) rotate(-32.763)" fill="#fff"/>
                  </g>
                </g>
              </g>
              <rect id="Rectangle_825" data-name="Rectangle 825" width="1.205" height="18.316" transform="translate(9.76 19.645) rotate(180)" fill="#2ea8bc"/>
            </g>
            <g id="Group_5292" data-name="Group 5292" transform="translate(49.234 35.467)">
              <rect id="Rectangle_826" data-name="Rectangle 826" width="20.975" height="18.316" transform="translate(18.316 0) rotate(90)" fill="#2ea8bc"/>
              <rect id="Rectangle_827" data-name="Rectangle 827" width="18.115" height="15.575" transform="translate(16.946 1.43) rotate(90)" fill="#d4f0f5"/>
              <g id="Group_5291" data-name="Group 5291" transform="translate(1.371 1.43)" opacity="0.4">
                <g id="Group_5290" data-name="Group 5290" transform="translate(0 0)" clip-path="url(#clip-path-12)">
                  <g id="Group_5289" data-name="Group 5289" transform="translate(-10.368 -8.168)">
                    <rect id="Rectangle_828" data-name="Rectangle 828" width="35.512" height="8.761" transform="matrix(0.841, -0.541, 0.541, 0.841, 0, 19.218)" fill="#fff"/>
                    <rect id="Rectangle_829" data-name="Rectangle 829" width="35.511" height="5.444" transform="translate(8.473 27.691) rotate(-32.763)" fill="#fff"/>
                  </g>
                </g>
              </g>
              <rect id="Rectangle_831" data-name="Rectangle 831" width="1.205" height="18.316" transform="translate(9.76 19.645) rotate(180)" fill="#2ea8bc"/>
            </g>
            <g id="Group_5296" data-name="Group 5296" transform="translate(16.174 67.741)">
              <rect id="Rectangle_832" data-name="Rectangle 832" width="20.975" height="18.316" transform="translate(18.316 0) rotate(90)" fill="#2ea8bc"/>
              <rect id="Rectangle_833" data-name="Rectangle 833" width="18.115" height="15.575" transform="translate(16.946 1.43) rotate(90)" fill="#d4f0f5"/>
              <g id="Group_5295" data-name="Group 5295" transform="translate(1.371 1.43)" opacity="0.4">
                <g id="Group_5294" data-name="Group 5294" transform="translate(0 0)" clip-path="url(#clip-path-12)">
                  <g id="Group_5293" data-name="Group 5293" transform="translate(-10.368 -8.168)">
                    <rect id="Rectangle_834" data-name="Rectangle 834" width="35.512" height="8.761" transform="translate(0 19.218) rotate(-32.763)" fill="#fff"/>
                    <rect id="Rectangle_835" data-name="Rectangle 835" width="35.511" height="5.444" transform="matrix(0.841, -0.541, 0.541, 0.841, 8.473, 27.691)" fill="#fff"/>
                  </g>
                </g>
              </g>
              <rect id="Rectangle_837" data-name="Rectangle 837" width="1.205" height="18.316" transform="translate(9.76 19.645) rotate(180)" fill="#2ea8bc"/>
            </g>
            <g id="Group_5300" data-name="Group 5300" transform="translate(49.234 67.741)">
              <rect id="Rectangle_838" data-name="Rectangle 838" width="20.975" height="18.316" transform="translate(18.316 0) rotate(90)" fill="#2ea8bc"/>
              <rect id="Rectangle_839" data-name="Rectangle 839" width="18.115" height="15.575" transform="translate(16.946 1.43) rotate(90)" fill="#d4f0f5"/>
              <g id="Group_5299" data-name="Group 5299" transform="translate(1.371 1.43)" opacity="0.4">
                <g id="Group_5298" data-name="Group 5298" transform="translate(0 0)" clip-path="url(#clip-path-12)">
                  <g id="Group_5297" data-name="Group 5297" transform="translate(-10.368 -8.168)">
                    <rect id="Rectangle_840" data-name="Rectangle 840" width="35.512" height="8.761" transform="matrix(0.841, -0.541, 0.541, 0.841, 0, 19.218)" fill="#fff"/>
                    <rect id="Rectangle_841" data-name="Rectangle 841" width="35.511" height="5.444" transform="matrix(0.841, -0.541, 0.541, 0.841, 8.473, 27.691)" fill="#fff"/>
                  </g>
                </g>
              </g>
              <rect id="Rectangle_843" data-name="Rectangle 843" width="1.205" height="18.316" transform="translate(9.76 19.645) rotate(180)" fill="#2ea8bc"/>
            </g>
            <path id="Path_9874" data-name="Path 9874" d="M285.313,320.329a5.128,5.128,0,0,1,1.369-4.655,4.765,4.765,0,0,1,4.577-1.172,2.379,2.379,0,0,0,.976.174c.606-.088.974-.712,1.3-1.249A8.783,8.783,0,0,1,299.586,309a5.59,5.59,0,0,1,6.065,3.7,4.8,4.8,0,0,1,6.906,2.329,6.492,6.492,0,0,1,7.391,5.3" transform="translate(-235.762 -177.6)" fill="#a6dce6"/>
            <g id="Group_5301" data-name="Group 5301" transform="translate(18 90.731)">
              <rect id="Rectangle_844" data-name="Rectangle 844" width="1.339" height="33.012" transform="translate(8.565 17.74)" fill="#2ea8bc"/>
              <rect id="Rectangle_845" data-name="Rectangle 845" width="1.492" height="33.012" transform="translate(38.502 17.74)" fill="#2ea8bc"/>
              <path id="Path_9875" data-name="Path 9875" d="M240.928,270.774l23.72-19.222a.717.717,0,0,1,.9,0l23.563,18.809a.744.744,0,0,1-.443,1.326l-47.283.411A.744.744,0,0,1,240.928,270.774Z" transform="translate(-240.652 -251.391)" fill="#2ea8bc"/>
            </g>
            <g id="Group_5304" data-name="Group 5304" transform="translate(35.2 115.786)">
              <g id="Group_5302" data-name="Group 5302" transform="translate(0 0)" opacity="0.54">
                <rect id="Rectangle_846" data-name="Rectangle 846" width="26.326" height="14.051" transform="translate(14.051 0) rotate(90)" fill="#2ea8bc"/>
              </g>
              <rect id="Rectangle_847" data-name="Rectangle 847" width="1.384" height="3.953" transform="translate(10.44 10.872)" fill="#2ea8bc"/>
              <g id="Group_5303" data-name="Group 5303" transform="translate(0 0)">
                <rect id="Rectangle_848" data-name="Rectangle 848" width="26.326" height="14.051" transform="translate(14.051 0) rotate(90)" fill="none" stroke="#2ea8bc" stroke-miterlimit="10" stroke-width="1"/>
              </g>
            </g>
            <rect id="Rectangle_849" data-name="Rectangle 849" width="71.161" height="2.916" transform="translate(6.353 27.081)" fill="#2ea8bc" opacity="0.28"/>
            <g id="Group_5305" data-name="Group 5305">
              <path id="Path_9876" data-name="Path 9876" d="M294.915,161.6H217.486a2.341,2.341,0,0,1-2.34-2.34h82.11A2.341,2.341,0,0,1,294.915,161.6Z" transform="translate(-215.146 -133.548)" fill="#2ea8bc"/>
              <path id="Path_9877" data-name="Path 9877" d="M297.256,148.673h-82.11l7.342-25.848h67.425Z" transform="translate(-215.146 -122.825)" fill="#a6dce6"/>
            </g>
          </g>
        </g>
      </g>
      <g id="Group_5314" data-name="Group 5314" transform="translate(0 170.093)">
        <g id="Group_5313" data-name="Group 5313">
          <g id="Group_5309" data-name="Group 5309">
            <path id="Path_9878" data-name="Path 9878" d="M167.91,314.955a47.5,47.5,0,0,0-9.794-66.135,46.735,46.735,0,0,0-65.692,9.726,47.5,47.5,0,0,0,9.794,66.134A46.736,46.736,0,0,0,167.91,314.955ZM98.947,263.42a38.658,38.658,0,0,1,54.338-8.044,39.291,39.291,0,0,1,8.1,54.7,38.658,38.658,0,0,1-54.339,8.044A39.291,39.291,0,0,1,98.947,263.42Z" transform="translate(-42.81 -239.481)" fill="#2ea8bc"/>
            <path id="Path_9879" data-name="Path 9879" d="M55.873,402.063l37.592-51.017,7.063,5.278L62.936,407.341Z" transform="translate(-34.768 -272.313)" fill="#2ea8bc"/>
            <path id="Path_9880" data-name="Path 9880" d="M27.5,429.178,62.692,381.4c2.717-3.69,8.107-4.3,12.04-1.362h0c3.932,2.937,4.917,8.309,2.2,12l-35.19,47.782c-2.717,3.689-8.107,4.3-12.039,1.362h0C25.77,438.239,24.785,432.867,27.5,429.178Z" transform="translate(-25.967 -280.296)" fill="#454849"/>
            <ellipse id="Ellipse_340" data-name="Ellipse 340" cx="38.842" cy="39.104" rx="38.842" ry="39.104" transform="translate(43.108 14.41) rotate(-8.595)" fill="#2ea8bc" opacity="0.18"/>
          </g>
          <g id="Group_5312" data-name="Group 5312" transform="translate(43.11 2.738)" opacity="0.44">
            <g id="Group_5311" data-name="Group 5311" transform="translate(0 0)" clip-path="url(#clip-path-16)">
              <g id="Group_5310" data-name="Group 5310" transform="translate(-14.879 -5.525)">
                <rect id="Rectangle_850" data-name="Rectangle 850" width="102.342" height="31.052" transform="translate(0 49.509) rotate(-28.931)" fill="#fbffff"/>
                <rect id="Rectangle_851" data-name="Rectangle 851" width="102.342" height="19.32" transform="matrix(0.875, -0.484, 0.484, 0.875, 26.359, 79.923)" fill="#fbffff"/>
              </g>
            </g>
          </g>
        </g>
        <path id="Path_9881" data-name="Path 9881" d="M142.43,272.977c-8.342.3-14.845,7.809-14.528,16.782s16.265,32.247,16.265,32.247,14.26-24.345,13.942-33.318S150.772,272.682,142.43,272.977Zm.843,23.789a8.275,8.275,0,1,1,7.829-8.555A8.2,8.2,0,0,1,143.274,296.766Z" transform="translate(-55.962 -249.336)" fill="#2ea8bc" opacity="0.68"/>
      </g>
      <g id="Group_5337" data-name="Group 5337" transform="translate(247.921 151.894)">
        <g id="Group_5316" data-name="Group 5316" transform="translate(0 73.858)">
          <g id="Group_5315" data-name="Group 5315" transform="translate(17.278 0.116)">
            <path id="Path_9882" data-name="Path 9882" d="M420.739,419.043c1.034-19.132-2.777-16.713-1.98-23.6,1.835-15.85-.335-30.472.526-45.56.493-8.659,1.83-13.178.132-19.728s-8.785-12.939-12.692-11.408c-3.013,1.181-4.4,6.236-4.752,11.189-.471,6.577-.156,9.675.725,16.549,3.22,25.1,9.854,53.844,15.119,78.668" transform="translate(-401.754 -318.516)" fill="#f7b094"/>
            <path id="Path_9883" data-name="Path 9883" d="M421.866,455.02c.457,1.128.449,2.55.906,3.678a9.621,9.621,0,0,1,.061,1.52c.033.924-1.12,1.651-1.445,2.559a.472.472,0,0,0-.03.293c.092.3.6.3.98.236l3.336-.541c.42-.068.91-.181,1.088-.508a.894.894,0,0,0,.071-.468c-.072-2.286-.8-10.97-.877-13.256" transform="translate(-407.52 -356.778)" fill="#f7b094"/>
          </g>
          <path id="Path_9884" data-name="Path 9884" d="M397.707,419.523c4.692-18.576.574-16.661,2.681-23.268,4.847-15.2,5.441-30.242,9.184-44.883,2.149-8.4,4.33-12.58,3.922-19.335s-6.134-14.387-10.263-13.634c-3.184.58-5.514,5.273-6.814,10.066-1.727,6.364-2.013,9.465-2.469,16.38-1.665,25.248-.68,54.734-.284,80.107" transform="translate(-381.904 -318.351)" fill="#f7b094"/>
          <path id="Path_9885" data-name="Path 9885" d="M392.982,454.944c.232,1.2-.05,2.589.182,3.784a9.472,9.472,0,0,1-.232,1.5c-.144.913-1.185,1.423-1.678,2.252-.052.088-.328.166-.318.264.033.312.532.407.917.42l3.378.11a1.482,1.482,0,0,0,1.165-.29.885.885,0,0,0,.16-.445c.369-2.258,1.319-10.92,1.688-13.178" transform="translate(-381.293 -356.906)" fill="#f7b094"/>
          <path id="Path_9886" data-name="Path 9886" d="M378.1,471.855c2.527.092,4.6.165,7.124.258a4.959,4.959,0,0,0,2.273-.272c.378-.176.757-.462,1.174-.384.324.059.55.322.847.453a2.22,2.22,0,0,0,.85.129l2.65.057a1.309,1.309,0,0,0,.833-.169.978.978,0,0,0,.26-.863,12.4,12.4,0,0,0-.72-3.6.911.911,0,0,0-.53-.644,1.156,1.156,0,0,0-.8.186c-1,.5-2.318.86-3.24.243a3.675,3.675,0,0,0-.713-.482,1.922,1.922,0,0,0-.975-.015,34.835,34.835,0,0,0-8.1,2.355,3.478,3.478,0,0,0-1.532,1.029,1.089,1.089,0,0,0,.217,1.563" transform="translate(-377.271 -362.007)" fill="#38303b"/>
          <path id="Path_9887" data-name="Path 9887" d="M408.532,471.631c2.593-.054,4.718-.1,7.31-.157a5.211,5.211,0,0,0,2.313-.4c.378-.2.749-.5,1.181-.452.334.041.581.289.892.4a2.339,2.339,0,0,0,.878.08l2.717-.1a1.369,1.369,0,0,0,.844-.217.962.962,0,0,0,.218-.877,12.187,12.187,0,0,0-.941-3.552.92.92,0,0,0-.58-.613,1.207,1.207,0,0,0-.809.231c-1,.563-2.325.994-3.3.432a3.779,3.779,0,0,0-.757-.44,2.023,2.023,0,0,0-1,.042,36.488,36.488,0,0,0-8.164,2.822,3.575,3.575,0,0,0-1.511,1.116,1.071,1.071,0,0,0,.311,1.548" transform="translate(-386.203 -361.724)" fill="#38303b"/>
        </g>
        <path id="Path_9888" data-name="Path 9888" d="M401.8,265.316c-3.426-2.627-5.762-11.5-5.925-15.937-.145-3.941,1.032-9.669,5.16-12.577s10.194-3.078,14.062.172c2.727,2.291,4.761,7.157,5.561,10.639s1.208,7.019,2.954,9.975a36.437,36.437,0,0,0,6.579,8.127,28.151,28.151,0,0,1,5.236,6.4c2.493,4.9,2,8.967-1.273,13.505a12.912,12.912,0,0,1-14.91,4.3,15.88,15.88,0,0,1-5-3.4,18.857,18.857,0,0,1-5.652-10.876" transform="translate(-382.743 -219.84)" fill="#38303b"/>
        <g id="Group_5321" data-name="Group 5321" transform="translate(14.575 17.742)">
          <path id="Path_9889" data-name="Path 9889" d="M414.275,273.3a2.529,2.529,0,0,0,.852-2.33c-.276-2.409-.673-5.956-.865-7.583-.078-.669-.157-1.339-.258-2a.876.876,0,0,0-.138-.418.4.4,0,0,0-.262-.133c-.91-.156-1.712.548-2.567.881-1.044.408-2.2.263-3.255.62a.444.444,0,0,0-.318.271.92.92,0,0,0-.02.313c.095,1.939-.438,7.174-.3,9.611.031.549,1.047-.047,1.37.336l.878,1.044a2.338,2.338,0,0,0,3.257.582Z" transform="translate(-400.631 -245.301)" fill="#f7b094"/>
          <path id="Path_9890" data-name="Path 9890" d="M414.339,264.121c.013.11.028.23.042.357a12.037,12.037,0,0,1-5.743,2.5c-.038.009-1.217.179-1.256.179.053-.939.1-1.193.13-1.965a20.855,20.855,0,0,1,6.729-1.9C414.274,263.574,414.307,263.847,414.339,264.121Z" transform="translate(-400.707 -246.034)" fill="#e89c82"/>
          <path id="Path_9891" data-name="Path 9891" d="M414.8,253.683c-2.078,4.987-5.694,5.107-9.553,5.771a6.762,6.762,0,0,1-2.467-.145c-1.676-.458-2.222-2.269-2.367-3.755a33.383,33.383,0,0,1,.137-7.726,11.083,11.083,0,0,1,1.675-5.006,6.23,6.23,0,0,1,4.909-2.67c2.574-.039,4.915,1.634,6.382,3.532,2.166,2.8,2.978,6.439,1.539,9.387" transform="translate(-398.609 -239.222)" fill="#f7b094"/>
          <g id="Group_5317" data-name="Group 5317" transform="translate(15.792 10.198)">
            <path id="Path_9892" data-name="Path 9892" d="M420.3,257.5a3.094,3.094,0,0,0,3.019-1.608,2.223,2.223,0,0,0-1.878-2.611" transform="translate(-420.301 -253.285)" fill="#f7b094"/>
          </g>
          <path id="Path_9893" data-name="Path 9893" d="M400.132,249.465a9.051,9.051,0,0,1-.6,2.61,2.577,2.577,0,0,1-1.049,1.336,1.046,1.046,0,0,0-.379,1.507,1.429,1.429,0,0,0,.745.523,1.111,1.111,0,0,0,1.246-.263" transform="translate(-397.924 -241.963)" fill="#f7b094"/>
          <g id="Group_5318" data-name="Group 5318" transform="translate(3.584 5.472)">
            <path id="Path_9894" data-name="Path 9894" d="M406.773,247.744c.047.05-.026.11-.1.1a.494.494,0,0,1-.213-.088,4.509,4.509,0,0,0-2.745-.6,1.387,1.387,0,0,1-.429.012c-.147-.029-.293-.132-.277-.235a.191.191,0,0,1,.081-.111,1.366,1.366,0,0,1,.675-.219,3.979,3.979,0,0,1,2.461.565,1.317,1.317,0,0,1,.574.6" transform="translate(-403.003 -246.587)" fill="#38303b"/>
          </g>
          <g id="Group_5319" data-name="Group 5319" transform="translate(6.326 10.938)" opacity="0.58">
            <path id="Path_9895" data-name="Path 9895" d="M411.379,256.73a2.256,2.256,0,1,1-2-2.382A2.2,2.2,0,0,1,411.379,256.73Z" transform="translate(-406.889 -254.333)" fill="#e99c82"/>
          </g>
          <path id="Path_9896" data-name="Path 9896" d="M405.176,250.285c-.067.626-.412,1.1-.771,1.064s-.6-.577-.529-1.2.412-1.1.771-1.064S405.243,249.658,405.176,250.285Z" transform="translate(-399.672 -241.849)" fill="#38303b"/>
          <line id="Line_45" data-name="Line 45" y1="5.246" x2="0.274" transform="translate(6.256 14.987)" fill="#f7b094"/>
          <g id="Group_5320" data-name="Group 5320" transform="translate(1.71 15.181)">
            <path id="Path_9897" data-name="Path 9897" d="M401.408,262.059a4.614,4.614,0,0,0,.593-.252,2.591,2.591,0,0,0,1.225-1.444c-.615.056-.827-.031-1.548,0a7.029,7.029,0,0,0-.706.082,4.664,4.664,0,0,0-.6.141c-.017.006-.006.132,0,.16.045.542.081.992.169,1.529" transform="translate(-400.351 -260.348)" fill="#9c3e28"/>
            <path id="Path_9898" data-name="Path 9898" d="M400.359,260.752a1.133,1.133,0,0,1-.01-.174,4.49,4.49,0,0,1,.618-.138c.187-.037.606-.084.727-.089.682-.028.891.052,1.438.014a6.021,6.021,0,0,1-2.381.827c-.113.019-.337.054-.347.051C400.387,261.087,400.374,260.931,400.359,260.752Z" transform="translate(-400.347 -260.345)" fill="#fef4f0"/>
            <path id="Path_9899" data-name="Path 9899" d="M402.339,261.892l.236-.016a2.649,2.649,0,0,1-.531.378,4.612,4.612,0,0,1-.593.252,8.972,8.972,0,0,1-.879.222c-.027-.166-.037-.252-.061-.419A4.169,4.169,0,0,1,402.339,261.892Z" transform="translate(-400.396 -260.796)" fill="#f68070"/>
          </g>
          <path id="Path_9900" data-name="Path 9900" d="M404.953,240.66a25.093,25.093,0,0,0,12.6,8.456c-.317-4.153-3.238-8.157-7.5-10.282" transform="translate(-399.993 -238.834)" fill="#38303b"/>
        </g>
        <g id="Group_5325" data-name="Group 5325" transform="translate(1.963 42.474)">
          <path id="Path_9901" data-name="Path 9901" d="M419.951,277.609c2.313.829,3.326,5.262,4.116,8.867,2.59,11.819,7.821,22.471,14.452,29.531a9.8,9.8,0,0,1,1.994,2.287c.563,1.038-1.836,3.118-3.924,1.3l.019-.044-.032.026c-7.742-7.386-15.805-16.067-19.536-29.062a21.006,21.006,0,0,1-.959-8.524C416.48,279.228,418.143,276.961,419.951,277.609Z" transform="translate(-390.617 -274.944)" fill="#f7b094"/>
          <path id="Path_9902" data-name="Path 9902" d="M423.139,354.3a2.84,2.84,0,0,0,.531-3.008c-4.773-11.617-8.493-32.656-12.375-46.466-1.831-6.516,2.246-13.4,2.2-20.169a14.9,14.9,0,0,0-1.294-6.313c-2.831-5.967-4.051-4.435-9.917-3.86-3.907.383-7.234,3.738-9.188,7.142a13.9,13.9,0,0,0-1.951,5.888c-.281,4.063,1.807,7.909,2.267,11.956.26,2.289-.4,4.59-.273,6.891.228,4.125-11.184,37.394-11.251,52.3a1.309,1.309,0,0,0,.748,1.179c2.908,1.414,13.914,6.241,24.7,4.075C414.923,362.4,420.728,356.924,423.139,354.3Z" transform="translate(-380.594 -273.88)" fill="#2ea8bc"/>
          <g id="Group_5324" data-name="Group 5324" transform="translate(0 6.834)">
            <path id="Path_9903" data-name="Path 9903" d="M404.665,283.827c-2.613,1.232-3.03,4.841-3.244,8.395-.7,11.651-5.559,25.453-12.089,33.4-.742.8,1.763,3.158,3.9,1.035l-.032-.037.044.018c7.255-8.519,12.747-15.742,16.711-30.483.716-2.661,1.3-6.43.255-8.956S406.706,282.863,404.665,283.827Z" transform="translate(-382.745 -283.564)" fill="#f7b094"/>
            <g id="Group_5323" data-name="Group 5323" transform="translate(0 38.827)">
              <g id="Group_5322" data-name="Group 5322">
                <path id="Path_9904" data-name="Path 9904" d="M391.335,341.822a15.652,15.652,0,0,0-2.414,4.029,18.439,18.439,0,0,1-2.1,4.612c-.2.26-.752.071-.819-.272a5.7,5.7,0,0,1-.064-1.864c.047-.345-.492-.615-.781-.4a2.172,2.172,0,0,0-.519.608c-.824,1.351-1.683,2.307-2.507,3.658a10.117,10.117,0,0,1-1.375,1.908c-.235.22-.423-.046-.383-.359.034-.271.4-1.26.314-1.152-.182.243-.709.081-.63-.4a18.2,18.2,0,0,1,2.251-5.849c2.033-3.183,4.647-4.368,6.656-7.757" transform="translate(-380.053 -338.582)" fill="#f7b094"/>
              </g>
            </g>
          </g>
          <path id="Path_9905" data-name="Path 9905" d="M414.484,298.19q-4.946-.876-9.793-2.217a.755.755,0,0,1-.514-.314.743.743,0,0,1-.043-.378c.227-3.879-.056-8.025,1.472-11.6a7.683,7.683,0,0,1,2.449-2.853c1.842-.785,2.934-.334,4.466.481a6.843,6.843,0,0,1,3.107,4.016,16.649,16.649,0,0,1,.607,5.147,21.64,21.64,0,0,1-.332,4.224,9.483,9.483,0,0,1-1.408,3.394" transform="translate(-387.138 -275.805)" fill="#51b9c4"/>
        </g>
        <g id="Group_5335" data-name="Group 5335" transform="translate(47.916)">
          <g id="Group_5326" data-name="Group 5326" transform="translate(38.599 164.011)">
            <path id="Path_9906" data-name="Path 9906" d="M507.975,450.158c1.2,1.17,2.114,2.9,3.314,4.067a16.38,16.38,0,0,1,1.051,1.816c.635,1.105-.063,2.488.2,3.729a.783.783,0,0,0,.159.369c.289.323.8.1,1.15-.14l3.039-2.1c.383-.265.808-.614.775-1.088a1.454,1.454,0,0,0-.231-.6c-1.56-2.74-3.078-7.37-4.638-10.111" transform="translate(-502.251 -446.098)" fill="#f7b094"/>
            <path id="Path_9907" data-name="Path 9907" d="M501.463,472.428c2.884-1.042,5.244-1.9,8.128-2.943A5.325,5.325,0,0,0,512,468.092c.332-.4.607-.939,1.116-1.032.394-.072.786.16,1.188.192a2.386,2.386,0,0,0,1.021-.224l3-1.145a1.427,1.427,0,0,0,.846-.6,1.486,1.486,0,0,0-.159-1.227,19.391,19.391,0,0,0-2.7-4.286c-.245-.3-.558-.61-.932-.582-.344.026-.588.332-.8.606-.859,1.107-2.15,2.168-3.507,1.8a4.5,4.5,0,0,0-1.053-.291,2.044,2.044,0,0,0-1.1.429,38.394,38.394,0,0,0-7.855,6.742,4.253,4.253,0,0,0-1.18,2.024,1.651,1.651,0,0,0,1.063,1.9" transform="translate(-499.864 -449.95)" fill="#38303b"/>
            <path id="Path_9908" data-name="Path 9908" d="M507.008,466.737a2.667,2.667,0,0,1,1.6,1.349" transform="translate(-501.966 -452.172)" fill="none" stroke="#f09532" stroke-miterlimit="10" stroke-width="1"/>
            <path id="Path_9909" data-name="Path 9909" d="M510.146,464.061a5.376,5.376,0,0,1,2.088,1.651" transform="translate(-502.89 -451.384)" fill="none" stroke="#f09532" stroke-miterlimit="10" stroke-width="1"/>
          </g>
          <g id="Group_5327" data-name="Group 5327" transform="translate(2.51 167.928)">
            <path id="Path_9910" data-name="Path 9910" d="M468.517,451.91c.232,1.66-.1,3.585.131,5.245a16.551,16.551,0,0,1-.281,2.079c-.174,1.263-1.574,1.929-2.127,3.069a.778.778,0,0,0-.1.39c.03.433.574.571.994.594l3.691.2c.464.025,1.014.009,1.279-.386a1.452,1.452,0,0,0,.184-.614c.444-3.123,2.078-7.712,2.522-10.834" transform="translate(-453.85 -451.648)" fill="#f7b094"/>
            <path id="Path_9911" data-name="Path 9911" d="M449.715,472.233c3.061.165,5.57.3,8.632.462a5.321,5.321,0,0,0,2.76-.343c.462-.239.925-.628,1.43-.515.391.088.661.454,1.018.64a2.394,2.394,0,0,0,1.028.193l3.212.118a1.428,1.428,0,0,0,1.013-.222,1.488,1.488,0,0,0,.332-1.192,19.391,19.391,0,0,0-.809-5c-.111-.368-.276-.78-.632-.9a1.263,1.263,0,0,0-.973.245c-1.224.685-2.825,1.157-3.932.29a4.457,4.457,0,0,0-.856-.679,2.048,2.048,0,0,0-1.181-.035,38.39,38.39,0,0,0-9.863,3.142,4.252,4.252,0,0,0-1.877,1.4,1.651,1.651,0,0,0,.236,2.169" transform="translate(-448.725 -455.645)" fill="#38303b"/>
            <path id="Path_9912" data-name="Path 9912" d="M458.994,466.735a2.664,2.664,0,0,1,.946,1.866" transform="translate(-451.747 -456.088)" fill="none" stroke="#f09532" stroke-miterlimit="10" stroke-width="1"/>
            <path id="Path_9913" data-name="Path 9913" d="M462.928,465.5a5.373,5.373,0,0,1,1.278,2.335" transform="translate(-452.905 -455.723)" fill="none" stroke="#f09532" stroke-miterlimit="10" stroke-width="1"/>
          </g>
          <path id="Path_9914" data-name="Path 9914" d="M507,416.442c-6.032-29.445-10.334-28-10.916-33.753-1.149-11.347,3.715-23.69,4.74-38.493a41.153,41.153,0,0,0-1.149-11.778c-.849-4.09-3.614-7.845-7.378-9.049-4.3-1.376-9.022,1.379-11.479,5.371s-3.1,8.931-3.382,13.7c-1.7,29.217,9.245,52.629,24.824,76.584" transform="translate(-454.615 -245.864)" fill="#2ea8bc"/>
          <path id="Path_9915" data-name="Path 9915" d="M496.79,331.574c.356,8.476-1.8,16.788-4.452,24.848-2.838,8.636-6.309,18.3-10.916,26.141a16.139,16.139,0,0,0-1.149,3.016,13.01,13.01,0,0,0,.447,3.442c.763,3.853-.028,7.827-.878,11.662q-2.5,11.27-5.711,22.365c-1.694-.188-2.372-.183-4.067-.37a2.512,2.512,0,0,1-.911-.288c-.225-.2-.188-.553-.179-.855.144-5.076.069-10.1,0-15.121-.049-3.517-.243-7.03-.328-10.546-.3-12.269.723-24.527,1.743-36.757l2.354-28.231" transform="translate(-452.062 -248.18)" fill="#51b9c4"/>
          <path id="Path_9916" data-name="Path 9916" d="M482.152,341.076l-4.317,24.533c-.635,3.61-1.27,7.223-1.639,10.871-1.608,15.92,1.831,32.606-3.535,47.648" transform="translate(-453.26 -251.18)" fill="none" stroke="#2ea8bc" stroke-miterlimit="10" stroke-width="1"/>
          <path id="Path_9917" data-name="Path 9917" d="M491.982,341.885a33.466,33.466,0,0,1-9.107,12.779" transform="translate(-456.265 -251.418)" fill="none" stroke="#2ea8bc" stroke-miterlimit="10" stroke-width="1"/>
          <path id="Path_9918" data-name="Path 9918" d="M474.749,458.849a26.324,26.324,0,0,1-5.243-.583" transform="translate(-452.331 -285.668)" fill="none" stroke="#9eb4b1" stroke-miterlimit="10" stroke-width="0.709"/>
          <path id="Path_9919" data-name="Path 9919" d="M492.794,236.6c4.154-.394,6.8-9.155,6-13.563a6.289,6.289,0,0,0-2.224-3.828,7.107,7.107,0,0,0-4.3-1.251,24.246,24.246,0,0,1-5.853.37c-1.747-.123-2.482-.079-3.862.956-.812.608-.26,1.926-.6,2.853-1.7,4.667,1.565,10.2,6.027,12.678" transform="translate(-455.859 -214.939)" fill="#38303b"/>
          <g id="Group_5329" data-name="Group 5329" transform="translate(28.744 20.394)">
            <path id="Path_9920" data-name="Path 9920" d="M493.817,255.06a2.464,2.464,0,0,0,.92-2.384c-.355-2.4-.868-5.93-1.114-7.55-.1-.666-.2-1.332-.329-1.994a.794.794,0,0,0-.163-.411.47.47,0,0,0-.3-.118c-1.032-.1-1.926.646-2.886,1.029-1.173.468-2.481.388-3.669.807a.51.51,0,0,0-.354.29.82.82,0,0,0-.018.315c.142,1.938.539,6.047.74,8.481a2.271,2.271,0,0,0,.651,1.428l1.012,1a2.837,2.837,0,0,0,3.692.4Z" transform="translate(-485.899 -242.592)" fill="#f7b094"/>
            <g id="Group_5328" data-name="Group 5328">
              <path id="Path_9921" data-name="Path 9921" d="M493.13,242.72a.47.47,0,0,0-.3-.118c-1.032-.1-1.926.646-2.886,1.029-1.173.468-2.481.388-3.669.807a.51.51,0,0,0-.354.29.82.82,0,0,0-.018.315l.239,3.249a6.567,6.567,0,0,0,3.6.759,5.069,5.069,0,0,0,4.021-2.977l-.144-.948c-.1-.666-.2-1.332-.329-1.994A.794.794,0,0,0,493.13,242.72Z" transform="translate(-485.899 -242.592)" fill="#e89c82"/>
            </g>
          </g>
          <g id="Group_5330" data-name="Group 5330" transform="translate(38.022 14.155)">
            <path id="Path_9922" data-name="Path 9922" d="M499.047,237.766a2.856,2.856,0,0,0,2.485-1.944,2.05,2.05,0,0,0-2.124-2.071" transform="translate(-499.047 -233.751)" fill="#f7b094"/>
          </g>
          <path id="Path_9923" data-name="Path 9923" d="M493.071,235.128c-1.18,5.272-4.721,6.019-8.406,7.344a6.749,6.749,0,0,1-2.454.286c-1.73-.159-2.582-1.848-2.984-3.287a33.371,33.371,0,0,1-1.207-7.632,11.079,11.079,0,0,1,.78-5.222,6.23,6.23,0,0,1,4.37-3.482c2.528-.485,5.124.756,6.9,2.37,2.62,2.381,4.051,5.824,3.146,8.977" transform="translate(-454.831 -216.441)" fill="#f7b094"/>
          <path id="Path_9924" data-name="Path 9924" d="M477.467,233.108a8.665,8.665,0,0,1-.13,2.568,2.472,2.472,0,0,1-.769,1.438,1,1,0,0,0-.107,1.488,1.37,1.37,0,0,0,.791.37,1.067,1.067,0,0,0,1.135-.457" transform="translate(-454.295 -219.407)" fill="#f7b094"/>
          <g id="Group_5331" data-name="Group 5331" transform="translate(24.627 11.781)">
            <path id="Path_9925" data-name="Path 9925" d="M483.917,231.129c.055.042-.006.112-.085.121a.486.486,0,0,1-.225-.049,4.511,4.511,0,0,0-2.807-.113,1.361,1.361,0,0,1-.421.086c-.149,0-.311-.079-.313-.183a.2.2,0,0,1,.061-.124,1.366,1.366,0,0,1,.626-.333,3.98,3.98,0,0,1,2.523.128,1.312,1.312,0,0,1,.669.495" transform="translate(-480.065 -230.387)" fill="#38303b"/>
          </g>
          <g id="Group_5332" data-name="Group 5332" transform="translate(28.251 16.508)">
            <path id="Path_9926" data-name="Path 9926" d="M489.7,239.089a2.256,2.256,0,1,1-2.384-2A2.2,2.2,0,0,1,489.7,239.089Z" transform="translate(-485.2 -237.086)" fill="#e99c82"/>
          </g>
          <path id="Path_9927" data-name="Path 9927" d="M482.709,234.491c-.008.63-.307,1.137-.668,1.132s-.647-.519-.639-1.148.307-1.137.668-1.133S482.717,233.861,482.709,234.491Z" transform="translate(-455.832 -219.476)" fill="#38303b"/>
          <path id="Path_9928" data-name="Path 9928" d="M470.882,308.22c-.061,4.939-1.083,11.4,2.783,9.448,6.332-3.193,23.646,1.493,25.484.492,4.353-2.369,3.464-43.241-.057-54.441-1.186-3.771-5.107-6.567-9.012-7.825-3.985-1.284-8.474.787-11.033,3.944s-3.594,7.178-4.437,11.091C472.342,281.454,471.006,298.274,470.882,308.22Z" transform="translate(-452.687 -225.999)" fill="#a6dce6"/>
          <path id="Path_9929" data-name="Path 9929" d="M475.1,272.482c-2.984.641-4.547,5.378-5.775,9.235C465.3,294.361,458,305.422,449.155,312.389a10.87,10.87,0,0,0-2.67,2.274,9.5,9.5,0,0,0-1.19,4.185c-.094.786-.35,1.9.333,2.513.089.08.046.586.135.991.064.295.429.668.636.613.146-.04.079,1.108.7,1.192.512.069.7-1.174.781-1.785.339-2.531.736-4.081,3.5-5.833l-.021-.05.04.033c10.275-7.195,21.041-15.771,26.587-29.571a19.814,19.814,0,0,0,1.753-9.225C479.4,274.656,477.436,271.981,475.1,272.482Z" transform="translate(-445.169 -230.976)" fill="#f7b094"/>
          <path id="Path_9930" data-name="Path 9930" d="M477.431,281.623a61.247,61.247,0,0,0,9.185,4.31,1.705,1.705,0,0,0,.9.193,1.645,1.645,0,0,0,.85-.576,29.608,29.608,0,0,0,5.193-7.595c1.381-2.9,2.3-6.2,1.621-9.353s-3.332-6.012-6.49-6.024a7.42,7.42,0,0,0-5.589,3.032,20.065,20.065,0,0,0-2.946,5.93c-1.075,3.031-2.064,6.891-2.878,10.006Z" transform="translate(-454.619 -228.08)" fill="#8fd0d8"/>
          <path id="Path_9931" data-name="Path 9931" d="M516.435,453.057a10.963,10.963,0,0,1-5.1,2.445" transform="translate(-464.64 -284.135)" fill="none" stroke="#acbfbc" stroke-miterlimit="10" stroke-width="0.709"/>
          <g id="Group_5333" data-name="Group 5333" transform="translate(18.968)">
            <path id="Path_9932" data-name="Path 9932" d="M473.657,217.287a7.96,7.96,0,0,0-1.559,5.195,3.694,3.694,0,0,0,4.243,2.876c1.19-.267,1.787-1.011,2.978-1.273,1.668-.367,3.391.88,5.078.6a10.392,10.392,0,0,0,2.105-.824,2.435,2.435,0,0,1,2.2.006c1.061.694,1.165,2.925,2.1,3.769.553.5,1.081.013,1.779-.233a3.844,3.844,0,0,0,1.7-1.336,6.133,6.133,0,0,0,1.086-5.646,5.851,5.851,0,0,0-4.86-3.764c-.545-.018-1.756-.008-2.3-.072a6.161,6.161,0,0,1-2.8-1.22,11.528,11.528,0,0,0-4.191-1.514,6.675,6.675,0,0,0-5.145.939,10.3,10.3,0,0,0-2.382,2.487" transform="translate(-472.047 -213.694)" fill="#38303b"/>
          </g>
          <g id="Group_5334" data-name="Group 5334" transform="translate(24.079 21.22)">
            <path id="Path_9933" data-name="Path 9933" d="M480.587,245.742a4.682,4.682,0,0,0,.541-.349,2.6,2.6,0,0,0,.962-1.632c-.6.16-.821.11-1.526.262-.118.025-.5.133-.682.2a4.626,4.626,0,0,0-.568.242c-.016.008.016.131.023.158.136.526.248.965.426,1.478" transform="translate(-479.295 -243.762)" fill="#9c3e28"/>
            <path id="Path_9934" data-name="Path 9934" d="M479.329,244.645a1.2,1.2,0,0,1-.039-.171,4.642,4.642,0,0,1,.586-.241c.177-.067.583-.186.7-.211.668-.143.887-.1,1.419-.23a6.015,6.015,0,0,1-2.206,1.219c-.108.038-.323.111-.334.109C479.413,244.969,479.374,244.818,479.329,244.645Z" transform="translate(-479.289 -243.771)" fill="#fef4f0"/>
            <path id="Path_9935" data-name="Path 9935" d="M481.489,245.474l.23-.056a2.636,2.636,0,0,1-.459.463,4.683,4.683,0,0,1-.541.349,9,9,0,0,1-.828.368c-.055-.16-.08-.242-.131-.4A4.189,4.189,0,0,1,481.489,245.474Z" transform="translate(-479.427 -244.249)" fill="#f68070"/>
          </g>
        </g>
        <g id="Group_5336" data-name="Group 5336" transform="translate(47.684 83.465)">
          <path id="Path_9936" data-name="Path 9936" d="M447.319,343.584a35.526,35.526,0,0,1,.276-4.188" transform="translate(-445.57 -334.151)" fill="none" stroke="#e99c82" stroke-miterlimit="10" stroke-width="0.283" opacity="0.58"/>
          <path id="Path_9937" data-name="Path 9937" d="M446.03,341.44c.063-1.431.125-2.333.265-3.759" transform="translate(-445.19 -333.646)" fill="none" stroke="#e99c82" stroke-miterlimit="10" stroke-width="0.283" opacity="0.58"/>
          <path id="Path_9938" data-name="Path 9938" d="M445.343,337.705a.974.974,0,0,1-.5-.882c.03-.534.056-1.128.136-1.659a4.406,4.406,0,0,1,.5-1.275,6.86,6.86,0,0,1,1.166-1.45" transform="translate(-444.84 -332.104)" fill="#f7b094"/>
          <path id="Path_9939" data-name="Path 9939" d="M445.438,336.85c-.073.712-.126,1.337-.166,1.963" transform="translate(-444.967 -333.402)" fill="none" stroke="#e99c82" stroke-miterlimit="10" stroke-width="0.283" opacity="0.58"/>
          <path id="Path_9940" data-name="Path 9940" d="M446.983,331.964c-.4.569-.9,1.066-1.3,1.632a3.115,3.115,0,0,0-.681,1.931" transform="translate(-444.887 -331.964)" fill="none" stroke="#e99c82" stroke-miterlimit="10" stroke-width="0.283" opacity="0.58"/>
          <path id="Path_9941" data-name="Path 9941" d="M449.081,344.556c-.378.179-.9.251-1.053-.255a1,1,0,0,1,.365-1.058,1.187,1.187,0,0,1,1.133-.134" transform="translate(-445.768 -335.219)" fill="#f7b094"/>
          <path id="Path_9942" data-name="Path 9942" d="M449.579,342.715a2.087,2.087,0,0,1-1.025-.714.723.723,0,0,1,.34-.952,1.79,1.79,0,0,1,1.341-.136" transform="translate(-445.911 -334.577)" fill="#f7b094"/>
          <path id="Path_9943" data-name="Path 9943" d="M450.645,338.908c-.248-.207-.7-.577-.766-.95a1.4,1.4,0,0,1,.068-.68c.247-.487.4-.612.934-.579a1.316,1.316,0,0,1,.554.179.3.3,0,0,1,.055.179,5.684,5.684,0,0,1-.186,1.664,8.965,8.965,0,0,1-1.647,3.871c-.076.091-.2.186-.3.119" transform="translate(-446.17 -333.356)" fill="#f7b094"/>
          <path id="Path_9944" data-name="Path 9944" d="M450.052,340.92a2.087,2.087,0,0,1-1.026-.714.723.723,0,0,1,.341-.952,1.788,1.788,0,0,1,1.34-.137" transform="translate(-446.05 -334.049)" fill="#f7b094"/>
          <path id="Path_9945" data-name="Path 9945" d="M451.039,336.978a2.768,2.768,0,0,0-1.559.275,1.1,1.1,0,0,0-.494.424.5.5,0,0,0,.071.608c.189.159.405.177.931.133a1.708,1.708,0,0,0-1.3.565.514.514,0,0,0-.109.474.529.529,0,0,0,.532.246c.208-.008.207.032.62.02a1.86,1.86,0,0,0-1.015.269.746.746,0,0,0-.409.564.622.622,0,0,0,.4.546,1.425,1.425,0,0,0,.627.052,1.073,1.073,0,0,0-.994,1.116.525.525,0,0,0,.167.446.475.475,0,0,0,.629.072c.287-.152.3-.234.538-.574" transform="translate(-445.86 -333.434)" fill="none" stroke="#e99c82" stroke-miterlimit="10" stroke-width="0.283" opacity="0.58"/>
        </g>
      </g>
    </g>
  </g>
</svg>
