<svg xmlns="http://www.w3.org/2000/svg" width="11.251" height="11.249" viewBox="0 0 11.251 11.249">
  <g id="pass" transform="translate(0 -0.05)">
    <g id="Group_1" data-name="Group 1" transform="translate(0 0.05)">
      <path id="Path_1" data-name="Path 1" d="M116.617,6.058A3,3,0,1,0,113.6,3.041,3,3,0,0,0,116.617,6.058Zm0-5.074A2.08,2.08,0,0,1,118.7,3.044a2.082,2.082,0,0,1-4.164,0A2.078,2.078,0,0,1,116.617.984Z" transform="translate(-110.992 -0.05)" fill="#fff"/>
      <path id="Path_2" data-name="Path 2" d="M7.659,273.481a.483.483,0,0,0-.5.145l-1.531,1.747-1.531-1.747a.5.5,0,0,0-.5-.145A4.861,4.861,0,0,0,0,277.955a.481.481,0,0,0,.48.48H10.772a.481.481,0,0,0,.48-.48A4.866,4.866,0,0,0,7.659,273.481ZM.98,277.5a3.923,3.923,0,0,1,2.633-3.014L5.289,276.4a.452.452,0,0,0,.693,0l1.676-1.915a4,4,0,0,1,2.633,3.014Z" transform="translate(0 -267.186)" fill="#fff"/>
    </g>
  </g>
</svg>
